<svg width="24" height="24" viewBox="0 0 24 24" fill="none" xmlns="http://www.w3.org/2000/svg">
<path d="M10.4598 17.9992C10.9331 17.9998 11.3922 17.8373 11.7598 17.5392L16.8598 13.3292C17.0598 13.17 17.2213 12.9677 17.3323 12.7375C17.4433 12.5072 17.501 12.2548 17.501 11.9992C17.501 11.7436 17.4433 11.4912 17.3323 11.261C17.2213 11.0307 17.0598 10.8284 16.8598 10.6692L11.7598 6.45921C11.4528 6.21321 11.0828 6.0584 10.6921 6.01243C10.3013 5.96646 9.90554 6.03118 9.5498 6.19921C9.24062 6.33549 8.97721 6.55789 8.79102 6.83983C8.60483 7.12178 8.50373 7.45136 8.4998 7.78921V16.2092C8.50373 16.5471 8.60483 16.8767 8.79102 17.1586C8.97721 17.4405 9.24062 17.6629 9.5498 17.7992C9.83537 17.9301 10.1457 17.9983 10.4598 17.9992Z" fill="white"/>
</svg>
