<svg width="24" height="24" viewBox="0 0 24 24" fill="none" xmlns="http://www.w3.org/2000/svg">
<path d="M13.5402 17.9992C13.0669 17.9998 12.6078 17.8373 12.2402 17.5392L7.1402 13.3292C6.94021 13.17 6.7787 12.9677 6.66769 12.7375C6.55667 12.5072 6.49902 12.2548 6.49902 11.9992C6.49902 11.7436 6.55667 11.4912 6.66769 11.261C6.7787 11.0307 6.94021 10.8284 7.1402 10.6692L12.2402 6.45921C12.5472 6.21321 12.9172 6.0584 13.3079 6.01243C13.6987 5.96646 14.0945 6.03118 14.4502 6.19921C14.7594 6.33549 15.0228 6.55789 15.209 6.83983C15.3952 7.12178 15.4963 7.45136 15.5002 7.78921V16.2092C15.4963 16.5471 15.3952 16.8767 15.209 17.1586C15.0228 17.4405 14.7594 17.6629 14.4502 17.7992C14.1646 17.9301 13.8543 17.9983 13.5402 17.9992Z" fill="white"/>
</svg>
