<svg width="135" height="45" viewBox="0 0 135 45" fill="none" xmlns="http://www.w3.org/2000/svg">
<path d="M0.046875 42.125V35.4077H1.63487L3.74554 40.9917L5.81887 35.4077H7.40687V42.125H6.44421V36.309H6.42554L4.20021 42.125H3.25354L1.02821 36.309H1.00954V42.125H0.046875Z" fill="#5a400f"/>
<path d="M12.8362 41.0107V41.9161C12.7442 41.9507 12.6456 41.9867 12.5416 42.0241C12.4362 42.0627 12.3256 42.0961 12.2082 42.1267C12.0909 42.1587 11.9549 42.1841 11.8042 42.2041C11.6536 42.2254 11.4802 42.2334 11.2856 42.2334C10.7216 42.2334 10.2482 42.1254 9.86557 41.9081C9.48423 41.6921 9.20157 41.3867 9.01623 40.9894C8.83223 40.5947 8.74023 40.1241 8.74023 39.5814C8.74023 39.2174 8.7949 38.8854 8.90557 38.5801C9.01357 38.2761 9.1709 38.0147 9.37357 37.7934C9.57757 37.5707 9.82023 37.3987 10.1056 37.2787C10.3882 37.1587 10.7016 37.1001 11.0429 37.1001C11.5656 37.1001 11.9882 37.2174 12.3096 37.4507C12.6322 37.6841 12.8629 38.0067 13.0029 38.4187C13.1416 38.8307 13.2122 39.3134 13.2122 39.8681H9.7029C9.7029 40.1787 9.77623 40.4601 9.92557 40.7107C10.0749 40.9614 10.2736 41.1561 10.5216 41.2947C10.7709 41.4334 11.0376 41.5014 11.3229 41.5014C11.5936 41.5014 11.8802 41.4467 12.1842 41.3374C12.4896 41.2281 12.7069 41.1187 12.8362 41.0107ZM9.7029 39.1947H12.2509C12.2509 38.9441 12.2002 38.7147 12.1029 38.5067C12.0056 38.2961 11.8656 38.1334 11.6802 38.0134C11.4962 37.8921 11.2762 37.8334 11.0256 37.8334C10.7456 37.8334 10.5109 37.8987 10.3216 38.0307C10.1309 38.1641 9.9869 38.3334 9.88957 38.5361C9.7909 38.7427 9.72957 38.9627 9.7029 39.1947Z" fill="#5a400f"/>
<path d="M14.5625 34.9043H15.4652V42.1256H14.5625V34.9043Z" fill="#5a400f"/>
<path d="M17.4315 38.333L17.3848 37.561C17.9035 37.253 18.4422 37.0997 19.0022 37.0997C19.6915 37.0997 20.1942 37.2664 20.5075 37.6024C20.8208 37.9357 20.9782 38.445 20.9782 39.1304V41.161C20.9782 41.6117 20.9902 41.933 21.0155 42.1237H20.1715V41.4824H20.1528C20.0115 41.6797 19.8142 41.853 19.5635 42.0064C19.3115 42.1597 18.9995 42.2344 18.6288 42.2344C18.0742 42.2344 17.6355 42.1077 17.3128 41.8557C16.9888 41.6024 16.8262 41.2197 16.8262 40.709C16.8262 40.4157 16.8968 40.165 17.0382 39.9557C17.1808 39.7464 17.3675 39.5784 17.5982 39.4517C17.8302 39.3264 18.0768 39.2357 18.3355 39.1784C18.5968 39.1237 18.8542 39.0957 19.1115 39.0957C19.5155 39.0957 19.8355 39.1024 20.0755 39.1144C20.0755 38.6757 19.9835 38.3544 19.7995 38.145C19.6155 37.9357 19.3035 37.833 18.8608 37.833C18.6035 37.833 18.3462 37.877 18.0888 37.9677C17.8302 38.057 17.6128 38.1784 17.4315 38.333ZM20.0755 40.217V39.7864C20.0102 39.7864 19.9155 39.7837 19.7848 39.7757C19.6555 39.7704 19.5608 39.7677 19.4955 39.7677C19.0822 39.7677 18.6955 39.829 18.3328 39.9557C17.9702 40.0824 17.7902 40.333 17.7902 40.7064C17.7902 40.9464 17.8848 41.1384 18.0768 41.2837C18.2662 41.429 18.4782 41.501 18.7048 41.501C18.9955 41.501 19.2435 41.4464 19.4515 41.3344C19.6582 41.2237 19.8142 41.0704 19.9182 40.8757C20.0222 40.681 20.0755 40.461 20.0755 40.217Z" fill="#5a400f"/>
<path d="M22.115 44.1895L22.1723 43.4495C22.3243 43.5015 22.4656 43.5268 22.5976 43.5268C22.839 43.5268 23.039 43.4428 23.2016 43.2735C23.3603 43.1015 23.4803 42.9175 23.5576 42.7148C23.635 42.5121 23.6736 42.3775 23.6736 42.3135C23.6736 42.2815 23.6656 42.2388 23.6496 42.1881C23.6323 42.1388 23.6096 42.0761 23.5803 41.9988C23.5496 41.9228 23.5256 41.8535 23.503 41.7935L21.835 37.2108H22.8283L24.1456 41.2828H24.1656L25.5136 37.2108H26.4283L24.619 42.2268C24.4536 42.6855 24.3083 43.0428 24.1816 43.3001C24.0563 43.5575 23.8763 43.7828 23.639 43.9721C23.403 44.1628 23.099 44.2588 22.731 44.2588C22.563 44.2588 22.3576 44.2361 22.115 44.1895Z" fill="#5a400f"/>
<path d="M27.6538 38.333L27.6071 37.561C28.1245 37.253 28.6645 37.0997 29.2245 37.0997C29.9151 37.0997 30.4151 37.2664 30.7285 37.6024C31.0418 37.9357 31.2005 38.445 31.2005 39.1304V41.161C31.2005 41.6117 31.2125 41.933 31.2378 42.1237H30.3925V41.4824H30.3751C30.2338 41.6797 30.0365 41.853 29.7858 42.0064C29.5338 42.1597 29.2218 42.2344 28.8511 42.2344C28.2965 42.2344 27.8578 42.1077 27.5338 41.8557C27.2098 41.6024 27.0498 41.2197 27.0498 40.709C27.0498 40.4157 27.1191 40.165 27.2605 39.9557C27.4031 39.7464 27.5898 39.5784 27.8218 39.4517C28.0525 39.3264 28.2991 39.2357 28.5591 39.1784C28.8191 39.1237 29.0778 39.0957 29.3338 39.0957C29.7365 39.0957 30.0591 39.1024 30.2978 39.1144C30.2978 38.6757 30.2058 38.3544 30.0218 38.145C29.8391 37.9357 29.5258 37.833 29.0831 37.833C28.8245 37.833 28.5685 37.877 28.3098 37.9677C28.0525 38.057 27.8351 38.1784 27.6538 38.333ZM30.2978 40.217V39.7864C30.2325 39.7864 30.1365 39.7837 30.0071 39.7757C29.8791 39.7704 29.7831 39.7677 29.7191 39.7677C29.3045 39.7677 28.9178 39.829 28.5551 39.9557C28.1925 40.0824 28.0125 40.333 28.0125 40.7064C28.0125 40.9464 28.1058 41.1384 28.2991 41.2837C28.4898 41.429 28.6991 41.501 28.9271 41.501C29.2178 41.501 29.4658 41.4464 29.6738 41.3344C29.8791 41.2237 30.0365 41.0704 30.1418 40.8757C30.2458 40.681 30.2978 40.461 30.2978 40.217Z" fill="#5a400f"/>
<path d="M32.7607 42.124V37.2107H33.6341V37.996H33.6527C33.7847 37.7214 33.9981 37.504 34.2954 37.3414C34.5914 37.18 34.9141 37.1 35.2621 37.1C35.8821 37.1 36.3447 37.2814 36.6474 37.6454C36.9501 38.0094 37.1021 38.5307 37.1021 39.2067V42.124H36.1994V39.584C36.1994 38.992 36.1221 38.56 35.9674 38.2827C35.8127 38.0054 35.5421 37.856 35.1554 37.832C34.6581 37.832 34.2847 38.012 34.0354 38.3734C33.7874 38.7347 33.6634 39.2294 33.6634 39.852V42.124H32.7607Z" fill="#5a400f"/>
<path d="M39.7415 36.1175H38.7295V35.1055H39.7415V36.1175ZM38.7882 37.2108H39.6841V42.1241H38.7882V37.2108Z" fill="#5a400f"/>
<path d="M44.1113 42.124V35.4067H46.0913C46.5887 35.4067 47.0553 35.4787 47.49 35.6294C47.9233 35.7787 48.3047 35.996 48.6313 36.2827C48.958 36.5694 49.2127 36.9187 49.394 37.328C49.5753 37.7374 49.666 38.1974 49.666 38.7054C49.666 39.264 49.5847 39.756 49.4207 40.184C49.2593 40.6094 49.0233 40.9667 48.714 41.256C48.4033 41.544 48.0287 41.7627 47.5873 41.9054C47.1473 42.0507 46.6487 42.124 46.0913 42.124H44.1113ZM45.074 36.248V41.2827H46.0833C47.798 41.2827 48.654 40.4347 48.654 38.744C48.654 38.2347 48.546 37.7907 48.334 37.4134C48.1207 37.036 47.8273 36.748 47.454 36.5467C47.082 36.3467 46.6633 36.248 46.1993 36.248H45.074Z" fill="#5a400f"/>
<path d="M54.8249 41.0107V41.9161C54.7315 41.9507 54.6342 41.9867 54.5289 42.0241C54.4249 42.0627 54.3142 42.0961 54.1969 42.1267C54.0782 42.1587 53.9449 42.1841 53.7942 42.2041C53.6422 42.2254 53.4689 42.2334 53.2742 42.2334C52.7102 42.2334 52.2355 42.1254 51.8542 41.9081C51.4729 41.6921 51.1889 41.3867 51.0049 40.9894C50.8209 40.5947 50.7275 40.1241 50.7275 39.5814C50.7275 39.2174 50.7835 38.8854 50.8929 38.5801C51.0022 38.2761 51.1595 38.0147 51.3622 37.7934C51.5662 37.5707 51.8089 37.3987 52.0929 37.2787C52.3782 37.1587 52.6889 37.1001 53.0315 37.1001C53.5542 37.1001 53.9755 37.2174 54.2982 37.4507C54.6195 37.6841 54.8515 38.0067 54.9902 38.4187C55.1302 38.8307 55.2009 39.3134 55.2009 39.8681H51.6915C51.6915 40.1787 51.7649 40.4601 51.9142 40.7107C52.0635 40.9614 52.2622 41.1561 52.5102 41.2947C52.7582 41.4334 53.0249 41.5014 53.3102 41.5014C53.5809 41.5014 53.8675 41.4467 54.1715 41.3374C54.4769 41.2281 54.6942 41.1187 54.8249 41.0107ZM51.6915 39.1947H54.2395C54.2395 38.9441 54.1902 38.7147 54.0915 38.5067C53.9942 38.2961 53.8515 38.1334 53.6702 38.0134C53.4849 37.8921 53.2662 37.8334 53.0129 37.8334C52.7342 37.8334 52.5009 37.8987 52.3089 38.0307C52.1182 38.1641 51.9742 38.3334 51.8769 38.5361C51.7809 38.7427 51.7182 38.9627 51.6915 39.1947Z" fill="#5a400f"/>
<path d="M56.4404 42.124V37.2107H57.3151V37.996H57.3324C57.4644 37.7214 57.6791 37.504 57.9751 37.3414C58.2711 37.18 58.5938 37.1 58.9431 37.1C59.5631 37.1 60.0258 37.2814 60.3271 37.6454C60.6311 38.0094 60.7818 38.5307 60.7818 39.2067V42.124H59.8804V39.584C59.8804 38.992 59.8031 38.56 59.6471 38.2827C59.4924 38.0054 59.2218 37.856 58.8364 37.832C58.3391 37.832 57.9644 38.012 57.7151 38.3734C57.4671 38.7347 57.3431 39.2294 57.3431 39.852V42.124H56.4404Z" fill="#5a400f"/>
<path d="M66.6906 37.2104V41.9104C66.6906 42.2891 66.6412 42.6224 66.5426 42.9118C66.4439 43.1984 66.2906 43.4438 66.0839 43.6451C65.8772 43.8464 65.6132 43.9998 65.2919 44.1038C64.9719 44.2078 64.5932 44.2598 64.1572 44.2598C63.8812 44.2598 63.6159 44.2371 63.3572 44.1891C63.1012 44.1424 62.7786 44.0531 62.3932 43.9238L62.4892 43.0851C62.8559 43.2504 63.1626 43.3638 63.4106 43.4291C63.6586 43.4958 63.9439 43.5278 64.2652 43.5278C64.7386 43.5278 65.1106 43.3784 65.3826 43.0798C65.6532 42.7798 65.7879 42.3678 65.7879 41.8424V41.3611H65.7692C65.5826 41.6091 65.3412 41.7971 65.0452 41.9278C64.7492 42.0598 64.4412 42.1238 64.1199 42.1238C63.6706 42.1238 63.2879 42.0131 62.9692 41.7944C62.6519 41.5731 62.4146 41.2798 62.2559 40.9104C62.0972 40.5411 62.0186 40.1398 62.0186 39.7078C62.0186 39.2678 62.1012 38.8491 62.2666 38.4504C62.4319 38.0518 62.6812 37.7264 63.0132 37.4771C63.3466 37.2251 63.7466 37.0998 64.2159 37.0998C65.0106 37.0998 65.5492 37.3824 65.8346 37.9464H65.8572V37.2104H66.6906ZM64.3519 41.3904C64.6279 41.3904 64.8759 41.3171 65.0919 41.1691C65.3119 41.0184 65.4812 40.8184 65.6052 40.5624C65.7266 40.3078 65.7879 40.0291 65.7879 39.7278C65.7879 39.3798 65.7346 39.0624 65.6279 38.7731C65.5199 38.4851 65.3572 38.2558 65.1399 38.0864C64.9239 37.9158 64.6612 37.8331 64.3519 37.8331C63.9239 37.8331 63.5906 38.0198 63.3466 38.3944C63.1026 38.7691 62.9799 39.1918 62.9799 39.6584C62.9799 39.9704 63.0372 40.2584 63.1479 40.5211C63.2599 40.7864 63.4186 40.9958 63.6279 41.1531C63.8372 41.3131 64.0786 41.3904 64.3519 41.3904Z" fill="#5a400f"/>
<path d="M68.5321 38.333L68.4854 37.561C69.0028 37.253 69.5414 37.0997 70.1028 37.0997C70.7921 37.0997 71.2934 37.2664 71.6068 37.6024C71.9201 37.9357 72.0788 38.445 72.0788 39.1304V41.161C72.0788 41.6117 72.0908 41.933 72.1161 42.1237H71.2708V41.4824H71.2521C71.1121 41.6797 70.9148 41.853 70.6641 42.0064C70.4108 42.1597 70.1001 42.2344 69.7281 42.2344C69.1734 42.2344 68.7361 42.1077 68.4134 41.8557C68.0894 41.6024 67.9268 41.2197 67.9268 40.709C67.9268 40.4157 67.9974 40.165 68.1388 39.9557C68.2814 39.7464 68.4681 39.5784 68.7001 39.4517C68.9308 39.3264 69.1761 39.2357 69.4361 39.1784C69.6974 39.1237 69.9548 39.0957 70.2108 39.0957C70.6161 39.0957 70.9374 39.1024 71.1761 39.1144C71.1761 38.6757 71.0828 38.3544 70.9001 38.145C70.7161 37.9357 70.4028 37.833 69.9601 37.833C69.7028 37.833 69.4454 37.877 69.1894 37.9677C68.9308 38.057 68.7121 38.1784 68.5321 38.333ZM71.1761 40.217V39.7864C71.1108 39.7864 71.0148 39.7837 70.8854 39.7757C70.7561 39.7704 70.6601 39.7677 70.5961 39.7677C70.1841 39.7677 69.7961 39.829 69.4334 39.9557C69.0708 40.0824 68.8894 40.333 68.8894 40.7064C68.8894 40.9464 68.9841 41.1384 69.1761 41.2837C69.3668 41.429 69.5774 41.501 69.8041 41.501C70.0948 41.501 70.3441 41.4464 70.5508 41.3344C70.7574 41.2237 70.9148 41.0704 71.0188 40.8757C71.1228 40.681 71.1761 40.461 71.1761 40.217Z" fill="#5a400f"/>
<path d="M73.6377 42.124V37.2107H74.5124V37.996H74.5324C74.663 37.7214 74.8777 37.504 75.1737 37.3414C75.4697 37.18 75.7937 37.1 76.1417 37.1C76.7617 37.1 77.2244 37.2814 77.527 37.6454C77.8297 38.0094 77.9804 38.5307 77.9804 39.2067V42.124H77.0777V39.584C77.0777 38.992 77.0004 38.56 76.8457 38.2827C76.691 38.0054 76.4204 37.856 76.035 37.832C75.5377 37.832 75.163 38.012 74.915 38.3734C74.6657 38.7347 74.5417 39.2294 74.5417 39.852V42.124H73.6377Z" fill="#5a400f"/>
<path d="M85.517 35.5227L85.385 36.4081C85.1144 36.3014 84.897 36.2267 84.7304 36.1867C84.5664 36.1467 84.3637 36.1267 84.125 36.1267C83.8024 36.1267 83.5277 36.1961 83.2984 36.3361C83.069 36.4734 82.9544 36.7027 82.9544 37.0227C82.9544 37.3014 83.0464 37.5067 83.229 37.6321C83.413 37.7614 83.7637 37.9574 84.285 38.2227C84.8064 38.4881 85.1944 38.7627 85.449 39.0521C85.705 39.3387 85.833 39.7321 85.833 40.2321C85.833 40.9081 85.6064 41.4107 85.1557 41.7401C84.7024 42.0694 84.1144 42.2334 83.389 42.2334C83.0384 42.2334 82.5837 42.1401 82.0197 41.9547L82.1144 41.0641C82.6397 41.2841 83.1024 41.3907 83.505 41.3907C83.7077 41.3907 83.909 41.3521 84.1117 41.2721C84.313 41.1961 84.4824 41.0747 84.617 40.9081C84.7517 40.7454 84.8197 40.5401 84.8197 40.2934C84.8197 39.9627 84.709 39.7134 84.4877 39.5454C84.265 39.3787 83.909 39.1747 83.4224 38.9401C82.9344 38.7054 82.565 38.4601 82.3157 38.2027C82.0664 37.9467 81.9424 37.5827 81.9424 37.1147C81.9424 36.7294 82.0344 36.3987 82.221 36.1227C82.4064 35.8467 82.6624 35.6374 82.9904 35.4961C83.317 35.3547 83.6837 35.2867 84.089 35.2867C84.5877 35.2867 85.0637 35.3654 85.517 35.5227Z" fill="#5a400f"/>
<path d="M90.862 41.0107V41.9161C90.7686 41.9507 90.67 41.9867 90.566 42.0241C90.462 42.0627 90.3513 42.0961 90.2326 42.1267C90.114 42.1587 89.9806 42.1841 89.8286 42.2041C89.678 42.2254 89.5046 42.2334 89.31 42.2334C88.746 42.2334 88.2726 42.1254 87.8913 41.9081C87.5086 41.6921 87.226 41.3867 87.0406 40.9894C86.858 40.5947 86.7646 40.1241 86.7646 39.5814C86.7646 39.2174 86.8193 38.8854 86.93 38.5801C87.0393 38.2761 87.1953 38.0147 87.398 37.7934C87.602 37.5707 87.846 37.3987 88.1286 37.2787C88.414 37.1587 88.726 37.1001 89.0686 37.1001C89.59 37.1001 90.0126 37.2174 90.334 37.4507C90.658 37.6841 90.8873 38.0067 91.0273 38.4187C91.1673 38.8307 91.2366 39.3134 91.2366 39.8681H87.7273C87.7273 40.1787 87.8006 40.4601 87.9513 40.7107C88.1006 40.9614 88.298 41.1561 88.5473 41.2947C88.7953 41.4334 89.0606 41.5014 89.3473 41.5014C89.6166 41.5014 89.9046 41.4467 90.2086 41.3374C90.514 41.2281 90.73 41.1187 90.862 41.0107ZM87.7273 39.1947H90.2753C90.2753 38.9441 90.2246 38.7147 90.1286 38.5067C90.0313 38.2961 89.89 38.1334 89.706 38.0134C89.5206 37.8921 89.302 37.8334 89.05 37.8334C88.7713 37.8334 88.5366 37.8987 88.3446 38.0307C88.1553 38.1641 88.0113 38.3334 87.9126 38.5361C87.8166 38.7427 87.754 38.9627 87.7273 39.1947Z" fill="#5a400f"/>
<path d="M95.0775 37.2107V37.9427H93.7789V40.6254C93.7789 40.8987 93.8522 41.1134 93.9962 41.2694C94.1402 41.4241 94.3215 41.5014 94.5389 41.5014C94.7695 41.5014 94.9762 41.4441 95.1535 41.3281V42.1014C94.8349 42.1894 94.5775 42.2334 94.3855 42.2334C93.9055 42.2334 93.5335 42.1161 93.2722 41.8787C93.0082 41.6441 92.8762 41.2867 92.8762 40.8107V37.9427H91.7695V37.2107H92.8762V36.0747L93.7789 35.7854V37.2107H95.0775Z" fill="#5a400f"/>
<path d="M100.59 37.2107V42.1241H99.7151V41.3374H99.6964C99.6071 41.5227 99.4804 41.6827 99.3137 41.8174C99.1497 41.9521 98.9604 42.0561 98.7484 42.1267C98.5337 42.1974 98.3151 42.2334 98.0884 42.2334C97.6724 42.2334 97.3271 42.1507 97.0537 41.9841C96.7804 41.8187 96.5777 41.5787 96.4457 41.2627C96.3137 40.9494 96.2471 40.5707 96.2471 40.1267V37.2107H97.1497V39.7494C97.1497 40.1414 97.1831 40.4614 97.2471 40.7121C97.3137 40.9627 97.4217 41.1534 97.5737 41.2841C97.7244 41.4134 97.9311 41.4867 98.1911 41.5014C98.6924 41.5014 99.0644 41.3201 99.3137 40.9601C99.5617 40.5987 99.6884 40.1054 99.6884 39.4814V37.2107H100.59Z" fill="#5a400f"/>
<path d="M102.267 34.9043H103.169V42.1256H102.267V34.9043Z" fill="#5a400f"/>
<path d="M109.205 37.2098V42.1231H108.33V41.3364H108.311C108.222 41.5218 108.094 41.6818 107.93 41.8164C107.763 41.9511 107.575 42.0551 107.362 42.1258C107.15 42.1964 106.93 42.2324 106.702 42.2324C106.287 42.2324 105.942 42.1498 105.67 41.9831C105.394 41.8178 105.193 41.5778 105.061 41.2618C104.929 40.9484 104.863 40.5698 104.863 40.1258V37.2098H105.766V39.7484C105.766 40.1404 105.797 40.4604 105.863 40.7111C105.927 40.9618 106.037 41.1524 106.187 41.2831C106.339 41.4124 106.546 41.4858 106.806 41.5004C107.305 41.5004 107.679 41.3191 107.93 40.9591C108.178 40.5978 108.302 40.1044 108.302 39.4804V37.2098H109.205Z" fill="#5a400f"/>
<path d="M110.358 41.9627L110.407 41.1534C110.574 41.2601 110.766 41.3441 110.983 41.4067C111.201 41.4707 111.385 41.5014 111.534 41.5014C111.777 41.5014 111.99 41.4454 112.178 41.3307C112.363 41.2174 112.457 41.0414 112.457 40.8001C112.457 40.6041 112.378 40.4521 112.222 40.3414C112.066 40.2334 111.806 40.0867 111.437 39.9041C111.069 39.7201 110.793 39.5361 110.607 39.3481C110.423 39.1627 110.33 38.9147 110.33 38.6081C110.33 38.2827 110.405 38.0041 110.557 37.7774C110.707 37.5521 110.913 37.3814 111.174 37.2681C111.435 37.1561 111.731 37.1001 112.061 37.1001C112.379 37.1001 112.755 37.1627 113.189 37.2934L113.111 38.0814C113.018 38.0241 112.867 37.9681 112.657 37.9134C112.445 37.8574 112.278 37.8321 112.158 37.8321C111.91 37.8321 111.705 37.8827 111.539 37.9854C111.375 38.0881 111.294 38.2361 111.294 38.4267C111.294 38.6454 111.369 38.8054 111.519 38.9107C111.671 39.0174 111.931 39.1587 112.302 39.3294C112.671 39.5027 112.951 39.6867 113.139 39.8827C113.326 40.0774 113.419 40.3547 113.419 40.7054C113.419 41.0401 113.339 41.3241 113.181 41.5507C113.022 41.7814 112.811 41.9521 112.549 42.0654C112.287 42.1774 112.006 42.2334 111.707 42.2334C111.142 42.2334 110.694 42.1441 110.358 41.9627Z" fill="#5a400f"/>
<path d="M117.381 42.125V35.4077H118.344V38.2157H121.562V35.4077H122.525V42.125H121.562V39.0557H118.344V42.125H117.381Z" fill="#5a400f"/>
<path d="M124.504 38.333L124.456 37.561C124.975 37.253 125.512 37.0997 126.073 37.0997C126.764 37.0997 127.267 37.2664 127.577 37.6024C127.892 37.9357 128.049 38.445 128.049 39.1304V41.161C128.049 41.6117 128.061 41.933 128.087 42.1237H127.243V41.4824H127.224C127.083 41.6797 126.887 41.853 126.635 42.0064C126.383 42.1597 126.072 42.2344 125.7 42.2344C125.145 42.2344 124.707 42.1077 124.383 41.8557C124.06 41.6024 123.897 41.2197 123.897 40.709C123.897 40.4157 123.968 40.165 124.109 39.9557C124.253 39.7464 124.44 39.5784 124.671 39.4517C124.901 39.3264 125.148 39.2357 125.407 39.1784C125.669 39.1237 125.927 39.0957 126.183 39.0957C126.587 39.0957 126.908 39.1024 127.148 39.1144C127.148 38.6757 127.055 38.3544 126.871 38.145C126.688 37.9357 126.375 37.833 125.932 37.833C125.675 37.833 125.417 37.877 125.16 37.9677C124.903 38.057 124.685 38.1784 124.504 38.333ZM127.148 40.217V39.7864C127.083 39.7864 126.987 39.7837 126.857 39.7757C126.728 39.7704 126.632 39.7677 126.567 39.7677C126.155 39.7677 125.767 39.829 125.404 39.9557C125.041 40.0824 124.86 40.333 124.86 40.7064C124.86 40.9464 124.956 41.1384 125.148 41.2837C125.339 41.429 125.549 41.501 125.776 41.501C126.065 41.501 126.316 41.4464 126.523 41.3344C126.729 41.2237 126.885 41.0704 126.991 40.8757C127.095 40.681 127.148 40.461 127.148 40.217Z" fill="#5a400f"/>
<path d="M132.213 37.2107V37.9427H130.913V40.6254C130.913 40.8987 130.986 41.1134 131.13 41.2694C131.274 41.4241 131.455 41.5014 131.673 41.5014C131.905 41.5014 132.109 41.4441 132.287 41.3281V42.1014C131.969 42.1894 131.713 42.2334 131.519 42.2334C131.041 42.2334 130.669 42.1161 130.406 41.8787C130.142 41.6441 130.011 41.2867 130.011 40.8107V37.9427H128.903V37.2107H130.011V36.0747L130.913 35.7854V37.2107H132.213Z" fill="#5a400f"/>
<path d="M134.454 36.1175H133.442V35.1055H134.454V36.1175ZM133.501 37.2108H134.397V42.1241H133.501V37.2108Z" fill="#5a400f"/>
<path d="M36.3643 7.94145H43.6069C46.5403 7.94145 48.7269 9.22679 48.7269 11.9348C48.7269 13.9201 47.7123 15.0255 45.9523 15.6121V15.6575C48.0509 16.0868 49.1336 17.2148 49.1336 19.1321C49.1336 22.9001 45.8163 23.6895 42.9963 23.6895H36.3643V7.94145ZM40.5603 14.1695H41.7336C43.1096 14.1695 44.5323 13.8308 44.5323 12.4988C44.5323 11.0561 43.1776 10.9201 41.7776 10.9201H40.5603V14.1695ZM40.5603 20.7121H41.8016C43.3363 20.7121 44.9376 20.4855 44.9376 18.8841C44.9376 17.1695 43.2909 17.0121 41.8456 17.0121H40.5603V20.7121Z" fill="#5a400f"/>
<path d="M54.6418 7.94145H59.7858L65.8551 23.6895H61.2524L60.0791 20.3281H54.1684L52.9271 23.6895H48.6631L54.6418 7.94145ZM57.2138 11.1908H57.1684L55.1378 17.3508H59.0871L57.2138 11.1908Z" fill="#5a400f"/>
<path d="M66.4395 7.94145H71.7861L77.1115 18.6361H77.1555L77.0888 7.94145H80.9248V23.6895H75.7115L70.2075 12.9268H70.1635L70.2968 23.6895H66.4395V7.94145Z" fill="#5a400f"/>
<path d="M82.3486 7.94145H86.5446V14.3721H86.59L91.3273 7.94145H96.3806L90.5606 15.2735L96.8326 23.6895H91.4846L86.59 16.5375H86.5446V23.6895H82.3486V7.94145Z" fill="#5a400f"/>
<path d="M102.036 7.94145H109.279C112.211 7.94145 114.4 9.22679 114.4 11.9348C114.4 13.9201 113.385 15.0255 111.625 15.6121V15.6575C113.724 16.0868 114.805 17.2148 114.805 19.1321C114.805 22.9001 111.489 23.6895 108.669 23.6895H102.036V7.94145ZM106.232 14.1695H107.405C108.783 14.1695 110.203 13.8308 110.203 12.4988C110.203 11.0561 108.851 10.9201 107.451 10.9201H106.232V14.1695ZM106.232 20.7121H107.473C109.007 20.7121 110.609 20.4855 110.609 18.8841C110.609 17.1695 108.963 17.0121 107.519 17.0121H106.232V20.7121Z" fill="#5a400f"/>
<path d="M115.736 7.94145H123.227C126.024 7.94145 128.303 9.20545 128.303 11.9135C128.303 14.0108 127.311 15.4095 125.28 15.8828V15.9281C126.632 16.2895 126.723 17.4855 127.514 19.4028L129.047 23.6895H124.671L123.768 20.8481C122.911 18.1401 122.368 17.4615 120.812 17.4615H119.932V23.6895H115.736V7.94145ZM119.932 14.4841H121.038C122.392 14.4841 124.107 14.4388 124.107 12.6561C124.107 11.1908 122.64 10.9201 121.038 10.9201H119.932V14.4841Z" fill="#5a400f"/>
<path d="M130.204 7.94141H134.4V23.6894H130.204V7.94141Z" fill="#5a400f"/>
<path d="M26.7893 0.000268915H4.828C2.16133 0.000268915 0 2.21494 0 4.94694V4.99894V26.6963C0 29.4016 2.12133 31.6016 4.75333 31.6416H26.7773C29.444 31.6416 31.6067 29.4283 31.6067 26.6963L31.616 4.94694C31.616 2.21494 29.456 0.000268915 26.7893 0.000268915ZM7.43733 29.1069L6.24 29.1203C4.78933 29.1203 3.61333 27.9283 3.61333 26.4576L3.60667 26.2483V6.16293L3.61466 5.08027C3.66933 3.6576 4.75066 2.5136 6.16533 2.5136H8.60133C10.8093 2.5136 12.5987 4.4336 12.5987 6.69627C12.5987 7.81627 12.16 8.83227 11.4493 9.57093L5.23466 15.8776L11.06 21.8096C11.8107 22.5843 12.264 23.6003 12.264 24.7136C12.264 27.1403 10.104 29.1069 7.43733 29.1069ZM25.3453 29.0869L14.4853 29.0829C14.4853 29.0829 15.74 26.3696 15.74 24.6896C15.74 22.6403 15.056 20.8109 13.984 19.6003L10.2693 15.8136L14.06 11.8963C15.1893 10.8363 15.9387 8.9536 15.9387 6.80827C15.9387 5.1096 15.4693 3.6056 14.7133 2.5136H17.344C19.552 2.5136 21.3427 4.4336 21.3427 6.69627C21.3427 7.81627 20.904 8.83227 20.1933 9.57093L14.0973 15.8123L26.7587 28.7229C26.3573 28.9749 25.852 29.0869 25.3453 29.0869ZM27.9973 25.0563L18.924 15.8083L23.2453 11.4163C24.124 10.3163 24.6827 8.66027 24.6827 6.80827C24.6827 5.09894 24.2067 3.55627 23.444 2.46427L25.3773 2.52294C26.828 2.52294 28.004 3.71494 28.004 5.1856L27.9973 25.0563Z" fill="#5a400f"/>
</svg>
