<?xml version="1.0" encoding="UTF-8"?>
<svg version="1.1" xmlns="http://www.w3.org/2000/svg" width="512" height="512">
<path d="M0 0 C0.99646423 -0.00538554 1.99292847 -0.01077108 3.01958859 -0.01631981 C6.33261505 -0.0305382 9.6452385 -0.0235107 12.95828247 -0.01637268 C15.34420084 -0.02207945 17.73011648 -0.02904489 20.11602783 -0.03717041 C25.90865747 -0.05322563 31.70116241 -0.05520922 37.49380957 -0.04995751 C42.20553106 -0.04590471 46.9172206 -0.04737249 51.62894058 -0.05270576 C52.30130915 -0.05345419 52.97367772 -0.05420261 53.66642109 -0.05497371 C55.03264498 -0.0565053 56.39886887 -0.05804365 57.76509275 -0.05958868 C70.55769937 -0.07329508 83.35024473 -0.06788924 96.14284994 -0.05640347 C107.8256482 -0.04647401 119.50828801 -0.05941003 131.19106184 -0.08333766 C143.21026472 -0.10776733 155.22939392 -0.11732699 167.24862111 -0.11068493 C173.98716346 -0.10720116 180.72558404 -0.10936881 187.46410751 -0.12693596 C193.80241294 -0.14243499 200.14041654 -0.13841631 206.47871017 -0.11963081 C208.79898522 -0.11595312 211.11928278 -0.11902933 213.43953705 -0.1295166 C232.09695042 -0.20737896 245.15312217 1.5145236 259.36502075 14.70018005 C269.74769336 25.67055111 272.07117954 37.76890751 272.00270081 52.41719055 C272.00688022 53.81970524 272.01236106 55.22221654 272.01902062 56.62472165 C272.0334144 60.45556408 272.02924964 64.28619025 272.0218538 68.11704421 C272.01710932 72.25757957 272.02964329 76.398069 272.03987122 80.53858948 C272.05703962 88.6412977 272.05790328 96.74392831 272.05265831 104.84664999 C272.04861166 111.43479883 272.05006605 118.02292479 272.05540657 124.61107254 C272.05615499 125.54987579 272.05690341 126.48867904 272.05767452 127.45593087 C272.05920604 129.36330676 272.06074439 131.27068264 272.06228948 133.17805852 C272.07600749 151.05243104 272.0705818 168.92675975 272.05910427 186.80113126 C272.04917303 203.13981119 272.06211193 219.47837785 272.08603846 235.81704031 C272.1104434 252.60941089 272.12003388 269.40172875 272.11338574 286.19411671 C272.10989657 295.61543072 272.1121056 305.03665765 272.12963676 314.45795822 C272.1443762 322.47819741 272.14497146 330.49828818 272.12756585 338.51852451 C272.11906773 342.60716158 272.11687704 346.69553372 272.13221741 350.7841568 C272.14611024 354.5335155 272.1412431 358.28238345 272.12197817 362.0317141 C272.11646922 364.01663911 272.13045127 366.00158941 272.14533228 367.98646629 C272.02587518 382.61788501 267.19667846 393.47345818 257.30252075 404.13768005 C247.63604798 413.28630607 236.31818538 416.86160315 223.2300415 416.77536011 C222.23357727 416.78074565 221.23711303 416.78613118 220.21045291 416.79167992 C216.89742645 416.80589831 213.584803 416.79887081 210.27175903 416.79173279 C207.88584067 416.79743955 205.49992503 416.804405 203.11401367 416.81253052 C197.32138403 416.82858574 191.5288791 416.83056933 185.73623194 416.82531761 C181.02451044 416.82126482 176.31282091 416.82273259 171.60110092 416.82806587 C170.92873235 416.82881429 170.25636378 416.82956272 169.56362041 416.83033382 C168.19739652 416.83186541 166.83117264 416.83340375 165.46494876 416.83494879 C152.67234213 416.84865519 139.87979678 416.84324935 127.08719157 416.83176357 C115.40439331 416.82183412 103.72175349 416.83477013 92.03897966 416.85869776 C80.01977679 416.88312744 68.00064759 416.89268709 55.9814204 416.88604504 C49.24287805 416.88256126 42.50445746 416.88472892 35.76593399 416.90229607 C29.42762856 416.9177951 23.08962496 416.91377642 16.75133133 416.89499092 C14.43105628 416.89131323 12.11075872 416.89438944 9.79050446 416.90487671 C-8.86690892 416.98273907 -21.92308066 415.26083651 -36.13497925 402.07518005 C-46.51765186 391.104809 -48.84113803 379.0064526 -48.7726593 364.35816956 C-48.77683872 362.95565487 -48.78231955 361.55314357 -48.78897911 360.15063846 C-48.8033729 356.31979603 -48.79920813 352.48916986 -48.7918123 348.6583159 C-48.78706782 344.51778054 -48.79960178 340.3772911 -48.80982971 336.23677063 C-48.82699812 328.13406241 -48.82786178 320.0314318 -48.82261681 311.92871012 C-48.81857016 305.34056128 -48.82002454 298.75243532 -48.82536507 292.16428757 C-48.82611349 291.22548432 -48.82686191 290.28668107 -48.82763301 289.31942924 C-48.82916454 287.41205335 -48.83070289 285.50467747 -48.83224798 283.59730159 C-48.84596598 265.72292907 -48.84054029 247.84860036 -48.82906277 229.97422884 C-48.81913153 213.63554892 -48.83207042 197.29698226 -48.85599696 180.9583198 C-48.8804019 164.16594921 -48.88999237 147.37363135 -48.88334423 130.5812434 C-48.87985506 121.15992938 -48.88206409 111.73870246 -48.89959526 102.31740189 C-48.91433469 94.2971627 -48.91492996 86.27707193 -48.89752435 78.25683559 C-48.88902622 74.16819853 -48.88683553 70.07982639 -48.9021759 65.99120331 C-48.91606873 62.24184461 -48.9112016 58.49297665 -48.89193667 54.74364601 C-48.88642771 52.75872099 -48.90040977 50.7737707 -48.91529077 48.78889382 C-48.79583368 34.15747509 -43.96663696 23.30190193 -34.07247925 12.63768005 C-24.40600648 3.48905404 -13.08814388 -0.08624304 0 0 Z " fill="#ffffff" transform="translate(96.38497924804688,79.61231994628906)"/>
<path d="M0 0 C0.99419868 -0.0060911 1.98839736 -0.01218221 3.01272327 -0.01845789 C6.3241775 -0.03502687 9.63524463 -0.03032068 12.94673157 -0.0255127 C15.32925819 -0.03285666 17.71178126 -0.04144384 20.09429932 -0.05117798 C25.88305132 -0.07106825 31.67168503 -0.07677629 37.46046867 -0.07499009 C42.17029112 -0.07367908 46.88008246 -0.07750386 51.58989906 -0.08491516 C52.94999482 -0.08701452 54.31009058 -0.08911212 55.67018634 -0.09120798 C56.34729877 -0.09225151 57.0244112 -0.09329504 57.72204218 -0.09437019 C70.51183916 -0.11324883 83.30157872 -0.11223002 96.09138385 -0.10540086 C107.76645744 -0.09983035 119.44131125 -0.12063396 131.11633351 -0.15376133 C143.12873672 -0.18757904 155.1410349 -0.20265642 167.15348655 -0.1980443 C173.88767062 -0.19580733 180.62165174 -0.20092841 187.35579491 -0.22593689 C193.69331905 -0.24827186 200.03038759 -0.24626951 206.3679142 -0.22600937 C208.68573997 -0.22261103 211.00359681 -0.22763726 213.32138062 -0.24199295 C231.50893865 -0.34681268 245.3398706 1.25521029 258.89717102 14.49206543 C269.53752207 25.705967 272.05091661 37.04389606 272.02288818 52.04969788 C272.02734402 53.44819659 272.0326592 54.84669279 272.03875691 56.24518532 C272.05290622 60.07889594 272.05460078 63.91252538 272.05416 67.74625838 C272.05581095 71.8848364 272.06888276 76.02338124 272.08035278 80.16194153 C272.10318161 89.20763263 272.1111213 98.25330023 272.11617923 107.29901624 C272.11943908 112.951112 272.12596335 118.60320097 272.13318062 124.25529289 C272.15274474 139.91534105 272.16914973 155.5753829 272.17205715 171.23544407 C272.17224472 172.23716418 272.17243229 173.23888429 272.17262555 174.27095955 C272.17299179 176.301554 272.17335549 178.33214846 272.17371666 180.36274291 C272.17389947 181.37068545 272.17408228 182.378628 272.17427063 183.41711426 C272.17454145 184.93088151 272.17454145 184.93088151 272.17481775 186.47522991 C272.17835768 202.81923159 272.20536958 219.16310136 272.24276852 235.50705732 C272.28088977 252.30159788 272.30021491 269.09607307 272.30051666 285.89065784 C272.30110042 295.31434834 272.30953926 304.73788154 272.33851433 314.16153145 C272.36307945 322.18765379 272.37027665 330.21356147 272.3552668 338.23971129 C272.34811851 342.33066475 272.34886466 346.42119477 272.3716774 350.51210022 C272.3924096 354.26607866 272.38953636 358.01931197 272.36880255 361.77328359 C272.36370682 363.75589835 272.38297749 365.73853105 272.40346426 367.72104651 C272.2701837 382.10985725 267.62297648 393.32954209 257.65107727 403.54284668 C246.49558217 414.12777853 235.26094552 416.73146183 220.31123352 416.51940918 C219.10273743 416.51038574 217.89424133 416.5013623 216.64912415 416.49206543 C213.68212074 416.46861086 210.71553209 416.43578712 207.74873352 416.39440918 C207.74737699 415.75760965 207.74602046 415.12081012 207.74462283 414.46471363 C207.66386128 376.66948081 207.57286133 338.8742854 207.46868191 301.07910961 C207.45616399 296.53455147 207.44373107 291.98999309 207.43135071 287.44543457 C207.42888471 286.54074696 207.42641872 285.63605934 207.423878 284.70395695 C207.3842231 270.08170216 207.3514437 255.4594397 207.3212337 240.83716268 C207.29004974 225.81806287 207.25141099 210.79899538 207.20594347 195.77993196 C207.1781508 186.5226153 207.1560781 177.26532211 207.14147101 168.00797509 C207.13087706 161.64806206 207.11300057 155.28819463 207.08956648 148.92831606 C207.07628382 145.26654049 207.06604945 141.60482844 207.06451988 137.9430275 C207.04720759 107.30334835 205.51942444 78.98479357 183.20625305 55.82409668 C162.99120652 35.99506612 138.2632648 33.28436746 111.4355011 33.18908691 C109.70976029 33.17949033 107.98402173 33.16947926 106.25828552 33.15908813 C101.60414126 33.13222565 96.94998704 33.11111598 92.29580903 33.09108615 C87.42045453 33.06911049 82.54513003 33.04177884 77.6697998 33.01502991 C68.45140632 32.96525872 59.23299605 32.92026258 50.01456994 32.87700754 C39.5138902 32.82750146 29.01324059 32.77263322 18.51259005 32.71732795 C-3.07533402 32.6037472 -24.66328689 32.49685678 -46.25126648 32.39440918 C-45.18197849 30.16061746 -44.10256066 27.93272556 -43.01689148 25.70690918 C-42.71863464 25.08106934 -42.42037781 24.45522949 -42.11308289 23.8104248 C-36.54176912 12.45980156 -26.84619777 6.10950368 -15.20642376 1.83849335 C-10.08083841 0.15773223 -5.35969903 -0.03125576 0 0 Z " fill="#ffffff" transform="translate(192.2512664794922,15.6055908203125)"/>
</svg>
