<?xml version="1.0" encoding="UTF-8"?>
<!DOCTYPE svg PUBLIC "-//W3C//DTD SVG 1.1//EN" "http://www.w3.org/Graphics/SVG/1.1/DTD/svg11.dtd">
<!-- Creator: CorelDRAW -->
<svg xmlns="http://www.w3.org/2000/svg" xml:space="preserve" width="240mm" height="240mm" version="1.1" style="shape-rendering:geometricPrecision; text-rendering:geometricPrecision; image-rendering:optimizeQuality; fill-rule:evenodd; clip-rule:evenodd"
viewBox="0 0 6585.23 6585.23"
 xmlns:xlink="http://www.w3.org/1999/xlink">
 <defs>
  <style type="text/css">
   <![CDATA[
    .fil1 {fill:none}
    .fil0 {fill:#5a400f}
   ]]>
  </style>
 </defs>
 <g id="Layer_x0020_1">
  <metadata id="CorelCorpID_0Corel-Layer"/>
  <g id="_105553422170976">
   <path id="MDB.svg" class="fil0" d="M3456.21 5382.57l-19.26 14.86c-16.98,264.81 -59.75,640.47 -59.75,640.47l-170.61 0c0,0 -42.61,-377.78 -59.75,-640.47l-19.1 -12.73c0,0 -2289.07,-1701.49 -311.5,-4222.88 230.36,-273.13 428.72,-550.67 469.37,-608.31 4.24,-4.41 10.61,-4.41 14.86,0 40.49,57.63 238.85,335.17 469.37,608.31 1977.57,2521.39 -311.5,4222.88 -313.62,4220.76l0 0zm-34.12 -168.65l0 -4.24 -123.75 -2745.54c0,-8.49 -12.74,-8.49 -12.74,0l-123.75 2745.54 0 4.24c27.75,44.73 130.12,132.4 130.12,132.4 0,0 102.36,-87.67 130.12,-132.4z"/>
   <rect class="fil1" x="0" y="0" width="6585.23" height="6585.23"/>
   <rect class="fil1" x="549.15" y="550.2" width="5487.69" height="5487.69"/>
  </g>
 </g>
</svg>
