<svg width="1500" height="238" viewBox="0 0 1500 238" fill="none" xmlns="http://www.w3.org/2000/svg">
<path d="M861.573 223.047C881.202 191.123 910.816 176.597 918.341 184.536C923.356 189.824 918.317 197.241 914.62 198.984C913.707 199.429 913.834 200.869 914.791 201.167C935.367 207.627 936.524 185.801 933.648 180.644C937.291 183.559 941.929 186.767 947.159 184.892C950.474 183.72 953.326 180.795 956.573 179.477C959.366 178.325 963.516 177.294 965.65 180.156C967.281 182.324 968.018 184.775 968.97 187.241C969.409 188.33 970.752 187.88 971.148 187.075C977.349 173.945 967.847 155.532 949.464 159.931C953.184 146.049 942.223 129.873 926.837 135.039C926.187 135.259 925.558 136.06 926.041 136.743C941.588 159.702 882.052 163.955 860.25 220.83C860.084 221.264 861.022 223.94 861.573 223.047Z" fill="#D2A339"/>
<path d="M1040.12 210.483C1032.35 204.082 998.034 169.76 995.885 167.509C982.369 153.329 961.944 150.82 953.272 154.955C951.905 155.605 951.758 157.48 953.272 157.318C967.085 155.844 981.437 160.101 991.437 170.511C1000.94 180.404 1002.22 195.106 993.991 206.365C986.618 216.453 973.991 218.479 963.884 210.886C958.796 207.068 954.479 197.776 962.33 193.66C964.889 192.317 967.496 192.552 969.356 194.026C963.56 194.236 963.853 205.461 972.08 205.169C974.531 205.076 977.662 201.312 977.223 197.781C976.344 190.696 968.981 188.66 962.496 190.94C956.832 192.927 954.083 201.052 956.759 206.257C960.231 213.024 967.105 217.126 974.283 218.308C990.894 221.047 1004.4 200.398 1001.72 185.359C1001.11 181.931 1000.01 178.728 998.522 175.774C1006.24 182.493 1034.91 213.191 1043.79 218.46C1050.76 222.591 1062.26 227.376 1070.1 222.889C1077.01 218.934 1081.79 209.862 1078.77 201.917C1076.35 195.565 1067.47 191.375 1061.28 193.055C1055.96 194.501 1050.55 202.66 1055.4 209.745C1059.21 215.321 1067.84 213.138 1067.74 206.2C1067.68 201.4 1060.1 198.524 1058.41 206.508C1056.43 203.393 1057.7 200.429 1058.52 199.145C1060.81 196.103 1064.91 195.17 1068.4 196.586C1075.47 199.452 1078.57 207.567 1073.75 214.081C1064.74 226.26 1049.6 218.301 1040.12 210.483Z" fill="#D2A339"/>
<path d="M898.531 148.667C894.918 150.976 893.599 149.8 889.561 147.485C890.933 154.004 901.919 155.766 906.319 150.068C910.562 144.511 908.546 136.694 903.512 132.392C891.139 121.84 874.147 135.336 877.848 152.026C878.361 154.306 880.568 154.76 880.631 151.128C880.684 147.989 882.526 141.499 884.679 139.199C888.238 135.41 892.345 134.389 897.154 137.168C902.086 139.961 903.966 145.185 898.531 148.667Z" fill="#D2A339"/>
<path d="M596.489 132.393C591.455 136.695 589.438 144.512 593.686 150.069C598.08 155.767 609.067 154.005 610.439 147.486C606.401 149.801 605.082 150.977 601.469 148.668C596.03 145.186 597.914 139.962 602.846 137.169C607.656 134.39 611.762 135.411 615.322 139.2C617.475 141.5 619.311 147.989 619.37 151.129C619.433 154.762 621.641 154.308 622.153 152.027C625.854 135.337 608.862 121.841 596.489 132.393Z" fill="#D2A339"/>
<path d="M875.845 130.2C883.267 117.934 874.457 98.9892 858.412 99.4042C852.582 99.5502 852.417 108.422 858.701 109.106C869.384 110.268 875.561 124.189 874.673 129.306C873.936 130.62 875.366 130.991 875.845 130.2Z" fill="#D2A339"/>
<path d="M1035.7 217.134C1036.08 216.802 1036.48 215.283 1035.71 215.064C1025.27 210.782 1019.4 198.374 1010.71 191.739C1010.68 191.67 1010.47 191.378 1010.44 191.363C1009.98 190.42 1007.92 190.591 1008.22 191.876C1011.75 207.237 996.665 216.251 992.515 217.892C991.87 218.146 991.856 219.381 993.091 220.236C997.246 224.015 1006.17 223.63 1008.92 217.184C1008.82 219.493 1010.58 225.255 1014.4 228.21C1014.87 228.576 1015.98 228.537 1016.16 228.058C1017.41 224.826 1019.4 220.675 1018.49 216.427C1020.72 220.527 1031.73 220.552 1035.7 217.134Z" fill="#D2A339"/>
<path d="M641.293 109.106C647.582 108.422 647.416 99.5512 641.586 99.4042C625.541 98.9892 616.733 117.934 624.154 130.2C624.632 130.991 626.063 130.62 625.326 129.306C624.432 124.189 630.614 110.268 641.293 109.106Z" fill="#D2A339"/>
<path d="M828.033 104.497C826.69 103.882 825.801 104.766 826.173 105.938C828.458 113.145 829.064 119.454 833.6 124.58C837.081 128.525 841.486 130.396 846.579 131.577C848.063 131.914 848.342 130.654 848.342 130.132C848.415 124.512 845.876 119.829 842.278 115.601C840.182 113.144 831.163 105.923 828.033 104.497Z" fill="#D2A339"/>
<path d="M781.807 222.783C779.585 222.3 779.878 223.926 781.172 224.936C785.845 228.593 795.464 230.488 805.835 230.488C827.534 230.488 852.549 221.176 857.627 195.068C862.212 171.533 852.573 152.178 831.86 143.339C831.318 143.08 830.688 143.32 830.381 143.837C830.098 144.359 830.239 145.019 830.708 145.375C830.874 145.492 846.318 157.069 843.945 173.705C842.622 168.983 833.662 167.064 830.473 170.653C830.248 170.907 830.121 172.167 830.356 172.406C830.849 172.948 841.992 185.072 835.786 197.899C834.834 187.743 822.637 188.334 820.952 189.725C820.391 189.866 819.985 190.389 820.034 190.98C820.058 191.097 820.81 202.225 812.793 211.18C806.26 218.481 795.503 225.772 781.807 222.783Z" fill="#D2A339"/>
<path d="M807.911 91.2163L808.033 91.9243C807.999 91.9093 807.969 91.8953 807.94 91.8803C805.777 91.0353 804.171 92.6272 807.134 94.7022C809.702 96.4992 814.043 101.641 814.742 104.717C815.894 109.8 814.459 113.799 809.478 116.265C804.429 118.829 799.058 117.496 799.209 111.016C799.312 106.719 801.021 106.27 805.181 104.19C799.029 101.705 791.455 109.898 793.721 116.739C795.952 123.38 803.535 126.045 809.888 124.234C823.042 120.479 823.862 104.498 814.312 95.8503C823.824 97.7593 832.954 100.894 840.909 106.822C849.693 113.37 857.354 121.705 862.828 131.26C874.561 151.724 874.869 175.098 868.677 197.471C868.267 198.94 870.537 199.565 870.943 198.101C877.383 174.839 877.154 149.336 863.892 128.457C858.121 119.385 850.904 111.001 842.095 104.78C832.901 98.2862 822.822 94.9313 811.968 93.0123C850.669 88.2173 933.658 104.941 1110.69 206.205C1113.54 207.836 1115.83 209.145 1117.47 210.063L1118.62 208.002C1116.98 207.084 1114.7 205.78 1111.85 204.15C928.424 99.2332 845.323 84.8293 807.911 91.2163Z" fill="#D2A339"/>
<path d="M895.171 219.126C890.893 219.311 890.337 217.627 887.988 213.594C885.937 219.932 894.58 226.978 901.221 224.243C907.661 221.563 909.795 213.774 907.569 207.524C902.1 192.172 880.67 195.336 875.587 211.655C874.893 213.882 876.578 215.39 878.443 212.275C880.054 209.58 884.869 204.883 887.871 203.969C892.842 202.47 896.904 203.647 899.693 208.471C902.573 213.364 901.611 218.838 895.171 219.126Z" fill="#D2A339"/>
<path d="M1455.26 185.151C1454.15 180.093 1446.68 176.616 1442.3 175.674C1391.34 164.712 1340.64 214.028 1318.26 226.905C1316.5 227.92 1317.74 230.611 1320.05 229.366C1332.17 222.803 1362.34 221.427 1371.75 223.199C1378.37 224.444 1393.5 227.779 1397.41 219.259C1402.11 209.02 1378.63 206.251 1367.46 208.224C1375.89 204.679 1393.1 204.098 1406.07 208.503C1411.37 210.3 1425.95 212.14 1426.8 203.703C1427.55 196.12 1418.91 191.53 1413.11 190.896C1406.64 190.183 1385.79 194.079 1384.31 194.245C1391.16 190.109 1413.11 186.369 1422.71 189.123C1430.25 191.286 1439.95 194.514 1447.81 193.523C1452.37 192.949 1456.37 190.161 1455.26 185.151Z" fill="#D2A339"/>
<path d="M612.129 203.97C615.132 204.883 619.946 209.58 621.557 212.276C623.418 215.391 625.107 213.882 624.414 211.656C619.331 195.338 597.901 192.173 592.427 207.525C590.205 213.775 592.339 221.563 598.779 224.244C605.415 226.978 614.057 219.932 612.012 213.595C609.663 217.628 609.107 219.313 604.829 219.127C598.389 218.839 597.427 213.365 600.308 208.472C603.091 203.648 607.158 202.471 612.129 203.97Z" fill="#D2A339"/>
<path d="M525.714 218.31C532.896 217.128 539.771 213.027 543.243 206.259C545.919 201.054 543.17 192.929 537.506 190.942C531.022 188.662 523.658 190.698 522.779 197.783C522.339 201.313 525.469 205.078 527.921 205.171C536.149 205.464 536.442 194.239 530.645 194.028C532.506 192.554 535.113 192.319 537.672 193.662C545.524 197.778 541.202 207.07 536.119 210.888C526.011 218.481 513.384 216.455 506.011 206.367C497.774 195.107 499.063 180.405 508.565 170.513C518.56 160.103 532.915 155.845 546.729 157.32C548.238 157.481 548.096 155.606 546.729 154.957C538.062 150.821 517.632 153.331 504.117 167.511C501.964 169.762 467.652 204.083 459.883 210.485C450.401 218.303 435.259 226.261 426.25 214.084C421.435 207.57 424.536 199.455 431.611 196.589C435.093 195.173 439.194 196.106 441.489 199.148C442.295 200.432 443.574 203.396 441.601 206.511C439.897 198.527 432.324 201.403 432.26 206.203C432.162 213.141 440.79 215.324 444.604 209.748C449.453 202.663 444.043 194.504 438.725 193.058C432.529 191.379 423.657 195.568 421.235 201.92C418.217 209.865 422.993 218.937 429.907 222.892C437.744 227.379 449.243 222.594 456.211 218.463C465.093 213.194 493.765 182.496 501.479 175.777C499.99 178.731 498.891 181.934 498.276 185.362C495.602 200.4 509.108 221.05 525.714 218.31Z" fill="#D2A339"/>
<path d="M316.36 139.736C318.479 140.18 318.245 138.359 317.068 137.734C295.96 126.435 269.075 150.747 282.635 175.21C286.722 182.588 297.953 179.077 295.262 170.342C293.552 164.795 290.208 140.649 316.36 139.736Z" fill="#D2A339"/>
<path d="M750.099 193.647C750.099 193.647 760.68 176.459 760.68 155.248C760.68 134.042 750.099 116.855 750.099 116.855C750.099 116.855 739.518 134.043 739.518 155.248C739.517 176.459 750.099 193.647 750.099 193.647ZM755.978 155.248C755.978 166.313 752.838 176.313 750.099 182.939C747.36 176.313 744.22 166.313 744.22 155.248C744.22 144.189 747.36 134.184 750.099 127.563C752.838 134.183 755.978 144.188 755.978 155.248Z" fill="#D2A339"/>
<path d="M348.059 228.335C360.637 222.334 370.278 215.293 374.956 201.66C379.282 189.043 378.438 174.224 373.921 161.841C364.231 135.425 336.116 118.457 308.699 119.737C296.004 120.328 283.474 124.63 273.972 133.253C263.747 142.511 258.068 157.511 258.913 171.007C260.226 191.705 280.07 216.691 307.311 201.637C312.428 198.81 315.773 192.97 316.906 187.35C317.56 184.088 316.765 177.15 312.79 175.729C308.488 174.196 302.531 177.228 299.665 180.065C294.308 185.407 292.707 196.368 284.382 197.194C276.623 197.951 267.668 183.835 266.16 177.897C263.616 167.853 265.725 157.203 270.672 147.77C275.55 138.444 308.685 123.42 325.921 136.74C318.865 136.149 314.163 146.388 316.507 155.368C316.531 155.675 316.649 155.89 316.81 156.081C316.956 156.813 317.938 157.658 318.48 156.857C322.787 150.529 348.846 151.906 351.253 164.938C344.334 161.554 329.641 165.099 328.548 175.314C328.475 175.953 328.831 176.613 329.652 176.52C340.345 175.411 352.543 181.818 355.306 191.486C359.427 205.861 346.79 225.739 346.458 226.73C345.989 227.817 346.926 228.882 348.059 228.335Z" fill="#D2A339"/>
<path d="M348.513 213.945C357.18 199.233 345.183 181.108 330.168 187.29C324.055 189.815 319.728 196.616 322.048 203.218C324.475 210.005 335.461 211.748 338.781 205.977C334.23 206.924 332.609 207.632 329.885 204.312C325.788 199.312 329.192 194.932 334.739 193.809C340.169 192.657 343.763 194.918 345.979 199.619C347.312 202.481 347.058 209.224 346.15 212.222C345.09 215.698 347.331 215.952 348.513 213.945Z" fill="#D2A339"/>
<path d="M418.828 161.231C406.626 167.539 395.107 173.516 384.57 178.809C383.979 179.092 383.75 179.8 384.033 180.391C384.336 180.982 385.044 181.221 385.61 180.913C396.167 175.62 407.705 169.643 419.912 163.335C506.782 118.34 638.091 50.3322 711.186 74.4632C726.889 79.6392 739.419 88.9552 748.579 102.192C746.616 105.151 744.8 108.281 743.154 111.606C732.08 134.028 730.41 166.24 739.018 191.738C741.484 199.047 744.702 205.556 748.569 211.211C743.115 218.77 736.396 224.6 728.608 228.433C712.714 236.255 689.555 236.822 670.981 229.825C660.473 225.88 646.46 217.608 639.409 200.719C631.694 182.286 638.047 157.448 653.867 144.147C660.005 138.995 669.077 135.143 677.309 133.751C674.16 136.324 672.397 139.517 672.231 143.038C672.041 147.55 674.629 152.227 678.881 154.947C683.022 157.588 687.748 157.877 691.864 155.704C699.384 151.73 701.449 145.186 697.67 137.222C696.283 134.293 693.363 132.281 689.252 131.387C678.812 129.092 662.26 134.009 652.362 142.325C635.785 156.241 629.129 182.31 637.22 201.637C643.074 215.626 654.476 226.144 670.16 232.047C679.071 235.401 689.012 237.057 698.773 237.057C709.94 237.057 720.873 234.884 729.642 230.563C737.557 226.662 744.403 220.802 749.999 213.239C755.595 220.802 762.44 226.662 770.356 230.563C779.125 234.884 790.058 237.057 801.225 237.057C810.981 237.057 820.927 235.402 829.838 232.047C845.522 226.144 856.918 215.626 862.777 201.637C870.868 182.311 864.213 156.242 847.636 142.325C837.738 134.01 821.186 129.093 810.746 131.387C806.63 132.281 803.715 134.292 802.333 137.222C798.544 145.186 800.614 151.729 808.134 155.704C812.25 157.877 816.977 157.589 821.118 154.947C825.371 152.227 827.959 147.549 827.768 143.038C827.602 139.517 825.839 136.324 822.69 133.751C830.918 135.142 839.995 138.995 846.128 144.147C861.953 157.448 868.306 182.286 860.591 200.719C853.535 217.609 839.527 225.88 829.019 229.825C810.445 236.822 787.281 236.256 771.392 228.433C763.604 224.6 756.885 218.77 751.431 211.211C755.298 205.557 758.516 199.048 760.982 191.738C769.59 166.24 767.92 134.028 756.846 111.606C755.2 108.281 753.384 105.151 751.421 102.192C760.586 88.9552 773.11 79.6382 788.813 74.4632C861.909 50.3322 993.217 118.34 1080.09 163.335C1092.29 169.643 1103.84 175.62 1114.39 180.913C1114.96 181.221 1115.67 180.981 1115.97 180.391C1116.25 179.8 1116.02 179.092 1115.43 178.809C1104.89 173.516 1093.38 167.539 1081.17 161.231C988.725 113.355 862.095 47.8081 788.086 72.2121C772.153 77.4761 759.409 86.8511 750 100.127C740.591 86.8511 727.847 77.4761 711.914 72.2121C637.905 47.8081 511.274 113.355 418.828 161.231ZM754.732 112.647C765.547 134.575 767.169 166.05 758.75 190.982C756.46 197.76 753.521 203.834 750 209.136C746.479 203.833 743.54 197.759 741.25 190.982C732.832 166.051 734.453 134.576 745.268 112.647C746.713 109.727 748.3 106.968 750 104.336C751.699 106.968 753.286 109.726 754.732 112.647Z" fill="#D2A339"/>
<path d="M102.59 219.258C106.501 227.778 121.628 224.443 128.254 223.198C137.658 221.426 167.829 222.803 179.953 229.365C182.263 230.61 183.503 227.919 181.74 226.904C159.362 214.028 108.659 164.711 57.6975 175.673C53.3225 176.616 45.8475 180.092 44.7435 185.15C43.6345 190.16 47.6335 192.948 52.1945 193.519C60.0515 194.51 69.7485 191.282 77.2875 189.119C86.8915 186.365 108.831 190.105 115.692 194.241C114.212 194.075 93.3575 190.178 86.8925 190.892C81.0865 191.527 72.4495 196.116 73.2015 203.699C74.0465 212.137 88.6265 210.296 93.9285 208.499C106.898 204.094 124.114 204.676 132.541 208.22C121.375 206.25 97.8835 209.018 102.59 219.258Z" fill="#D2A339"/>
<path d="M1183.09 187.349C1184.22 192.969 1187.57 198.809 1192.69 201.636C1219.93 216.69 1239.77 191.704 1241.09 171.006C1241.93 157.51 1236.25 142.51 1226.02 133.252C1216.53 124.629 1203.99 120.327 1191.3 119.736C1163.88 118.457 1135.76 135.425 1126.08 161.84C1121.57 174.223 1120.72 189.042 1125.05 201.659C1129.72 215.292 1139.36 222.333 1151.94 228.334C1153.07 228.881 1154.01 227.816 1153.54 226.728C1153.21 225.737 1140.58 205.859 1144.69 191.484C1147.46 181.816 1159.65 175.41 1170.35 176.518C1171.17 176.611 1171.53 175.951 1171.46 175.312C1170.36 165.097 1155.66 161.552 1148.75 164.936C1151.15 151.904 1177.21 150.527 1181.52 156.855C1182.06 157.656 1183.05 156.811 1183.19 156.079C1183.35 155.888 1183.47 155.674 1183.49 155.366C1185.84 146.386 1181.13 136.147 1174.08 136.738C1191.31 123.418 1224.45 138.442 1229.33 147.768C1234.27 157.201 1236.39 167.851 1233.84 177.895C1232.33 183.833 1223.37 197.949 1215.62 197.192C1207.3 196.367 1205.69 185.405 1200.34 180.063C1197.46 177.226 1191.51 174.194 1187.21 175.727C1183.23 177.148 1182.44 184.087 1183.09 187.349Z" fill="#D2A339"/>
<path d="M1161.22 205.975C1164.54 211.746 1175.53 210.003 1177.95 203.216C1180.27 196.615 1175.95 189.813 1169.83 187.288C1154.82 181.106 1142.82 199.231 1151.49 213.943C1152.68 215.95 1154.91 215.696 1153.86 212.219C1152.94 209.221 1152.68 202.478 1154.02 199.616C1156.24 194.914 1159.83 192.653 1165.26 193.806C1170.8 194.929 1174.21 199.309 1170.11 204.309C1167.39 207.631 1165.77 206.923 1161.22 205.975Z" fill="#D2A339"/>
<path d="M483.838 228.056C484.028 228.535 485.127 228.574 485.601 228.208C489.419 225.254 491.181 219.492 491.078 217.182C493.827 223.627 502.758 224.013 506.903 220.234C508.139 219.38 508.129 218.144 507.484 217.89C503.334 216.249 488.246 207.236 491.781 191.874C492.074 190.59 490.024 190.419 489.56 191.361C489.531 191.38 489.32 191.668 489.291 191.737C480.604 198.373 474.726 210.78 464.291 215.062C463.52 215.282 463.921 216.8 464.302 217.132C468.276 220.55 479.282 220.525 481.508 216.424C480.604 220.674 482.593 224.824 483.838 228.056Z" fill="#D2A339"/>
<path d="M810.355 170.674C810.174 156.28 799.169 156.162 796.322 158.95C789.076 166.045 795.868 182.514 786.073 190.772C787.626 185.313 788.08 179.932 786.664 175.459C784.76 169.394 780.722 162.397 774.301 166.406C765.068 172.172 783.505 196.723 764.838 211.723C763.612 212.704 764.008 213.217 766.879 214.638C778.598 218.833 791.234 219.179 800.155 213.037C812.66 204.424 809.325 197.319 808.226 196.592C802.63 192.905 799.603 201.675 790.804 200.288C803.344 192.549 810.463 179.004 810.355 170.674Z" fill="#D2A339"/>
<path d="M1217.37 175.21C1230.93 150.747 1204.04 126.435 1182.93 137.734C1181.75 138.359 1181.53 140.18 1183.64 139.736C1209.79 140.649 1206.45 164.794 1204.73 170.342C1202.05 179.077 1213.28 182.588 1217.37 175.21Z" fill="#D2A339"/>
<path d="M528.852 187.075C529.253 187.881 530.59 188.33 531.03 187.241C531.982 184.775 532.719 182.324 534.35 180.156C536.484 177.295 540.634 178.325 543.427 179.477C546.674 180.795 549.526 183.72 552.836 184.892C558.065 186.767 562.709 183.559 566.347 180.644C563.481 185.8 564.633 207.627 585.209 201.167C586.166 200.869 586.293 199.429 585.375 198.984C581.684 197.241 576.645 189.824 581.659 184.536C589.183 176.596 618.797 191.123 638.426 223.047C638.978 223.941 639.915 221.265 639.744 220.83C617.942 163.955 558.411 159.702 573.958 136.743C574.441 136.06 573.811 135.259 573.162 135.039C557.776 129.873 546.814 146.05 550.535 159.931C532.153 155.532 522.651 173.945 528.852 187.075Z" fill="#D2A339"/>
<path d="M750.684 85.8405C755.718 85.8405 759.8 81.7394 759.8 76.6854C759.8 71.6274 755.718 67.5254 750.684 67.5254C745.66 67.5254 741.578 71.6274 741.578 76.6854C741.578 81.7384 745.66 85.8405 750.684 85.8405Z" fill="#D2A339"/>
<path d="M783.931 102.842C787.378 102.739 784.097 96.6107 776.182 95.4297C780.703 97.3337 782.632 102.881 783.931 102.842Z" fill="#D2A339"/>
<path d="M761.112 9.82399C761.098 4.38499 756.703 -0.00998297 751.298 1.70311e-05C745.888 0.010017 741.513 4.42893 741.527 9.86293C741.537 15.2969 751.429 61.5039 751.429 61.5039C751.429 61.5039 761.127 15.254 761.112 9.82399Z" fill="#D2A339"/>
<path d="M704.776 51.8311C708.003 53.9651 739.273 66.2311 739.273 66.2311C739.273 66.2311 715.684 42.2271 712.457 40.0931C709.239 37.9641 704.898 38.8632 702.779 42.1002C700.654 45.3422 701.553 49.6971 704.776 51.8311Z" fill="#D2A339"/>
<path d="M789.292 98.2367C793.389 95.8977 785.542 90.6097 775.244 94.2667C781.904 93.6667 787.754 99.1157 789.292 98.2367Z" fill="#D2A339"/>
<path d="M781.45 26.8893C783.159 22.7193 781.181 17.9494 777.041 16.2354C772.9 14.5164 768.149 16.4994 766.44 20.6644C764.731 24.8294 757.695 63.3743 757.695 63.3743C757.695 63.3743 779.741 31.0503 781.45 26.8893Z" fill="#D2A339"/>
<path d="M796.24 47.9285C799.174 45.4135 799.526 40.9755 797.026 38.0215C794.521 35.0675 790.106 34.7155 787.167 37.2305C784.233 39.7505 763.77 66.5034 763.77 66.5034C763.77 66.5034 793.301 50.4485 796.24 47.9285Z" fill="#D2A339"/>
<path d="M1098.57 140.855C1093.11 144.58 1090.26 152.134 1093.89 158.121C1097.66 164.259 1108.77 163.687 1110.83 157.355C1106.57 159.22 1105.14 160.25 1101.79 157.57C1096.75 153.522 1099.18 148.532 1104.38 146.286C1109.46 144.04 1113.44 145.495 1116.57 149.65C1118.46 152.16 1119.6 158.815 1119.32 161.94C1118.99 165.558 1121.24 165.343 1121.98 163.131C1122.66 161.11 1123.03 159.103 1123.1 157.154C1126.77 142.491 1134.73 129.293 1148.3 120.547C1163.78 110.62 1183.03 105.259 1201.32 109.131C1238.33 116.953 1264.33 157.671 1243.01 192.666C1242.59 193.349 1242.96 193.984 1243.52 194.272C1243.86 194.858 1244.66 195.136 1245.45 194.672C1273.81 178.095 1269.5 139.101 1256.67 130.732C1264.03 129.971 1266.02 124.678 1266.94 116.86C1267.06 116.006 1266.12 115.605 1265.46 115.727C1251.75 117.949 1241.69 104.575 1231.84 97.4804C1224.57 92.2604 1217.52 91.4354 1210.3 94.1994C1214.64 90.6644 1214.83 82.5884 1211.9 78.2474C1211.3 77.3634 1210.7 76.7384 1209.88 77.4224C1206.66 80.0934 1202.9 83.3554 1198.64 84.2044C1194.13 85.1274 1164.09 80.0294 1141.61 97.2214C1133.95 103.075 1122.29 119.453 1120.05 145.795C1115.52 138.696 1106.68 135.322 1098.57 140.855Z" fill="#D2A339"/>
<path d="M780.849 67.0018C779.682 67.9688 780.844 69.9508 782.036 69.0378C800.249 55.0238 853.545 56.2058 860.742 58.2858C902.827 70.4588 995.005 106.221 1034.94 126.269C1071.8 144.78 1137.89 138.759 1134.69 83.5927C1133.04 54.9207 1100.03 57.1528 1095.81 67.1328C1092.31 75.4038 1096.99 84.8568 1101.54 83.8518C1101.71 83.9738 1101.9 84.0428 1102.11 84.0428C1102.8 84.2088 1103.24 83.7348 1103.36 83.1688C1103.41 82.9788 1100.46 73.9108 1104.04 70.6788C1107.96 67.1338 1114.34 69.3658 1117.63 71.8068C1123.11 75.8208 1126.89 83.0767 1126.23 90.0197C1125.29 99.7317 1116.99 103.067 1108.75 105.523C1105.33 106.539 1102.52 107.413 1100.54 109.727C1104.04 102.579 1098.16 91.1578 1087.89 91.2008C1087.06 91.2058 1086.46 91.6308 1086.41 92.3388C1085.44 104.317 1075.64 111.172 1064.45 111.289C1068.61 104.507 1070.11 95.3858 1064.82 88.6958C1058.83 81.1128 1049.97 79.3398 1041.74 86.0048C1041.05 86.5618 1040.96 87.6118 1041.74 88.0358C1052.81 94.0618 1043.38 105.878 1033.74 105.399C1025.16 104.979 1017.17 100.321 1009.08 97.6547C1018.81 93.9587 1020.23 76.8878 1006.61 73.5778C997.068 71.2388 989.226 78.5528 994.715 84.4908C995.213 85.0378 996.614 84.5398 996.434 83.7828C995.154 78.6028 1003.96 79.2807 999.344 86.4047C995.594 92.1857 983.69 93.2207 967.249 73.8367C959.217 64.3547 949.749 54.8227 933.562 57.9777C937.849 50.3947 937.605 40.9708 926.233 37.2498C919.915 35.1788 909.04 38.5778 908.308 50.0958C908.24 51.1798 908.02 52.3278 909.04 51.4238C921.252 40.6958 924.621 58.6648 911.623 56.0428C906.736 55.0518 902.292 53.2498 898.127 50.3938C887.712 43.2058 879.211 28.3137 866.013 27.2587C845.188 25.5987 838.02 43.7528 840.71 54.4858C815.537 51.4798 790.063 59.3558 780.849 67.0018Z" fill="#D2A339"/>
<path d="M133.519 152.295C139.779 156.807 110.404 105.43 89.632 121.187C67.498 137.979 115.492 139.302 133.519 152.295Z" fill="#D2A339"/>
<path d="M1144.67 90.7214C1147.28 82.8604 1166.44 68.0165 1182.31 74.5155C1191.64 78.3385 1198.1 65.7555 1190.03 61.1165C1167.81 48.3235 1141.17 68.2115 1142.35 91.0875C1142.42 92.5725 1144.71 93.1294 1144.67 90.7214Z" fill="#D2A339"/>
<path d="M33.7622 222.534C40.0412 221.352 51.8922 216.035 51.2332 208.213C51.1352 206.982 49.5393 206.773 49.0453 207.578C43.3953 213.34 36.5593 214.072 32.2823 209.819C12.0473 189.712 43.0142 163.618 66.1252 163.325C97.0772 162.929 126.858 175.928 151.882 197.627C152.932 198.535 154.372 197.398 153.743 196.211C142.141 174.351 125.291 149.541 104.436 144.058C103.538 143.824 102.79 144.746 103 145.523C104.035 149.522 103.684 153.443 102.248 157.154C96.4422 144.395 80.8323 135.533 66.9113 137.325C65.8813 137.472 65.1242 138.956 66.3012 139.547C69.8512 141.271 72.9462 145.211 72.7852 148.756C72.5262 155.182 67.1452 152.682 64.1622 148.36C60.6512 143.267 51.0862 146.773 45.7442 149.542C39.5432 152.73 36.7502 159.469 28.9912 157.506C20.4312 155.333 20.9252 143.331 22.9702 136.852C23.2532 136.027 22.3992 135.289 21.5352 135.411C10.8712 136.94 -2.05876 158.204 14.8362 170.03C7.17024 172.178 -0.344766 181.011 0.0122342 190.699C1.07723 219.643 23.9382 224.399 33.7622 222.534Z" fill="#D2A339"/>
<path d="M465.062 126.269C504.994 106.22 597.171 70.4587 639.256 58.2857C646.453 56.2057 699.744 55.0237 717.962 69.0377C719.149 69.9507 720.316 67.9687 719.144 67.0017C709.935 59.3557 684.462 51.4796 659.29 54.4866C661.98 43.7536 654.813 25.5997 633.987 27.2597C620.789 28.3147 612.288 43.2066 601.873 50.3946C597.708 53.2506 593.264 55.0527 588.377 56.0437C575.384 58.6657 578.748 40.6966 590.96 51.4246C591.981 52.3276 591.761 51.1806 591.692 50.0966C590.96 38.5786 580.081 35.1797 573.762 37.2507C562.39 40.9707 562.155 50.3957 566.438 57.9787C550.252 54.8247 540.784 64.3557 532.747 73.8377C516.311 93.2227 504.407 92.1877 500.657 86.4057C496.038 79.2817 504.847 78.6026 503.572 83.7836C503.386 84.5406 504.788 85.0387 505.286 84.4917C510.774 78.5537 502.932 71.2397 493.387 73.5787C479.774 76.8887 481.19 93.9597 490.921 97.6557C482.835 100.322 474.842 104.98 466.263 105.4C456.619 105.879 447.191 94.0617 458.265 88.0367C459.046 87.6117 458.954 86.5627 458.265 86.0057C450.038 79.3407 441.175 81.1136 435.179 88.6966C429.891 95.3856 431.395 104.507 435.555 111.29C424.363 111.173 414.564 104.317 413.592 92.3397C413.548 91.6317 412.938 91.2066 412.113 91.2016C401.84 91.1576 395.961 102.579 399.467 109.728C397.494 107.414 394.672 106.54 391.259 105.524C383.012 103.068 374.711 99.7327 373.769 90.0207C373.11 83.0777 376.899 75.8217 382.378 71.8077C385.664 69.3667 392.046 67.1346 395.962 70.6796C399.541 73.9116 396.597 82.9796 396.646 83.1696C396.763 83.7356 397.207 84.2097 397.896 84.0437C398.106 84.0437 398.292 83.9756 398.457 83.8526C403.018 84.8586 407.686 75.4056 404.194 67.1336C399.975 57.1526 366.967 54.9217 365.305 83.5937C362.106 138.76 428.197 144.78 465.062 126.269Z" fill="#D2A339"/>
<path d="M158.866 193.838C168.554 205.274 181.181 213.853 194.887 219.663C211.86 226.846 229.565 227.583 247.714 226.118C266.029 224.653 282.724 222.334 299.252 214.063C302.016 212.163 299.462 211.324 299.062 211.538C298.877 211.631 298.71 211.699 298.525 211.797C284.062 214.16 252.255 219.644 235.698 212.007C224.199 206.704 228.437 194.571 234.458 185.967C234.902 185.332 234.429 184.453 233.75 184.243C216.987 179.077 203.667 192.471 208.691 206.431C193.867 201.919 193.476 187.764 198.623 181.48C198.931 181.104 198.403 179.639 198.076 179.19C192.412 171.582 179.253 177.295 179.653 186.631C178.476 185.074 177.851 178.282 177.299 177.324C169.965 164.507 158.793 163.569 153.363 158.135C146.854 151.612 146.713 140.225 150.355 132.281C152.352 127.911 160.838 120.728 168.006 123.551C174.671 126.173 172.708 136.94 168.553 139.493C167.821 139.937 168.665 141.295 169.564 141.265C191.517 140.484 189.554 114.488 181.063 111.417C207.581 106.222 217.079 129.893 216.893 138.829C216.771 143.722 209.93 155.616 205.16 154.356C197.392 152.295 192.299 163.721 200.116 166.968C213.964 172.715 221.767 158.462 226 151.114C231.64 141.265 229.14 126.988 223.1 117.349C216.21 106.363 202.489 98.3451 189.555 97.9501C161.293 97.0861 135.712 123.751 138.246 150.929C139.73 166.592 148.919 182.07 158.866 193.838Z" fill="#D2A339"/>
<path d="M317.694 74.5175C333.563 68.0185 352.728 82.8624 355.336 90.7234C355.287 93.1304 357.572 92.5745 357.651 91.0895C358.838 68.2135 332.192 48.3254 309.975 61.1184C301.903 65.7574 308.358 78.3405 317.694 74.5175Z" fill="#D2A339"/>
<path d="M243.333 130.732C230.506 139.101 226.194 178.096 254.549 194.672C255.34 195.136 256.146 194.858 256.478 194.272C257.044 193.984 257.416 193.349 256.996 192.666C235.668 157.671 261.674 116.953 298.681 109.131C316.972 105.259 336.225 110.62 351.694 120.547C365.278 129.292 373.239 142.491 376.906 157.154C376.984 159.102 377.336 161.109 378.019 163.131C378.761 165.343 381.012 165.558 380.69 161.94C380.407 158.815 381.54 152.16 383.439 149.65C386.569 145.495 390.548 144.04 395.627 146.286C400.822 148.532 403.259 153.523 398.215 157.57C394.87 160.251 393.434 159.221 389.172 157.355C391.233 163.688 402.346 164.259 406.111 158.121C409.744 152.135 406.897 144.581 401.433 140.855C393.327 135.323 384.489 138.697 379.958 145.796C377.712 119.448 366.057 103.076 358.393 97.2217C335.913 80.0297 305.874 85.1277 301.362 84.2047C297.104 83.3557 293.345 80.0938 290.122 77.4228C289.302 76.7398 288.696 77.3647 288.101 78.2477C285.171 82.5887 285.367 90.6647 289.697 94.1997C282.485 91.4357 275.429 92.2617 268.164 97.4807C258.311 104.575 248.247 117.95 234.541 115.728C233.882 115.606 232.944 116.006 233.061 116.861C233.978 124.678 235.975 129.971 243.333 130.732Z" fill="#D2A339"/>
<path d="M744.306 63.0466C744.306 63.0466 736.078 24.7417 734.238 20.6347C732.402 16.5237 727.592 14.6926 723.501 16.5426C719.419 18.3836 717.594 23.2126 719.434 27.3236C721.269 31.4346 744.306 63.0466 744.306 63.0466Z" fill="#D2A339"/>
<path d="M740.693 103.169C741.489 104.243 741.973 103.823 741.694 102.774C724.233 74.0239 700.625 81.0159 702.314 89.0629C704.653 100.191 715.219 84.7559 730.976 95.9129C722.27 93.5209 717.377 101.001 722.436 107.407C723.3 108.496 724.848 107.768 724.585 106.499C722.622 96.8598 736.651 97.7339 740.693 103.169Z" fill="#D2A339"/>
<path d="M724.752 94.2677C714.459 90.6107 706.612 95.8987 710.709 98.2377C712.242 99.1157 718.092 93.6667 724.752 94.2677Z" fill="#D2A339"/>
<path d="M716.074 102.842C717.368 102.881 719.297 97.3337 723.818 95.4297C715.903 96.6107 712.622 102.739 716.074 102.842Z" fill="#D2A339"/>
<path d="M653.424 131.577C658.522 130.396 662.921 128.525 666.403 124.58C670.939 119.453 671.545 113.144 673.83 105.938C674.201 104.766 673.312 103.882 671.97 104.497C668.84 105.923 659.817 113.144 657.727 115.601C654.128 119.83 651.589 124.512 651.658 130.132C651.656 130.654 651.944 131.914 653.424 131.577Z" fill="#D2A339"/>
<path d="M801.25 80.2394L801.606 82.5784C884.106 69.8144 1026.7 146.201 1095.23 182.91C1102.71 186.919 1109.4 190.503 1115.15 193.516L1116.24 191.421C1110.5 188.413 1103.81 184.829 1096.34 180.825C1027.58 143.994 884.556 67.3584 801.25 80.2394Z" fill="#D2A339"/>
<path d="M797.686 89.0629C799.375 81.0159 775.767 74.0239 758.306 102.774C758.027 103.824 758.511 104.244 759.307 103.169C763.35 97.7339 777.383 96.8598 775.415 106.499C775.151 107.769 776.699 108.496 777.563 107.407C782.621 101.001 777.729 93.5199 769.023 95.9129C784.78 84.7559 795.347 100.19 797.686 89.0629Z" fill="#D2A339"/>
<path d="M689.64 170.674C689.538 179.004 696.657 192.549 709.196 200.288C700.397 201.675 697.37 192.905 691.774 196.592C690.675 197.319 687.34 204.424 699.845 213.037C708.766 219.179 721.402 218.833 733.121 214.638C735.992 213.217 736.388 212.705 735.162 211.723C716.495 196.723 734.933 172.172 725.699 166.406C719.278 162.397 715.24 169.394 713.336 175.459C711.92 179.931 712.374 185.313 713.927 190.772C704.132 182.515 710.924 166.045 703.678 158.95C700.831 156.162 689.83 156.279 689.64 170.674Z" fill="#D2A339"/>
<path d="M1299.88 166.968C1307.7 163.721 1302.61 152.295 1294.84 154.356C1290.07 155.616 1283.23 143.721 1283.11 138.829C1282.93 129.893 1292.42 106.222 1318.94 111.417C1310.44 114.488 1308.48 140.484 1330.44 141.265C1331.34 141.294 1332.18 139.937 1331.45 139.493C1327.29 136.94 1325.33 126.173 1332 123.551C1339.16 120.729 1347.65 127.911 1349.65 132.281C1353.29 140.225 1353.15 151.612 1346.64 158.135C1341.2 163.57 1330.04 164.507 1322.7 177.324C1322.15 178.281 1321.53 185.073 1320.35 186.631C1320.75 177.295 1307.59 171.582 1301.93 179.19C1301.6 179.639 1301.07 181.104 1301.37 181.48C1306.52 187.764 1306.13 201.919 1291.31 206.431C1296.33 192.471 1283.01 179.077 1266.25 184.243C1265.57 184.453 1265.1 185.332 1265.54 185.967C1271.56 194.571 1275.8 206.704 1264.3 212.007C1247.75 219.644 1215.94 214.16 1201.48 211.797C1201.29 211.699 1201.12 211.631 1200.94 211.538C1200.54 211.323 1197.99 212.163 1200.75 214.063C1217.28 222.334 1233.97 224.654 1252.29 226.118C1270.44 227.583 1288.14 226.846 1305.11 219.663C1318.82 213.852 1331.45 205.273 1341.14 193.838C1351.08 182.071 1360.27 166.592 1361.76 150.928C1364.29 123.75 1338.71 97.0852 1310.44 97.9492C1297.52 98.3452 1283.79 106.362 1276.9 117.348C1270.86 126.987 1268.36 141.264 1274 151.113C1278.24 158.462 1286.04 172.715 1299.88 166.968Z" fill="#D2A339"/>
<path d="M1397.75 157.153C1396.32 153.442 1395.96 149.521 1397 145.522C1397.2 144.746 1396.46 143.823 1395.56 144.057C1374.71 149.541 1357.86 174.35 1346.26 196.21C1345.63 197.397 1347.07 198.534 1348.12 197.626C1373.14 175.927 1402.92 162.928 1433.88 163.324C1456.98 163.617 1487.95 189.711 1467.72 209.818C1463.44 214.071 1456.6 213.338 1450.95 207.577C1450.46 206.771 1448.86 206.981 1448.77 208.212C1448.11 216.034 1459.96 221.352 1466.23 222.533C1476.06 224.398 1498.92 219.642 1499.99 190.697C1500.34 181.009 1492.83 172.177 1485.16 170.028C1502.06 158.202 1489.13 136.937 1478.46 135.409C1477.6 135.287 1476.74 136.024 1477.02 136.85C1479.07 143.329 1479.57 155.331 1471.01 157.504C1463.25 159.467 1460.46 152.729 1454.25 149.54C1448.92 146.771 1439.34 143.265 1435.84 148.358C1432.86 152.679 1427.47 155.179 1427.21 148.754C1427.05 145.209 1430.15 141.269 1433.7 139.545C1434.87 138.954 1434.12 137.47 1433.09 137.323C1419.17 135.532 1403.56 144.394 1397.75 157.153Z" fill="#D2A339"/>
<path d="M1366.48 152.295C1384.5 139.302 1432.5 137.979 1410.36 121.187C1389.6 105.429 1360.22 156.806 1366.48 152.295Z" fill="#D2A339"/>
<path d="M382.534 210.064C384.175 209.146 386.46 207.837 389.316 206.206C566.342 104.941 649.33 88.2182 688.036 93.0132C677.177 94.9322 667.098 98.2873 657.904 104.781C649.095 111.002 641.879 119.385 636.107 128.458C622.845 149.337 622.616 174.84 629.056 198.102C629.462 199.567 631.732 198.942 631.327 197.472C625.131 175.099 625.438 151.725 637.171 131.261C642.645 121.705 650.301 113.37 659.09 106.823C667.039 100.895 676.175 97.7602 685.687 95.8512C676.136 104.498 676.957 120.48 690.111 124.235C696.464 126.046 704.046 123.381 706.278 116.74C708.544 109.899 700.971 101.706 694.818 104.191C698.978 106.271 700.687 106.72 700.785 111.017C700.936 117.496 695.57 118.83 690.521 116.266C685.541 113.8 684.1 109.801 685.253 104.718C685.951 101.642 690.297 96.5003 692.86 94.7033C695.829 92.6283 694.222 91.0363 692.059 91.8813C692.025 91.8963 691.996 91.9102 691.966 91.9252L692.088 91.2172C654.671 84.8302 571.575 99.2353 388.148 204.152C385.301 205.783 383.021 207.087 381.385 208.004L382.534 210.064Z" fill="#D2A339"/>
<path d="M669.292 145.375C669.761 145.018 669.902 144.359 669.619 143.837C669.316 143.32 668.681 143.08 668.14 143.339C647.427 152.177 637.788 171.533 642.368 195.068C647.451 221.177 672.466 230.488 694.165 230.488C704.536 230.488 714.155 228.593 718.828 224.936C720.122 223.925 720.415 222.299 718.193 222.783C704.497 225.771 693.745 218.481 687.207 211.181C679.19 202.226 679.941 191.098 679.966 190.981C680.01 190.39 679.61 189.868 679.048 189.726C677.364 188.335 665.162 187.743 664.214 197.9C658.003 185.073 669.151 172.949 669.644 172.407C669.878 172.168 669.751 170.908 669.527 170.654C666.344 167.065 657.379 168.984 656.056 173.706C653.682 157.069 669.126 145.492 669.292 145.375Z" fill="#D2A339"/>
<path d="M384.849 193.516C390.601 190.503 397.29 186.919 404.771 182.91C473.297 146.201 615.889 69.8154 698.394 82.5784L698.751 80.2394C615.445 67.3584 472.413 143.994 403.668 180.825C396.193 184.829 389.508 188.413 383.766 191.421L384.849 193.516Z" fill="#D2A339"/>
</svg>
