<svg width="435" height="95" viewBox="0 0 435 95" fill="none" xmlns="http://www.w3.org/2000/svg">
<path d="M216.199 72.6562L211.229 83.1893L211.26 83.2313C213.288 85.9523 216.012 93.3573 216.012 93.3573L216.199 94.0233L216.386 93.3573C216.386 93.3573 219.11 85.9523 221.138 83.2313L221.169 83.1893L216.199 72.6562Z" fill="#D2A339"/>
<path d="M240.475 21.9657C240.957 21.7537 241.315 21.3447 241.495 20.6937C241.664 20.0517 241.608 19.1697 241.159 18.1707C240.712 17.1787 239.796 16.1057 238.475 15.3457C237.163 14.5747 235.479 14.1937 233.834 14.3137C233.002 14.3497 231.962 14.5907 230.857 15.0297C229.753 15.4717 228.613 16.1557 227.59 17.0447C226.562 17.9287 225.649 19.0087 224.925 20.1787C224.198 21.3487 223.659 22.6047 223.293 23.8317C222.945 25.0657 222.763 26.2637 222.697 27.3497C222.675 27.8937 222.672 28.4097 222.688 28.8897C222.723 29.3717 222.75 29.8157 222.806 30.2207C222.87 30.6257 222.936 30.9887 223.003 31.3057C223.073 31.6227 223.165 31.8947 223.241 32.1157C223.398 32.5577 223.542 32.7967 223.663 32.7967C223.769 32.7967 223.915 32.5567 224.09 32.1417C224.272 31.6757 224.496 31.0997 224.752 30.4437C224.89 30.0977 225.062 29.7307 225.222 29.3427C225.402 28.9587 225.599 28.5597 225.807 28.1547C226.243 27.3497 226.762 26.5317 227.348 25.7757C227.95 25.0297 228.62 24.3527 229.317 23.8047C230.013 23.2547 230.733 22.8357 231.4 22.5487C232.067 22.2577 232.682 22.1037 233.18 22.0327C233.304 22.0007 233.423 22.0027 233.533 21.9877C233.644 21.9727 233.748 21.9557 233.844 21.9587C233.94 21.9547 234.03 21.9467 234.113 21.9347C234.194 21.9377 234.269 21.9357 234.338 21.9297C234.89 21.8917 235.333 21.8587 235.777 21.8397C236.218 21.8207 236.704 21.8077 237.235 21.8757C238.302 21.9827 239.498 22.3907 240.475 21.9657Z" fill="#D2A339"/>
<path d="M223.949 13.1268C220.991 19.8378 220.197 29.2557 220.103 30.4977C220.097 30.5767 220.051 30.6348 219.997 30.6348L217.111 33.9017C216.729 34.3337 216.054 34.3337 215.672 33.9017L212.786 30.6348C212.731 30.6348 212.686 30.5767 212.68 30.4977C212.586 29.2557 211.917 20.5618 208.834 13.1268C208.81 13.0688 214.78 2.39875 216.124 0.16875C216.26 -0.05625 216.524 -0.05625 216.66 0.16875C218.003 2.39875 223.974 13.0698 223.949 13.1268Z" fill="#D2A339"/>
<path d="M191.924 21.9657C191.442 21.7537 191.084 21.3447 190.904 20.6937C190.735 20.0517 190.791 19.1697 191.241 18.1707C191.688 17.1787 192.604 16.1057 193.925 15.3457C195.237 14.5747 196.921 14.1937 198.566 14.3137C199.398 14.3497 200.438 14.5907 201.543 15.0297C202.647 15.4717 203.787 16.1557 204.81 17.0447C205.838 17.9287 206.751 19.0087 207.475 20.1787C208.202 21.3487 208.741 22.6047 209.107 23.8317C209.455 25.0657 209.637 26.2637 209.703 27.3497C209.725 27.8937 209.728 28.4097 209.712 28.8897C209.676 29.3717 209.65 29.8157 209.594 30.2207C209.53 30.6257 209.464 30.9887 209.397 31.3057C209.327 31.6227 209.235 31.8947 209.159 32.1157C209.002 32.5577 208.858 32.7967 208.737 32.7967C208.631 32.7967 208.485 32.5567 208.31 32.1417C208.128 31.6757 207.904 31.0997 207.647 30.4437C207.509 30.0977 207.337 29.7307 207.177 29.3427C206.997 28.9587 206.8 28.5597 206.592 28.1547C206.156 27.3497 205.637 26.5317 205.051 25.7757C204.449 25.0297 203.779 24.3527 203.082 23.8047C202.386 23.2547 201.666 22.8357 200.999 22.5487C200.332 22.2577 199.718 22.1037 199.219 22.0327C199.095 22.0007 198.977 22.0027 198.866 21.9877C198.755 21.9727 198.651 21.9557 198.555 21.9587C198.459 21.9547 198.369 21.9467 198.286 21.9347C198.205 21.9377 198.13 21.9357 198.061 21.9297C197.509 21.8917 197.065 21.8587 196.622 21.8397C196.181 21.8207 195.695 21.8077 195.164 21.8757C194.097 21.9827 192.901 22.3907 191.924 21.9657Z" fill="#D2A339"/>
<path d="M216.389 35.0938L212.701 38.5917C213.365 39.4827 216.389 44.6158 216.389 44.6158C216.389 44.6158 219.269 39.4827 219.933 38.5917L216.389 35.0938Z" fill="#D2A339"/>
<path d="M200.872 30.9788C201.126 31.0458 201.375 31.1127 201.617 31.1797C202.638 31.4707 203.562 31.7347 204.374 31.9667C205.19 32.1917 205.893 32.3848 206.468 32.5438C207.183 32.7148 207.701 32.8378 207.992 32.9078C207.997 32.8968 208.001 32.8858 208.006 32.8738C207.726 32.7678 207.227 32.5788 206.537 32.3168C206.191 32.1778 205.79 32.0177 205.351 31.8417C205.294 31.7967 205.226 31.7437 205.136 31.6747C205.064 31.6187 204.98 31.5527 204.887 31.4817C204.986 31.5047 205.089 31.5238 205.187 31.5488C206.251 31.8238 207.225 32.2237 208.056 32.7507C208.066 32.7247 208.078 32.7017 208.087 32.6747C208.142 32.5157 208.214 32.3727 208.293 32.2377C207.43 31.6637 206.43 31.2258 205.352 30.9138C204.742 30.7378 204.107 30.5997 203.454 30.4877C202.525 29.8897 201.283 29.1778 199.739 28.4698C199.501 28.3618 199.258 28.2508 199.009 28.1378C198.757 28.0338 198.499 27.9268 198.235 27.8188C197.71 27.5938 197.15 27.4007 196.575 27.1847C195.414 26.7867 194.16 26.3898 192.812 26.0728C191.465 25.7558 190.031 25.4897 188.52 25.3437C187.766 25.2717 186.985 25.2338 186.2 25.2368C185.81 25.2458 185.416 25.2547 185.021 25.2637C184.625 25.2777 184.229 25.3148 183.83 25.3398C179.486 25.6878 175.559 26.7768 172.298 27.8738C169.039 28.9998 166.426 30.1548 164.652 30.9868C163.728 31.3068 162.586 31.6797 161.3 32.2007C160.013 32.7187 158.555 33.3138 156.965 33.9778C155.407 34.7078 153.723 35.5198 151.946 36.3918C150.208 37.3328 148.363 38.3097 146.501 39.3957C145.139 40.2067 143.815 41.0088 142.542 41.7908C141.248 42.5978 140.077 43.4798 138.989 44.3248C137.912 45.1758 136.889 45.9847 135.93 46.7427C134.974 47.4937 134.07 48.1667 133.231 48.7607C131.545 49.9347 130.076 50.7157 129.014 51.1537C128.748 51.2597 128.512 51.3607 128.304 51.4377C128.093 51.5047 127.915 51.5618 127.77 51.6078C127.48 51.7018 127.328 51.7507 127.328 51.7507C127.328 51.7507 127.485 51.7237 127.784 51.6717C127.934 51.6447 128.121 51.6118 128.34 51.5728C128.557 51.5238 128.805 51.4528 129.087 51.3788C130.208 51.0718 131.795 50.4457 133.617 49.4087C134.523 48.8847 135.497 48.2778 136.514 47.5908C137.531 46.9048 138.598 46.1488 139.717 45.3658C140.838 44.5838 142.006 43.7768 143.264 43.0408C144.551 42.2988 145.879 41.5218 147.232 40.7158C149.085 39.6478 150.879 38.6137 152.58 37.6327C154.306 36.7067 155.931 35.8108 157.428 34.9828C158.955 34.2218 160.349 33.5127 161.578 32.8807C162.806 32.2437 163.9 31.7528 164.78 31.3298C166.628 30.7088 169.325 29.8307 172.604 28.9407C175.885 28.0777 179.761 27.1887 183.939 26.8547C184.323 26.8297 184.705 26.7927 185.084 26.7767C185.463 26.7637 185.84 26.7508 186.214 26.7388C186.958 26.7248 187.684 26.7448 188.406 26.7928C189.847 26.8908 191.238 27.0888 192.556 27.3278C193.876 27.5658 195.117 27.8737 196.276 28.1777C196.85 28.3467 197.412 28.4918 197.941 28.6688C198.207 28.7528 198.467 28.8358 198.722 28.9158C198.974 29.0048 199.221 29.0908 199.462 29.1758C200.57 29.5658 201.535 29.9607 202.354 30.3287C201.965 30.2817 201.571 30.2427 201.171 30.2137C199.297 29.5407 197.062 28.8628 194.506 28.5668C194.15 28.5058 193.79 28.4978 193.425 28.4648C193.06 28.4398 192.691 28.4037 192.317 28.3887C191.57 28.3797 190.804 28.3327 190.028 28.3727C188.472 28.3907 186.869 28.5667 185.241 28.7997C180.811 29.4777 176.841 30.8148 173.522 32.0428C171.861 32.6618 170.362 33.2728 169.04 33.8148C168.381 34.0908 167.764 34.3377 167.201 34.5887C166.64 34.8427 166.126 35.0747 165.665 35.2837C165.185 35.4427 164.651 35.6197 164.068 35.8127C163.494 36.0337 162.871 36.2747 162.203 36.5317C160.858 37.0287 159.38 37.6987 157.754 38.4167C154.529 39.9027 150.842 41.8218 146.962 43.9418C144.109 45.5118 141.397 46.9968 138.906 48.2278C136.371 49.3728 134.039 50.3198 132.015 50.9238C131.002 51.2228 130.098 51.5508 129.28 51.7238C128.458 51.9148 127.732 52.1048 127.182 52.3798C127 52.4668 126.846 52.5628 126.706 52.6608C126.476 52.6808 126.245 52.6998 126.016 52.7198C125.489 52.7538 124.962 52.7877 124.437 52.8207L123.65 52.8688L122.866 52.8968C122.345 52.9108 121.823 52.9428 121.306 52.9438C119.233 52.9818 117.194 52.8908 115.21 52.6608C114.963 52.6288 114.716 52.5968 114.469 52.5648C114.223 52.5318 113.975 52.5067 113.734 52.4557C113.248 52.3667 112.765 52.2767 112.282 52.1877C111.807 52.0717 111.333 51.9567 110.861 51.8417C110.624 51.7897 110.392 51.7178 110.162 51.6448C109.931 51.5738 109.7 51.5028 109.47 51.4318C109.241 51.3568 109.008 51.2988 108.784 51.2118C108.559 51.1278 108.335 51.0438 108.111 50.9598C107.663 50.7928 107.215 50.6348 106.784 50.4318C106.351 50.2368 105.913 50.0587 105.489 49.8517C105.068 49.6377 104.648 49.4247 104.231 49.2137C104.02 49.1127 103.818 48.9938 103.615 48.8768C103.412 48.7608 103.21 48.6447 103.008 48.5287C102.806 48.4127 102.605 48.2977 102.404 48.1827C102.203 48.0667 102.011 47.9358 101.814 47.8138C101.423 47.5658 101.035 47.3188 100.649 47.0738C100.462 46.9488 100.287 46.8207 100.106 46.6957C99.926 46.5707 99.746 46.4468 99.577 46.3088C99.405 46.1748 99.234 46.0408 99.063 45.9078C98.894 45.7728 98.734 45.6258 98.57 45.4868C98.237 45.2128 97.937 44.9068 97.626 44.6158C97.028 44.0108 96.458 43.3908 95.954 42.7328C95.434 42.0878 94.989 41.4008 94.565 40.7208C94.167 40.0248 93.787 39.3317 93.488 38.6177C93.168 37.9127 92.929 37.1918 92.708 36.4838C92.618 36.1238 92.513 35.7717 92.441 35.4167C92.374 35.0607 92.288 34.7117 92.249 34.3597C92.041 32.9587 92.032 31.6008 92.191 30.3368C92.35 29.0728 92.678 27.9047 93.115 26.8627C93.552 25.8187 94.095 24.9008 94.666 24.0958C95.227 23.2818 95.907 22.5577 96.608 21.8677C96.79 21.7007 96.972 21.5348 97.153 21.3688C97.243 21.2818 97.335 21.2068 97.428 21.1348L97.704 20.9138C97.882 20.7608 98.082 20.6308 98.275 20.4958L98.565 20.2928L98.869 20.1088C99.676 19.6138 100.535 19.1957 101.427 18.8697C102.318 18.5417 103.23 18.2718 104.157 18.0858C106.009 17.7078 107.891 17.5847 109.724 17.6847C110.64 17.7347 111.545 17.8298 112.428 17.9918C112.872 18.0598 113.306 18.1637 113.739 18.2577C113.956 18.3057 114.167 18.3697 114.38 18.4247C114.593 18.4817 114.806 18.5348 115.013 18.6058C118.365 19.6048 121.254 21.4727 123.11 23.8937C123.22 24.0487 123.33 24.2038 123.439 24.3578L123.602 24.5878L123.746 24.8268C123.842 24.9858 123.938 25.1448 124.034 25.3018C124.117 25.4658 124.199 25.6298 124.28 25.7928L124.403 26.0367C124.441 26.1187 124.471 26.2038 124.506 26.2878C124.574 26.4548 124.642 26.6207 124.71 26.7867C124.767 26.9557 124.817 27.1257 124.872 27.2947L124.953 27.5467C124.976 27.6317 124.993 27.7177 125.013 27.8027C125.053 27.9737 125.093 28.1437 125.132 28.3127C125.158 28.4847 125.183 28.6558 125.209 28.8248L125.248 29.0798L125.266 29.3348C125.278 29.5048 125.29 29.6737 125.302 29.8417C125.301 30.0107 125.3 30.1778 125.299 30.3448C125.298 30.4288 125.3 30.5118 125.297 30.5948L125.276 30.8417C125.262 31.0067 125.249 31.1707 125.235 31.3337C125.209 31.4957 125.184 31.6557 125.158 31.8157C125.145 31.8957 125.135 31.9757 125.12 32.0547L125.064 32.2888C125.028 32.4448 124.991 32.5998 124.955 32.7538C124.907 32.9048 124.86 33.0547 124.813 33.2037L124.743 33.4277C124.716 33.5007 124.686 33.5717 124.658 33.6437C124.601 33.7877 124.544 33.9308 124.488 34.0728C124.428 34.2128 124.356 34.3458 124.292 34.4828C124.17 34.7588 124.01 35.0087 123.865 35.2637C123.262 36.2707 122.49 37.0838 121.684 37.7208C120.873 38.3558 120.011 38.8008 119.174 39.0868C118.336 39.3678 117.526 39.5208 116.786 39.5408C116.694 39.5458 116.602 39.5547 116.512 39.5577C116.422 39.5557 116.333 39.5538 116.245 39.5518C116.07 39.5488 115.899 39.5458 115.733 39.5428C115.635 39.5318 115.542 39.5227 115.448 39.5137C116.86 38.8117 117.763 37.2608 117.589 35.5688C117.367 33.4098 115.481 31.8438 113.377 32.0718C111.272 32.2988 109.746 34.2328 109.967 36.3918C110.165 38.3238 111.697 39.7757 113.525 39.8987C113.611 39.9397 113.697 39.9807 113.79 40.0237C114.045 40.1147 114.319 40.2138 114.612 40.3188C114.915 40.4108 115.249 40.4848 115.606 40.5718C115.789 40.5988 115.976 40.6268 116.169 40.6548C116.266 40.6688 116.365 40.6828 116.465 40.6968C116.566 40.7068 116.668 40.7088 116.773 40.7148C117.606 40.7858 118.55 40.7118 119.554 40.4708C120.557 40.2258 121.616 39.7848 122.631 39.0988C123.641 38.4128 124.623 37.4977 125.417 36.3337C125.61 36.0397 125.816 35.7468 125.983 35.4238C126.07 35.2648 126.163 35.1068 126.245 34.9418C126.322 34.7738 126.4 34.6058 126.478 34.4358C126.516 34.3508 126.557 34.2658 126.594 34.1788L126.693 33.9128C126.759 33.7338 126.825 33.5548 126.892 33.3738C126.946 33.1888 126.999 33.0018 127.054 32.8138L127.134 32.5308C127.157 32.4348 127.175 32.3378 127.196 32.2408C127.236 32.0458 127.276 31.8507 127.316 31.6537C127.346 31.4547 127.369 31.2538 127.395 31.0518L127.433 30.7477C127.442 30.6457 127.445 30.5428 127.451 30.4398C127.461 30.2338 127.471 30.0267 127.48 29.8177C127.474 29.6087 127.469 29.3998 127.463 29.1888L127.453 28.8708L127.419 28.5538C127.395 28.3418 127.371 28.1278 127.347 27.9138C127.307 27.7018 127.266 27.4888 127.226 27.2748C127.205 27.1678 127.186 27.0597 127.162 26.9537L127.075 26.6368C127.016 26.4248 126.96 26.2108 126.895 25.9988C126.819 25.7908 126.743 25.5818 126.667 25.3718C126.628 25.2678 126.592 25.1607 126.549 25.0577L126.41 24.7518C126.316 24.5478 126.221 24.3428 126.125 24.1368C126.015 23.9398 125.905 23.7417 125.794 23.5417L125.626 23.2427L125.439 22.9578C125.313 22.7678 125.186 22.5767 125.058 22.3857C124.511 21.6507 123.921 20.9237 123.235 20.2837C122.907 19.9447 122.538 19.6547 122.18 19.3417C121.996 19.1927 121.805 19.0537 121.616 18.9087C121.427 18.7637 121.236 18.6198 121.035 18.4918C120.836 18.3598 120.637 18.2268 120.437 18.0928C120.231 17.9708 120.025 17.8477 119.818 17.7247L119.506 17.5408L119.185 17.3738C118.97 17.2628 118.755 17.1517 118.539 17.0397C118.318 16.9397 118.097 16.8387 117.875 16.7377L117.54 16.5878L117.199 16.4528C116.971 16.3638 116.743 16.2697 116.513 16.1847C116.28 16.1057 116.047 16.0258 115.813 15.9468C115.58 15.8628 115.342 15.7968 115.103 15.7278C114.864 15.6618 114.626 15.5847 114.384 15.5267C113.899 15.4117 113.413 15.2868 112.917 15.1998C111.929 15.0018 110.917 14.8778 109.891 14.8068C107.839 14.6658 105.723 14.7737 103.603 15.1847C102.542 15.3877 101.485 15.6878 100.438 16.0648C99.391 16.4408 98.361 16.9287 97.374 17.5287L97.003 17.7527L96.642 18.0007C96.402 18.1667 96.158 18.3277 95.93 18.5187L95.583 18.7947C95.466 18.8867 95.351 18.9798 95.248 19.0778C95.035 19.2718 94.822 19.4658 94.608 19.6598C93.779 20.4678 92.974 21.3298 92.292 22.3118C91.602 23.2828 90.941 24.4058 90.41 25.6898C89.878 26.9718 89.48 28.4138 89.295 29.9608C88.921 33.0508 89.401 36.5518 90.895 39.8278C91.252 40.6548 91.697 41.4528 92.166 42.2498C92.661 43.0298 93.182 43.8108 93.784 44.5428C94.369 45.2888 95.026 45.9898 95.717 46.6708C96.074 46.9988 96.422 47.3428 96.803 47.6508C96.992 47.8068 97.176 47.9707 97.37 48.1227C97.566 48.2717 97.763 48.4218 97.96 48.5718C98.155 48.7258 98.361 48.8648 98.567 49.0048C98.773 49.1438 98.979 49.2898 99.186 49.4238C99.597 49.6778 100.011 49.9337 100.428 50.1907C100.637 50.3177 100.842 50.4528 101.057 50.5728C101.273 50.6928 101.489 50.8128 101.706 50.9338C101.923 51.0538 102.14 51.1748 102.358 51.2958C102.576 51.4178 102.793 51.5408 103.022 51.6468C103.473 51.8688 103.927 52.0908 104.383 52.3148C104.843 52.5308 105.319 52.7188 105.791 52.9228C106.259 53.1338 106.749 53.3008 107.237 53.4758C107.481 53.5628 107.726 53.6507 107.971 53.7377C108.215 53.8277 108.47 53.8888 108.719 53.9658C108.97 54.0388 109.222 54.1128 109.473 54.1858C109.725 54.2608 109.977 54.3348 110.235 54.3878C110.748 54.5048 111.263 54.6217 111.78 54.7397C112.301 54.8287 112.824 54.9167 113.349 55.0057C113.611 55.0567 113.876 55.0788 114.14 55.1108C114.404 55.1408 114.669 55.1718 114.934 55.2018C117.056 55.4158 119.206 55.4757 121.357 55.4037C121.896 55.3937 122.431 55.3538 122.97 55.3298L123.778 55.2878L124.584 55.2247C125.122 55.1817 125.661 55.1378 126.201 55.0948C126.738 55.0398 127.277 54.9858 127.816 54.9308C128.356 54.8788 128.894 54.8168 129.432 54.7498C129.97 54.6848 130.51 54.6208 131.05 54.5558C131.594 54.4748 132.14 54.3938 132.686 54.3118L133.505 54.1888C133.778 54.1468 134.048 54.0867 134.319 54.0367C134.861 53.9317 135.404 53.8267 135.948 53.7217C136.49 53.6107 137.026 53.4738 137.565 53.3508C138.647 53.1148 139.709 52.8028 140.779 52.5168C141.314 52.3748 141.838 52.1978 142.368 52.0408C142.895 51.8738 143.429 51.7268 143.95 51.5428C144.996 51.1878 146.046 50.8447 147.077 50.4557C149.153 49.7117 151.185 48.8798 153.203 48.0458C155.211 47.1908 157.2 46.3238 159.156 45.4338C161.116 44.5498 163.048 43.6558 164.962 42.7778C166.876 41.8968 168.762 41.0468 170.64 40.1988C174.385 38.4948 177.984 36.7978 181.496 35.3538C183.25 34.6258 184.986 33.9788 186.691 33.3948C188.398 32.8148 190.084 32.3437 191.73 31.9427C194.953 31.2187 198.039 30.8728 200.872 30.9788ZM204.532 31.4028C204.761 31.5298 204.953 31.6427 205.102 31.7297C205.13 31.7457 205.151 31.7578 205.176 31.7728C204.967 31.6888 204.751 31.6028 204.523 31.5118C204.351 31.4418 204.172 31.3688 203.989 31.2958C204.172 31.3278 204.353 31.3648 204.532 31.4028ZM191.534 30.9518C189.845 31.3198 188.114 31.7608 186.367 32.3088C184.622 32.8608 182.847 33.4788 181.059 34.1738C177.479 35.5538 173.825 37.1838 170.063 38.8018C168.183 39.6048 166.257 40.4268 164.329 41.2678C162.399 42.1078 160.45 42.9627 158.484 43.8047C156.519 44.6537 154.53 45.4758 152.527 46.2848C150.517 47.0718 148.496 47.8568 146.446 48.5488C145.426 48.9138 144.392 49.2298 143.362 49.5588C142.848 49.7308 142.326 49.8638 141.808 50.0168C141.288 50.1618 140.773 50.3257 140.25 50.4537C139.205 50.7137 138.166 50.9998 137.114 51.2098C136.589 51.3198 136.067 51.4438 135.541 51.5428C135.014 51.6358 134.488 51.7277 133.963 51.8207C133.7 51.8647 133.438 51.9188 133.174 51.9548L132.383 52.0597C131.856 52.1297 131.33 52.1987 130.804 52.2687C130.27 52.3237 129.737 52.3788 129.205 52.4338C128.673 52.4908 128.141 52.5438 127.611 52.5858C127.487 52.5968 127.363 52.6067 127.238 52.6177C127.252 52.6127 127.263 52.6067 127.277 52.6017C127.825 52.4047 128.532 52.3028 129.37 52.1988C130.221 52.1098 131.161 51.8708 132.21 51.6598C134.311 51.2318 136.756 50.4488 139.409 49.4058C142.034 48.2688 144.809 46.8548 147.663 45.2848C151.552 43.1588 155.134 41.0998 158.235 39.4178C159.796 38.6028 161.211 37.8198 162.495 37.2098C163.132 36.8918 163.727 36.5938 164.275 36.3198C164.832 36.0668 165.342 35.8357 165.8 35.6277C166.277 35.4707 166.807 35.2948 167.387 35.1038C167.967 34.9138 168.607 34.7257 169.286 34.5107C170.647 34.0917 172.184 33.6047 173.868 33.0997C177.235 32.0987 181.179 30.9577 185.468 30.3027C187.045 30.0777 188.59 29.8837 190.087 29.8257C190.835 29.7657 191.571 29.7878 192.292 29.7668C192.652 29.7668 193.008 29.7867 193.361 29.7947C193.713 29.8107 194.065 29.8008 194.404 29.8428C195.421 29.9078 196.396 30.0317 197.325 30.1907C195.46 30.2947 193.521 30.5508 191.534 30.9518Z" fill="#D2A339"/>
<path d="M173.899 27.1511C173.567 27.2591 173.235 27.3642 172.903 27.4702C172.609 27.5682 172.309 27.6442 172.013 27.7332C171.715 27.8162 171.42 27.9102 171.12 27.9832C170.521 28.1322 169.926 28.2961 169.323 28.4161C169.022 28.4791 168.723 28.5501 168.422 28.6071C168.12 28.6601 167.819 28.7131 167.517 28.7661C167.366 28.7911 167.216 28.8221 167.065 28.8421L166.612 28.9021C166.31 28.9421 166.008 28.9822 165.707 29.0222C165.401 29.0542 165.096 29.0852 164.79 29.1162C164.485 29.1492 164.18 29.1791 163.877 29.2031C163.806 29.2091 163.735 29.2151 163.663 29.2211C163.671 29.2181 163.677 29.2152 163.686 29.2122C163.95 29.1172 164.282 29.0611 164.665 29.0101C164.325 29.0461 163.981 29.0731 163.633 29.0881C163.53 29.1371 163.443 29.1921 163.363 29.2471C163.231 29.2581 163.099 29.2701 162.967 29.2811C162.665 29.3001 162.363 29.3201 162.062 29.3391L161.611 29.3671L161.162 29.3831C160.863 29.3911 160.564 29.4092 160.268 29.4102C159.08 29.4312 157.912 29.3801 156.775 29.2481C156.633 29.2301 156.492 29.2111 156.35 29.1931C156.209 29.1741 156.067 29.1601 155.929 29.1301C155.651 29.0791 155.373 29.0281 155.097 28.9761C154.824 28.9101 154.553 28.8441 154.283 28.7781C154.147 28.7481 154.015 28.7071 153.882 28.6651C153.75 28.6241 153.618 28.5832 153.486 28.5432C153.355 28.5002 153.221 28.4671 153.093 28.4171C152.964 28.3691 152.836 28.3211 152.707 28.2731C152.45 28.1771 152.193 28.0872 151.947 27.9702C151.699 27.8582 151.448 27.7561 151.205 27.6381C150.964 27.5151 150.723 27.3932 150.484 27.2722C150.363 27.2142 150.247 27.1461 150.131 27.0791C150.015 27.0121 149.899 26.9461 149.783 26.8801C149.667 26.8141 149.552 26.7481 149.437 26.6821C149.322 26.6161 149.212 26.5411 149.099 26.4711C148.875 26.3291 148.653 26.1871 148.432 26.0471C148.325 25.9761 148.225 25.9021 148.121 25.8301C148.018 25.7581 147.915 25.6872 147.818 25.6082C147.72 25.5312 147.621 25.4541 147.523 25.3781C147.426 25.3001 147.335 25.2172 147.24 25.1372C147.049 24.9802 146.877 24.8041 146.699 24.6381C146.356 24.2911 146.029 23.9361 145.741 23.5591C145.443 23.1891 145.188 22.7961 144.945 22.4061C144.717 22.0071 144.499 21.6101 144.328 21.2011C144.145 20.7971 144.007 20.3842 143.881 19.9782C143.83 19.7722 143.769 19.5701 143.728 19.3671C143.689 19.1631 143.64 18.9631 143.618 18.7611C143.499 17.9581 143.493 17.1801 143.585 16.4561C143.676 15.7321 143.864 15.0632 144.115 14.4652C144.365 13.8672 144.677 13.3412 145.004 12.8792C145.326 12.4122 145.715 11.9971 146.117 11.6021C146.221 11.5071 146.325 11.4111 146.429 11.3161C146.48 11.2661 146.533 11.2231 146.586 11.1821L146.744 11.0551C146.846 10.9671 146.96 10.8931 147.071 10.8151L147.237 10.6992L147.411 10.5931C147.873 10.3091 148.366 10.0701 148.877 9.88312C149.388 9.69512 149.91 9.54015 150.441 9.43415C151.502 9.21815 152.581 9.14711 153.631 9.20411C154.156 9.23311 154.675 9.28713 155.181 9.38013C155.436 9.41913 155.684 9.47911 155.932 9.53211C156.056 9.55911 156.177 9.59612 156.299 9.62812C156.421 9.66012 156.543 9.69112 156.662 9.73212C158.583 10.3041 160.238 11.3752 161.302 12.7622C161.365 12.8512 161.428 12.9391 161.491 13.0281L161.585 13.1602L161.667 13.2971C161.722 13.3881 161.777 13.4792 161.832 13.5692C161.879 13.6632 161.926 13.7571 161.973 13.8501L162.044 13.9901C162.066 14.0371 162.083 14.0862 162.103 14.1342C162.142 14.2302 162.181 14.3251 162.22 14.4201C162.253 14.5171 162.282 14.6151 162.313 14.7111L162.36 14.8561C162.373 14.9041 162.383 14.9541 162.395 15.0031C162.418 15.1011 162.441 15.1981 162.463 15.2951C162.478 15.3931 162.492 15.4911 162.507 15.5881L162.529 15.7341L162.539 15.8801C162.546 15.9781 162.553 16.0741 162.56 16.1711C162.559 16.2681 162.559 16.3641 162.558 16.4601C162.557 16.5081 162.559 16.5562 162.557 16.6032L162.545 16.7451C162.537 16.8401 162.529 16.9341 162.522 17.0271C162.507 17.1201 162.493 17.2121 162.478 17.3031C162.471 17.3491 162.465 17.3951 162.456 17.4401L162.424 17.5742C162.403 17.6642 162.382 17.7521 162.361 17.8411C162.334 17.9281 162.306 18.0131 162.279 18.0991L162.239 18.2271C162.224 18.2691 162.206 18.3101 162.19 18.3511C162.157 18.4331 162.125 18.5151 162.093 18.5971C162.058 18.6771 162.017 18.7542 161.981 18.8322C161.911 18.9902 161.819 19.1342 161.736 19.2802C161.39 19.8572 160.948 20.3231 160.486 20.6881C160.021 21.0521 159.527 21.3071 159.048 21.4711C158.568 21.6321 158.103 21.7201 157.68 21.7311C157.627 21.7341 157.575 21.7392 157.523 21.7412C157.471 21.7402 157.42 21.7391 157.37 21.7381C157.269 21.7361 157.172 21.7342 157.076 21.7332C157.02 21.7272 156.967 21.7221 156.912 21.7171C157.721 21.3151 158.239 20.4261 158.139 19.4561C158.012 18.2191 156.931 17.3222 155.725 17.4522C154.519 17.5822 153.644 18.6911 153.771 19.9281C153.885 21.0351 154.762 21.8671 155.81 21.9371C155.859 21.9601 155.909 21.9842 155.962 22.0092C156.108 22.0612 156.265 22.1181 156.433 22.1781C156.606 22.2311 156.798 22.2731 157.003 22.3231C157.108 22.3381 157.215 22.3542 157.326 22.3712C157.382 22.3792 157.438 22.3871 157.496 22.3951C157.554 22.4011 157.613 22.4022 157.672 22.4052C158.149 22.4462 158.69 22.4031 159.265 22.2651C159.84 22.1251 160.447 21.8721 161.029 21.4791C161.608 21.0861 162.17 20.5621 162.625 19.8951C162.736 19.7271 162.854 19.5592 162.95 19.3742C163 19.2832 163.053 19.1921 163.1 19.0981C163.144 19.0021 163.189 18.9051 163.234 18.8081C163.256 18.7591 163.279 18.7101 163.3 18.6611L163.357 18.5092C163.395 18.4072 163.433 18.3041 163.471 18.2001C163.502 18.0941 163.533 17.9872 163.564 17.8792L163.61 17.7171C163.623 17.6621 163.634 17.6072 163.646 17.5512C163.669 17.4402 163.692 17.3272 163.715 17.2152C163.732 17.1012 163.745 16.9861 163.76 16.8701L163.782 16.6961C163.787 16.6381 163.789 16.5791 163.792 16.5201C163.798 16.4021 163.803 16.2831 163.809 16.1641C163.806 16.0451 163.802 15.9241 163.799 15.8031L163.793 15.6212L163.774 15.4392C163.76 15.3172 163.746 15.1951 163.733 15.0721C163.71 14.9511 163.687 14.8291 163.663 14.7061C163.651 14.6451 163.64 14.5832 163.626 14.5222L163.576 14.3402C163.542 14.2192 163.51 14.0961 163.473 13.9751C163.43 13.8561 163.386 13.7362 163.342 13.6162C163.319 13.5562 163.299 13.4952 163.274 13.4362L163.194 13.2611C163.14 13.1441 163.085 13.0261 163.031 12.9081C162.968 12.7951 162.905 12.6811 162.841 12.5671L162.745 12.3961L162.638 12.2321C162.566 12.1231 162.493 12.0141 162.42 11.9041C162.106 11.4831 161.768 11.0662 161.375 10.6992C161.187 10.5052 160.975 10.3381 160.771 10.1591C160.666 10.0741 160.556 9.99414 160.448 9.91114C160.34 9.82814 160.23 9.74612 160.115 9.67212C160.001 9.59612 159.887 9.52012 159.773 9.44312C159.655 9.37312 159.537 9.30312 159.418 9.23212L159.239 9.12714L159.055 9.03113C158.932 8.96713 158.808 8.90315 158.685 8.84015C158.559 8.78315 158.432 8.72512 158.305 8.66712L158.113 8.58112L157.918 8.50416C157.787 8.45316 157.657 8.3991 157.525 8.3501C157.392 8.3051 157.258 8.25914 157.124 8.21314C156.99 8.16514 156.854 8.12714 156.717 8.08814C156.58 8.05014 156.444 8.00615 156.305 7.97315C156.027 7.90715 155.748 7.83516 155.464 7.78516C154.898 7.67216 154.318 7.60112 153.73 7.56012C152.554 7.47912 151.342 7.54113 150.126 7.77613C149.518 7.89213 148.912 8.06416 148.312 8.28016C147.712 8.49516 147.122 8.77515 146.556 9.11915L146.343 9.24811L146.136 9.39014C145.998 9.48514 145.859 9.57814 145.728 9.68714L145.529 9.84516C145.462 9.89816 145.396 9.95115 145.337 10.0071C145.215 10.1181 145.093 10.2291 144.97 10.3411C144.495 10.8041 144.034 11.2981 143.643 11.8611C143.248 12.4181 142.869 13.0611 142.564 13.7971C142.259 14.5311 142.031 15.3581 141.925 16.2441C141.71 18.0151 141.986 20.0211 142.842 21.8991C143.047 22.3731 143.302 22.8301 143.571 23.2871C143.854 23.7341 144.153 24.1811 144.498 24.6011C144.833 25.0291 145.21 25.4301 145.606 25.8201C145.81 26.0081 146.01 26.2051 146.229 26.3811C146.337 26.4711 146.443 26.5641 146.554 26.6511C146.666 26.7371 146.779 26.8221 146.892 26.9081C147.004 26.9961 147.122 27.0761 147.24 27.1561C147.358 27.2361 147.476 27.3201 147.595 27.3961C147.831 27.5421 148.068 27.6881 148.306 27.8361C148.426 27.9091 148.543 27.9861 148.667 28.0551C148.791 28.1241 148.914 28.1932 149.039 28.2622C149.163 28.3312 149.288 28.4002 149.413 28.4702C149.538 28.5402 149.662 28.6101 149.793 28.6711C150.052 28.7981 150.312 28.9261 150.573 29.0541C150.836 29.1781 151.11 29.2861 151.38 29.4031C151.648 29.5241 151.929 29.6202 152.209 29.7202C152.349 29.7702 152.489 29.8201 152.63 29.8701C152.77 29.9211 152.916 29.9571 153.059 30.0011C153.203 30.0431 153.347 30.0851 153.491 30.1271C153.635 30.1701 153.78 30.2131 153.928 30.2431C154.222 30.3101 154.517 30.3771 154.813 30.4451C155.112 30.4961 155.411 30.5472 155.712 30.5982C155.862 30.6272 156.014 30.6401 156.165 30.6581C156.316 30.6751 156.468 30.6931 156.62 30.7101C157.836 30.8331 159.068 30.8671 160.3 30.8261C160.609 30.8201 160.916 30.7971 161.224 30.7841L161.687 30.7601L162.149 30.7241C162.457 30.6991 162.766 30.6741 163.075 30.6491C163.383 30.6181 163.692 30.5861 164.001 30.5551C164.31 30.5261 164.619 30.4891 164.927 30.4511C165.236 30.4141 165.545 30.3772 165.854 30.3402C166.166 30.2942 166.479 30.2471 166.791 30.2001L167.26 30.1292C167.416 30.1052 167.571 30.0711 167.727 30.0421C168.038 29.9821 168.349 29.9222 168.66 29.8612C168.97 29.7982 169.278 29.7191 169.587 29.6491C170.207 29.5141 170.816 29.3351 171.428 29.1711C171.735 29.0901 172.035 28.9891 172.339 28.8981C172.641 28.8021 172.947 28.7181 173.245 28.6131C173.844 28.4101 174.446 28.2131 175.037 27.9901C175.452 27.8411 175.861 27.6801 176.271 27.5211C176.297 27.2611 176.328 27.0021 176.357 26.7431C175.542 26.8971 174.722 27.0361 173.899 27.1511Z" fill="#D2A339"/>
<path d="M212.352 41.7635C209.374 37.4815 203.52 34.4305 198.046 33.6165C192.461 32.7855 186.8 34.6925 181.946 37.1585C176.245 40.0545 171.107 43.7565 165.692 47.0565C160.561 50.1825 154.911 53.0915 148.639 53.3305C147.935 53.3575 147.282 53.7135 147.27 54.2005C146.944 54.6235 147.222 55.3135 147.792 55.7155C152.102 58.7505 158.281 58.7455 163.389 57.3115C168.664 55.8305 171.571 51.1795 174.169 46.9905C174.413 49.4345 175.071 51.8035 177.257 53.4365C178.21 54.1485 181.281 55.4295 179.145 52.1785C176.909 48.7755 180.065 44.2995 182.722 41.3785C185.89 37.8955 191.118 36.3015 195.859 35.7425C195.994 35.7265 196.109 35.6915 196.218 35.6475C196.686 35.6695 197.157 35.7035 197.63 35.7605C206.665 36.8555 212.317 43.6705 213.492 51.3675C214.408 57.3655 213.383 65.7465 207.085 69.3635C204.312 70.9565 200.751 70.6545 197.834 69.7685C197.398 69.6355 196.988 69.4755 196.602 69.2915C196.682 68.8595 196.487 68.5765 195.997 68.1265C194.664 66.9045 194.317 64.6065 194.818 62.6105C197.26 63.6075 200.644 63.0265 203.111 61.9555C206.4 60.5285 208.708 56.8435 207.105 54.2295C207.043 54.0355 206.959 53.8555 206.843 53.6995C206.772 53.3635 206.511 53.0685 206.162 52.8975C199.163 49.4635 192.178 53.7375 190.385 60.3435C188.383 67.7195 195.005 72.6565 202.635 72.6565C209.847 72.6565 213.988 66.6035 215.446 60.9365C217.073 54.6135 216.148 47.2225 212.352 41.7635ZM203.757 57.7425C203.785 57.7375 203.812 57.7295 203.839 57.7235C203.802 57.7605 203.763 57.7985 203.723 57.8355C203.735 57.8045 203.746 57.7735 203.757 57.7425Z" fill="#D2A339"/>
<path d="M240.671 31.9486C242.317 32.3496 244.003 32.8206 245.71 33.4006C247.415 33.9846 249.151 34.6316 250.905 35.3596C254.418 36.8036 258.016 38.5016 261.761 40.2046C263.639 41.0536 265.525 41.9036 267.439 42.7836C269.352 43.6616 271.285 44.5556 273.245 45.4396C275.201 46.3296 277.191 47.1976 279.198 48.0516C281.216 48.8856 283.248 49.7176 285.324 50.4616C286.355 50.8506 287.405 51.1936 288.451 51.5486C288.972 51.7326 289.506 51.8796 290.033 52.0466C290.563 52.2036 291.087 52.3806 291.622 52.5226C292.691 52.8086 293.753 53.1206 294.835 53.3566C295.375 53.4796 295.911 53.6166 296.452 53.7276C296.995 53.8326 297.538 53.9376 298.081 54.0426C298.353 54.0926 298.622 54.1526 298.895 54.1946L299.714 54.3176C300.26 54.3986 300.805 54.4806 301.35 54.5616C301.89 54.6266 302.429 54.6906 302.968 54.7556C303.506 54.8216 304.044 54.8846 304.584 54.9366C305.123 54.9916 305.662 55.0466 306.199 55.1006C306.739 55.1436 307.278 55.1876 307.816 55.2306L308.622 55.2936L309.431 55.3356C309.97 55.3596 310.505 55.3996 311.044 55.4096C313.194 55.4826 315.345 55.4226 317.466 55.2076C317.731 55.1776 317.996 55.1466 318.26 55.1166C318.524 55.0846 318.789 55.0616 319.051 55.0116C319.576 54.9226 320.099 54.8336 320.62 54.7456C321.137 54.6276 321.652 54.5106 322.165 54.3936C322.423 54.3406 322.675 54.2666 322.927 54.1916C323.179 54.1176 323.43 54.0446 323.681 53.9716C323.931 53.8946 324.185 53.8326 324.43 53.7436C324.675 53.6556 324.92 53.5686 325.164 53.4816C325.653 53.3066 326.142 53.1406 326.61 52.9286C327.081 52.7246 327.558 52.5366 328.018 52.3206C328.474 52.0966 328.928 51.8746 329.379 51.6526C329.607 51.5466 329.825 51.4226 330.042 51.3016C330.26 51.1806 330.478 51.0596 330.694 50.9396C330.911 50.8186 331.127 50.6986 331.343 50.5786C331.558 50.4576 331.763 50.3226 331.972 50.1966C332.388 49.9396 332.802 49.6836 333.213 49.4296C333.419 49.2956 333.626 49.1496 333.832 49.0106C334.038 48.8706 334.244 48.7316 334.439 48.5776C334.636 48.4276 334.833 48.2776 335.029 48.1286C335.223 47.9766 335.408 47.8136 335.596 47.6566C335.978 47.3486 336.326 47.0046 336.682 46.6766C337.373 45.9956 338.03 45.2946 338.615 44.5486C339.216 43.8156 339.738 43.0356 340.233 42.2556C340.702 41.4586 341.147 40.6606 341.504 39.8336C342.999 36.5566 343.479 33.0556 343.105 29.9666C342.92 28.4196 342.522 26.9776 341.99 25.6956C341.459 24.4116 340.798 23.2896 340.108 22.3176C339.426 21.3356 338.621 20.4736 337.792 19.6656C337.578 19.4706 337.365 19.2766 337.152 19.0836C337.049 18.9856 336.935 18.8926 336.817 18.8006L336.47 18.5246C336.242 18.3346 335.999 18.1726 335.758 18.0066L335.397 17.7586L335.026 17.5346C334.038 16.9346 333.009 16.4466 331.961 16.0706C330.914 15.6936 329.857 15.3936 328.796 15.1906C326.676 14.7796 324.56 14.6716 322.508 14.8126C321.482 14.8846 320.47 15.0086 319.482 15.2056C318.986 15.2916 318.499 15.4166 318.014 15.5326C317.772 15.5916 317.534 15.6676 317.295 15.7336C317.056 15.8026 316.818 15.8686 316.585 15.9526C316.351 16.0326 316.118 16.1116 315.885 16.1906C315.654 16.2756 315.427 16.3696 315.199 16.4586L314.858 16.5936L314.523 16.7436C314.301 16.8446 314.079 16.9446 313.859 17.0456C313.643 17.1576 313.427 17.2686 313.213 17.3796L312.892 17.5466L312.58 17.7306C312.373 17.8536 312.166 17.9756 311.96 18.0986C311.76 18.2316 311.561 18.3646 311.362 18.4976C311.161 18.6256 310.97 18.7696 310.781 18.9146C310.592 19.0596 310.401 19.1986 310.217 19.3476C309.86 19.6606 309.49 19.9506 309.162 20.2896C308.476 20.9296 307.886 21.6576 307.339 22.3916C307.212 22.5826 307.085 22.7736 306.958 22.9636L306.771 23.2486L306.603 23.5476C306.492 23.7466 306.382 23.9446 306.272 24.1426C306.177 24.3486 306.082 24.5536 305.987 24.7576L305.848 25.0636C305.805 25.1666 305.769 25.2736 305.73 25.3776C305.654 25.5876 305.578 25.7966 305.502 26.0046C305.438 26.2166 305.381 26.4306 305.322 26.6426L305.235 26.9596C305.21 27.0666 305.192 27.1746 305.171 27.2806C305.13 27.4946 305.09 27.7076 305.05 27.9196C305.026 28.1336 305.002 28.3476 304.978 28.5596L304.944 28.8766L304.934 29.1946C304.928 29.4056 304.923 29.6156 304.917 29.8236C304.927 30.0316 304.937 30.2396 304.946 30.4456C304.952 30.5486 304.955 30.6516 304.963 30.7536L305.001 31.0576C305.027 31.2596 305.05 31.4606 305.08 31.6596C305.12 31.8566 305.16 32.0516 305.2 32.2466C305.221 32.3436 305.239 32.4406 305.262 32.5366L305.343 32.8196C305.397 33.0076 305.451 33.1936 305.505 33.3796C305.572 33.5606 305.638 33.7396 305.704 33.9186L305.803 34.1846C305.84 34.2716 305.88 34.3566 305.919 34.4416C305.997 34.6116 306.075 34.7806 306.152 34.9476C306.234 35.1126 306.328 35.2706 306.414 35.4296C306.581 35.7526 306.788 36.0456 306.98 36.3396C307.774 37.5036 308.755 38.4186 309.766 39.1046C310.781 39.7896 311.841 40.2316 312.844 40.4766C313.848 40.7176 314.792 40.7916 315.625 40.7206C315.729 40.7146 315.832 40.7126 315.932 40.7026C316.032 40.6886 316.131 40.6746 316.228 40.6606C316.421 40.6316 316.609 40.6046 316.791 40.5776C317.148 40.4906 317.482 40.4166 317.785 40.3246C318.078 40.2196 318.352 40.1206 318.607 40.0296C318.7 39.9866 318.786 39.9446 318.872 39.9046C320.7 39.7826 322.232 38.3296 322.43 36.3976C322.652 34.2386 321.125 32.3046 319.02 32.0776C316.915 31.8506 315.029 33.4166 314.808 35.5746C314.634 37.2666 315.537 38.8176 316.949 39.5196C316.854 39.5286 316.761 39.5376 316.664 39.5486C316.498 39.5516 316.327 39.5546 316.152 39.5576C316.064 39.5596 315.975 39.5616 315.885 39.5636C315.795 39.5616 315.704 39.5516 315.611 39.5466C314.872 39.5266 314.061 39.3736 313.223 39.0926C312.386 38.8066 311.524 38.3626 310.713 37.7266C309.907 37.0896 309.136 36.2766 308.532 35.2696C308.387 35.0146 308.227 34.7646 308.105 34.4886C308.041 34.3526 307.969 34.2186 307.909 34.0786C307.853 33.9366 307.796 33.7936 307.739 33.6496C307.711 33.5776 307.68 33.5066 307.654 33.4336L307.584 33.2096C307.537 33.0606 307.489 32.9106 307.441 32.7596C307.405 32.6056 307.369 32.4506 307.332 32.2946L307.276 32.0606C307.261 31.9816 307.251 31.9006 307.238 31.8216C307.213 31.6616 307.187 31.5006 307.161 31.3396C307.147 31.1766 307.134 31.0126 307.12 30.8476L307.099 30.6006C307.096 30.5176 307.098 30.4336 307.097 30.3506C307.096 30.1836 307.095 30.0156 307.094 29.8476C307.106 29.6796 307.118 29.5106 307.13 29.3406L307.148 29.0856L307.187 28.8306C307.213 28.6606 307.238 28.4896 307.264 28.3186C307.304 28.1496 307.343 27.9796 307.383 27.8086C307.403 27.7236 307.42 27.6376 307.443 27.5526L307.524 27.3006C307.579 27.1326 307.629 26.9616 307.686 26.7926C307.754 26.6276 307.821 26.4606 307.89 26.2936C307.925 26.2106 307.955 26.1256 307.993 26.0426L308.116 25.7986C308.198 25.6356 308.28 25.4726 308.362 25.3076C308.458 25.1496 308.554 24.9916 308.65 24.8326L308.794 24.5936L308.957 24.3636C309.066 24.2096 309.176 24.0556 309.286 23.8996C311.142 21.4786 314.031 19.6106 317.383 18.6116C317.59 18.5416 317.803 18.4876 318.016 18.4306C318.229 18.3766 318.441 18.3116 318.657 18.2636C319.091 18.1696 319.524 18.0656 319.968 17.9976C320.851 17.8366 321.757 17.7416 322.672 17.6906C324.504 17.5916 326.386 17.7146 328.239 18.0916C329.166 18.2776 330.078 18.5476 330.969 18.8756C331.862 19.2016 332.721 19.6196 333.527 20.1146L333.831 20.2986L334.121 20.5016C334.315 20.6366 334.514 20.7666 334.692 20.9196L334.968 21.1406C335.061 21.2126 335.153 21.2876 335.243 21.3746C335.424 21.5406 335.606 21.7076 335.788 21.8736C336.489 22.5636 337.169 23.2876 337.73 24.1016C338.301 24.9066 338.845 25.8246 339.281 26.8686C339.718 27.9116 340.047 29.0786 340.205 30.3426C340.365 31.6056 340.355 32.9646 340.147 34.3656C340.108 34.7176 340.022 35.0666 339.955 35.4226C339.882 35.7776 339.777 36.1306 339.688 36.4896C339.467 37.1976 339.228 37.9186 338.908 38.6236C338.609 39.3376 338.229 40.0306 337.831 40.7266C337.407 41.4076 336.962 42.0936 336.442 42.7386C335.939 43.3966 335.368 44.0156 334.77 44.6216C334.46 44.9126 334.159 45.2186 333.826 45.4926C333.662 45.6316 333.502 45.7786 333.333 45.9136C333.162 46.0466 332.991 46.1806 332.819 46.3146C332.65 46.4526 332.47 46.5766 332.29 46.7016C332.109 46.8266 331.935 46.9556 331.747 47.0796C331.361 47.3246 330.973 47.5716 330.582 47.8196C330.386 47.9416 330.193 48.0726 329.992 48.1886C329.791 48.3036 329.59 48.4186 329.388 48.5346C329.186 48.6506 328.984 48.7666 328.781 48.8826C328.578 48.9996 328.376 49.1186 328.165 49.2196C327.748 49.4316 327.328 49.6436 326.907 49.8576C326.483 50.0646 326.045 50.2416 325.612 50.4376C325.181 50.6406 324.733 50.7986 324.285 50.9656C324.061 51.0496 323.837 51.1336 323.612 51.2176C323.388 51.3046 323.155 51.3626 322.926 51.4376C322.696 51.5086 322.466 51.5796 322.235 51.6506C322.004 51.7236 321.773 51.7956 321.536 51.8476C321.064 51.9626 320.591 52.0776 320.115 52.1936C319.633 52.2826 319.149 52.3716 318.663 52.4616C318.421 52.5126 318.174 52.5376 317.928 52.5706C317.681 52.6026 317.435 52.6346 317.187 52.6666C315.203 52.8966 313.164 52.9876 311.091 52.9496C310.574 52.9486 310.052 52.9166 309.531 52.9026L308.747 52.8746L307.96 52.8266C307.435 52.7926 306.908 52.7596 306.381 52.7256C306.151 52.7056 305.921 52.6866 305.69 52.6666C305.55 52.5686 305.396 52.4726 305.214 52.3856C304.664 52.1106 303.938 51.9206 303.116 51.7296C302.298 51.5566 301.394 51.2286 300.382 50.9296C298.358 50.3256 296.026 49.3786 293.491 48.2336C291 47.0016 288.288 45.5166 285.435 43.9476C281.555 41.8266 277.868 39.9076 274.643 38.4226C273.018 37.7046 271.54 37.0346 270.195 36.5376C269.528 36.2806 268.905 36.0406 268.33 35.8186C267.746 35.6256 267.212 35.4486 266.732 35.2896C266.271 35.0806 265.757 34.8486 265.196 34.5946C264.633 34.3446 264.016 34.0966 263.357 33.8206C262.035 33.2786 260.536 32.6676 258.875 32.0486C255.556 30.8206 251.586 29.4836 247.156 28.8056C245.528 28.5726 243.925 28.3966 242.369 28.3786C241.593 28.3386 240.827 28.3856 240.08 28.3946C239.706 28.4096 239.337 28.4456 238.972 28.4706C238.607 28.5036 238.247 28.5116 237.891 28.5726C235.335 28.8686 233.1 29.5466 231.226 30.2196C230.826 30.2486 230.432 30.2876 230.043 30.3346C230.862 29.9666 231.827 29.5716 232.935 29.1816C233.176 29.0966 233.423 29.0106 233.675 28.9216C233.93 28.8406 234.191 28.7586 234.456 28.6746C234.984 28.4976 235.546 28.3526 236.121 28.1836C237.28 27.8796 238.522 27.5716 239.841 27.3336C241.16 27.0956 242.551 26.8976 243.991 26.7986C244.713 26.7506 245.439 26.7306 246.183 26.7446C246.557 26.7576 246.934 26.7706 247.313 26.7826C247.692 26.7986 248.074 26.8356 248.458 26.8606C252.637 27.1946 256.512 28.0836 259.793 28.9466C263.072 29.8366 265.769 30.7156 267.617 31.3356C268.498 31.7586 269.591 32.2496 270.819 32.8866C272.049 33.5196 273.443 34.2276 274.969 34.9886C276.466 35.8176 278.09 36.7126 279.817 37.6386C281.519 38.6196 283.312 39.6536 285.165 40.7216C286.519 41.5276 287.846 42.3046 289.133 43.0466C290.391 43.7826 291.559 44.5896 292.68 45.3716C293.799 46.1546 294.866 46.9106 295.883 47.5966C296.9 48.2836 297.874 48.8896 298.78 49.4146C300.602 50.4516 302.189 51.0776 303.31 51.3846C303.592 51.4586 303.839 51.5296 304.057 51.5786C304.277 51.6176 304.463 51.6506 304.613 51.6776C304.912 51.7296 305.069 51.7566 305.069 51.7566C305.069 51.7566 304.917 51.7076 304.627 51.6136C304.483 51.5676 304.304 51.5106 304.093 51.4436C303.885 51.3666 303.65 51.2656 303.383 51.1596C302.321 50.7216 300.852 49.9406 299.167 48.7666C298.327 48.1726 297.423 47.5006 296.468 46.7486C295.509 45.9906 294.486 45.1816 293.409 44.3306C292.321 43.4846 291.151 42.6026 289.856 41.7966C288.582 41.0146 287.258 40.2126 285.897 39.4016C284.035 38.3156 282.19 37.3386 280.452 36.3976C278.675 35.5266 276.991 34.7136 275.433 33.9836C273.843 33.3196 272.385 32.7246 271.098 32.2066C269.813 31.6846 268.67 31.3126 267.746 30.9926C265.973 30.1606 263.359 29.0056 260.1 27.8796C256.84 26.7826 252.912 25.6936 248.568 25.3456C248.169 25.3196 247.773 25.2836 247.377 25.2696C246.981 25.2606 246.588 25.2516 246.198 25.2426C245.413 25.2396 244.632 25.2766 243.878 25.3496C242.367 25.4956 240.933 25.7616 239.586 26.0786C238.238 26.3956 236.985 26.7926 235.823 27.1906C235.247 27.4066 234.687 27.5996 234.163 27.8246C233.9 27.9336 233.642 28.0396 233.389 28.1436C233.14 28.2566 232.897 28.3676 232.659 28.4756C231.115 29.1836 229.873 29.8956 228.944 30.4936C228.291 30.6056 227.656 30.7436 227.046 30.9196C225.968 31.2316 224.969 31.6696 224.105 32.2436C224.184 32.3786 224.257 32.5216 224.312 32.6806C224.321 32.7076 224.334 32.7296 224.343 32.7566C225.174 32.2296 226.148 31.8296 227.212 31.5546C227.31 31.5296 227.413 31.5106 227.512 31.4876C227.42 31.5586 227.335 31.6246 227.263 31.6806C227.174 31.7506 227.105 31.8036 227.048 31.8476C226.609 32.0236 226.209 32.1836 225.862 32.3226C225.172 32.5846 224.673 32.7736 224.393 32.8796C224.398 32.8906 224.402 32.9026 224.407 32.9136C224.699 32.8436 225.216 32.7206 225.931 32.5496C226.506 32.3906 227.209 32.1976 228.025 31.9726C228.837 31.7406 229.761 31.4766 230.782 31.1856C231.025 31.1186 231.274 31.0516 231.527 30.9846C234.374 30.8736 237.46 31.2196 240.671 31.9486ZM228.424 31.2966C228.242 31.3696 228.062 31.4426 227.89 31.5126C227.662 31.6036 227.446 31.6896 227.237 31.7736C227.262 31.7586 227.283 31.7466 227.311 31.7306C227.46 31.6436 227.652 31.5306 227.881 31.4036C228.06 31.3656 228.24 31.3286 228.424 31.2966ZM235.088 30.1926C236.017 30.0336 236.992 29.9096 238.009 29.8446C238.348 29.8026 238.7 29.8126 239.052 29.7966C239.405 29.7886 239.761 29.7686 240.121 29.7686C240.842 29.7896 241.578 29.7676 242.326 29.8276C243.824 29.8856 245.368 30.0796 246.945 30.3046C251.234 30.9596 255.178 32.1006 258.545 33.1016C260.228 33.6066 261.766 34.0936 263.127 34.5126C263.806 34.7266 264.446 34.9146 265.026 35.1056C265.606 35.2966 266.137 35.4716 266.613 35.6296C267.071 35.8376 267.58 36.0686 268.138 36.3216C268.686 36.5956 269.281 36.8936 269.918 37.2116C271.202 37.8226 272.617 38.6056 274.178 39.4196C277.279 41.1016 280.86 43.1606 284.75 45.2866C287.604 46.8566 290.38 48.2706 293.004 49.4076C295.658 50.4506 298.102 51.2336 300.203 51.6616C301.252 51.8726 302.192 52.1106 303.043 52.2006C303.88 52.3046 304.587 52.4066 305.135 52.6036C305.149 52.6086 305.16 52.6146 305.174 52.6196C305.05 52.6086 304.926 52.5986 304.801 52.5876C304.271 52.5456 303.74 52.4926 303.207 52.4356C302.675 52.3806 302.141 52.3256 301.608 52.2706C301.082 52.2006 300.556 52.1316 300.029 52.0616L299.238 51.9566C298.974 51.9206 298.713 51.8666 298.45 51.8226C297.924 51.7306 297.398 51.6376 296.872 51.5446C296.346 51.4466 295.824 51.3216 295.299 51.2116C294.247 51.0016 293.208 50.7156 292.163 50.4556C291.64 50.3276 291.125 50.1636 290.605 50.0186C290.087 49.8646 289.565 49.7316 289.051 49.5606C288.021 49.2316 286.987 48.9146 285.967 48.5506C283.917 47.8576 281.895 47.0736 279.886 46.2866C277.883 45.4776 275.894 44.6556 273.929 43.8066C271.962 42.9646 270.014 42.1096 268.083 41.2696C266.155 40.4286 264.228 39.6066 262.349 38.8036C258.588 37.1856 254.934 35.5556 251.353 34.1756C249.565 33.4806 247.79 32.8626 246.045 32.3106C244.298 31.7616 242.567 31.3216 240.878 30.9536C238.892 30.5516 236.952 30.2956 235.088 30.1926Z" fill="#D2A339"/>
<path d="M258.515 27.1511C258.847 27.2591 259.179 27.3642 259.511 27.4702C259.805 27.5682 260.105 27.6442 260.401 27.7332C260.699 27.8162 260.994 27.9102 261.294 27.9832C261.893 28.1322 262.488 28.2961 263.091 28.4161C263.392 28.4791 263.691 28.5501 263.992 28.6071C264.294 28.6601 264.595 28.7131 264.896 28.7661C265.047 28.7911 265.197 28.8221 265.348 28.8421L265.801 28.9021C266.103 28.9421 266.405 28.9822 266.706 29.0222C267.012 29.0542 267.317 29.0852 267.623 29.1162C267.928 29.1492 268.233 29.1791 268.536 29.2031C268.607 29.2091 268.678 29.2151 268.75 29.2211C268.742 29.2181 268.736 29.2152 268.728 29.2122C268.464 29.1172 268.132 29.0611 267.749 29.0101C268.089 29.0461 268.433 29.0731 268.781 29.0881C268.884 29.1371 268.971 29.1921 269.051 29.2471C269.183 29.2581 269.315 29.2701 269.447 29.2811C269.749 29.3001 270.051 29.3201 270.352 29.3391L270.803 29.3671L271.252 29.3831C271.551 29.3911 271.85 29.4092 272.146 29.4102C273.334 29.4312 274.502 29.3801 275.639 29.2481C275.781 29.2301 275.922 29.2111 276.064 29.1931C276.205 29.1741 276.347 29.1601 276.485 29.1301C276.763 29.0791 277.041 29.0281 277.317 28.9761C277.589 28.9101 277.861 28.8441 278.131 28.7781C278.267 28.7481 278.399 28.7071 278.532 28.6651C278.665 28.6241 278.796 28.5832 278.928 28.5432C279.059 28.5002 279.193 28.4671 279.321 28.4171C279.45 28.3691 279.578 28.3211 279.707 28.2731C279.964 28.1771 280.221 28.0872 280.467 27.9702C280.715 27.8582 280.966 27.7561 281.209 27.6381C281.45 27.5151 281.691 27.3932 281.93 27.2722C282.051 27.2142 282.167 27.1461 282.283 27.0791C282.399 27.0121 282.515 26.9461 282.631 26.8801C282.747 26.8141 282.862 26.7481 282.977 26.6821C283.092 26.6161 283.202 26.5411 283.315 26.4711C283.539 26.3291 283.761 26.1871 283.982 26.0471C284.089 25.9761 284.189 25.9021 284.293 25.8301C284.396 25.7581 284.499 25.6872 284.596 25.6082C284.694 25.5312 284.793 25.4541 284.89 25.3781C284.987 25.3001 285.079 25.2172 285.173 25.1372C285.364 24.9802 285.536 24.8041 285.714 24.6381C286.057 24.2911 286.383 23.9361 286.672 23.5591C286.97 23.1891 287.225 22.7961 287.468 22.4061C287.696 22.0071 287.914 21.6101 288.085 21.2011C288.268 20.7971 288.405 20.3842 288.532 19.9782C288.583 19.7722 288.644 19.5701 288.685 19.3671C288.724 19.1631 288.773 18.9631 288.795 18.7611C288.914 17.9581 288.92 17.1801 288.828 16.4561C288.737 15.7321 288.549 15.0632 288.298 14.4652C288.048 13.8672 287.736 13.3412 287.409 12.8792C287.087 12.4122 286.698 11.9971 286.296 11.6021C286.192 11.5071 286.088 11.4111 285.984 11.3161C285.933 11.2661 285.88 11.2231 285.827 11.1821L285.669 11.0551C285.567 10.9671 285.453 10.8931 285.342 10.8151L285.176 10.6992L285.002 10.5931C284.54 10.3091 284.047 10.0701 283.536 9.88312C283.025 9.69512 282.503 9.54015 281.972 9.43415C280.911 9.21815 279.832 9.14711 278.782 9.20411C278.257 9.23311 277.738 9.28713 277.232 9.38013C276.978 9.41913 276.729 9.47911 276.481 9.53211C276.357 9.55911 276.236 9.59612 276.114 9.62812C275.992 9.66012 275.87 9.69112 275.751 9.73212C273.83 10.3041 272.175 11.3752 271.111 12.7622C271.048 12.8512 270.985 12.9391 270.922 13.0281L270.828 13.1602L270.746 13.2971C270.691 13.3881 270.636 13.4792 270.581 13.5692C270.534 13.6632 270.487 13.7571 270.44 13.8501L270.369 13.9901C270.347 14.0371 270.33 14.0862 270.31 14.1342C270.271 14.2302 270.232 14.3251 270.193 14.4201C270.16 14.5171 270.131 14.6151 270.1 14.7111L270.054 14.8561C270.041 14.9041 270.031 14.9541 270.02 15.0031C269.997 15.1011 269.974 15.1981 269.952 15.2951C269.937 15.3931 269.922 15.4911 269.908 15.5881L269.886 15.7341L269.876 15.8801C269.869 15.9781 269.862 16.0741 269.855 16.1711C269.856 16.2681 269.856 16.3641 269.857 16.4601C269.857 16.5081 269.856 16.5562 269.858 16.6032L269.87 16.7451C269.878 16.8401 269.886 16.9341 269.893 17.0271C269.908 17.1201 269.922 17.2121 269.937 17.3031C269.945 17.3491 269.951 17.3951 269.959 17.4401L269.991 17.5742C270.012 17.6642 270.033 17.7521 270.054 17.8411C270.081 17.9281 270.109 18.0131 270.136 18.0991L270.176 18.2271C270.191 18.2691 270.209 18.3101 270.225 18.3511C270.258 18.4331 270.29 18.5151 270.323 18.5971C270.358 18.6771 270.399 18.7542 270.435 18.8322C270.505 18.9902 270.597 19.1342 270.68 19.2802C271.026 19.8572 271.468 20.3231 271.93 20.6881C272.395 21.0521 272.889 21.3071 273.368 21.4711C273.848 21.6321 274.313 21.7201 274.736 21.7311C274.789 21.7341 274.841 21.7392 274.893 21.7412C274.945 21.7402 274.995 21.7391 275.046 21.7381C275.147 21.7361 275.244 21.7342 275.34 21.7332C275.396 21.7272 275.449 21.7221 275.504 21.7171C274.695 21.3151 274.177 20.4261 274.277 19.4561C274.404 18.2191 275.485 17.3222 276.691 17.4522C277.897 17.5822 278.772 18.6911 278.645 19.9281C278.532 21.0351 277.654 21.8671 276.606 21.9371C276.557 21.9601 276.507 21.9842 276.454 22.0092C276.308 22.0612 276.151 22.1181 275.983 22.1781C275.81 22.2311 275.618 22.2731 275.413 22.3231C275.308 22.3381 275.201 22.3542 275.09 22.3712C275.034 22.3792 274.978 22.3871 274.92 22.3951C274.862 22.4011 274.803 22.4022 274.744 22.4052C274.267 22.4462 273.726 22.4031 273.15 22.2651C272.576 22.1251 271.968 21.8721 271.386 21.4791C270.807 21.0861 270.244 20.5621 269.79 19.8951C269.68 19.7271 269.561 19.5592 269.465 19.3742C269.415 19.2832 269.362 19.1921 269.315 19.0981C269.271 19.0021 269.226 18.9051 269.181 18.8081C269.159 18.7591 269.136 18.7101 269.115 18.6611L269.058 18.5092C269.02 18.4072 268.982 18.3041 268.944 18.2001C268.913 18.0941 268.883 17.9872 268.851 17.8792L268.805 17.7171C268.792 17.6621 268.781 17.6072 268.769 17.5512C268.746 17.4402 268.723 17.3272 268.7 17.2152C268.683 17.1012 268.67 16.9861 268.655 16.8701L268.633 16.6961C268.628 16.6381 268.626 16.5791 268.623 16.5201C268.617 16.4021 268.612 16.2831 268.606 16.1641C268.609 16.0451 268.613 15.9241 268.616 15.8031L268.622 15.6212L268.641 15.4392C268.655 15.3172 268.668 15.1951 268.682 15.0721C268.705 14.9511 268.728 14.8291 268.752 14.7061C268.764 14.6451 268.775 14.5832 268.789 14.5222L268.839 14.3402C268.873 14.2192 268.905 14.0961 268.942 13.9751C268.985 13.8561 269.029 13.7362 269.073 13.6162C269.096 13.5562 269.116 13.4952 269.141 13.4362L269.221 13.2611C269.275 13.1441 269.33 13.0261 269.384 12.9081C269.447 12.7951 269.51 12.6811 269.574 12.5671L269.67 12.3961L269.777 12.2321C269.849 12.1231 269.922 12.0141 269.995 11.9041C270.309 11.4831 270.647 11.0662 271.04 10.6992C271.228 10.5052 271.44 10.3381 271.644 10.1591C271.749 10.0741 271.859 9.99414 271.967 9.91114C272.075 9.82814 272.185 9.74612 272.3 9.67212C272.414 9.59612 272.528 9.52012 272.642 9.44312C272.76 9.37312 272.878 9.30312 272.997 9.23212L273.176 9.12714L273.36 9.03113C273.483 8.96713 273.606 8.90315 273.73 8.84015C273.856 8.78315 273.983 8.72512 274.111 8.66712L274.303 8.58112L274.498 8.50416C274.629 8.45316 274.759 8.3991 274.891 8.3501C275.024 8.3051 275.158 8.25914 275.292 8.21314C275.426 8.16514 275.562 8.12714 275.699 8.08814C275.836 8.05014 275.972 8.00615 276.111 7.97315C276.389 7.90715 276.668 7.83516 276.952 7.78516C277.518 7.67216 278.098 7.60112 278.686 7.56012C279.862 7.47912 281.074 7.54113 282.29 7.77613C282.898 7.89213 283.504 8.06416 284.104 8.28016C284.704 8.49516 285.294 8.77515 285.86 9.11915L286.073 9.24811L286.28 9.39014C286.418 9.48514 286.557 9.57814 286.688 9.68714L286.887 9.84516C286.954 9.89816 287.02 9.95115 287.079 10.0071C287.201 10.1181 287.323 10.2291 287.446 10.3411C287.921 10.8041 288.382 11.2981 288.773 11.8611C289.168 12.4181 289.547 13.0611 289.852 13.7971C290.157 14.5311 290.385 15.3581 290.491 16.2441C290.705 18.0151 290.43 20.0211 289.574 21.8991C289.369 22.3731 289.114 22.8301 288.845 23.2871C288.562 23.7341 288.263 24.1811 287.918 24.6011C287.582 25.0291 287.206 25.4301 286.81 25.8201C286.606 26.0081 286.406 26.2051 286.187 26.3811C286.079 26.4711 285.973 26.5641 285.862 26.6511C285.75 26.7371 285.637 26.8221 285.524 26.9081C285.412 26.9961 285.294 27.0761 285.176 27.1561C285.058 27.2361 284.94 27.3201 284.821 27.3961C284.585 27.5421 284.348 27.6881 284.11 27.8361C283.99 27.9091 283.873 27.9861 283.749 28.0551C283.625 28.1241 283.501 28.1932 283.377 28.2622C283.253 28.3312 283.128 28.4002 283.003 28.4702C282.878 28.5402 282.754 28.6101 282.623 28.6711C282.364 28.7981 282.104 28.9261 281.843 29.0541C281.58 29.1781 281.306 29.2861 281.036 29.4031C280.768 29.5241 280.487 29.6202 280.207 29.7202C280.067 29.7702 279.927 29.8201 279.786 29.8701C279.646 29.9211 279.5 29.9571 279.357 30.0011C279.213 30.0431 279.069 30.0851 278.925 30.1271C278.781 30.1701 278.636 30.2131 278.488 30.2431C278.194 30.3101 277.899 30.3771 277.603 30.4451C277.304 30.4961 277.005 30.5472 276.704 30.5982C276.554 30.6272 276.402 30.6401 276.251 30.6581C276.099 30.6751 275.948 30.6931 275.796 30.7101C274.58 30.8331 273.348 30.8671 272.115 30.8261C271.806 30.8201 271.499 30.7971 271.191 30.7841L270.728 30.7601L270.266 30.7241C269.958 30.6991 269.649 30.6741 269.34 30.6491C269.032 30.6181 268.724 30.5861 268.415 30.5551C268.105 30.5261 267.797 30.4891 267.489 30.4511C267.18 30.4141 266.871 30.3772 266.562 30.3402C266.25 30.2942 265.937 30.2471 265.625 30.2001L265.155 30.1292C264.999 30.1052 264.844 30.0711 264.688 30.0421C264.377 29.9821 264.066 29.9222 263.755 29.8612C263.445 29.7982 263.137 29.7191 262.828 29.6491C262.208 29.5141 261.599 29.3351 260.986 29.1711C260.679 29.0901 260.379 28.9891 260.075 28.8981C259.773 28.8021 259.467 28.7181 259.169 28.6131C258.57 28.4101 257.968 28.2131 257.377 27.9901C256.962 27.8411 256.553 27.6801 256.143 27.5211C256.117 27.2611 256.087 27.0021 256.057 26.7431C256.872 26.8971 257.692 27.0361 258.515 27.1511Z" fill="#D2A339"/>
<path d="M216.966 60.9375C218.423 66.6045 222.565 72.6575 229.777 72.6575C237.407 72.6575 244.029 67.7195 242.028 60.3445C240.235 53.7395 233.25 49.4645 226.251 52.8985C225.901 53.0695 225.641 53.3645 225.57 53.7005C225.454 53.8565 225.37 54.0365 225.308 54.2305C223.705 56.8455 226.013 60.5295 229.302 61.9565C231.769 63.0275 235.154 63.6085 237.595 62.6115C238.096 64.6075 237.75 66.9055 236.417 68.1275C235.926 68.5775 235.731 68.8605 235.811 69.2925C235.426 69.4765 235.016 69.6375 234.58 69.7695C231.663 70.6565 228.102 70.9575 225.328 69.3645C219.029 65.7475 218.005 57.3665 218.922 51.3685C220.098 43.6725 225.749 36.8565 234.784 35.7615C235.257 35.7045 235.727 35.6695 236.195 35.6485C236.303 35.6915 236.42 35.7275 236.555 35.7435C241.296 36.3025 246.523 37.8955 249.691 41.3795C252.348 44.3005 255.504 48.7765 253.268 52.1795C251.132 55.4305 254.203 54.1495 255.156 53.4375C257.342 51.8045 258.001 49.4345 258.245 46.9915C260.843 51.1815 263.751 55.8325 269.025 57.3125C274.133 58.7465 280.311 58.7525 284.621 55.7165C285.191 55.3155 285.47 54.6245 285.144 54.2015C285.132 53.7135 284.479 53.3575 283.775 53.3315C277.504 53.0925 271.852 50.1825 266.721 47.0575C261.305 43.7575 256.168 40.0555 250.468 37.1595C245.614 34.6935 239.953 32.7865 234.367 33.6175C228.893 34.4315 223.041 37.4825 220.063 41.7645C216.265 47.2235 215.34 54.6145 216.966 60.9375ZM228.69 57.8375C228.65 57.7995 228.611 57.7625 228.574 57.7255C228.601 57.7315 228.628 57.7395 228.656 57.7445C228.666 57.7745 228.678 57.8055 228.69 57.8375Z" fill="#D2A339"/>
<path d="M356.219 13.2754C356.219 13.2754 359.064 21.2844 356.219 25.0834C356.219 25.0834 402.373 14.1904 434.935 13.2754H356.219Z" fill="#D2A339"/>
<path d="M78.715 13.2754C78.715 13.2754 75.87 21.2844 78.715 25.0834C78.715 25.0834 32.56 14.1904 0 13.2754H78.715Z" fill="#D2A339"/>
</svg>
