<svg width="480" height="23" viewBox="0 0 480 23" fill="none" xmlns="http://www.w3.org/2000/svg">
<mask id="mask0_63_18358" style="mask-type:luminance" maskUnits="userSpaceOnUse" x="289" y="10" width="183" height="2">
<path d="M290.316 10.6204H470.746C471.045 10.6204 471.301 10.873 471.301 11.1784C471.301 11.4846 471.045 11.7305 470.746 11.7305H290.316C290.007 11.7305 289.758 11.4846 289.758 11.1784C289.758 10.873 290.007 10.6204 290.316 10.6204Z" fill="white"/>
</mask>
<g mask="url(#mask0_63_18358)">
<path d="M290.316 10.6204H470.746C471.045 10.6204 471.301 10.873 471.301 11.1784C471.301 11.4846 471.045 11.7305 470.746 11.7305H290.316C290.007 11.7305 289.758 11.4846 289.758 11.1784C289.758 10.873 290.007 10.6204 290.316 10.6204Z" fill="#D2A339"/>
</g>
<mask id="mask1_63_18358" style="mask-type:luminance" maskUnits="userSpaceOnUse" x="472" y="9" width="4" height="4">
<path d="M472.762 11.1777C472.762 10.4504 473.35 9.86515 474.074 9.86515C474.796 9.86515 475.387 10.4504 475.387 11.1777C475.387 11.899 474.796 12.4902 474.074 12.4902C473.35 12.4902 472.762 11.899 472.762 11.1777Z" fill="white"/>
</mask>
<g mask="url(#mask1_63_18358)">
<path d="M472.762 11.1777C472.762 10.4504 473.35 9.86515 474.074 9.86515C474.796 9.86515 475.387 10.4504 475.387 11.1777C475.387 11.899 474.796 12.4902 474.074 12.4902C473.35 12.4902 472.762 11.899 472.762 11.1777Z" fill="#D2A339"/>
</g>
<mask id="mask2_63_18358" style="mask-type:luminance" maskUnits="userSpaceOnUse" x="476" y="9" width="4" height="5">
<path d="M476.281 11.1769C476.281 10.1501 477.112 9.32245 478.136 9.32245C479.166 9.32245 479.997 10.1501 479.997 11.1769C479.997 12.1968 479.166 13.0312 478.136 13.0312C477.112 13.0312 476.281 12.1968 476.281 11.1769Z" fill="white"/>
</mask>
<g mask="url(#mask2_63_18358)">
<path d="M476.281 11.1769C476.281 10.1501 477.112 9.32245 478.136 9.32245C479.166 9.32245 479.997 10.1501 479.997 11.1769C479.997 12.1968 479.166 13.0312 478.136 13.0312C477.112 13.0312 476.281 12.1968 476.281 11.1769Z" fill="#D2A339"/>
</g>
<mask id="mask3_63_18358" style="mask-type:luminance" maskUnits="userSpaceOnUse" x="285" y="9" width="4" height="4">
<path d="M285.664 11.1777C285.664 10.4504 286.256 9.86515 286.977 9.86515C287.708 9.86515 288.299 10.4504 288.299 11.1777C288.299 11.899 287.708 12.4902 286.977 12.4902C286.256 12.4902 285.664 11.899 285.664 11.1777Z" fill="white"/>
</mask>
<g mask="url(#mask3_63_18358)">
<path d="M285.664 11.1777C285.664 10.4504 286.256 9.86515 286.977 9.86515C287.708 9.86515 288.299 10.4504 288.299 11.1777C288.299 11.899 287.708 12.4902 286.977 12.4902C286.256 12.4902 285.664 11.899 285.664 11.1777Z" fill="#D2A339"/>
</g>
<mask id="mask4_63_18358" style="mask-type:luminance" maskUnits="userSpaceOnUse" x="281" y="9" width="4" height="5">
<path d="M281.105 11.1769C281.105 10.1501 281.937 9.32245 282.956 9.32245C283.987 9.32245 284.817 10.1501 284.817 11.1769C284.817 12.1968 283.987 13.0312 282.956 13.0312C281.937 13.0312 281.105 12.1968 281.105 11.1769Z" fill="white"/>
</mask>
<g mask="url(#mask4_63_18358)">
<path d="M281.105 11.1769C281.105 10.1501 281.937 9.32245 282.956 9.32245C283.987 9.32245 284.817 10.1501 284.817 11.1769C284.817 12.1968 283.987 13.0312 282.956 13.0312C281.937 13.0312 281.105 12.1968 281.105 11.1769Z" fill="#D2A339"/>
</g>
<mask id="mask5_63_18358" style="mask-type:luminance" maskUnits="userSpaceOnUse" x="8" y="10" width="183" height="2">
<path d="M9.19832 10.6204H189.681C189.984 10.6204 190.236 10.873 190.236 11.1784C190.236 11.4846 189.984 11.7305 189.681 11.7305H9.19832C8.88928 11.7305 8.63672 11.4846 8.63672 11.1784C8.63672 10.873 8.88928 10.6204 9.19832 10.6204Z" fill="white"/>
</mask>
<g mask="url(#mask5_63_18358)">
<path d="M9.19832 10.6204H189.681C189.984 10.6204 190.236 10.873 190.236 11.1784C190.236 11.4846 189.984 11.7305 189.681 11.7305H9.19832C8.88928 11.7305 8.63672 11.4846 8.63672 11.1784C8.63672 10.873 8.88928 10.6204 9.19832 10.6204Z" fill="#D2A339"/>
</g>
<mask id="mask6_63_18358" style="mask-type:luminance" maskUnits="userSpaceOnUse" x="191" y="9" width="4" height="4">
<path d="M191.707 11.1777C191.707 10.4504 192.298 9.86515 193.02 9.86515C193.747 9.86515 194.332 10.4504 194.332 11.1777C194.332 11.899 193.747 12.4902 193.02 12.4902C192.298 12.4902 191.707 11.899 191.707 11.1777Z" fill="white"/>
</mask>
<g mask="url(#mask6_63_18358)">
<path d="M191.707 11.1777C191.707 10.4504 192.298 9.86515 193.02 9.86515C193.747 9.86515 194.332 10.4504 194.332 11.1777C194.332 11.899 193.747 12.4902 193.02 12.4902C192.298 12.4902 191.707 11.899 191.707 11.1777Z" fill="#D2A339"/>
</g>
<mask id="mask7_63_18358" style="mask-type:luminance" maskUnits="userSpaceOnUse" x="195" y="9" width="4" height="5">
<path d="M195.23 11.1769C195.23 10.1501 196.055 9.32245 197.081 9.32245C198.108 9.32245 198.938 10.1501 198.938 11.1769C198.938 12.1968 198.108 13.0312 197.081 13.0312C196.055 13.0312 195.23 12.1968 195.23 11.1769Z" fill="white"/>
</mask>
<g mask="url(#mask7_63_18358)">
<path d="M195.23 11.1769C195.23 10.1501 196.055 9.32245 197.081 9.32245C198.108 9.32245 198.938 10.1501 198.938 11.1769C198.938 12.1968 198.108 13.0312 197.081 13.0312C196.055 13.0312 195.23 12.1968 195.23 11.1769Z" fill="#D2A339"/>
</g>
<mask id="mask8_63_18358" style="mask-type:luminance" maskUnits="userSpaceOnUse" x="4" y="9" width="4" height="4">
<path d="M4.5625 11.1777C4.5625 10.4504 5.15064 9.86515 5.87496 9.86515C6.59937 9.86515 7.1875 10.4504 7.1875 11.1777C7.1875 11.899 6.59937 12.4902 5.87496 12.4902C5.15064 12.4902 4.5625 11.899 4.5625 11.1777Z" fill="white"/>
</mask>
<g mask="url(#mask8_63_18358)">
<path d="M4.5625 11.1777C4.5625 10.4504 5.15064 9.86515 5.87496 9.86515C6.59937 9.86515 7.1875 10.4504 7.1875 11.1777C7.1875 11.899 6.59937 12.4902 5.87496 12.4902C5.15064 12.4902 4.5625 11.899 4.5625 11.1777Z" fill="#D2A339"/>
</g>
<mask id="mask9_63_18358" style="mask-type:luminance" maskUnits="userSpaceOnUse" x="0" y="9" width="4" height="5">
<path d="M0 11.1769C0 10.1501 0.830654 9.32245 1.85415 9.32245C2.87756 9.32245 3.7083 10.1501 3.7083 11.1769C3.7083 12.1968 2.87756 13.0312 1.85415 13.0312C0.830654 13.0312 0 12.1968 0 11.1769Z" fill="white"/>
</mask>
<g mask="url(#mask9_63_18358)">
<path d="M0 11.1769C0 10.1501 0.830654 9.32245 1.85415 9.32245C2.87756 9.32245 3.7083 10.1501 3.7083 11.1769C3.7083 12.1968 2.87756 13.0312 1.85415 13.0312C0.830654 13.0312 0 12.1968 0 11.1769Z" fill="#D2A339"/>
</g>
<mask id="mask10_63_18358" style="mask-type:luminance" maskUnits="userSpaceOnUse" x="228" y="0" width="24" height="23">
<path d="M246.611 11.1776C245.195 11.9321 243.783 12.7394 242.352 13.5067C241.587 14.9392 240.776 16.3512 240.022 17.7633C239.268 16.3512 238.463 14.9392 237.696 13.5067C236.26 12.7394 234.848 11.9321 233.433 11.1776C234.848 10.4299 236.26 9.61583 237.696 8.85195C238.463 7.41607 239.268 6.004 240.022 4.58853C240.776 6.004 241.587 7.41607 242.352 8.85195C243.783 9.61583 245.195 10.4299 246.611 11.1776ZM238.62 2.55464C237.785 4.00074 236.825 5.47914 235.895 7.05114C234.327 7.98089 232.845 8.94127 231.4 9.77575C230.546 10.287 229.695 10.7557 228.848 11.1776C229.695 11.5995 230.546 12.0682 231.4 12.5803C232.845 13.414 234.327 14.3709 235.895 15.3049C236.825 16.8761 237.785 18.3588 238.62 19.804C239.131 20.6547 239.6 21.5053 240.022 22.3525C240.444 21.5053 240.912 20.6547 241.424 19.804C242.258 18.3588 243.218 16.8761 244.149 15.3049C245.72 14.3709 247.203 13.414 248.652 12.5803C249.499 12.0682 250.353 11.5995 251.193 11.1776C250.353 10.7557 249.499 10.287 248.652 9.77575C247.203 8.94127 245.72 7.98089 244.149 7.05114C243.218 5.47914 242.258 4.00074 241.424 2.55464C240.912 1.70145 240.444 0.850784 240.022 0.000139659C239.6 0.850784 239.131 1.70145 238.62 2.55464Z" fill="white"/>
</mask>
<g mask="url(#mask10_63_18358)">
<path d="M246.611 11.1776C245.195 11.9321 243.783 12.7394 242.352 13.5067C241.587 14.9392 240.776 16.3512 240.022 17.7633C239.268 16.3512 238.463 14.9392 237.696 13.5067C236.26 12.7394 234.848 11.9321 233.433 11.1776C234.848 10.4299 236.26 9.61583 237.696 8.85195C238.463 7.41607 239.268 6.004 240.022 4.58853C240.776 6.004 241.587 7.41607 242.352 8.85195C243.783 9.61583 245.195 10.4299 246.611 11.1776ZM238.62 2.55464C237.785 4.00074 236.825 5.47914 235.895 7.05114C234.327 7.98089 232.845 8.94127 231.4 9.77575C230.546 10.287 229.695 10.7557 228.848 11.1776C229.695 11.5995 230.546 12.0682 231.4 12.5803C232.845 13.414 234.327 14.3709 235.895 15.3049C236.825 16.8761 237.785 18.3588 238.62 19.804C239.131 20.6547 239.6 21.5053 240.022 22.3525C240.444 21.5053 240.912 20.6547 241.424 19.804C242.258 18.3588 243.218 16.8761 244.149 15.3049C245.72 14.3709 247.203 13.414 248.652 12.5803C249.499 12.0682 250.353 11.5995 251.193 11.1776C250.353 10.7557 249.499 10.287 248.652 9.77575C247.203 8.94127 245.72 7.98089 244.149 7.05114C243.218 5.47914 242.258 4.00074 241.424 2.55464C240.912 1.70145 240.444 0.850784 240.022 0.000139659C239.6 0.850784 239.131 1.70145 238.62 2.55464Z" fill="#D2A339"/>
</g>
<mask id="mask11_63_18358" style="mask-type:luminance" maskUnits="userSpaceOnUse" x="200" y="2" width="24" height="18">
<path d="M201.556 11.1775C201.028 10.6858 200.669 10.0878 200.53 9.48981C200.28 8.53624 200.456 7.68899 200.735 7.08418C201.356 5.85075 202.24 5.77165 202.187 5.74783C202.231 5.75464 201.42 6.06341 201.111 7.22369C200.981 7.78171 200.981 8.52264 201.304 9.22357C201.609 9.91854 202.284 10.4868 203.178 10.7326C204.058 10.9852 205.132 10.9351 206.112 10.5531C207.115 10.1678 208.079 9.45663 209.009 8.57281C209.946 7.69239 210.86 6.61888 211.986 5.56578C213.089 4.53224 214.489 3.46215 216.227 2.97984C217.935 2.49837 219.838 2.64467 221.273 3.6714C222.64 4.69132 223.337 6.20377 223.238 7.68219C223.191 8.4231 222.905 9.11722 222.5 9.63612C222.087 10.1508 221.589 10.5063 221.091 10.7292C220.091 11.1775 219.087 11.1477 218.323 10.8883C216.802 10.3235 216.263 9.28736 216.01 8.70892C215.765 8.0905 215.775 7.78852 215.775 7.78852C215.775 7.78852 215.931 8.05733 216.352 8.48945C216.758 8.90117 217.519 9.53319 218.612 9.62591C219.131 9.66589 219.735 9.53319 220.25 9.16742C220.766 8.80504 221.104 8.25722 221.055 7.61584C221.028 6.97785 220.572 6.16039 219.861 5.71466C219.187 5.28253 218.08 5.14982 216.924 5.47902C214.565 6.1102 212.688 8.42991 210.431 10.2307C210.006 10.5693 209.557 10.8883 209.085 11.1775C209.557 11.4667 210.006 11.7857 210.431 12.1277C212.688 13.9259 214.565 16.2482 216.924 16.876C218.08 17.2086 219.187 17.0759 219.861 16.6471C220.572 16.1988 221.028 15.3746 221.055 14.74C221.104 14.102 220.766 13.5534 220.25 13.1876C219.735 12.8261 219.131 12.6925 218.612 12.7291C217.519 12.826 216.758 13.4572 216.352 13.8689C215.931 14.3011 215.775 14.5699 215.775 14.5699C215.775 14.5699 215.765 14.2577 216.01 13.6435C216.263 13.0719 216.802 12.0315 218.323 11.4667C219.087 11.2039 220.091 11.1775 221.091 11.6266C221.589 11.8452 222.087 12.2008 222.5 12.7231C222.905 13.2411 223.191 13.9353 223.238 14.6702C223.337 16.1487 222.64 17.6637 221.273 18.6802C219.838 19.7103 217.935 19.8532 216.227 19.3718C214.489 18.8903 213.089 17.8295 211.986 16.7934C210.86 15.7369 209.946 14.6668 209.009 13.7864C208.079 12.8992 207.115 12.1915 206.112 11.8027C205.132 11.4165 204.058 11.3672 203.178 11.6198C202.284 11.8691 201.609 12.4407 201.304 13.128C200.981 13.829 200.981 14.5733 201.111 15.1321C201.42 16.295 202.231 16.6004 202.187 16.6106C202.24 16.5842 201.356 16.5042 200.735 15.2716C200.456 14.6702 200.28 13.823 200.53 12.8626C200.669 12.2672 201.028 11.6658 201.556 11.1775Z" fill="white"/>
</mask>
<g mask="url(#mask11_63_18358)">
<path d="M201.556 11.1775C201.028 10.6858 200.669 10.0878 200.53 9.48981C200.28 8.53624 200.456 7.68899 200.735 7.08418C201.356 5.85075 202.24 5.77165 202.187 5.74783C202.231 5.75464 201.42 6.06341 201.111 7.22369C200.981 7.78171 200.981 8.52264 201.304 9.22357C201.609 9.91854 202.284 10.4868 203.178 10.7326C204.058 10.9852 205.132 10.9351 206.112 10.5531C207.115 10.1678 208.079 9.45663 209.009 8.57281C209.946 7.69239 210.86 6.61888 211.986 5.56578C213.089 4.53224 214.489 3.46215 216.227 2.97984C217.935 2.49837 219.838 2.64467 221.273 3.6714C222.64 4.69132 223.337 6.20377 223.238 7.68219C223.191 8.4231 222.905 9.11722 222.5 9.63612C222.087 10.1508 221.589 10.5063 221.091 10.7292C220.091 11.1775 219.087 11.1477 218.323 10.8883C216.802 10.3235 216.263 9.28736 216.01 8.70892C215.765 8.0905 215.775 7.78852 215.775 7.78852C215.775 7.78852 215.931 8.05733 216.352 8.48945C216.758 8.90117 217.519 9.53319 218.612 9.62591C219.131 9.66589 219.735 9.53319 220.25 9.16742C220.766 8.80504 221.104 8.25722 221.055 7.61584C221.028 6.97785 220.572 6.16039 219.861 5.71466C219.187 5.28253 218.08 5.14982 216.924 5.47902C214.565 6.1102 212.688 8.42991 210.431 10.2307C210.006 10.5693 209.557 10.8883 209.085 11.1775C209.557 11.4667 210.006 11.7857 210.431 12.1277C212.688 13.9259 214.565 16.2482 216.924 16.876C218.08 17.2086 219.187 17.0759 219.861 16.6471C220.572 16.1988 221.028 15.3746 221.055 14.74C221.104 14.102 220.766 13.5534 220.25 13.1876C219.735 12.8261 219.131 12.6925 218.612 12.7291C217.519 12.826 216.758 13.4572 216.352 13.8689C215.931 14.3011 215.775 14.5699 215.775 14.5699C215.775 14.5699 215.765 14.2577 216.01 13.6435C216.263 13.0719 216.802 12.0315 218.323 11.4667C219.087 11.2039 220.091 11.1775 221.091 11.6266C221.589 11.8452 222.087 12.2008 222.5 12.7231C222.905 13.2411 223.191 13.9353 223.238 14.6702C223.337 16.1487 222.64 17.6637 221.273 18.6802C219.838 19.7103 217.935 19.8532 216.227 19.3718C214.489 18.8903 213.089 17.8295 211.986 16.7934C210.86 15.7369 209.946 14.6668 209.009 13.7864C208.079 12.8992 207.115 12.1915 206.112 11.8027C205.132 11.4165 204.058 11.3672 203.178 11.6198C202.284 11.8691 201.609 12.4407 201.304 13.128C200.981 13.829 200.981 14.5733 201.111 15.1321C201.42 16.295 202.231 16.6004 202.187 16.6106C202.24 16.5842 201.356 16.5042 200.735 15.2716C200.456 14.6702 200.28 13.823 200.53 12.8626C200.669 12.2672 201.028 11.6658 201.556 11.1775Z" fill="#D2A339"/>
</g>
<mask id="mask12_63_18358" style="mask-type:luminance" maskUnits="userSpaceOnUse" x="256" y="2" width="24" height="18">
<path d="M278.504 11.1775C279.025 11.6658 279.384 12.2672 279.534 12.8626C279.773 13.823 279.601 14.6702 279.324 15.2716C278.693 16.5042 277.812 16.5842 277.872 16.6106C277.823 16.6004 278.637 16.295 278.942 15.1321C279.076 14.5733 279.076 13.829 278.753 13.128C278.444 12.4407 277.772 11.8691 276.882 11.6198C276.001 11.3672 274.922 11.4165 273.941 11.8027C272.944 12.1915 271.981 12.8992 271.044 13.7864C270.104 14.6668 269.189 15.7369 268.07 16.7934C266.963 17.8295 265.568 18.8903 263.824 19.3718C262.122 19.8532 260.219 19.7103 258.783 18.6802C257.411 17.6637 256.722 16.1487 256.822 14.6702C256.862 13.9353 257.144 13.2411 257.56 12.7231C257.969 12.2008 258.467 11.8452 258.972 11.6266C259.963 11.1775 260.965 11.2039 261.73 11.4667C263.259 12.0315 263.79 13.0719 264.04 13.6435C264.289 14.2577 264.282 14.5699 264.282 14.5699C264.282 14.5699 264.122 14.3011 263.707 13.8689C263.302 13.4572 262.537 12.826 261.448 12.7291C260.926 12.6925 260.318 12.8261 259.803 13.1876C259.288 13.5534 258.949 14.102 259.006 14.74C259.022 15.3746 259.487 16.1988 260.195 16.6471C260.866 17.0759 261.973 17.2086 263.135 16.876C265.495 16.2482 267.362 13.9259 269.622 12.1277C270.047 11.7857 270.496 11.4667 270.967 11.1775C270.496 10.8883 270.047 10.5693 269.622 10.2307C267.362 8.42991 265.495 6.1102 263.135 5.47902C261.973 5.14982 260.866 5.28253 260.195 5.71466C259.487 6.16039 259.022 6.97785 259.006 7.61584C258.949 8.25722 259.288 8.80504 259.803 9.16742C260.318 9.53319 260.926 9.66589 261.448 9.62591C262.537 9.53319 263.302 8.90117 263.707 8.48945C264.122 8.05733 264.282 7.78852 264.282 7.78852C264.282 7.78852 264.289 8.0905 264.04 8.70892C263.79 9.28736 263.259 10.3235 261.73 10.8883C260.965 11.1477 259.963 11.1775 258.972 10.7292C258.467 10.5063 257.969 10.1508 257.56 9.63612C257.144 9.11722 256.862 8.4231 256.822 7.68219C256.722 6.20377 257.411 4.69132 258.783 3.6714C260.219 2.64467 262.122 2.49837 263.824 2.97984C265.568 3.46215 266.963 4.53224 268.07 5.56578C269.189 6.61888 270.104 7.69239 271.044 8.57281C271.981 9.45663 272.944 10.1678 273.941 10.5531C274.922 10.9351 276.001 10.9852 276.882 10.7326C277.772 10.4868 278.444 9.91854 278.753 9.22357C279.076 8.52264 279.076 7.78171 278.942 7.22369C278.637 6.06341 277.823 5.75464 277.872 5.74783C277.812 5.77165 278.693 5.85075 279.324 7.08418C279.601 7.68899 279.773 8.53624 279.534 9.48981C279.384 10.0878 279.025 10.6858 278.504 11.1775Z" fill="white"/>
</mask>
<g mask="url(#mask12_63_18358)">
<path d="M278.504 11.1775C279.025 11.6658 279.384 12.2672 279.534 12.8626C279.773 13.823 279.601 14.6702 279.324 15.2716C278.693 16.5042 277.812 16.5842 277.872 16.6106C277.823 16.6004 278.637 16.295 278.942 15.1321C279.076 14.5733 279.076 13.829 278.753 13.128C278.444 12.4407 277.772 11.8691 276.882 11.6198C276.001 11.3672 274.922 11.4165 273.941 11.8027C272.944 12.1915 271.981 12.8992 271.044 13.7864C270.104 14.6668 269.189 15.7369 268.07 16.7934C266.963 17.8295 265.568 18.8903 263.824 19.3718C262.122 19.8532 260.219 19.7103 258.783 18.6802C257.411 17.6637 256.722 16.1487 256.822 14.6702C256.862 13.9353 257.144 13.2411 257.56 12.7231C257.969 12.2008 258.467 11.8452 258.972 11.6266C259.963 11.1775 260.965 11.2039 261.73 11.4667C263.259 12.0315 263.79 13.0719 264.04 13.6435C264.289 14.2577 264.282 14.5699 264.282 14.5699C264.282 14.5699 264.122 14.3011 263.707 13.8689C263.302 13.4572 262.537 12.826 261.448 12.7291C260.926 12.6925 260.318 12.8261 259.803 13.1876C259.288 13.5534 258.949 14.102 259.006 14.74C259.022 15.3746 259.487 16.1988 260.195 16.6471C260.866 17.0759 261.973 17.2086 263.135 16.876C265.495 16.2482 267.362 13.9259 269.622 12.1277C270.047 11.7857 270.496 11.4667 270.967 11.1775C270.496 10.8883 270.047 10.5693 269.622 10.2307C267.362 8.42991 265.495 6.1102 263.135 5.47902C261.973 5.14982 260.866 5.28253 260.195 5.71466C259.487 6.16039 259.022 6.97785 259.006 7.61584C258.949 8.25722 259.288 8.80504 259.803 9.16742C260.318 9.53319 260.926 9.66589 261.448 9.62591C262.537 9.53319 263.302 8.90117 263.707 8.48945C264.122 8.05733 264.282 7.78852 264.282 7.78852C264.282 7.78852 264.289 8.0905 264.04 8.70892C263.79 9.28736 263.259 10.3235 261.73 10.8883C260.965 11.1477 259.963 11.1775 258.972 10.7292C258.467 10.5063 257.969 10.1508 257.56 9.63612C257.144 9.11722 256.862 8.4231 256.822 7.68219C256.722 6.20377 257.411 4.69132 258.783 3.6714C260.219 2.64467 262.122 2.49837 263.824 2.97984C265.568 3.46215 266.963 4.53224 268.07 5.56578C269.189 6.61888 270.104 7.69239 271.044 8.57281C271.981 9.45663 272.944 10.1678 273.941 10.5531C274.922 10.9351 276.001 10.9852 276.882 10.7326C277.772 10.4868 278.444 9.91854 278.753 9.22357C279.076 8.52264 279.076 7.78171 278.942 7.22369C278.637 6.06341 277.823 5.75464 277.872 5.74783C277.812 5.77165 278.693 5.85075 279.324 7.08418C279.601 7.68899 279.773 8.53624 279.534 9.48981C279.384 10.0878 279.025 10.6858 278.504 11.1775Z" fill="#D2A339"/>
</g>
<mask id="mask13_63_18358" style="mask-type:luminance" maskUnits="userSpaceOnUse" x="223" y="5" width="9" height="12">
<path d="M223.473 11.1707C224.068 10.8458 224.646 10.4332 225.131 9.96789C226.427 8.80506 227.318 7.43976 227.863 6.94129C228.932 5.95114 230.703 5.11325 231.362 5.73507C232.006 6.35264 231.295 8.19345 230.072 9.32651C229.57 9.79181 228.268 10.5965 226.699 11.1775C228.268 11.7627 229.57 12.5632 230.072 13.0285C231.295 14.1616 232.006 16.0024 231.362 16.6174C230.703 17.2417 228.932 16.4013 227.863 15.4146C227.318 14.9195 226.427 13.5534 225.131 12.3837C224.646 11.9252 224.068 11.5101 223.473 11.1707Z" fill="white"/>
</mask>
<g mask="url(#mask13_63_18358)">
<path d="M223.473 11.1707C224.068 10.8458 224.646 10.4332 225.131 9.96789C226.427 8.80506 227.318 7.43976 227.863 6.94129C228.932 5.95114 230.703 5.11325 231.362 5.73507C232.006 6.35264 231.295 8.19345 230.072 9.32651C229.57 9.79181 228.268 10.5965 226.699 11.1775C228.268 11.7627 229.57 12.5632 230.072 13.0285C231.295 14.1616 232.006 16.0024 231.362 16.6174C230.703 17.2417 228.932 16.4013 227.863 15.4146C227.318 14.9195 226.427 13.5534 225.131 12.3837C224.646 11.9252 224.068 11.5101 223.473 11.1707Z" fill="#D2A339"/>
</g>
<mask id="mask14_63_18358" style="mask-type:luminance" maskUnits="userSpaceOnUse" x="248" y="5" width="9" height="12">
<path d="M256.595 11.1843C255.997 11.5101 255.422 11.9252 254.934 12.3837C253.638 13.5534 252.747 14.9195 252.199 15.4146C251.129 16.4013 249.358 17.2417 248.704 16.6174C248.059 16.0024 248.77 14.1616 249.989 13.0285C250.491 12.5632 251.8 11.7627 253.372 11.1775C251.8 10.5965 250.491 9.79181 249.989 9.32651C248.77 8.19345 248.059 6.35264 248.704 5.73507C249.358 5.11325 251.129 5.95114 252.199 6.94129C252.747 7.43976 253.638 8.80506 254.934 9.96789C255.422 10.4332 255.997 10.8458 256.595 11.1843Z" fill="white"/>
</mask>
<g mask="url(#mask14_63_18358)">
<path d="M256.595 11.1843C255.997 11.5101 255.422 11.9252 254.934 12.3837C253.638 13.5534 252.747 14.9195 252.199 15.4146C251.129 16.4013 249.358 17.2417 248.704 16.6174C248.059 16.0024 248.77 14.1616 249.989 13.0285C250.491 12.5632 251.8 11.7627 253.372 11.1775C251.8 10.5965 250.491 9.79181 249.989 9.32651C248.77 8.19345 248.059 6.35264 248.704 5.73507C249.358 5.11325 251.129 5.95114 252.199 6.94129C252.747 7.43976 253.638 8.80506 254.934 9.96789C255.422 10.4332 255.997 10.8458 256.595 11.1843Z" fill="#D2A339"/>
</g>
<mask id="mask15_63_18358" style="mask-type:luminance" maskUnits="userSpaceOnUse" x="242" y="3" width="7" height="6">
<path d="M244.664 6.53558C244.159 5.53862 243.421 3.82797 242.953 3.17638C243.478 3.88411 244.691 4.97038 245.462 5.73851C246.226 6.5126 247.319 7.72563 248.024 8.24707C247.372 7.77837 245.661 7.04426 244.664 6.53558Z" fill="white"/>
</mask>
<g mask="url(#mask15_63_18358)">
<path d="M244.664 6.53558C244.159 5.53862 243.421 3.82797 242.953 3.17638C243.478 3.88411 244.691 4.97038 245.462 5.73851C246.226 6.5126 247.319 7.72563 248.024 8.24707C247.372 7.77837 245.661 7.04426 244.664 6.53558Z" fill="#D2A339"/>
</g>
<mask id="mask16_63_18358" style="mask-type:luminance" maskUnits="userSpaceOnUse" x="232" y="3" width="6" height="6">
<path d="M235.389 6.53558C234.386 7.04426 232.672 7.77837 232.023 8.24707C232.735 7.72563 233.821 6.5126 234.586 5.73851C235.36 4.97038 236.573 3.88411 237.098 3.17638C236.629 3.82797 235.891 5.53862 235.389 6.53558Z" fill="white"/>
</mask>
<g mask="url(#mask16_63_18358)">
<path d="M235.389 6.53558C234.386 7.04426 232.672 7.77837 232.023 8.24707C232.735 7.72563 233.821 6.5126 234.586 5.73851C235.36 4.97038 236.573 3.88411 237.098 3.17638C236.629 3.82797 235.891 5.53862 235.389 6.53558Z" fill="#D2A339"/>
</g>
<mask id="mask17_63_18358" style="mask-type:luminance" maskUnits="userSpaceOnUse" x="232" y="14" width="6" height="6">
<path d="M235.389 15.8161C235.891 16.8131 236.629 18.528 237.098 19.1787C236.573 18.471 235.36 17.3813 234.586 16.6174C233.821 15.8399 232.735 14.6337 232.023 14.108C232.672 14.5733 234.386 15.3083 235.389 15.8161Z" fill="white"/>
</mask>
<g mask="url(#mask17_63_18358)">
<path d="M235.389 15.8161C235.891 16.8131 236.629 18.528 237.098 19.1787C236.573 18.471 235.36 17.3813 234.586 16.6174C233.821 15.8399 232.735 14.6337 232.023 14.108C232.672 14.5733 234.386 15.3083 235.389 15.8161Z" fill="#D2A339"/>
</g>
<mask id="mask18_63_18358" style="mask-type:luminance" maskUnits="userSpaceOnUse" x="242" y="14" width="7" height="6">
<path d="M244.664 15.8161C245.661 15.3083 247.372 14.5733 248.024 14.108C247.319 14.6337 246.226 15.8399 245.462 16.6174C244.691 17.3813 243.478 18.471 242.953 19.1787C243.421 18.528 244.159 16.8131 244.664 15.8161Z" fill="white"/>
</mask>
<g mask="url(#mask18_63_18358)">
<path d="M244.664 15.8161C245.661 15.3083 247.372 14.5733 248.024 14.108C247.319 14.6337 246.226 15.8399 245.462 16.6174C244.691 17.3813 243.478 18.471 242.953 19.1787C243.421 18.528 244.159 16.8131 244.664 15.8161Z" fill="#D2A339"/>
</g>
<mask id="mask19_63_18358" style="mask-type:luminance" maskUnits="userSpaceOnUse" x="253" y="11" width="5" height="6">
<path d="M254.386 16.677C254.02 16.6472 253.854 15.7302 254.13 15.0055C254.253 14.6533 254.745 13.9124 255.383 13.3144C256.014 12.7062 256.772 12.2579 257.144 11.9814C256.705 12.314 256.18 13.0286 255.891 13.7465C255.566 14.4611 255.459 15.1586 255.35 15.4512C255.127 16.022 254.745 16.7034 254.386 16.677Z" fill="white"/>
</mask>
<g mask="url(#mask19_63_18358)">
<path d="M254.386 16.677C254.02 16.6472 253.854 15.7302 254.13 15.0055C254.253 14.6533 254.745 13.9124 255.383 13.3144C256.014 12.7062 256.772 12.2579 257.144 11.9814C256.705 12.314 256.18 13.0286 255.891 13.7465C255.566 14.4611 255.459 15.1586 255.35 15.4512C255.127 16.022 254.745 16.7034 254.386 16.677Z" fill="#D2A339"/>
</g>
<mask id="mask20_63_18358" style="mask-type:luminance" maskUnits="userSpaceOnUse" x="222" y="5" width="5" height="6">
<path d="M225.664 5.68235C226.026 5.70616 226.202 6.62996 225.926 7.34706C225.804 7.70603 225.308 8.44354 224.667 9.04155C224.035 9.65316 223.285 10.0989 222.902 10.3711C223.351 10.0385 223.87 9.32735 224.166 8.61025C224.485 7.89231 224.598 7.19733 224.697 6.90896C224.926 6.33393 225.308 5.64917 225.664 5.68235Z" fill="white"/>
</mask>
<g mask="url(#mask20_63_18358)">
<path d="M225.664 5.68235C226.026 5.70616 226.202 6.62996 225.926 7.34706C225.804 7.70603 225.308 8.44354 224.667 9.04155C224.035 9.65316 223.285 10.0989 222.902 10.3711C223.351 10.0385 223.87 9.32735 224.166 8.61025C224.485 7.89231 224.598 7.19733 224.697 6.90896C224.926 6.33393 225.308 5.64917 225.664 5.68235Z" fill="#D2A339"/>
</g>
<mask id="mask21_63_18358" style="mask-type:luminance" maskUnits="userSpaceOnUse" x="253" y="5" width="5" height="6">
<path d="M254.386 5.68235C254.02 5.70616 253.854 6.62996 254.13 7.34706C254.253 7.70603 254.745 8.44354 255.383 9.04155C256.014 9.65316 256.772 10.0989 257.144 10.3711C256.705 10.0385 256.18 9.32735 255.891 8.61025C255.566 7.89231 255.459 7.19733 255.35 6.90896C255.127 6.33393 254.745 5.64917 254.386 5.68235Z" fill="white"/>
</mask>
<g mask="url(#mask21_63_18358)">
<path d="M254.386 5.68235C254.02 5.70616 253.854 6.62996 254.13 7.34706C254.253 7.70603 254.745 8.44354 255.383 9.04155C256.014 9.65316 256.772 10.0989 257.144 10.3711C256.705 10.0385 256.18 9.32735 255.891 8.61025C255.566 7.89231 255.459 7.19733 255.35 6.90896C255.127 6.33393 254.745 5.64917 254.386 5.68235Z" fill="#D2A339"/>
</g>
<mask id="mask22_63_18358" style="mask-type:luminance" maskUnits="userSpaceOnUse" x="222" y="11" width="5" height="6">
<path d="M225.664 16.677C226.026 16.6472 226.202 15.7302 225.926 15.0055C225.804 14.6533 225.308 13.9124 224.667 13.3144C224.035 12.7062 223.285 12.2579 222.902 11.9814C223.351 12.314 223.87 13.0286 224.166 13.7465C224.485 14.4611 224.598 15.1586 224.697 15.4512C224.926 16.022 225.308 16.7034 225.664 16.677Z" fill="white"/>
</mask>
<g mask="url(#mask22_63_18358)">
<path d="M225.664 16.677C226.026 16.6472 226.202 15.7302 225.926 15.0055C225.804 14.6533 225.308 13.9124 224.667 13.3144C224.035 12.7062 223.285 12.2579 222.902 11.9814C223.351 12.314 223.87 13.0286 224.166 13.7465C224.485 14.4611 224.598 15.1586 224.697 15.4512C224.926 16.022 225.308 16.7034 225.664 16.677Z" fill="#D2A339"/>
</g>
</svg>
