<svg width="480" height="37" viewBox="0 0 480 37" fill="none" xmlns="http://www.w3.org/2000/svg">
<mask id="mask0_66_22026" style="mask-type:luminance" maskUnits="userSpaceOnUse" x="31" y="21" width="168" height="3">
<path d="M31.9735 23.9712C31.5434 23.9712 31.19 23.6322 31.1799 23.1978C31.1688 22.7581 31.5163 22.3925 31.955 22.3819C64.614 21.5979 97.8096 21.8416 129.912 22.0747C151.976 22.2389 174.79 22.4031 197.218 22.2336C197.22 22.2336 197.222 22.2336 197.224 22.2336C197.66 22.2336 198.015 22.5886 198.018 23.023C198.022 23.4627 197.669 23.8229 197.23 23.8229C174.79 23.9924 151.97 23.8282 129.901 23.6639C97.8101 23.4309 64.6272 23.1872 31.9931 23.9712C31.9868 23.9712 31.9804 23.9712 31.9735 23.9712Z" fill="white"/>
</mask>
<g mask="url(#mask0_66_22026)">
<path d="M31.9735 23.9712C31.5434 23.9712 31.19 23.6322 31.1799 23.1978C31.1688 22.7581 31.5163 22.3925 31.955 22.3819C64.614 21.5979 97.8096 21.8416 129.912 22.0747C151.976 22.2389 174.79 22.4031 197.218 22.2336C197.22 22.2336 197.222 22.2336 197.224 22.2336C197.66 22.2336 198.015 22.5886 198.018 23.023C198.022 23.4627 197.669 23.8229 197.23 23.8229C174.79 23.9924 151.97 23.8282 129.901 23.6639C97.8101 23.4309 64.6272 23.1872 31.9931 23.9712C31.9868 23.9712 31.9804 23.9712 31.9735 23.9712Z" fill="#D2A339"/>
</g>
<mask id="mask1_66_22026" style="mask-type:luminance" maskUnits="userSpaceOnUse" x="0" y="11" width="37" height="25">
<path d="M11.7096 21.2431C12.3448 20.6339 13.061 20.1571 13.8292 19.7651C14.5157 19.6698 15.1657 19.4737 15.9031 19.1771C16.5961 18.8963 17.4145 19.14 18.1519 19.0394C18.3342 19.087 18.4412 18.8328 18.6223 18.891C18.8379 18.9599 19.0472 18.9917 19.2617 19.0235C18.902 19.0182 18.5328 19.0182 18.1519 19.0394C14.5666 19.2142 12.3798 21.0524 11.12 22.9913C10.9738 23.0972 9.35015 25.5076 9.58377 27.9339C9.60761 28.1828 9.63992 28.4424 9.68919 28.702C9.53927 28.257 9.52497 27.4783 9.51755 27.2982C9.48629 26.5088 9.54192 25.7036 9.70667 24.9302C10.0182 23.4734 10.6321 22.2761 11.7096 21.2431ZM18.6536 15.3046C18.5821 15.2517 18.5159 15.2146 18.4544 15.1828C18.3591 14.4147 18.4544 13.6359 18.9582 13.0002C19.2776 12.5923 19.7449 12.3381 20.2471 12.2268C19.916 12.4069 19.6246 12.6453 19.4424 12.9155C18.8713 13.7631 18.8168 14.706 19.0467 15.6119C18.9047 15.4847 18.7733 15.3788 18.6536 15.3046ZM8.64877 34.5027C8.93112 33.9306 9.20182 33.2843 9.26539 32.6433C9.31307 32.1665 9.23997 31.6262 8.87285 31.2818C8.48772 30.9216 7.40598 30.8793 7.22427 30.2912C7.40651 30.3972 7.56967 30.5402 7.78793 30.6091C8.05863 30.6939 8.30549 30.7362 8.58519 30.6726C9.08422 30.5508 9.74216 30.127 9.90268 29.6237C9.92758 29.5496 9.88361 29.4807 9.79991 29.4807C9.29665 29.486 8.98304 29.3907 8.63976 29.0092C8.31767 28.6543 8.19371 28.2358 8.13597 27.7643C8.04114 26.9909 8.13385 26.0162 8.43422 25.2904C8.73299 24.5699 9.12077 23.8283 9.66165 23.2721C9.86189 23.0655 10.0955 22.8959 10.3101 22.7052C9.77448 23.6694 9.46193 24.75 9.35862 25.8519C9.27863 26.6942 9.27864 27.5471 9.44127 28.3788C9.49371 28.6437 9.53503 29.0622 9.80627 29.1947C9.88414 29.4595 9.98585 29.7138 10.1231 29.9363C10.5866 30.7097 11.3076 31.2501 12.1213 31.5732C12.3888 31.7109 12.6828 31.8116 13.0091 31.854C13.1575 31.8752 13.3026 31.8857 13.4467 31.891C13.5728 31.9069 13.6983 31.9175 13.8239 31.9175C13.8546 31.9228 13.8758 31.9123 13.8901 31.8964C16.4 31.7851 18.1879 29.7562 17.3817 28.1723C16.4848 26.4082 14.5671 27.2769 14.7149 28.5536C14.7149 28.5536 14.5782 29.0516 15.0672 29.237C15.5562 29.4224 14.8028 30.18 13.9266 29.825C13.0499 29.4648 11.1211 28.5695 13.0738 24.4216C15.1504 20.0141 19.6755 17.4236 27.1773 22.2867C32.0451 25.444 33.2291 23.4416 32.8683 21.8735C32.8742 21.7888 32.8477 21.7093 32.8005 21.6299C32.6607 21.222 32.4149 20.867 32.1066 20.6763C31.4619 19.4208 31.5101 17.6673 31.7071 16.3906C31.8549 15.4318 32.4541 14.6584 33.1279 13.9909C33.9342 13.1962 35.7195 13.2386 35.4657 14.6902C35.3884 15.1298 35.1351 15.506 34.8067 15.792C34.5174 15.3046 33.6529 15.5536 33.8828 16.131C34.0163 16.4648 34.0862 16.5919 34.3357 16.8515C34.4899 17.0157 34.7553 17.0422 34.945 16.931C36.1422 16.2105 36.8775 14.7166 36.3234 13.3658C35.7216 11.8984 33.8971 12.248 32.862 12.9208C30.423 14.5047 29.7275 19.0182 31.3967 21.4974C31.4258 22.2391 31.2319 23.1237 30.0522 22.8271C28.606 22.4668 26.3599 20.3797 22.6119 19.4579C22.6373 19.4473 22.6569 19.4261 22.668 19.3996C23.3636 19.5903 24.2292 19.7704 24.8622 19.4632C25.1684 19.3148 26.1066 18.4567 25.605 18.107C25.2733 17.8739 24.8654 18.2606 25.0466 18.5944C24.4533 18.7851 23.6401 18.6897 23.1014 18.6527C22.712 18.6262 22.3184 18.5255 21.9635 18.3507C21.7288 18.1971 21.4994 18.0223 21.2743 17.8315C21.1879 17.7468 21.0952 17.662 21.0232 17.5613C21.0126 17.5455 21.0062 17.5243 20.9956 17.5084C20.994 17.5031 20.9988 17.4978 20.9956 17.4925C20.9045 17.2965 20.7954 17.1005 20.7281 16.8939C20.6258 16.6661 20.611 16.4224 20.6794 16.1628C21.1731 15.988 21.3972 16.0569 21.3474 16.3641C21.3463 16.4436 21.4353 16.4701 21.4957 16.4542C21.6048 16.4277 21.6763 16.3535 21.724 16.2635C21.7431 16.2529 21.7574 16.2317 21.7622 16.1999C21.7632 16.1893 21.7627 16.184 21.7638 16.1734C21.8241 15.9827 21.8072 15.739 21.7648 15.5801C21.6149 15.0239 21.1831 14.8703 20.6587 14.8226C20.655 14.812 20.6386 14.812 20.6317 14.8014C20.7196 14.5736 20.851 14.3723 21.0555 14.1816C21.2149 14.0385 21.6663 13.6465 21.9762 13.62C21.8125 13.8055 21.9703 14.0491 22.3041 14.0968C22.8651 14.171 23.1639 13.6306 23.0367 13.1221C22.8688 12.4546 22.133 11.9513 21.474 11.909C21.3002 11.9037 21.1143 11.9195 20.9267 11.9672C20.2381 11.9407 19.5113 12.1579 19.0159 12.6294C18.3659 13.2492 18.1604 14.1604 18.2335 15.0292C18.2118 15.0398 18.1922 15.0556 18.171 15.0715C18.1387 15.0662 18.118 15.061 18.118 15.061C18.118 15.061 18.0772 15.098 18.029 15.1775C17.6322 15.5006 17.3615 15.9138 17.3451 16.4701C17.3419 16.576 17.3594 16.6767 17.3737 16.7773C15.652 16.7667 14.2636 16.4754 12.5922 15.4C11.9147 14.9603 10.042 12.7301 11.805 12.836C12.455 12.8731 12.4465 11.8772 11.805 11.8295C8.83259 11.6123 6.9382 14.6743 8.51103 17.3654C9.36286 18.8275 10.7037 19.7386 12.4312 19.834C12.7342 19.8499 13.0144 19.8446 13.2872 19.8287C12.5059 20.2843 11.787 20.8299 11.1561 21.508C10.9579 21.7199 10.7974 21.9583 10.6343 22.1966C10.2285 22.3556 8.97721 23.0072 8.16352 24.0455C7.28254 25.1686 6.79888 26.5565 6.28926 27.8756C6.02227 28.5695 5.71925 29.29 5.24142 29.8568C4.78531 30.4025 4.41713 30.9958 3.92287 31.5097C3.40425 32.0447 2.84907 32.6221 2.24092 33.0512C1.5639 33.528 0.917615 33.7664 0.0933256 33.83C0.0223393 33.8353 -0.0311715 33.9306 0.0207438 33.9889C0.228405 34.2273 0.591814 34.2644 0.889533 34.3173C1.37743 34.4021 1.84997 34.3968 2.34211 34.3491C3.31631 34.259 4.2047 34.1001 5.01946 33.5333C5.34419 33.3055 5.66575 33.0724 5.92056 32.7651C6.08002 32.5744 6.11232 32.3572 6.36501 32.3678C6.56367 32.3837 6.66697 32.5586 6.80365 32.7016C7.25182 33.1625 7.58503 33.4962 7.66025 34.1637C7.71482 34.6511 7.71164 35.1225 7.73071 35.6099C7.73336 35.6735 7.81176 35.7212 7.8695 35.6947C8.24986 35.5146 8.4766 34.8524 8.64877 34.5027Z" fill="white"/>
</mask>
<g mask="url(#mask1_66_22026)">
<path d="M11.7096 21.2431C12.3448 20.6339 13.061 20.1571 13.8292 19.7651C14.5157 19.6698 15.1657 19.4737 15.9031 19.1771C16.5961 18.8963 17.4145 19.14 18.1519 19.0394C18.3342 19.087 18.4412 18.8328 18.6223 18.891C18.8379 18.9599 19.0472 18.9917 19.2617 19.0235C18.902 19.0182 18.5328 19.0182 18.1519 19.0394C14.5666 19.2142 12.3798 21.0524 11.12 22.9913C10.9738 23.0972 9.35015 25.5076 9.58377 27.9339C9.60761 28.1828 9.63992 28.4424 9.68919 28.702C9.53927 28.257 9.52497 27.4783 9.51755 27.2982C9.48629 26.5088 9.54192 25.7036 9.70667 24.9302C10.0182 23.4734 10.6321 22.2761 11.7096 21.2431ZM18.6536 15.3046C18.5821 15.2517 18.5159 15.2146 18.4544 15.1828C18.3591 14.4147 18.4544 13.6359 18.9582 13.0002C19.2776 12.5923 19.7449 12.3381 20.2471 12.2268C19.916 12.4069 19.6246 12.6453 19.4424 12.9155C18.8713 13.7631 18.8168 14.706 19.0467 15.6119C18.9047 15.4847 18.7733 15.3788 18.6536 15.3046ZM8.64877 34.5027C8.93112 33.9306 9.20182 33.2843 9.26539 32.6433C9.31307 32.1665 9.23997 31.6262 8.87285 31.2818C8.48772 30.9216 7.40598 30.8793 7.22427 30.2912C7.40651 30.3972 7.56967 30.5402 7.78793 30.6091C8.05863 30.6939 8.30549 30.7362 8.58519 30.6726C9.08422 30.5508 9.74216 30.127 9.90268 29.6237C9.92758 29.5496 9.88361 29.4807 9.79991 29.4807C9.29665 29.486 8.98304 29.3907 8.63976 29.0092C8.31767 28.6543 8.19371 28.2358 8.13597 27.7643C8.04114 26.9909 8.13385 26.0162 8.43422 25.2904C8.73299 24.5699 9.12077 23.8283 9.66165 23.2721C9.86189 23.0655 10.0955 22.8959 10.3101 22.7052C9.77448 23.6694 9.46193 24.75 9.35862 25.8519C9.27863 26.6942 9.27864 27.5471 9.44127 28.3788C9.49371 28.6437 9.53503 29.0622 9.80627 29.1947C9.88414 29.4595 9.98585 29.7138 10.1231 29.9363C10.5866 30.7097 11.3076 31.2501 12.1213 31.5732C12.3888 31.7109 12.6828 31.8116 13.0091 31.854C13.1575 31.8752 13.3026 31.8857 13.4467 31.891C13.5728 31.9069 13.6983 31.9175 13.8239 31.9175C13.8546 31.9228 13.8758 31.9123 13.8901 31.8964C16.4 31.7851 18.1879 29.7562 17.3817 28.1723C16.4848 26.4082 14.5671 27.2769 14.7149 28.5536C14.7149 28.5536 14.5782 29.0516 15.0672 29.237C15.5562 29.4224 14.8028 30.18 13.9266 29.825C13.0499 29.4648 11.1211 28.5695 13.0738 24.4216C15.1504 20.0141 19.6755 17.4236 27.1773 22.2867C32.0451 25.444 33.2291 23.4416 32.8683 21.8735C32.8742 21.7888 32.8477 21.7093 32.8005 21.6299C32.6607 21.222 32.4149 20.867 32.1066 20.6763C31.4619 19.4208 31.5101 17.6673 31.7071 16.3906C31.8549 15.4318 32.4541 14.6584 33.1279 13.9909C33.9342 13.1962 35.7195 13.2386 35.4657 14.6902C35.3884 15.1298 35.1351 15.506 34.8067 15.792C34.5174 15.3046 33.6529 15.5536 33.8828 16.131C34.0163 16.4648 34.0862 16.5919 34.3357 16.8515C34.4899 17.0157 34.7553 17.0422 34.945 16.931C36.1422 16.2105 36.8775 14.7166 36.3234 13.3658C35.7216 11.8984 33.8971 12.248 32.862 12.9208C30.423 14.5047 29.7275 19.0182 31.3967 21.4974C31.4258 22.2391 31.2319 23.1237 30.0522 22.8271C28.606 22.4668 26.3599 20.3797 22.6119 19.4579C22.6373 19.4473 22.6569 19.4261 22.668 19.3996C23.3636 19.5903 24.2292 19.7704 24.8622 19.4632C25.1684 19.3148 26.1066 18.4567 25.605 18.107C25.2733 17.8739 24.8654 18.2606 25.0466 18.5944C24.4533 18.7851 23.6401 18.6897 23.1014 18.6527C22.712 18.6262 22.3184 18.5255 21.9635 18.3507C21.7288 18.1971 21.4994 18.0223 21.2743 17.8315C21.1879 17.7468 21.0952 17.662 21.0232 17.5613C21.0126 17.5455 21.0062 17.5243 20.9956 17.5084C20.994 17.5031 20.9988 17.4978 20.9956 17.4925C20.9045 17.2965 20.7954 17.1005 20.7281 16.8939C20.6258 16.6661 20.611 16.4224 20.6794 16.1628C21.1731 15.988 21.3972 16.0569 21.3474 16.3641C21.3463 16.4436 21.4353 16.4701 21.4957 16.4542C21.6048 16.4277 21.6763 16.3535 21.724 16.2635C21.7431 16.2529 21.7574 16.2317 21.7622 16.1999C21.7632 16.1893 21.7627 16.184 21.7638 16.1734C21.8241 15.9827 21.8072 15.739 21.7648 15.5801C21.6149 15.0239 21.1831 14.8703 20.6587 14.8226C20.655 14.812 20.6386 14.812 20.6317 14.8014C20.7196 14.5736 20.851 14.3723 21.0555 14.1816C21.2149 14.0385 21.6663 13.6465 21.9762 13.62C21.8125 13.8055 21.9703 14.0491 22.3041 14.0968C22.8651 14.171 23.1639 13.6306 23.0367 13.1221C22.8688 12.4546 22.133 11.9513 21.474 11.909C21.3002 11.9037 21.1143 11.9195 20.9267 11.9672C20.2381 11.9407 19.5113 12.1579 19.0159 12.6294C18.3659 13.2492 18.1604 14.1604 18.2335 15.0292C18.2118 15.0398 18.1922 15.0556 18.171 15.0715C18.1387 15.0662 18.118 15.061 18.118 15.061C18.118 15.061 18.0772 15.098 18.029 15.1775C17.6322 15.5006 17.3615 15.9138 17.3451 16.4701C17.3419 16.576 17.3594 16.6767 17.3737 16.7773C15.652 16.7667 14.2636 16.4754 12.5922 15.4C11.9147 14.9603 10.042 12.7301 11.805 12.836C12.455 12.8731 12.4465 11.8772 11.805 11.8295C8.83259 11.6123 6.9382 14.6743 8.51103 17.3654C9.36286 18.8275 10.7037 19.7386 12.4312 19.834C12.7342 19.8499 13.0144 19.8446 13.2872 19.8287C12.5059 20.2843 11.787 20.8299 11.1561 21.508C10.9579 21.7199 10.7974 21.9583 10.6343 22.1966C10.2285 22.3556 8.97721 23.0072 8.16352 24.0455C7.28254 25.1686 6.79888 26.5565 6.28926 27.8756C6.02227 28.5695 5.71925 29.29 5.24142 29.8568C4.78531 30.4025 4.41713 30.9958 3.92287 31.5097C3.40425 32.0447 2.84907 32.6221 2.24092 33.0512C1.5639 33.528 0.917615 33.7664 0.0933256 33.83C0.0223393 33.8353 -0.0311715 33.9306 0.0207438 33.9889C0.228405 34.2273 0.591814 34.2644 0.889533 34.3173C1.37743 34.4021 1.84997 34.3968 2.34211 34.3491C3.31631 34.259 4.2047 34.1001 5.01946 33.5333C5.34419 33.3055 5.66575 33.0724 5.92056 32.7651C6.08002 32.5744 6.11232 32.3572 6.36501 32.3678C6.56367 32.3837 6.66697 32.5586 6.80365 32.7016C7.25182 33.1625 7.58503 33.4962 7.66025 34.1637C7.71482 34.6511 7.71164 35.1225 7.73071 35.6099C7.73336 35.6735 7.81176 35.7212 7.8695 35.6947C8.24986 35.5146 8.4766 34.8524 8.64877 34.5027Z" fill="#D2A339"/>
</g>
<mask id="mask2_66_22026" style="mask-type:luminance" maskUnits="userSpaceOnUse" x="258" y="21" width="191" height="4">
<path d="M434.013 24.0029C428.797 24.0029 423.308 23.9923 417.465 23.9658C405.342 23.9182 393.017 23.8175 381.098 23.7222C369.282 23.6268 357.063 23.5315 345.047 23.4838C323.711 23.3884 281.5 23.3937 259.055 23.791C259.05 23.791 259.046 23.791 259.04 23.791C258.609 23.791 258.254 23.4467 258.246 23.0123C258.239 22.5726 258.588 22.2124 259.027 22.2018C281.485 21.8045 323.711 21.7992 345.054 21.8945C357.073 21.9422 369.293 22.0429 381.11 22.1329C393.028 22.2283 405.352 22.3289 417.472 22.3766C428.635 22.4243 438.505 22.4242 447.65 22.3819C447.651 22.3819 447.653 22.3819 447.654 22.3819C448.091 22.3819 448.446 22.7368 448.448 23.1765C448.45 23.6162 448.096 23.9711 447.657 23.9711C443.295 23.9923 438.768 24.0029 434.013 24.0029Z" fill="white"/>
</mask>
<g mask="url(#mask2_66_22026)">
<path d="M434.013 24.0029C428.797 24.0029 423.308 23.9923 417.465 23.9658C405.342 23.9182 393.017 23.8175 381.098 23.7222C369.282 23.6268 357.063 23.5315 345.047 23.4838C323.711 23.3884 281.5 23.3937 259.055 23.791C259.05 23.791 259.046 23.791 259.04 23.791C258.609 23.791 258.254 23.4467 258.246 23.0123C258.239 22.5726 258.588 22.2124 259.027 22.2018C281.485 21.8045 323.711 21.7992 345.054 21.8945C357.073 21.9422 369.293 22.0429 381.11 22.1329C393.028 22.2283 405.352 22.3289 417.472 22.3766C428.635 22.4243 438.505 22.4242 447.65 22.3819C447.651 22.3819 447.653 22.3819 447.654 22.3819C448.091 22.3819 448.446 22.7368 448.448 23.1765C448.45 23.6162 448.096 23.9711 447.657 23.9711C443.295 23.9923 438.768 24.0029 434.013 24.0029Z" fill="#D2A339"/>
</g>
<mask id="mask3_66_22026" style="mask-type:luminance" maskUnits="userSpaceOnUse" x="443" y="12" width="38" height="25">
<path d="M470.297 25.7029C470.461 26.471 470.517 27.2815 470.485 28.0656C470.478 28.251 470.464 29.0244 470.314 29.4694C470.363 29.2151 470.395 28.9502 470.419 28.7013C470.653 26.275 469.029 23.8699 468.883 23.7587C467.624 21.8198 465.437 19.9816 461.851 19.8068C461.471 19.7909 461.101 19.7856 460.742 19.7909C460.956 19.7591 461.165 19.7273 461.381 19.6584C461.562 19.6002 461.669 19.8544 461.851 19.8068C462.589 19.9127 463.407 19.6637 464.1 19.9445C464.837 20.2464 465.488 20.4372 466.174 20.5325C466.942 20.9245 467.658 21.4013 468.293 22.0105C469.371 23.0435 469.985 24.2407 470.297 25.7029ZM460.957 16.3793C461.186 15.4734 461.132 14.5305 460.561 13.6829C460.379 13.4127 460.087 13.1743 459.756 12.9942C460.258 13.1055 460.725 13.3597 461.045 13.7676C461.549 14.4086 461.644 15.1821 461.549 15.9502C461.488 15.982 461.421 16.0244 461.35 16.072C461.23 16.1462 461.098 16.2521 460.957 16.3793ZM472.133 36.4642C472.192 36.4923 472.27 36.4419 472.272 36.3789C472.291 35.8899 472.288 35.4185 472.343 34.9311C472.418 34.2636 472.753 33.9299 473.198 33.469C473.336 33.326 473.442 33.1511 473.638 33.1405C473.892 33.1247 473.924 33.3418 474.083 33.5325C474.337 33.8398 474.66 34.0729 474.983 34.3007C475.799 34.8728 476.689 35.0264 477.659 35.1165C478.151 35.1642 478.628 35.1695 479.115 35.0847C479.412 35.0318 479.772 34.9947 479.984 34.7563C480.032 34.698 479.979 34.6027 479.91 34.5974C479.084 34.5338 478.437 34.3007 477.765 33.8186C477.155 33.3895 476.599 32.8121 476.08 32.2771C475.587 31.7632 475.217 31.1699 474.761 30.6295C474.284 30.0574 473.982 29.337 473.712 28.6483C473.203 27.3239 472.721 25.9413 471.84 24.8129C471.026 23.7746 469.774 23.123 469.369 22.964C469.205 22.7257 469.045 22.4873 468.847 22.2754C468.216 21.5973 467.497 21.0517 466.716 20.5961C466.989 20.612 467.269 20.6173 467.572 20.6014C469.3 20.506 470.64 19.5949 471.492 18.1328C473.066 15.4417 471.17 12.3797 468.198 12.5969C467.557 12.6446 467.548 13.6405 468.198 13.6034C469.961 13.4975 468.089 15.7277 467.411 16.1674C465.739 17.2428 464.351 17.5341 462.63 17.5447C462.643 17.4441 462.661 17.3434 462.658 17.2375C462.641 16.6812 462.371 16.268 461.974 15.9449C461.926 15.8654 461.885 15.8284 461.885 15.8284C461.885 15.8284 461.865 15.8336 461.832 15.8389C461.811 15.8283 461.792 15.8124 461.77 15.7966C461.843 14.9278 461.637 14.0166 460.987 13.3968C460.492 12.9253 459.765 12.7081 459.077 12.7346C458.889 12.6922 458.703 12.671 458.529 12.6816C457.87 12.7187 457.135 13.222 456.967 13.8895C456.839 14.398 457.138 14.9384 457.699 14.8642C458.033 14.8165 458.19 14.5729 458.028 14.3874C458.337 14.4139 458.788 14.806 458.948 14.9543C459.152 15.1397 459.284 15.341 459.372 15.574C459.365 15.5793 459.348 15.5794 459.345 15.59C458.82 15.6377 458.388 15.7913 458.239 16.3528C458.196 16.5064 458.179 16.7501 458.24 16.9408C458.241 16.9514 458.24 16.9567 458.241 16.9673C458.246 16.9991 458.26 17.0203 458.279 17.0309C458.327 17.1262 458.399 17.1951 458.508 17.2216C458.568 17.2375 458.657 17.211 458.655 17.1315C458.606 16.8243 458.829 16.7554 459.324 16.9302C459.392 17.1898 459.378 17.4335 459.275 17.6613C459.208 17.8679 459.099 18.0639 459.007 18.2599C459.004 18.2652 459.009 18.2705 459.007 18.2758C458.997 18.2917 458.991 18.3128 458.98 18.3287C458.908 18.4347 458.816 18.5142 458.729 18.6042C458.504 18.7896 458.274 18.9645 458.04 19.1181C457.684 19.2929 457.291 19.3936 456.902 19.4201C456.363 19.4571 455.55 19.5525 454.957 19.3618C455.137 19.028 454.73 18.6413 454.398 18.8744C453.897 19.2241 454.834 20.0822 455.141 20.2306C455.774 20.5378 456.639 20.363 457.335 20.167C457.346 20.1935 457.366 20.2147 457.391 20.2306C453.643 21.1523 451.397 23.2342 449.951 23.5997C448.772 23.8911 448.578 23.0118 448.606 22.2648C450.276 19.7909 449.58 15.2721 447.141 13.6882C446.106 13.0154 444.281 12.6658 443.68 14.1332C443.126 15.484 443.861 16.9832 445.058 17.6984C445.248 17.8149 445.513 17.7831 445.667 17.6189C445.917 17.3593 445.987 17.2322 446.121 16.8984C446.351 16.3263 445.486 16.072 445.196 16.5594C444.868 16.2733 444.615 15.8972 444.538 15.4575C444.283 14.006 446.069 13.9636 446.876 14.7583C447.549 15.4257 448.147 16.1992 448.296 17.158C448.493 18.4347 448.541 20.1935 447.896 21.4437C447.588 21.6344 447.343 21.9893 447.203 22.3973C447.155 22.4767 447.129 22.5615 447.135 22.6409C446.774 24.209 447.958 26.2167 452.826 23.0594C460.327 18.191 464.853 20.7868 466.929 25.189C468.882 29.3369 466.953 30.2375 466.077 30.5924C465.201 30.9474 464.447 30.1951 464.936 30.0044C465.425 29.819 465.289 29.321 465.289 29.321C465.436 28.0496 463.519 27.1756 462.621 28.9396C461.815 30.5289 463.603 32.5525 466.113 32.6638C466.128 32.6797 466.149 32.6903 466.179 32.6903C466.305 32.685 466.431 32.6744 466.556 32.6638C466.701 32.6532 466.846 32.6426 466.994 32.6214C467.32 32.579 467.614 32.4783 467.882 32.3406C468.695 32.0174 469.417 31.4771 469.881 30.709C470.017 30.4812 470.119 30.2269 470.197 29.9621C470.468 29.8349 470.509 29.4164 470.562 29.1462C470.724 28.3145 470.724 27.4616 470.645 26.6193C470.541 25.5174 470.229 24.4368 469.693 23.4779C469.907 23.6633 470.142 23.8329 470.342 24.0395C470.882 24.601 471.27 25.3373 471.569 26.0578C471.869 26.7836 471.962 27.7583 471.867 28.5317C471.809 29.0032 471.686 29.4217 471.363 29.7766C471.02 30.1581 470.706 30.2534 470.203 30.2481C470.12 30.2481 470.076 30.317 470.101 30.3965C470.261 30.8944 470.918 31.3182 471.418 31.44C471.697 31.5036 471.944 31.4613 472.216 31.3765C472.434 31.3076 472.594 31.1646 472.78 31.0586C472.6 31.6467 471.515 31.689 471.131 32.0492C470.763 32.3936 470.69 32.9339 470.738 33.4107C470.802 34.0517 471.072 34.698 471.355 35.2701C471.527 35.6198 471.754 36.2841 472.133 36.4642Z" fill="white"/>
</mask>
<g mask="url(#mask3_66_22026)">
<path d="M470.297 25.7029C470.461 26.471 470.517 27.2815 470.485 28.0656C470.478 28.251 470.464 29.0244 470.314 29.4694C470.363 29.2151 470.395 28.9502 470.419 28.7013C470.653 26.275 469.029 23.8699 468.883 23.7587C467.624 21.8198 465.437 19.9816 461.851 19.8068C461.471 19.7909 461.101 19.7856 460.742 19.7909C460.956 19.7591 461.165 19.7273 461.381 19.6584C461.562 19.6002 461.669 19.8544 461.851 19.8068C462.589 19.9127 463.407 19.6637 464.1 19.9445C464.837 20.2464 465.488 20.4372 466.174 20.5325C466.942 20.9245 467.658 21.4013 468.293 22.0105C469.371 23.0435 469.985 24.2407 470.297 25.7029ZM460.957 16.3793C461.186 15.4734 461.132 14.5305 460.561 13.6829C460.379 13.4127 460.087 13.1743 459.756 12.9942C460.258 13.1055 460.725 13.3597 461.045 13.7676C461.549 14.4086 461.644 15.1821 461.549 15.9502C461.488 15.982 461.421 16.0244 461.35 16.072C461.23 16.1462 461.098 16.2521 460.957 16.3793ZM472.133 36.4642C472.192 36.4923 472.27 36.4419 472.272 36.3789C472.291 35.8899 472.288 35.4185 472.343 34.9311C472.418 34.2636 472.753 33.9299 473.198 33.469C473.336 33.326 473.442 33.1511 473.638 33.1405C473.892 33.1247 473.924 33.3418 474.083 33.5325C474.337 33.8398 474.66 34.0729 474.983 34.3007C475.799 34.8728 476.689 35.0264 477.659 35.1165C478.151 35.1642 478.628 35.1695 479.115 35.0847C479.412 35.0318 479.772 34.9947 479.984 34.7563C480.032 34.698 479.979 34.6027 479.91 34.5974C479.084 34.5338 478.437 34.3007 477.765 33.8186C477.155 33.3895 476.599 32.8121 476.08 32.2771C475.587 31.7632 475.217 31.1699 474.761 30.6295C474.284 30.0574 473.982 29.337 473.712 28.6483C473.203 27.3239 472.721 25.9413 471.84 24.8129C471.026 23.7746 469.774 23.123 469.369 22.964C469.205 22.7257 469.045 22.4873 468.847 22.2754C468.216 21.5973 467.497 21.0517 466.716 20.5961C466.989 20.612 467.269 20.6173 467.572 20.6014C469.3 20.506 470.64 19.5949 471.492 18.1328C473.066 15.4417 471.17 12.3797 468.198 12.5969C467.557 12.6446 467.548 13.6405 468.198 13.6034C469.961 13.4975 468.089 15.7277 467.411 16.1674C465.739 17.2428 464.351 17.5341 462.63 17.5447C462.643 17.4441 462.661 17.3434 462.658 17.2375C462.641 16.6812 462.371 16.268 461.974 15.9449C461.926 15.8654 461.885 15.8284 461.885 15.8284C461.885 15.8284 461.865 15.8336 461.832 15.8389C461.811 15.8283 461.792 15.8124 461.77 15.7966C461.843 14.9278 461.637 14.0166 460.987 13.3968C460.492 12.9253 459.765 12.7081 459.077 12.7346C458.889 12.6922 458.703 12.671 458.529 12.6816C457.87 12.7187 457.135 13.222 456.967 13.8895C456.839 14.398 457.138 14.9384 457.699 14.8642C458.033 14.8165 458.19 14.5729 458.028 14.3874C458.337 14.4139 458.788 14.806 458.948 14.9543C459.152 15.1397 459.284 15.341 459.372 15.574C459.365 15.5793 459.348 15.5794 459.345 15.59C458.82 15.6377 458.388 15.7913 458.239 16.3528C458.196 16.5064 458.179 16.7501 458.24 16.9408C458.241 16.9514 458.24 16.9567 458.241 16.9673C458.246 16.9991 458.26 17.0203 458.279 17.0309C458.327 17.1262 458.399 17.1951 458.508 17.2216C458.568 17.2375 458.657 17.211 458.655 17.1315C458.606 16.8243 458.829 16.7554 459.324 16.9302C459.392 17.1898 459.378 17.4335 459.275 17.6613C459.208 17.8679 459.099 18.0639 459.007 18.2599C459.004 18.2652 459.009 18.2705 459.007 18.2758C458.997 18.2917 458.991 18.3128 458.98 18.3287C458.908 18.4347 458.816 18.5142 458.729 18.6042C458.504 18.7896 458.274 18.9645 458.04 19.1181C457.684 19.2929 457.291 19.3936 456.902 19.4201C456.363 19.4571 455.55 19.5525 454.957 19.3618C455.137 19.028 454.73 18.6413 454.398 18.8744C453.897 19.2241 454.834 20.0822 455.141 20.2306C455.774 20.5378 456.639 20.363 457.335 20.167C457.346 20.1935 457.366 20.2147 457.391 20.2306C453.643 21.1523 451.397 23.2342 449.951 23.5997C448.772 23.8911 448.578 23.0118 448.606 22.2648C450.276 19.7909 449.58 15.2721 447.141 13.6882C446.106 13.0154 444.281 12.6658 443.68 14.1332C443.126 15.484 443.861 16.9832 445.058 17.6984C445.248 17.8149 445.513 17.7831 445.667 17.6189C445.917 17.3593 445.987 17.2322 446.121 16.8984C446.351 16.3263 445.486 16.072 445.196 16.5594C444.868 16.2733 444.615 15.8972 444.538 15.4575C444.283 14.006 446.069 13.9636 446.876 14.7583C447.549 15.4257 448.147 16.1992 448.296 17.158C448.493 18.4347 448.541 20.1935 447.896 21.4437C447.588 21.6344 447.343 21.9893 447.203 22.3973C447.155 22.4767 447.129 22.5615 447.135 22.6409C446.774 24.209 447.958 26.2167 452.826 23.0594C460.327 18.191 464.853 20.7868 466.929 25.189C468.882 29.3369 466.953 30.2375 466.077 30.5924C465.201 30.9474 464.447 30.1951 464.936 30.0044C465.425 29.819 465.289 29.321 465.289 29.321C465.436 28.0496 463.519 27.1756 462.621 28.9396C461.815 30.5289 463.603 32.5525 466.113 32.6638C466.128 32.6797 466.149 32.6903 466.179 32.6903C466.305 32.685 466.431 32.6744 466.556 32.6638C466.701 32.6532 466.846 32.6426 466.994 32.6214C467.32 32.579 467.614 32.4783 467.882 32.3406C468.695 32.0174 469.417 31.4771 469.881 30.709C470.017 30.4812 470.119 30.2269 470.197 29.9621C470.468 29.8349 470.509 29.4164 470.562 29.1462C470.724 28.3145 470.724 27.4616 470.645 26.6193C470.541 25.5174 470.229 24.4368 469.693 23.4779C469.907 23.6633 470.142 23.8329 470.342 24.0395C470.882 24.601 471.27 25.3373 471.569 26.0578C471.869 26.7836 471.962 27.7583 471.867 28.5317C471.809 29.0032 471.686 29.4217 471.363 29.7766C471.02 30.1581 470.706 30.2534 470.203 30.2481C470.12 30.2481 470.076 30.317 470.101 30.3965C470.261 30.8944 470.918 31.3182 471.418 31.44C471.697 31.5036 471.944 31.4613 472.216 31.3765C472.434 31.3076 472.594 31.1646 472.78 31.0586C472.6 31.6467 471.515 31.689 471.131 32.0492C470.763 32.3936 470.69 32.9339 470.738 33.4107C470.802 34.0517 471.072 34.698 471.355 35.2701C471.527 35.6198 471.754 36.2841 472.133 36.4642Z" fill="#D2A339"/>
</g>
<mask id="mask4_66_22026" style="mask-type:luminance" maskUnits="userSpaceOnUse" x="222" y="0" width="13" height="15">
<path d="M234.042 8.70891C233.844 8.65594 232.445 7.69707 231.663 6.86007C229.963 4.86821 228.408 0.0104168 228.327 -0.00017821C228.254 -0.0107732 226.712 4.86821 225.013 6.86007C224.229 7.69707 222.833 8.66653 222.633 8.70891C226.074 7.96726 228.289 14.9229 228.361 14.9229C228.433 14.9229 230.968 7.87191 234.042 8.70891Z" fill="white"/>
</mask>
<g mask="url(#mask4_66_22026)">
<path d="M234.042 8.70891C233.844 8.65594 232.445 7.69707 231.663 6.86007C229.963 4.86821 228.408 0.0104168 228.327 -0.00017821C228.254 -0.0107732 226.712 4.86821 225.013 6.86007C224.229 7.69707 222.833 8.66653 222.633 8.70891C226.074 7.96726 228.289 14.9229 228.361 14.9229C228.433 14.9229 230.968 7.87191 234.042 8.70891Z" fill="#D2A339"/>
</g>
<mask id="mask5_66_22026" style="mask-type:luminance" maskUnits="userSpaceOnUse" x="191" y="6" width="9" height="12">
<path d="M198.271 17.4069C198.125 17.3857 197.98 17.3645 197.834 17.338C196.654 17.1155 195.495 16.7553 194.464 16.1249C193.762 15.7011 192.259 14.4933 192.138 13.4973C192.417 13.7675 192.72 14.0165 193.036 14.2495C194.476 15.3143 195.918 16.1778 197.506 16.6864C198.227 17.0466 199.002 17.3168 199.813 17.5234C199.349 17.5181 198.88 17.4863 198.408 17.428C198.365 17.4069 198.319 17.4016 198.271 17.4069ZM191.684 9.84208C191.902 11.1029 192.691 12.1518 193.46 13.1742C193.811 13.6403 194.155 14.133 194.538 14.5886C194.037 14.2761 193.539 13.9582 193.082 13.5927C192.14 12.8404 190.572 11.0976 191.684 9.84208ZM195.116 6.28216C195.008 6.43049 194.915 6.58409 194.841 6.72712C193.975 8.47529 194.177 10.34 194.954 11.9822C195.114 12.4908 195.38 13.0047 195.763 13.5026C196.431 14.3767 197.4 15.2614 198.514 15.9818C198.792 16.1831 199.076 16.3739 199.366 16.5487C198.655 16.4533 197.991 16.2891 197.342 16.056C197.064 15.8971 196.795 15.7276 196.546 15.5422C196.52 15.4998 196.486 15.4574 196.429 15.4309C196.396 15.415 196.366 15.3938 196.334 15.378C196.105 15.1925 195.889 14.9965 195.693 14.7846C194.45 13.455 193.238 11.6008 193.292 9.71492C193.331 8.35876 194.083 7.16684 195.116 6.28216Z" fill="white"/>
</mask>
<g mask="url(#mask5_66_22026)">
<path d="M198.271 17.4069C198.125 17.3857 197.98 17.3645 197.834 17.338C196.654 17.1155 195.495 16.7553 194.464 16.1249C193.762 15.7011 192.259 14.4933 192.138 13.4973C192.417 13.7675 192.72 14.0165 193.036 14.2495C194.476 15.3143 195.918 16.1778 197.506 16.6864C198.227 17.0466 199.002 17.3168 199.813 17.5234C199.349 17.5181 198.88 17.4863 198.408 17.428C198.365 17.4069 198.319 17.4016 198.271 17.4069ZM191.684 9.84208C191.902 11.1029 192.691 12.1518 193.46 13.1742C193.811 13.6403 194.155 14.133 194.538 14.5886C194.037 14.2761 193.539 13.9582 193.082 13.5927C192.14 12.8404 190.572 11.0976 191.684 9.84208ZM195.116 6.28216C195.008 6.43049 194.915 6.58409 194.841 6.72712C193.975 8.47529 194.177 10.34 194.954 11.9822C195.114 12.4908 195.38 13.0047 195.763 13.5026C196.431 14.3767 197.4 15.2614 198.514 15.9818C198.792 16.1831 199.076 16.3739 199.366 16.5487C198.655 16.4533 197.991 16.2891 197.342 16.056C197.064 15.8971 196.795 15.7276 196.546 15.5422C196.52 15.4998 196.486 15.4574 196.429 15.4309C196.396 15.415 196.366 15.3938 196.334 15.378C196.105 15.1925 195.889 14.9965 195.693 14.7846C194.45 13.455 193.238 11.6008 193.292 9.71492C193.331 8.35876 194.083 7.16684 195.116 6.28216Z" fill="#D2A339"/>
</g>
<mask id="mask6_66_22026" style="mask-type:luminance" maskUnits="userSpaceOnUse" x="190" y="15" width="21" height="12">
<path d="M200.754 22.9597C200.71 22.3028 199.76 21.3386 200.101 20.6446C200.175 20.8989 200.2 21.1691 200.342 21.4181C200.517 21.7254 200.703 21.9796 201.015 22.1544C201.572 22.4776 202.534 22.6524 203.111 22.3346C203.199 22.2816 203.219 22.1809 203.141 22.1121C202.678 21.6883 202.472 21.3333 202.486 20.6923C202.499 20.0884 202.744 19.601 203.095 19.119C203.669 18.3349 204.589 17.5244 205.483 17.1218C206.372 16.7192 207.358 16.3749 208.33 16.3325C208.996 16.2954 209.661 16.4914 210.303 16.2689C210.401 16.2319 210.404 16.1047 210.334 16.0464C210.301 16.0199 210.27 15.9882 210.238 15.9617C210.194 15.9246 210.146 15.9246 210.107 15.9458C209.758 15.7021 209.11 15.7127 208.727 15.6597C207.924 15.5432 207.097 15.6226 206.301 15.7551C204.537 16.0464 202.906 16.8781 201.311 17.6463C200.477 18.0489 199.583 18.4462 198.66 18.5575C197.781 18.6581 196.935 18.8859 196.046 18.9283C195.115 18.976 194.115 19.0289 193.192 18.8965C192.165 18.7534 191.373 18.4197 190.568 17.7681C190.499 17.7098 190.367 17.7575 190.364 17.8529C190.35 18.2502 190.65 18.5945 190.878 18.8965C191.251 19.3891 191.684 19.7917 192.173 20.1679C193.141 20.9201 194.083 21.5399 195.314 21.7147C195.805 21.7836 196.296 21.8525 196.792 21.7889C197.102 21.7465 197.318 21.577 197.535 21.8048C197.707 21.9902 197.649 22.2392 197.654 22.4829C197.668 23.2881 197.683 23.8814 197.183 24.5489C196.814 25.0416 196.409 25.4706 196.008 25.9315C195.957 25.9898 195.985 26.1011 196.061 26.1275C196.563 26.2865 197.337 25.8786 197.793 25.7037C198.542 25.423 199.34 25.068 199.949 24.5383C200.399 24.141 200.796 23.5848 200.754 22.9597Z" fill="white"/>
</mask>
<g mask="url(#mask6_66_22026)">
<path d="M200.754 22.9597C200.71 22.3028 199.76 21.3386 200.101 20.6446C200.175 20.8989 200.2 21.1691 200.342 21.4181C200.517 21.7254 200.703 21.9796 201.015 22.1544C201.572 22.4776 202.534 22.6524 203.111 22.3346C203.199 22.2816 203.219 22.1809 203.141 22.1121C202.678 21.6883 202.472 21.3333 202.486 20.6923C202.499 20.0884 202.744 19.601 203.095 19.119C203.669 18.3349 204.589 17.5244 205.483 17.1218C206.372 16.7192 207.358 16.3749 208.33 16.3325C208.996 16.2954 209.661 16.4914 210.303 16.2689C210.401 16.2319 210.404 16.1047 210.334 16.0464C210.301 16.0199 210.27 15.9882 210.238 15.9617C210.194 15.9246 210.146 15.9246 210.107 15.9458C209.758 15.7021 209.11 15.7127 208.727 15.6597C207.924 15.5432 207.097 15.6226 206.301 15.7551C204.537 16.0464 202.906 16.8781 201.311 17.6463C200.477 18.0489 199.583 18.4462 198.66 18.5575C197.781 18.6581 196.935 18.8859 196.046 18.9283C195.115 18.976 194.115 19.0289 193.192 18.8965C192.165 18.7534 191.373 18.4197 190.568 17.7681C190.499 17.7098 190.367 17.7575 190.364 17.8529C190.35 18.2502 190.65 18.5945 190.878 18.8965C191.251 19.3891 191.684 19.7917 192.173 20.1679C193.141 20.9201 194.083 21.5399 195.314 21.7147C195.805 21.7836 196.296 21.8525 196.792 21.7889C197.102 21.7465 197.318 21.577 197.535 21.8048C197.707 21.9902 197.649 22.2392 197.654 22.4829C197.668 23.2881 197.683 23.8814 197.183 24.5489C196.814 25.0416 196.409 25.4706 196.008 25.9315C195.957 25.9898 195.985 26.1011 196.061 26.1275C196.563 26.2865 197.337 25.8786 197.793 25.7037C198.542 25.423 199.34 25.068 199.949 24.5383C200.399 24.141 200.796 23.5848 200.754 22.9597Z" fill="#D2A339"/>
</g>
<mask id="mask7_66_22026" style="mask-type:luminance" maskUnits="userSpaceOnUse" x="221" y="14" width="9" height="12">
<path d="M222.905 17.1009C223.509 16.0043 224.39 15.0083 225.695 14.8123C226.334 14.717 226.978 14.8865 227.532 15.2097C227.077 15.0931 226.605 15.0613 226.207 15.1513C223.766 15.7076 222.812 18.2822 222.628 20.5336C222.587 21.0422 222.634 21.5136 222.749 21.9692C222.548 21.5295 222.387 21.074 222.316 20.5866C222.134 19.3205 222.286 18.2186 222.905 17.1009ZM227.386 25.1583C227.283 24.6604 226.58 24.6657 226.458 25.1266C225.755 24.7928 225.096 24.0088 224.635 23.5161C223.955 22.785 223.527 21.7573 223.674 20.7402C223.809 19.8025 224.442 18.8331 225.16 18.2239C225.594 17.8584 226.025 17.6836 226.593 17.6889C226.865 17.6942 227.61 17.7206 227.917 17.959C227.608 17.9908 227.544 18.351 227.809 18.6742C228.255 19.2251 228.991 18.9868 229.309 18.4146C229.728 17.6624 229.489 16.5711 228.92 15.9725C228.771 15.8188 228.584 15.6758 228.375 15.554C227.768 14.9448 226.919 14.521 226.064 14.5263C224.851 14.5316 223.805 15.2838 223.128 16.2427C222.364 17.3233 221.942 18.4517 221.992 19.7708C222.051 21.3017 222.687 22.4513 223.414 23.7651C223.455 23.8393 223.539 23.8498 223.6 23.8233C224.07 24.5968 224.708 25.4974 225.548 25.7623C225.953 25.8894 227.542 25.9106 227.386 25.1583Z" fill="white"/>
</mask>
<g mask="url(#mask7_66_22026)">
<path d="M222.905 17.1009C223.509 16.0043 224.39 15.0083 225.695 14.8123C226.334 14.717 226.978 14.8865 227.532 15.2097C227.077 15.0931 226.605 15.0613 226.207 15.1513C223.766 15.7076 222.812 18.2822 222.628 20.5336C222.587 21.0422 222.634 21.5136 222.749 21.9692C222.548 21.5295 222.387 21.074 222.316 20.5866C222.134 19.3205 222.286 18.2186 222.905 17.1009ZM227.386 25.1583C227.283 24.6604 226.58 24.6657 226.458 25.1266C225.755 24.7928 225.096 24.0088 224.635 23.5161C223.955 22.785 223.527 21.7573 223.674 20.7402C223.809 19.8025 224.442 18.8331 225.16 18.2239C225.594 17.8584 226.025 17.6836 226.593 17.6889C226.865 17.6942 227.61 17.7206 227.917 17.959C227.608 17.9908 227.544 18.351 227.809 18.6742C228.255 19.2251 228.991 18.9868 229.309 18.4146C229.728 17.6624 229.489 16.5711 228.92 15.9725C228.771 15.8188 228.584 15.6758 228.375 15.554C227.768 14.9448 226.919 14.521 226.064 14.5263C224.851 14.5316 223.805 15.2838 223.128 16.2427C222.364 17.3233 221.942 18.4517 221.992 19.7708C222.051 21.3017 222.687 22.4513 223.414 23.7651C223.455 23.8393 223.539 23.8498 223.6 23.8233C224.07 24.5968 224.708 25.4974 225.548 25.7623C225.953 25.8894 227.542 25.9106 227.386 25.1583Z" fill="#D2A339"/>
</g>
<mask id="mask8_66_22026" style="mask-type:luminance" maskUnits="userSpaceOnUse" x="203" y="15" width="29" height="20">
<path d="M209.995 17.2168C209.77 17.1903 206.227 17.9956 204.363 20.4112C204.172 20.6602 203.979 20.9251 203.802 21.2005C204.049 20.6655 204.699 19.9451 204.848 19.7755C205.494 19.0286 206.234 18.3399 207.045 17.7784C208.579 16.7136 210.164 16.1467 212.031 16.1255C213.79 16.1044 215.46 16.5282 217.052 17.2645C217.845 17.63 218.741 18.0273 219.41 18.5889C219.833 18.9438 220.087 19.4206 220.347 19.8974C220.483 20.1464 220.647 20.3529 220.816 20.5648C220.494 20.2523 220.154 19.9397 219.791 19.6325C216.373 16.7189 212.805 16.5228 209.995 17.2168ZM230.424 28.5588C230.424 28.5588 228.759 31.6737 227.4 29.5653C226.146 27.6158 226.051 25.8994 221.135 20.888C221.224 20.8774 221.304 20.7767 221.234 20.6867C220.884 20.2205 220.597 19.7702 220.297 19.2723C220.057 18.8697 219.763 18.52 219.384 18.2445C218.602 17.6777 217.657 17.238 216.774 16.8566C215.028 16.1096 213.198 15.7653 211.298 15.8978C209.288 16.0302 207.439 16.9943 205.943 18.3134C205.149 19.018 204.419 19.7914 203.854 20.692C203.673 20.9834 203.352 21.3966 203.489 21.7515C203.334 22.0587 203.21 22.3766 203.14 22.6997C202.903 23.7963 203.098 24.9088 203.566 25.8994C203.69 26.2543 203.872 26.5987 204.132 26.9165C204.25 27.0596 204.373 27.1973 204.498 27.3245C204.602 27.4463 204.708 27.5628 204.82 27.6741C204.846 27.7006 204.875 27.7111 204.902 27.7058C207.285 29.756 210.649 29.4381 211.271 27.3032C211.964 24.9247 209.469 24.0771 208.513 25.3644C208.513 25.3644 207.963 25.7034 208.249 26.2914C208.535 26.8795 207.2 26.9271 206.706 25.8517C206.213 24.7763 205.223 22.3024 210.552 20.194C216.217 17.9532 222.562 19.463 225.24 30.3175C227.918 41.1769 233.112 29.6606 230.424 28.5588Z" fill="white"/>
</mask>
<g mask="url(#mask8_66_22026)">
<path d="M209.995 17.2168C209.77 17.1903 206.227 17.9956 204.363 20.4112C204.172 20.6602 203.979 20.9251 203.802 21.2005C204.049 20.6655 204.699 19.9451 204.848 19.7755C205.494 19.0286 206.234 18.3399 207.045 17.7784C208.579 16.7136 210.164 16.1467 212.031 16.1255C213.79 16.1044 215.46 16.5282 217.052 17.2645C217.845 17.63 218.741 18.0273 219.41 18.5889C219.833 18.9438 220.087 19.4206 220.347 19.8974C220.483 20.1464 220.647 20.3529 220.816 20.5648C220.494 20.2523 220.154 19.9397 219.791 19.6325C216.373 16.7189 212.805 16.5228 209.995 17.2168ZM230.424 28.5588C230.424 28.5588 228.759 31.6737 227.4 29.5653C226.146 27.6158 226.051 25.8994 221.135 20.888C221.224 20.8774 221.304 20.7767 221.234 20.6867C220.884 20.2205 220.597 19.7702 220.297 19.2723C220.057 18.8697 219.763 18.52 219.384 18.2445C218.602 17.6777 217.657 17.238 216.774 16.8566C215.028 16.1096 213.198 15.7653 211.298 15.8978C209.288 16.0302 207.439 16.9943 205.943 18.3134C205.149 19.018 204.419 19.7914 203.854 20.692C203.673 20.9834 203.352 21.3966 203.489 21.7515C203.334 22.0587 203.21 22.3766 203.14 22.6997C202.903 23.7963 203.098 24.9088 203.566 25.8994C203.69 26.2543 203.872 26.5987 204.132 26.9165C204.25 27.0596 204.373 27.1973 204.498 27.3245C204.602 27.4463 204.708 27.5628 204.82 27.6741C204.846 27.7006 204.875 27.7111 204.902 27.7058C207.285 29.756 210.649 29.4381 211.271 27.3032C211.964 24.9247 209.469 24.0771 208.513 25.3644C208.513 25.3644 207.963 25.7034 208.249 26.2914C208.535 26.8795 207.2 26.9271 206.706 25.8517C206.213 24.7763 205.223 22.3024 210.552 20.194C216.217 17.9532 222.562 19.463 225.24 30.3175C227.918 41.1769 233.112 29.6606 230.424 28.5588Z" fill="#D2A339"/>
</g>
<mask id="mask9_66_22026" style="mask-type:luminance" maskUnits="userSpaceOnUse" x="220" y="15" width="4" height="9">
<path d="M223.633 22.9537C223.495 22.9749 223.362 22.9324 223.236 22.8583C223.229 22.8371 223.219 22.8212 223.198 22.8053C223.139 22.7576 223.074 22.7153 223.008 22.6782C222.667 22.3445 222.395 21.7988 222.236 21.5021C221.929 20.93 221.596 20.3049 221.581 19.648C221.567 18.9858 221.675 18.2442 221.915 17.6244C222.118 17.1052 222.677 16.4907 223.258 16.3742C223.26 16.3742 223.261 16.3689 223.264 16.3689C223.302 16.2576 223.357 16.1517 223.429 16.0563C223.427 16.0563 223.426 16.0563 223.425 16.0563C222.623 15.8974 221.857 15.9875 221.252 16.5967C220.705 17.1476 220.491 17.9104 220.559 18.6733C220.638 19.5526 220.756 20.5592 221.235 21.322C221.483 21.7193 221.801 22.069 222.145 22.3815C222.338 22.5616 222.543 22.6729 222.747 22.7947C222.993 23.0755 223.295 23.2927 223.666 23.2291C223.842 23.2026 223.81 22.9325 223.633 22.9537Z" fill="white"/>
</mask>
<g mask="url(#mask9_66_22026)">
<path d="M223.633 22.9537C223.495 22.9749 223.362 22.9324 223.236 22.8583C223.229 22.8371 223.219 22.8212 223.198 22.8053C223.139 22.7576 223.074 22.7153 223.008 22.6782C222.667 22.3445 222.395 21.7988 222.236 21.5021C221.929 20.93 221.596 20.3049 221.581 19.648C221.567 18.9858 221.675 18.2442 221.915 17.6244C222.118 17.1052 222.677 16.4907 223.258 16.3742C223.26 16.3742 223.261 16.3689 223.264 16.3689C223.302 16.2576 223.357 16.1517 223.429 16.0563C223.427 16.0563 223.426 16.0563 223.425 16.0563C222.623 15.8974 221.857 15.9875 221.252 16.5967C220.705 17.1476 220.491 17.9104 220.559 18.6733C220.638 19.5526 220.756 20.5592 221.235 21.322C221.483 21.7193 221.801 22.069 222.145 22.3815C222.338 22.5616 222.543 22.6729 222.747 22.7947C222.993 23.0755 223.295 23.2927 223.666 23.2291C223.842 23.2026 223.81 22.9325 223.633 22.9537Z" fill="#D2A339"/>
</g>
<mask id="mask10_66_22026" style="mask-type:luminance" maskUnits="userSpaceOnUse" x="223" y="17" width="4" height="4">
<path d="M225.54 20.1096C225.759 19.9877 225.95 19.7493 226.047 19.5692C226.388 18.9335 226.127 18.4196 225.687 17.9323C225.705 17.8952 225.704 17.8528 225.667 17.8052C225.471 17.5721 224.761 17.5509 224.859 17.9959C224.876 18.0753 224.978 18.1389 225.025 18.1972C225.123 18.3084 225.21 18.425 225.299 18.5468C225.522 18.9229 225.717 19.4845 225.443 19.8288C225.415 19.8606 225.385 19.8923 225.354 19.9188C225.352 19.9188 225.352 19.9188 225.351 19.9188C225.598 19.495 225.503 18.8699 224.896 18.8329C223.96 18.7693 223.692 19.8818 223.476 20.5599C223.424 20.7241 223.669 20.83 223.722 20.6658C223.806 20.4062 223.87 20.1308 223.984 19.8871C224.086 19.5904 224.279 19.352 224.562 19.1772C225.163 19.4368 225.309 19.6911 225.001 19.9294C224.932 19.9983 224.99 20.099 225.056 20.1361C225.178 20.2049 225.305 20.1996 225.426 20.1572C225.456 20.1625 225.486 20.1572 225.517 20.1307C225.525 20.1254 225.531 20.1149 225.54 20.1096Z" fill="white"/>
</mask>
<g mask="url(#mask10_66_22026)">
<path d="M225.54 20.1096C225.759 19.9877 225.95 19.7493 226.047 19.5692C226.388 18.9335 226.127 18.4196 225.687 17.9323C225.705 17.8952 225.704 17.8528 225.667 17.8052C225.471 17.5721 224.761 17.5509 224.859 17.9959C224.876 18.0753 224.978 18.1389 225.025 18.1972C225.123 18.3084 225.21 18.425 225.299 18.5468C225.522 18.9229 225.717 19.4845 225.443 19.8288C225.415 19.8606 225.385 19.8923 225.354 19.9188C225.352 19.9188 225.352 19.9188 225.351 19.9188C225.598 19.495 225.503 18.8699 224.896 18.8329C223.96 18.7693 223.692 19.8818 223.476 20.5599C223.424 20.7241 223.669 20.83 223.722 20.6658C223.806 20.4062 223.87 20.1308 223.984 19.8871C224.086 19.5904 224.279 19.352 224.562 19.1772C225.163 19.4368 225.309 19.6911 225.001 19.9294C224.932 19.9983 224.99 20.099 225.056 20.1361C225.178 20.2049 225.305 20.1996 225.426 20.1572C225.456 20.1625 225.486 20.1572 225.517 20.1307C225.525 20.1254 225.531 20.1149 225.54 20.1096Z" fill="#D2A339"/>
</g>
<mask id="mask11_66_22026" style="mask-type:luminance" maskUnits="userSpaceOnUse" x="190" y="14" width="9" height="5">
<path d="M198.031 18.0172C198.031 18.0172 192.902 19.0078 191.21 16.9894C189.517 14.9711 190.797 14.3195 191.185 14.8334C191.573 15.3419 193 18.2873 198.031 18.0172Z" fill="white"/>
</mask>
<g mask="url(#mask11_66_22026)">
<path d="M198.031 18.0172C198.031 18.0172 192.902 19.0078 191.21 16.9894C189.517 14.9711 190.797 14.3195 191.185 14.8334C191.573 15.3419 193 18.2873 198.031 18.0172Z" fill="#D2A339"/>
</g>
<mask id="mask12_66_22026" style="mask-type:luminance" maskUnits="userSpaceOnUse" x="257" y="6" width="9" height="12">
<path d="M258.62 17.428C258.147 17.4863 257.679 17.5181 257.215 17.5234C258.026 17.3168 258.801 17.0466 259.521 16.6864C261.109 16.1778 262.552 15.3143 263.992 14.2495C264.308 14.0165 264.611 13.7675 264.889 13.4973C264.769 14.4933 263.266 15.7011 262.563 16.1249C261.533 16.7553 260.373 17.1155 259.194 17.338C259.048 17.3645 258.903 17.3857 258.757 17.4069C258.708 17.4016 258.662 17.4069 258.62 17.428ZM263.945 13.5927C263.489 13.9582 262.991 14.2761 262.489 14.5886C262.873 14.133 263.216 13.6403 263.567 13.1742C264.337 12.1518 265.125 11.1029 265.344 9.84208C266.456 11.0976 264.888 12.8404 263.945 13.5927ZM263.736 9.71492C263.789 11.6008 262.577 13.455 261.334 14.7846C261.138 14.9965 260.923 15.1925 260.694 15.378C260.661 15.3938 260.632 15.415 260.598 15.4309C260.542 15.4574 260.507 15.4998 260.482 15.5422C260.232 15.7276 259.963 15.8971 259.686 16.056C259.036 16.2891 258.373 16.4533 257.662 16.5487C257.952 16.3739 258.236 16.1831 258.514 15.9818C259.628 15.2614 260.597 14.3767 261.265 13.5026C261.648 13.0047 261.913 12.4908 262.074 11.9822C262.85 10.34 263.052 8.47529 262.186 6.72712C262.112 6.58409 262.02 6.43049 261.912 6.28216C262.945 7.16684 263.697 8.35876 263.736 9.71492Z" fill="white"/>
</mask>
<g mask="url(#mask12_66_22026)">
<path d="M258.62 17.428C258.147 17.4863 257.679 17.5181 257.215 17.5234C258.026 17.3168 258.801 17.0466 259.521 16.6864C261.109 16.1778 262.552 15.3143 263.992 14.2495C264.308 14.0165 264.611 13.7675 264.889 13.4973C264.769 14.4933 263.266 15.7011 262.563 16.1249C261.533 16.7553 260.373 17.1155 259.194 17.338C259.048 17.3645 258.903 17.3857 258.757 17.4069C258.708 17.4016 258.662 17.4069 258.62 17.428ZM263.945 13.5927C263.489 13.9582 262.991 14.2761 262.489 14.5886C262.873 14.133 263.216 13.6403 263.567 13.1742C264.337 12.1518 265.125 11.1029 265.344 9.84208C266.456 11.0976 264.888 12.8404 263.945 13.5927ZM263.736 9.71492C263.789 11.6008 262.577 13.455 261.334 14.7846C261.138 14.9965 260.923 15.1925 260.694 15.378C260.661 15.3938 260.632 15.415 260.598 15.4309C260.542 15.4574 260.507 15.4998 260.482 15.5422C260.232 15.7276 259.963 15.8971 259.686 16.056C259.036 16.2891 258.373 16.4533 257.662 16.5487C257.952 16.3739 258.236 16.1831 258.514 15.9818C259.628 15.2614 260.597 14.3767 261.265 13.5026C261.648 13.0047 261.913 12.4908 262.074 11.9822C262.85 10.34 263.052 8.47529 262.186 6.72712C262.112 6.58409 262.02 6.43049 261.912 6.28216C262.945 7.16684 263.697 8.35876 263.736 9.71492Z" fill="#D2A339"/>
</g>
<mask id="mask13_66_22026" style="mask-type:luminance" maskUnits="userSpaceOnUse" x="246" y="15" width="21" height="12">
<path d="M257.078 24.5373C257.687 25.0671 258.484 25.422 259.233 25.7028C259.689 25.8776 260.464 26.2855 260.965 26.1266C261.042 26.1001 261.07 25.9888 261.018 25.9305C260.618 25.4697 260.212 25.0406 259.844 24.5479C259.344 23.8804 259.358 23.2871 259.373 22.4819C259.378 22.2382 259.319 21.9892 259.491 21.8038C259.709 21.576 259.924 21.7456 260.235 21.788C260.73 21.8515 261.222 21.7826 261.713 21.7138C262.943 21.539 263.886 20.9191 264.854 20.1669C265.342 19.7908 265.776 19.3882 266.148 18.8955C266.377 18.5935 266.676 18.2492 266.663 17.8519C266.659 17.7565 266.528 17.7089 266.458 17.7671C265.653 18.4187 264.861 18.7525 263.835 18.8955C262.911 19.0279 261.912 18.975 260.981 18.9273C260.091 18.8849 259.246 18.6571 258.366 18.5565C257.443 18.4452 256.55 18.0479 255.716 17.6453C254.121 16.8772 252.489 16.0455 250.726 15.7541C249.929 15.6217 249.102 15.5422 248.299 15.6588C247.916 15.7117 247.269 15.7011 246.919 15.9448C246.881 15.9236 246.833 15.9236 246.788 15.9607C246.756 15.9872 246.724 16.019 246.693 16.0455C246.623 16.1037 246.625 16.2309 246.723 16.268C247.365 16.4905 248.031 16.2945 248.697 16.3315C249.669 16.3739 250.655 16.7182 251.544 17.1208C252.438 17.5234 253.357 18.334 253.932 19.118C254.282 19.6001 254.528 20.0874 254.54 20.6914C254.555 21.3324 254.349 21.6873 253.885 22.1111C253.808 22.1799 253.827 22.2806 253.916 22.3336C254.492 22.6514 255.454 22.4766 256.011 22.1534C256.323 21.9786 256.509 21.7244 256.685 21.4171C256.826 21.1681 256.851 20.8979 256.926 20.6437C257.266 21.3376 256.316 22.3018 256.272 22.9587C256.23 23.5838 256.627 24.14 257.078 24.5373Z" fill="white"/>
</mask>
<g mask="url(#mask13_66_22026)">
<path d="M257.078 24.5373C257.687 25.0671 258.484 25.422 259.233 25.7028C259.689 25.8776 260.464 26.2855 260.965 26.1266C261.042 26.1001 261.07 25.9888 261.018 25.9305C260.618 25.4697 260.212 25.0406 259.844 24.5479C259.344 23.8804 259.358 23.2871 259.373 22.4819C259.378 22.2382 259.319 21.9892 259.491 21.8038C259.709 21.576 259.924 21.7456 260.235 21.788C260.73 21.8515 261.222 21.7826 261.713 21.7138C262.943 21.539 263.886 20.9191 264.854 20.1669C265.342 19.7908 265.776 19.3882 266.148 18.8955C266.377 18.5935 266.676 18.2492 266.663 17.8519C266.659 17.7565 266.528 17.7089 266.458 17.7671C265.653 18.4187 264.861 18.7525 263.835 18.8955C262.911 19.0279 261.912 18.975 260.981 18.9273C260.091 18.8849 259.246 18.6571 258.366 18.5565C257.443 18.4452 256.55 18.0479 255.716 17.6453C254.121 16.8772 252.489 16.0455 250.726 15.7541C249.929 15.6217 249.102 15.5422 248.299 15.6588C247.916 15.7117 247.269 15.7011 246.919 15.9448C246.881 15.9236 246.833 15.9236 246.788 15.9607C246.756 15.9872 246.724 16.019 246.693 16.0455C246.623 16.1037 246.625 16.2309 246.723 16.268C247.365 16.4905 248.031 16.2945 248.697 16.3315C249.669 16.3739 250.655 16.7182 251.544 17.1208C252.438 17.5234 253.357 18.334 253.932 19.118C254.282 19.6001 254.528 20.0874 254.54 20.6914C254.555 21.3324 254.349 21.6873 253.885 22.1111C253.808 22.1799 253.827 22.2806 253.916 22.3336C254.492 22.6514 255.454 22.4766 256.011 22.1534C256.323 21.9786 256.509 21.7244 256.685 21.4171C256.826 21.1681 256.851 20.8979 256.926 20.6437C257.266 21.3376 256.316 22.3018 256.272 22.9587C256.23 23.5838 256.627 24.14 257.078 24.5373Z" fill="#D2A339"/>
</g>
<mask id="mask14_66_22026" style="mask-type:luminance" maskUnits="userSpaceOnUse" x="227" y="14" width="9" height="12">
<path d="M234.705 20.5866C234.634 21.074 234.472 21.5295 234.271 21.9692C234.387 21.5136 234.434 21.0422 234.393 20.5336C234.208 18.2822 233.255 15.7076 230.814 15.1513C230.416 15.0613 229.944 15.0931 229.489 15.2097C230.043 14.8865 230.687 14.717 231.326 14.8123C232.631 15.0083 233.512 16.0043 234.116 17.1009C234.734 18.2186 234.887 19.3205 234.705 20.5866ZM231.474 25.7623C232.313 25.4974 232.951 24.5968 233.421 23.8233C233.482 23.8498 233.566 23.8393 233.607 23.7651C234.334 22.4513 234.971 21.3017 235.028 19.7708C235.079 18.4517 234.657 17.3233 233.894 16.2427C233.216 15.2838 232.17 14.5316 230.957 14.5263C230.102 14.521 229.253 14.9448 228.646 15.554C228.437 15.6758 228.25 15.8188 228.101 15.9725C227.533 16.5711 227.293 17.6624 227.712 18.4146C228.03 18.9868 228.766 19.2251 229.212 18.6742C229.477 18.351 229.413 17.9908 229.104 17.959C229.411 17.7206 230.156 17.6942 230.428 17.6889C230.996 17.6836 231.427 17.8584 231.861 18.2239C232.578 18.8331 233.212 19.8025 233.347 20.7402C233.494 21.7573 233.066 22.785 232.386 23.5161C231.925 24.0088 231.266 24.7928 230.563 25.1266C230.441 24.6657 229.738 24.6604 229.635 25.1583C229.479 25.9106 231.068 25.8894 231.474 25.7623Z" fill="white"/>
</mask>
<g mask="url(#mask14_66_22026)">
<path d="M234.705 20.5866C234.634 21.074 234.472 21.5295 234.271 21.9692C234.387 21.5136 234.434 21.0422 234.393 20.5336C234.208 18.2822 233.255 15.7076 230.814 15.1513C230.416 15.0613 229.944 15.0931 229.489 15.2097C230.043 14.8865 230.687 14.717 231.326 14.8123C232.631 15.0083 233.512 16.0043 234.116 17.1009C234.734 18.2186 234.887 19.3205 234.705 20.5866ZM231.474 25.7623C232.313 25.4974 232.951 24.5968 233.421 23.8233C233.482 23.8498 233.566 23.8393 233.607 23.7651C234.334 22.4513 234.971 21.3017 235.028 19.7708C235.079 18.4517 234.657 17.3233 233.894 16.2427C233.216 15.2838 232.17 14.5316 230.957 14.5263C230.102 14.521 229.253 14.9448 228.646 15.554C228.437 15.6758 228.25 15.8188 228.101 15.9725C227.533 16.5711 227.293 17.6624 227.712 18.4146C228.03 18.9868 228.766 19.2251 229.212 18.6742C229.477 18.351 229.413 17.9908 229.104 17.959C229.411 17.7206 230.156 17.6942 230.428 17.6889C230.996 17.6836 231.427 17.8584 231.861 18.2239C232.578 18.8331 233.212 19.8025 233.347 20.7402C233.494 21.7573 233.066 22.785 232.386 23.5161C231.925 24.0088 231.266 24.7928 230.563 25.1266C230.441 24.6657 229.738 24.6604 229.635 25.1583C229.479 25.9106 231.068 25.8894 231.474 25.7623Z" fill="#D2A339"/>
</g>
<mask id="mask15_66_22026" style="mask-type:luminance" maskUnits="userSpaceOnUse" x="225" y="15" width="29" height="20">
<path d="M237.236 19.6325C236.872 19.9397 236.532 20.2523 236.21 20.5648C236.379 20.3529 236.543 20.1464 236.679 19.8974C236.939 19.4206 237.193 18.9438 237.616 18.5889C238.285 18.0273 239.181 17.63 239.973 17.2645C241.566 16.5282 243.236 16.1044 244.995 16.1255C246.862 16.1467 248.447 16.7136 249.981 17.7784C250.793 18.3399 251.533 19.0286 252.179 19.7755C252.327 19.9451 252.977 20.6655 253.224 21.2005C253.047 20.9251 252.854 20.6602 252.663 20.4112C250.799 17.9956 247.257 17.1903 247.031 17.2168C244.221 16.5228 240.653 16.7189 237.236 19.6325ZM231.786 30.3175C234.464 19.463 240.809 17.9532 246.474 20.194C251.803 22.3024 250.813 24.7763 250.32 25.8517C249.826 26.9271 248.492 26.8795 248.777 26.2914C249.063 25.7034 248.513 25.3644 248.513 25.3644C247.557 24.0771 245.062 24.9247 245.755 27.3032C246.377 29.4381 249.741 29.756 252.124 27.7058C252.151 27.7111 252.18 27.7006 252.207 27.6741C252.318 27.5628 252.424 27.4463 252.528 27.3245C252.653 27.1973 252.776 27.0596 252.894 26.9165C253.154 26.5987 253.337 26.2543 253.46 25.8994C253.928 24.9088 254.122 23.7963 253.886 22.6997C253.817 22.3766 253.692 22.0587 253.537 21.7515C253.674 21.3966 253.353 20.9834 253.172 20.692C252.608 19.7914 251.877 19.018 251.083 18.3134C249.587 16.9943 247.738 16.0302 245.728 15.8978C243.829 15.7653 241.998 16.1096 240.252 16.8566C239.369 17.238 238.424 17.6777 237.642 18.2445C237.263 18.52 236.969 18.8697 236.729 19.2723C236.43 19.7702 236.143 20.2205 235.792 20.6867C235.722 20.7767 235.802 20.8774 235.891 20.888C230.975 25.8994 230.88 27.6158 229.626 29.5653C228.267 31.6737 226.602 28.5588 226.602 28.5588C223.914 29.6606 229.108 41.1769 231.786 30.3175Z" fill="white"/>
</mask>
<g mask="url(#mask15_66_22026)">
<path d="M237.236 19.6325C236.872 19.9397 236.532 20.2523 236.21 20.5648C236.379 20.3529 236.543 20.1464 236.679 19.8974C236.939 19.4206 237.193 18.9438 237.616 18.5889C238.285 18.0273 239.181 17.63 239.973 17.2645C241.566 16.5282 243.236 16.1044 244.995 16.1255C246.862 16.1467 248.447 16.7136 249.981 17.7784C250.793 18.3399 251.533 19.0286 252.179 19.7755C252.327 19.9451 252.977 20.6655 253.224 21.2005C253.047 20.9251 252.854 20.6602 252.663 20.4112C250.799 17.9956 247.257 17.1903 247.031 17.2168C244.221 16.5228 240.653 16.7189 237.236 19.6325ZM231.786 30.3175C234.464 19.463 240.809 17.9532 246.474 20.194C251.803 22.3024 250.813 24.7763 250.32 25.8517C249.826 26.9271 248.492 26.8795 248.777 26.2914C249.063 25.7034 248.513 25.3644 248.513 25.3644C247.557 24.0771 245.062 24.9247 245.755 27.3032C246.377 29.4381 249.741 29.756 252.124 27.7058C252.151 27.7111 252.18 27.7006 252.207 27.6741C252.318 27.5628 252.424 27.4463 252.528 27.3245C252.653 27.1973 252.776 27.0596 252.894 26.9165C253.154 26.5987 253.337 26.2543 253.46 25.8994C253.928 24.9088 254.122 23.7963 253.886 22.6997C253.817 22.3766 253.692 22.0587 253.537 21.7515C253.674 21.3966 253.353 20.9834 253.172 20.692C252.608 19.7914 251.877 19.018 251.083 18.3134C249.587 16.9943 247.738 16.0302 245.728 15.8978C243.829 15.7653 241.998 16.1096 240.252 16.8566C239.369 17.238 238.424 17.6777 237.642 18.2445C237.263 18.52 236.969 18.8697 236.729 19.2723C236.43 19.7702 236.143 20.2205 235.792 20.6867C235.722 20.7767 235.802 20.8774 235.891 20.888C230.975 25.8994 230.88 27.6158 229.626 29.5653C228.267 31.6737 226.602 28.5588 226.602 28.5588C223.914 29.6606 229.108 41.1769 231.786 30.3175Z" fill="#D2A339"/>
</g>
<mask id="mask16_66_22026" style="mask-type:luminance" maskUnits="userSpaceOnUse" x="233" y="15" width="4" height="9">
<path d="M233.384 22.9542C233.523 22.9754 233.655 22.9329 233.782 22.8588C233.788 22.8376 233.799 22.8217 233.819 22.8058C233.879 22.7581 233.943 22.7158 234.01 22.6787C234.35 22.3449 234.623 21.7993 234.781 21.5026C235.088 20.9305 235.421 20.3054 235.436 19.6485C235.45 18.9863 235.342 18.2447 235.102 17.6249C234.9 17.1057 234.34 16.4912 233.759 16.3747C233.757 16.3747 233.756 16.3693 233.754 16.3693C233.715 16.2581 233.66 16.1522 233.589 16.0568C233.59 16.0568 233.591 16.0568 233.593 16.0568C234.395 15.8979 235.161 15.988 235.766 16.5972C236.312 17.1481 236.526 17.9109 236.458 18.6738C236.379 19.5531 236.261 20.5597 235.782 21.3225C235.535 21.7198 235.216 22.0694 234.873 22.382C234.679 22.5621 234.474 22.6734 234.271 22.7952C234.024 23.076 233.723 23.2932 233.351 23.2296C233.176 23.2031 233.207 22.933 233.384 22.9542Z" fill="white"/>
</mask>
<g mask="url(#mask16_66_22026)">
<path d="M233.384 22.9542C233.523 22.9754 233.655 22.9329 233.782 22.8588C233.788 22.8376 233.799 22.8217 233.819 22.8058C233.879 22.7581 233.943 22.7158 234.01 22.6787C234.35 22.3449 234.623 21.7993 234.781 21.5026C235.088 20.9305 235.421 20.3054 235.436 19.6485C235.45 18.9863 235.342 18.2447 235.102 17.6249C234.9 17.1057 234.34 16.4912 233.759 16.3747C233.757 16.3747 233.756 16.3693 233.754 16.3693C233.715 16.2581 233.66 16.1522 233.589 16.0568C233.59 16.0568 233.591 16.0568 233.593 16.0568C234.395 15.8979 235.161 15.988 235.766 16.5972C236.312 17.1481 236.526 17.9109 236.458 18.6738C236.379 19.5531 236.261 20.5597 235.782 21.3225C235.535 21.7198 235.216 22.0694 234.873 22.382C234.679 22.5621 234.474 22.6734 234.271 22.7952C234.024 23.076 233.723 23.2932 233.351 23.2296C233.176 23.2031 233.207 22.933 233.384 22.9542Z" fill="#D2A339"/>
</g>
<mask id="mask17_66_22026" style="mask-type:luminance" maskUnits="userSpaceOnUse" x="230" y="17" width="4" height="4">
<path d="M231.504 20.1307C231.533 20.1572 231.565 20.1625 231.594 20.1572C231.715 20.1996 231.842 20.2049 231.964 20.1361C232.03 20.099 232.088 19.9983 232.019 19.9294C231.711 19.6911 231.858 19.4368 232.458 19.1772C232.741 19.352 232.934 19.5904 233.036 19.8871C233.15 20.1308 233.214 20.4062 233.298 20.6658C233.352 20.83 233.596 20.7241 233.544 20.5599C233.328 19.8818 233.06 18.7693 232.124 18.8329C231.517 18.8699 231.422 19.495 231.67 19.9188C231.668 19.9188 231.667 19.9188 231.666 19.9188C231.635 19.8923 231.605 19.8606 231.576 19.8288C231.302 19.4845 231.497 18.9229 231.721 18.5468C231.81 18.425 231.896 18.3084 231.994 18.1972C232.042 18.1389 232.144 18.0753 232.161 17.9959C232.26 17.5509 231.549 17.5721 231.353 17.8052C231.316 17.8528 231.316 17.8952 231.333 17.9323C230.892 18.4196 230.632 18.9335 230.973 19.5692C231.069 19.7493 231.261 19.9877 231.48 20.1096C231.488 20.1149 231.495 20.1254 231.504 20.1307Z" fill="white"/>
</mask>
<g mask="url(#mask17_66_22026)">
<path d="M231.504 20.1307C231.533 20.1572 231.565 20.1625 231.594 20.1572C231.715 20.1996 231.842 20.2049 231.964 20.1361C232.03 20.099 232.088 19.9983 232.019 19.9294C231.711 19.6911 231.858 19.4368 232.458 19.1772C232.741 19.352 232.934 19.5904 233.036 19.8871C233.15 20.1308 233.214 20.4062 233.298 20.6658C233.352 20.83 233.596 20.7241 233.544 20.5599C233.328 19.8818 233.06 18.7693 232.124 18.8329C231.517 18.8699 231.422 19.495 231.67 19.9188C231.668 19.9188 231.667 19.9188 231.666 19.9188C231.635 19.8923 231.605 19.8606 231.576 19.8288C231.302 19.4845 231.497 18.9229 231.721 18.5468C231.81 18.425 231.896 18.3084 231.994 18.1972C232.042 18.1389 232.144 18.0753 232.161 17.9959C232.26 17.5509 231.549 17.5721 231.353 17.8052C231.316 17.8528 231.316 17.8952 231.333 17.9323C230.892 18.4196 230.632 18.9335 230.973 19.5692C231.069 19.7493 231.261 19.9877 231.48 20.1096C231.488 20.1149 231.495 20.1254 231.504 20.1307Z" fill="#D2A339"/>
</g>
<mask id="mask18_66_22026" style="mask-type:luminance" maskUnits="userSpaceOnUse" x="258" y="14" width="9" height="5">
<path d="M258.996 18.0167C258.996 18.0167 264.125 19.0073 265.818 16.989C267.51 14.9706 266.23 14.319 265.842 14.8329C265.454 15.3414 264.027 18.2869 258.996 18.0167Z" fill="white"/>
</mask>
<g mask="url(#mask18_66_22026)">
<path d="M258.996 18.0167C258.996 18.0167 264.125 19.0073 265.818 16.989C267.51 14.9706 266.23 14.319 265.842 14.8329C265.454 15.3414 264.027 18.2869 258.996 18.0167Z" fill="#D2A339"/>
</g>
<mask id="mask19_66_22026" style="mask-type:luminance" maskUnits="userSpaceOnUse" x="225" y="27" width="7" height="7">
<path d="M228.413 33.7178C226.79 33.7178 225.473 32.3987 225.473 30.7777C225.473 29.1513 226.79 27.8376 228.413 27.8376C230.037 27.8376 231.353 29.1513 231.353 30.7777C231.353 32.3987 230.037 33.7178 228.413 33.7178Z" fill="white"/>
</mask>
<g mask="url(#mask19_66_22026)">
<path d="M228.413 33.7178C226.79 33.7178 225.473 32.3987 225.473 30.7777C225.473 29.1513 226.79 27.8376 228.413 27.8376C230.037 27.8376 231.353 29.1513 231.353 30.7777C231.353 32.3987 230.037 33.7178 228.413 33.7178Z" fill="#D2A339"/>
</g>
<mask id="mask20_66_22026" style="mask-type:luminance" maskUnits="userSpaceOnUse" x="201" y="12" width="20" height="8">
<path d="M220.143 19.082C220.143 19.082 210.851 9.86972 201.559 15.342C201.559 15.342 210.851 6.9349 220.143 19.082Z" fill="white"/>
</mask>
<g mask="url(#mask20_66_22026)">
<path d="M220.143 19.082C220.143 19.082 210.851 9.86972 201.559 15.342C201.559 15.342 210.851 6.9349 220.143 19.082Z" fill="#D2A339"/>
</g>
<mask id="mask21_66_22026" style="mask-type:luminance" maskUnits="userSpaceOnUse" x="236" y="13" width="20" height="7">
<path d="M236.527 19.6108C236.527 19.6108 245.82 10.3985 255.112 15.8708C255.112 15.8708 245.82 7.4637 236.527 19.6108Z" fill="white"/>
</mask>
<g mask="url(#mask21_66_22026)">
<path d="M236.527 19.6108C236.527 19.6108 245.82 10.3985 255.112 15.8708C255.112 15.8708 245.82 7.4637 236.527 19.6108Z" fill="#D2A339"/>
</g>
</svg>
