<svg width="1208" height="90" viewBox="0 0 1208 90" fill="none" xmlns="http://www.w3.org/2000/svg">
<mask id="mask0_90_6853" style="mask-type:luminance" maskUnits="userSpaceOnUse" x="78" y="54" width="451" height="6">
<path d="M80.6202 60C79.4586 60 78.5044 59.1467 78.4773 58.0534C78.4472 56.9467 79.3856 56.0267 80.5701 56C168.761 54.0267 258.401 54.64 345.09 55.2267C404.669 55.64 466.274 56.0534 526.838 55.6267C526.844 55.6267 526.85 55.6267 526.856 55.6267C528.032 55.6267 528.99 56.5201 529 57.6134C529.009 58.7201 528.056 59.6267 526.87 59.6267C466.275 60.0534 404.652 59.64 345.058 59.2267C258.402 58.64 168.797 58.0267 80.6731 60C80.6559 60 80.6388 60 80.6202 60Z" fill="white"/>
</mask>
<g mask="url(#mask0_90_6853)">
<path d="M80.6202 60C79.4586 60 78.5044 59.1467 78.4773 58.0534C78.4472 56.9467 79.3856 56.0267 80.5701 56C168.761 54.0267 258.401 54.64 345.09 55.2267C404.669 55.64 466.274 56.0534 526.838 55.6267C526.844 55.6267 526.85 55.6267 526.856 55.6267C528.032 55.6267 528.99 56.5201 529 57.6134C529.009 58.7201 528.056 59.6267 526.87 59.6267C466.275 60.0534 404.652 59.64 345.058 59.2267C258.402 58.64 168.797 58.0267 80.6731 60C80.6559 60 80.6388 60 80.6202 60Z" fill="#D2A339"/>
</g>
<mask id="mask1_90_6853" style="mask-type:luminance" maskUnits="userSpaceOnUse" x="679" y="54" width="450" height="6">
<path d="M1094.58 60C1082.25 60 1069.27 59.9733 1055.45 59.9066C1026.79 59.7866 997.647 59.5334 969.466 59.2934C941.528 59.0534 912.64 58.8134 884.229 58.6934C833.783 58.4534 733.981 58.4667 680.913 59.4667C680.902 59.4667 680.89 59.4667 680.878 59.4667C679.857 59.4667 679.019 58.6 679 57.5066C678.983 56.4 679.809 55.4933 680.847 55.4667C733.945 54.4667 833.783 54.4534 884.246 54.6934C912.663 54.8134 941.555 55.0667 969.496 55.2934C997.674 55.5334 1026.81 55.7866 1055.47 55.9066C1081.86 56.0266 1105.2 56.0266 1126.82 55.9199C1126.82 55.9199 1126.83 55.9199 1126.83 55.9199C1127.86 55.9199 1128.7 56.8133 1128.71 57.9199C1128.71 59.0266 1127.87 59.9199 1126.84 59.9199C1116.52 59.9733 1105.82 60 1094.58 60Z" fill="white"/>
</mask>
<g mask="url(#mask1_90_6853)">
<path d="M1094.58 60C1082.25 60 1069.27 59.9733 1055.45 59.9066C1026.79 59.7866 997.647 59.5334 969.466 59.2934C941.528 59.0534 912.64 58.8134 884.229 58.6934C833.783 58.4534 733.981 58.4667 680.913 59.4667C680.902 59.4667 680.89 59.4667 680.878 59.4667C679.857 59.4667 679.019 58.6 679 57.5066C678.983 56.4 679.809 55.4933 680.847 55.4667C733.945 54.4667 833.783 54.4534 884.246 54.6934C912.663 54.8134 941.555 55.0667 969.496 55.2934C997.674 55.5334 1026.81 55.7866 1055.47 55.9066C1081.86 56.0266 1105.2 56.0266 1126.82 55.9199C1126.82 55.9199 1126.83 55.9199 1126.83 55.9199C1127.86 55.9199 1128.7 56.8133 1128.71 57.9199C1128.71 59.0266 1127.87 59.9199 1126.84 59.9199C1116.52 59.9733 1105.82 60 1094.58 60Z" fill="#D2A339"/>
</g>
<mask id="mask2_90_6853" style="mask-type:luminance" maskUnits="userSpaceOnUse" x="589" y="0" width="29" height="38">
<path d="M617.962 21.9206C617.463 21.7872 613.942 19.3739 611.974 17.2672C607.695 12.2539 603.781 0.0271897 603.578 0.000523072C603.394 -0.0261436 599.513 12.2539 595.238 17.2672C593.265 19.3739 589.75 21.8139 589.246 21.9206C597.907 20.0539 603.483 37.5605 603.663 37.5605C603.845 37.5605 610.226 19.8139 617.962 21.9206Z" fill="white"/>
</mask>
<g mask="url(#mask2_90_6853)">
<path d="M617.962 21.9206C617.463 21.7872 613.942 19.3739 611.974 17.2672C607.695 12.2539 603.781 0.0271897 603.578 0.000523072C603.394 -0.0261436 599.513 12.2539 595.238 17.2672C593.265 19.3739 589.75 21.8139 589.246 21.9206C597.907 20.0539 603.483 37.5605 603.663 37.5605C603.845 37.5605 610.226 19.8139 617.962 21.9206Z" fill="#D2A339"/>
</g>
<mask id="mask3_90_6853" style="mask-type:luminance" maskUnits="userSpaceOnUse" x="510" y="15" width="22" height="30">
<path d="M527.913 43.8141C527.548 43.7607 527.181 43.7074 526.815 43.6408C523.845 43.0808 520.927 42.174 518.333 40.5874C516.565 39.5207 512.784 36.4808 512.479 33.9741C513.18 34.6541 513.943 35.2807 514.737 35.8673C518.363 38.5473 521.993 40.7207 525.989 42.0007C527.803 42.9073 529.755 43.5874 531.795 44.1074C530.627 44.0941 529.448 44.014 528.259 43.8673C528.152 43.814 528.036 43.8007 527.913 43.8141ZM511.336 24.7741C511.885 27.9474 513.869 30.5873 515.807 33.1607C516.689 34.334 517.555 35.574 518.52 36.7207C517.257 35.934 516.004 35.1341 514.855 34.2141C512.483 32.3207 508.537 27.9341 511.336 24.7741ZM519.973 15.8141C519.701 16.1874 519.468 16.574 519.283 16.934C517.103 21.334 517.611 26.0273 519.565 30.1607C519.969 31.4407 520.637 32.734 521.601 33.9874C523.283 36.1874 525.721 38.414 528.525 40.2273C529.225 40.734 529.941 41.214 530.669 41.654C528.88 41.414 527.209 41.0007 525.576 40.4141C524.876 40.0141 524.2 39.5874 523.573 39.1207C523.508 39.014 523.421 38.9074 523.279 38.8408C523.195 38.8008 523.12 38.7474 523.039 38.7074C522.463 38.2408 521.92 37.7474 521.427 37.2141C518.299 33.8674 515.248 29.2007 515.383 24.454C515.48 21.0407 517.375 18.0407 519.973 15.8141Z" fill="white"/>
</mask>
<g mask="url(#mask3_90_6853)">
<path d="M527.913 43.8141C527.548 43.7607 527.181 43.7074 526.815 43.6408C523.845 43.0808 520.927 42.174 518.333 40.5874C516.565 39.5207 512.784 36.4808 512.479 33.9741C513.18 34.6541 513.943 35.2807 514.737 35.8673C518.363 38.5473 521.993 40.7207 525.989 42.0007C527.803 42.9073 529.755 43.5874 531.795 44.1074C530.627 44.0941 529.448 44.014 528.259 43.8673C528.152 43.814 528.036 43.8007 527.913 43.8141ZM511.336 24.7741C511.885 27.9474 513.869 30.5873 515.807 33.1607C516.689 34.334 517.555 35.574 518.52 36.7207C517.257 35.934 516.004 35.1341 514.855 34.2141C512.483 32.3207 508.537 27.9341 511.336 24.7741ZM519.973 15.8141C519.701 16.1874 519.468 16.574 519.283 16.934C517.103 21.334 517.611 26.0273 519.565 30.1607C519.969 31.4407 520.637 32.734 521.601 33.9874C523.283 36.1874 525.721 38.414 528.525 40.2273C529.225 40.734 529.941 41.214 530.669 41.654C528.88 41.414 527.209 41.0007 525.576 40.4141C524.876 40.0141 524.2 39.5874 523.573 39.1207C523.508 39.014 523.421 38.9074 523.279 38.8408C523.195 38.8008 523.12 38.7474 523.039 38.7074C522.463 38.2408 521.92 37.7474 521.427 37.2141C518.299 33.8674 515.248 29.2007 515.383 24.454C515.48 21.0407 517.375 18.0407 519.973 15.8141Z" fill="#D2A339"/>
</g>
<mask id="mask4_90_6853" style="mask-type:luminance" maskUnits="userSpaceOnUse" x="508" y="39" width="51" height="27">
<path d="M534.181 57.7876C534.07 56.1342 531.679 53.7075 532.537 51.9609C532.723 52.6009 532.786 53.2809 533.142 53.9076C533.583 54.6809 534.052 55.3209 534.838 55.7609C536.239 56.5742 538.661 57.0143 540.111 56.2143C540.334 56.0809 540.383 55.8276 540.189 55.6542C539.022 54.5876 538.503 53.6943 538.539 52.0809C538.571 50.5609 539.19 49.3342 540.071 48.1209C541.516 46.1476 543.831 44.1075 546.083 43.0942C548.319 42.0809 550.802 41.2143 553.247 41.1076C554.925 41.0143 556.598 41.5076 558.214 40.9476C558.461 40.8543 558.467 40.5342 558.291 40.3876C558.21 40.3209 558.131 40.2409 558.051 40.1743C557.939 40.0809 557.819 40.0808 557.722 40.1342C556.842 39.5208 555.211 39.5476 554.248 39.4143C552.227 39.1209 550.144 39.3209 548.14 39.6542C543.702 40.3876 539.595 42.4809 535.582 44.4143C533.482 45.4276 531.232 46.4276 528.91 46.7076C526.696 46.9609 524.568 47.5343 522.33 47.6409C519.986 47.7609 517.47 47.8942 515.147 47.5609C512.562 47.2009 510.568 46.3609 508.543 44.7209C508.368 44.5742 508.036 44.6942 508.028 44.9342C507.994 45.9342 508.749 46.8009 509.322 47.5609C510.261 48.8009 511.351 49.8142 512.582 50.7609C515.018 52.6542 517.39 54.2142 520.487 54.6542C521.723 54.8276 522.959 55.0009 524.207 54.8409C524.987 54.7343 525.531 54.3076 526.079 54.8809C526.511 55.3476 526.364 55.9742 526.376 56.5876C526.414 58.6142 526.451 60.1076 525.192 61.7876C524.264 63.0276 523.244 64.1075 522.235 65.2675C522.106 65.4142 522.176 65.6942 522.368 65.7609C523.631 66.1609 525.58 65.1342 526.727 64.6942C528.612 63.9875 530.62 63.0942 532.154 61.7609C533.287 60.7609 534.286 59.3609 534.181 57.7876Z" fill="white"/>
</mask>
<g mask="url(#mask4_90_6853)">
<path d="M534.181 57.7876C534.07 56.1342 531.679 53.7075 532.537 51.9609C532.723 52.6009 532.786 53.2809 533.142 53.9076C533.583 54.6809 534.052 55.3209 534.838 55.7609C536.239 56.5742 538.661 57.0143 540.111 56.2143C540.334 56.0809 540.383 55.8276 540.189 55.6542C539.022 54.5876 538.503 53.6943 538.539 52.0809C538.571 50.5609 539.19 49.3342 540.071 48.1209C541.516 46.1476 543.831 44.1075 546.083 43.0942C548.319 42.0809 550.802 41.2143 553.247 41.1076C554.925 41.0143 556.598 41.5076 558.214 40.9476C558.461 40.8543 558.467 40.5342 558.291 40.3876C558.21 40.3209 558.131 40.2409 558.051 40.1743C557.939 40.0809 557.819 40.0808 557.722 40.1342C556.842 39.5208 555.211 39.5476 554.248 39.4143C552.227 39.1209 550.144 39.3209 548.14 39.6542C543.702 40.3876 539.595 42.4809 535.582 44.4143C533.482 45.4276 531.232 46.4276 528.91 46.7076C526.696 46.9609 524.568 47.5343 522.33 47.6409C519.986 47.7609 517.47 47.8942 515.147 47.5609C512.562 47.2009 510.568 46.3609 508.543 44.7209C508.368 44.5742 508.036 44.6942 508.028 44.9342C507.994 45.9342 508.749 46.8009 509.322 47.5609C510.261 48.8009 511.351 49.8142 512.582 50.7609C515.018 52.6542 517.39 54.2142 520.487 54.6542C521.723 54.8276 522.959 55.0009 524.207 54.8409C524.987 54.7343 525.531 54.3076 526.079 54.8809C526.511 55.3476 526.364 55.9742 526.376 56.5876C526.414 58.6142 526.451 60.1076 525.192 61.7876C524.264 63.0276 523.244 64.1075 522.235 65.2675C522.106 65.4142 522.176 65.6942 522.368 65.7609C523.631 66.1609 525.58 65.1342 526.727 64.6942C528.612 63.9875 530.62 63.0942 532.154 61.7609C533.287 60.7609 534.286 59.3609 534.181 57.7876Z" fill="#D2A339"/>
</g>
<mask id="mask5_90_6853" style="mask-type:luminance" maskUnits="userSpaceOnUse" x="587" y="36" width="20" height="30">
<path d="M589.939 43.04C591.459 40.28 593.678 37.7733 596.962 37.28C598.57 37.04 600.191 37.4667 601.586 38.28C600.44 37.9867 599.253 37.9066 598.251 38.1333C592.107 39.5333 589.707 46.0133 589.243 51.68C589.139 52.96 589.258 54.1466 589.549 55.2933C589.042 54.1866 588.635 53.04 588.458 51.8133C587.999 48.6267 588.383 45.8534 589.939 43.04ZM601.219 63.32C600.959 62.0667 599.19 62.08 598.882 63.24C597.114 62.4 595.454 60.4267 594.295 59.1867C592.582 57.3467 591.504 54.7599 591.875 52.1999C592.215 49.8399 593.81 47.3999 595.616 45.8666C596.707 44.9466 597.793 44.5067 599.223 44.52C599.906 44.5333 601.782 44.5999 602.555 45.1999C601.776 45.2799 601.615 46.1866 602.283 46.9999C603.404 48.3866 605.259 47.7867 606.058 46.3467C607.112 44.4533 606.511 41.7066 605.079 40.1999C604.703 39.8133 604.232 39.4533 603.708 39.1467C602.179 37.6133 600.042 36.5466 597.891 36.56C594.838 36.5733 592.204 38.4667 590.5 40.88C588.578 43.6 587.515 46.44 587.643 49.76C587.79 53.6133 589.391 56.5067 591.221 59.8133C591.325 60 591.537 60.0266 591.69 59.96C592.871 61.9066 594.478 64.1734 596.591 64.84C597.612 65.16 601.611 65.2133 601.219 63.32Z" fill="white"/>
</mask>
<g mask="url(#mask5_90_6853)">
<path d="M589.939 43.04C591.459 40.28 593.678 37.7733 596.962 37.28C598.57 37.04 600.191 37.4667 601.586 38.28C600.44 37.9867 599.253 37.9066 598.251 38.1333C592.107 39.5333 589.707 46.0133 589.243 51.68C589.139 52.96 589.258 54.1466 589.549 55.2933C589.042 54.1866 588.635 53.04 588.458 51.8133C587.999 48.6267 588.383 45.8534 589.939 43.04ZM601.219 63.32C600.959 62.0667 599.19 62.08 598.882 63.24C597.114 62.4 595.454 60.4267 594.295 59.1867C592.582 57.3467 591.504 54.7599 591.875 52.1999C592.215 49.8399 593.81 47.3999 595.616 45.8666C596.707 44.9466 597.793 44.5067 599.223 44.52C599.906 44.5333 601.782 44.5999 602.555 45.1999C601.776 45.2799 601.615 46.1866 602.283 46.9999C603.404 48.3866 605.259 47.7867 606.058 46.3467C607.112 44.4533 606.511 41.7066 605.079 40.1999C604.703 39.8133 604.232 39.4533 603.708 39.1467C602.179 37.6133 600.042 36.5466 597.891 36.56C594.838 36.5733 592.204 38.4667 590.5 40.88C588.578 43.6 587.515 46.44 587.643 49.76C587.79 53.6133 589.391 56.5067 591.221 59.8133C591.325 60 591.537 60.0266 591.69 59.96C592.871 61.9066 594.478 64.1734 596.591 64.84C597.612 65.16 601.611 65.2133 601.219 63.32Z" fill="#D2A339"/>
</g>
<mask id="mask6_90_6853" style="mask-type:luminance" maskUnits="userSpaceOnUse" x="539" y="39" width="72" height="49">
<path d="M557.445 43.3337C556.877 43.267 547.961 45.2938 543.269 51.3738C542.789 52.0005 542.303 52.6671 541.857 53.3604C542.48 52.0137 544.115 50.2005 544.489 49.7738C546.116 47.8938 547.979 46.1604 550.02 44.7471C553.88 42.0671 557.871 40.6404 562.569 40.5871C566.997 40.5338 571.2 41.6004 575.208 43.4538C577.203 44.3738 579.459 45.3738 581.141 46.7871C582.207 47.6804 582.845 48.8804 583.5 50.0804C583.841 50.7071 584.256 51.2271 584.681 51.7604C583.871 50.9737 583.015 50.1871 582.1 49.4138C573.497 42.0804 564.519 41.587 557.445 43.3337ZM608.863 71.8804C608.863 71.8804 604.672 79.7204 601.252 74.4138C598.096 69.5071 597.857 65.1871 585.484 52.5738C585.708 52.5471 585.909 52.2937 585.733 52.067C584.851 50.8937 584.129 49.7605 583.373 48.5071C582.771 47.4938 582.031 46.6137 581.077 45.9204C579.108 44.4938 576.729 43.3871 574.508 42.4271C570.113 40.5471 565.505 39.6804 560.724 40.0138C555.665 40.3471 551.012 42.7737 547.245 46.0937C545.248 47.8671 543.411 49.8138 541.989 52.0804C541.532 52.8138 540.725 53.8538 541.069 54.7471C540.679 55.5204 540.367 56.3204 540.191 57.1337C539.596 59.8937 540.087 62.6937 541.263 65.1871C541.575 66.0804 542.035 66.9471 542.688 67.7471C542.985 68.1071 543.295 68.4538 543.611 68.7738C543.872 69.0805 544.139 69.3737 544.419 69.6537C544.485 69.7204 544.557 69.747 544.627 69.7337C550.624 74.8937 559.091 74.0937 560.656 68.7204C562.401 62.7337 556.121 60.6005 553.716 63.8405C553.716 63.8405 552.331 64.6938 553.049 66.1738C553.769 67.6538 550.411 67.7737 549.167 65.067C547.925 62.3604 545.435 56.1337 558.847 50.8271C573.105 45.1871 589.076 48.9871 595.816 76.3071C602.555 103.639 615.629 74.6538 608.863 71.8804Z" fill="white"/>
</mask>
<g mask="url(#mask6_90_6853)">
<path d="M557.445 43.3337C556.877 43.267 547.961 45.2938 543.269 51.3738C542.789 52.0005 542.303 52.6671 541.857 53.3604C542.48 52.0137 544.115 50.2005 544.489 49.7738C546.116 47.8938 547.979 46.1604 550.02 44.7471C553.88 42.0671 557.871 40.6404 562.569 40.5871C566.997 40.5338 571.2 41.6004 575.208 43.4538C577.203 44.3738 579.459 45.3738 581.141 46.7871C582.207 47.6804 582.845 48.8804 583.5 50.0804C583.841 50.7071 584.256 51.2271 584.681 51.7604C583.871 50.9737 583.015 50.1871 582.1 49.4138C573.497 42.0804 564.519 41.587 557.445 43.3337ZM608.863 71.8804C608.863 71.8804 604.672 79.7204 601.252 74.4138C598.096 69.5071 597.857 65.1871 585.484 52.5738C585.708 52.5471 585.909 52.2937 585.733 52.067C584.851 50.8937 584.129 49.7605 583.373 48.5071C582.771 47.4938 582.031 46.6137 581.077 45.9204C579.108 44.4938 576.729 43.3871 574.508 42.4271C570.113 40.5471 565.505 39.6804 560.724 40.0138C555.665 40.3471 551.012 42.7737 547.245 46.0937C545.248 47.8671 543.411 49.8138 541.989 52.0804C541.532 52.8138 540.725 53.8538 541.069 54.7471C540.679 55.5204 540.367 56.3204 540.191 57.1337C539.596 59.8937 540.087 62.6937 541.263 65.1871C541.575 66.0804 542.035 66.9471 542.688 67.7471C542.985 68.1071 543.295 68.4538 543.611 68.7738C543.872 69.0805 544.139 69.3737 544.419 69.6537C544.485 69.7204 544.557 69.747 544.627 69.7337C550.624 74.8937 559.091 74.0937 560.656 68.7204C562.401 62.7337 556.121 60.6005 553.716 63.8405C553.716 63.8405 552.331 64.6938 553.049 66.1738C553.769 67.6538 550.411 67.7737 549.167 65.067C547.925 62.3604 545.435 56.1337 558.847 50.8271C573.105 45.1871 589.076 48.9871 595.816 76.3071C602.555 103.639 615.629 74.6538 608.863 71.8804Z" fill="#D2A339"/>
</g>
<mask id="mask7_90_6853" style="mask-type:luminance" maskUnits="userSpaceOnUse" x="584" y="40" width="9" height="19">
<path d="M591.779 57.7739C591.432 57.8272 591.097 57.7204 590.78 57.5338C590.763 57.4804 590.736 57.4404 590.685 57.4004C590.535 57.2804 590.372 57.1738 590.205 57.0805C589.348 56.2405 588.663 54.8671 588.264 54.1205C587.489 52.6805 586.652 51.1071 586.615 49.4538C586.58 47.7871 586.851 45.9205 587.456 44.3605C587.965 43.0538 589.373 41.5072 590.836 41.2138C590.841 41.2138 590.844 41.2004 590.849 41.2004C590.947 40.9204 591.084 40.6538 591.265 40.4138C591.261 40.4138 591.259 40.4138 591.256 40.4138C589.236 40.0138 587.308 40.2405 585.787 41.7739C584.409 43.1605 583.871 45.0804 584.043 47.0004C584.241 49.2138 584.539 51.7471 585.744 53.6671C586.367 54.6671 587.168 55.5471 588.033 56.3338C588.52 56.7871 589.036 57.0672 589.549 57.3739C590.168 58.0805 590.928 58.6271 591.863 58.4671C592.304 58.4004 592.225 57.7205 591.779 57.7739Z" fill="white"/>
</mask>
<g mask="url(#mask7_90_6853)">
<path d="M591.779 57.7739C591.432 57.8272 591.097 57.7204 590.78 57.5338C590.763 57.4804 590.736 57.4404 590.685 57.4004C590.535 57.2804 590.372 57.1738 590.205 57.0805C589.348 56.2405 588.663 54.8671 588.264 54.1205C587.489 52.6805 586.652 51.1071 586.615 49.4538C586.58 47.7871 586.851 45.9205 587.456 44.3605C587.965 43.0538 589.373 41.5072 590.836 41.2138C590.841 41.2138 590.844 41.2004 590.849 41.2004C590.947 40.9204 591.084 40.6538 591.265 40.4138C591.261 40.4138 591.259 40.4138 591.256 40.4138C589.236 40.0138 587.308 40.2405 585.787 41.7739C584.409 43.1605 583.871 45.0804 584.043 47.0004C584.241 49.2138 584.539 51.7471 585.744 53.6671C586.367 54.6671 587.168 55.5471 588.033 56.3338C588.52 56.7871 589.036 57.0672 589.549 57.3739C590.168 58.0805 590.928 58.6271 591.863 58.4671C592.304 58.4004 592.225 57.7205 591.779 57.7739Z" fill="#D2A339"/>
</g>
<mask id="mask8_90_6853" style="mask-type:luminance" maskUnits="userSpaceOnUse" x="591" y="44" width="8" height="9">
<path d="M596.564 50.6137C597.115 50.3071 597.598 49.707 597.84 49.2537C598.699 47.6537 598.043 46.3603 596.935 45.1336C596.979 45.0403 596.976 44.9337 596.884 44.8137C596.391 44.2271 594.603 44.1737 594.85 45.2937C594.894 45.4937 595.15 45.6536 595.27 45.8003C595.516 46.0803 595.734 46.3737 595.958 46.6804C596.52 47.6271 597.011 49.0404 596.32 49.9071C596.25 49.9871 596.175 50.067 596.096 50.1336C596.092 50.1336 596.091 50.1336 596.088 50.1336C596.71 49.067 596.471 47.4936 594.944 47.4003C592.587 47.2403 591.914 50.0404 591.37 51.7471C591.239 52.1604 591.855 52.4271 591.988 52.0137C592.2 51.3604 592.36 50.667 592.648 50.0537C592.906 49.307 593.391 48.707 594.103 48.267C595.615 48.9203 595.983 49.5603 595.207 50.1603C595.035 50.3337 595.18 50.5871 595.347 50.6804C595.654 50.8537 595.972 50.8403 596.278 50.7336C596.352 50.747 596.43 50.7336 596.506 50.667C596.527 50.6536 596.543 50.6271 596.564 50.6137Z" fill="white"/>
</mask>
<g mask="url(#mask8_90_6853)">
<path d="M596.564 50.6137C597.115 50.3071 597.598 49.707 597.84 49.2537C598.699 47.6537 598.043 46.3603 596.935 45.1336C596.979 45.0403 596.976 44.9337 596.884 44.8137C596.391 44.2271 594.603 44.1737 594.85 45.2937C594.894 45.4937 595.15 45.6536 595.27 45.8003C595.516 46.0803 595.734 46.3737 595.958 46.6804C596.52 47.6271 597.011 49.0404 596.32 49.9071C596.25 49.9871 596.175 50.067 596.096 50.1336C596.092 50.1336 596.091 50.1336 596.088 50.1336C596.71 49.067 596.471 47.4936 594.944 47.4003C592.587 47.2403 591.914 50.0404 591.37 51.7471C591.239 52.1604 591.855 52.4271 591.988 52.0137C592.2 51.3604 592.36 50.667 592.648 50.0537C592.906 49.307 593.391 48.707 594.103 48.267C595.615 48.9203 595.983 49.5603 595.207 50.1603C595.035 50.3337 595.18 50.5871 595.347 50.6804C595.654 50.8537 595.972 50.8403 596.278 50.7336C596.352 50.747 596.43 50.7336 596.506 50.667C596.527 50.6536 596.543 50.6271 596.564 50.6137Z" fill="#D2A339"/>
</g>
<mask id="mask9_90_6853" style="mask-type:luminance" maskUnits="userSpaceOnUse" x="508" y="36" width="20" height="10">
<path d="M527.32 45.3472C527.32 45.3472 514.409 47.8405 510.15 42.7605C505.889 37.6805 509.11 36.0404 510.088 37.3338C511.064 38.6138 514.657 46.0272 527.32 45.3472Z" fill="white"/>
</mask>
<g mask="url(#mask9_90_6853)">
<path d="M527.32 45.3472C527.32 45.3472 514.409 47.8405 510.15 42.7605C505.889 37.6805 509.11 36.0404 510.088 37.3338C511.064 38.6138 514.657 46.0272 527.32 45.3472Z" fill="#D2A339"/>
</g>
<mask id="mask10_90_6853" style="mask-type:luminance" maskUnits="userSpaceOnUse" x="676" y="15" width="22" height="30">
<path d="M679.829 43.8673C678.64 44.014 677.462 44.0941 676.293 44.1074C678.334 43.5874 680.285 42.9073 682.098 42.0007C686.094 40.7207 689.725 38.5473 693.35 35.8673C694.145 35.2807 694.908 34.6541 695.609 33.9741C695.305 36.4808 691.524 39.5207 689.754 40.5874C687.161 42.174 684.242 43.0808 681.274 43.6408C680.906 43.7074 680.541 43.7607 680.174 43.8141C680.052 43.8007 679.936 43.814 679.829 43.8673ZM693.233 34.2141C692.084 35.1341 690.83 35.934 689.568 36.7207C690.533 35.574 691.398 34.334 692.281 33.1607C694.218 30.5873 696.202 27.9474 696.753 24.7741C699.552 27.9341 695.605 32.3207 693.233 34.2141ZM692.706 24.454C692.84 29.2007 689.789 33.8674 686.661 37.2141C686.168 37.7474 685.626 38.2408 685.049 38.7074C684.968 38.7474 684.893 38.8008 684.809 38.8408C684.666 38.9074 684.58 39.014 684.516 39.1207C683.888 39.5874 683.21 40.0141 682.513 40.4141C680.877 41.0007 679.209 41.414 677.418 41.654C678.148 41.214 678.864 40.734 679.564 40.2273C682.366 38.414 684.805 36.1874 686.486 33.9874C687.45 32.734 688.118 31.4407 688.522 30.1607C690.477 26.0273 690.985 21.334 688.805 16.934C688.62 16.574 688.388 16.1874 688.114 15.8141C690.714 18.0407 692.608 21.0407 692.706 24.454Z" fill="white"/>
</mask>
<g mask="url(#mask10_90_6853)">
<path d="M679.829 43.8673C678.64 44.014 677.462 44.0941 676.293 44.1074C678.334 43.5874 680.285 42.9073 682.098 42.0007C686.094 40.7207 689.725 38.5473 693.35 35.8673C694.145 35.2807 694.908 34.6541 695.609 33.9741C695.305 36.4808 691.524 39.5207 689.754 40.5874C687.161 42.174 684.242 43.0808 681.274 43.6408C680.906 43.7074 680.541 43.7607 680.174 43.8141C680.052 43.8007 679.936 43.814 679.829 43.8673ZM693.233 34.2141C692.084 35.1341 690.83 35.934 689.568 36.7207C690.533 35.574 691.398 34.334 692.281 33.1607C694.218 30.5873 696.202 27.9474 696.753 24.7741C699.552 27.9341 695.605 32.3207 693.233 34.2141ZM692.706 24.454C692.84 29.2007 689.789 33.8674 686.661 37.2141C686.168 37.7474 685.626 38.2408 685.049 38.7074C684.968 38.7474 684.893 38.8008 684.809 38.8408C684.666 38.9074 684.58 39.014 684.516 39.1207C683.888 39.5874 683.21 40.0141 682.513 40.4141C680.877 41.0007 679.209 41.414 677.418 41.654C678.148 41.214 678.864 40.734 679.564 40.2273C682.366 38.414 684.805 36.1874 686.486 33.9874C687.45 32.734 688.118 31.4407 688.522 30.1607C690.477 26.0273 690.985 21.334 688.805 16.934C688.62 16.574 688.388 16.1874 688.114 15.8141C690.714 18.0407 692.608 21.0407 692.706 24.454Z" fill="#D2A339"/>
</g>
<mask id="mask11_90_6853" style="mask-type:luminance" maskUnits="userSpaceOnUse" x="649" y="39" width="52" height="27">
<path d="M675.936 61.7609C677.468 63.0942 679.476 63.9875 681.361 64.6942C682.508 65.1342 684.457 66.1609 685.72 65.7609C685.913 65.6942 685.982 65.4142 685.853 65.2675C684.845 64.1075 683.824 63.0276 682.897 61.7876C681.638 60.1076 681.674 58.6142 681.713 56.5876C681.724 55.9742 681.577 55.3476 682.009 54.8809C682.557 54.3076 683.1 54.7343 683.881 54.8409C685.129 55.0009 686.365 54.8276 687.601 54.6542C690.698 54.2142 693.07 52.6542 695.506 50.7609C696.737 49.8142 697.828 48.8009 698.765 47.5609C699.34 46.8009 700.094 45.9342 700.06 44.9342C700.052 44.6942 699.72 44.5742 699.544 44.7209C697.52 46.3609 695.526 47.2009 692.942 47.5609C690.618 47.8942 688.102 47.7609 685.758 47.6409C683.52 47.5343 681.392 46.9609 679.178 46.7076C676.856 46.4276 674.608 45.4276 672.508 44.4143C668.493 42.4809 664.386 40.3876 659.949 39.6542C657.944 39.3209 655.861 39.1209 653.84 39.4143C652.877 39.5476 651.246 39.5208 650.368 40.1342C650.27 40.0808 650.149 40.0809 650.037 40.1743C649.957 40.2409 649.877 40.3209 649.798 40.3876C649.621 40.5342 649.628 40.8543 649.874 40.9476C651.49 41.5076 653.165 41.0143 654.841 41.1076C657.288 41.2143 659.769 42.0809 662.006 43.0942C664.257 44.1075 666.572 46.1476 668.017 48.1209C668.898 49.3342 669.518 50.5609 669.549 52.0809C669.585 53.6943 669.066 54.5876 667.9 55.6542C667.705 55.8276 667.754 56.0809 667.977 56.2143C669.428 57.0143 671.849 56.5742 673.25 55.7609C674.036 55.3209 674.505 54.6809 674.946 53.9076C675.302 53.2809 675.365 52.6009 675.553 51.9609C676.409 53.7075 674.018 56.1342 673.908 57.7876C673.802 59.3609 674.801 60.7609 675.936 61.7609Z" fill="white"/>
</mask>
<g mask="url(#mask11_90_6853)">
<path d="M675.936 61.7609C677.468 63.0942 679.476 63.9875 681.361 64.6942C682.508 65.1342 684.457 66.1609 685.72 65.7609C685.913 65.6942 685.982 65.4142 685.853 65.2675C684.845 64.1075 683.824 63.0276 682.897 61.7876C681.638 60.1076 681.674 58.6142 681.713 56.5876C681.724 55.9742 681.577 55.3476 682.009 54.8809C682.557 54.3076 683.1 54.7343 683.881 54.8409C685.129 55.0009 686.365 54.8276 687.601 54.6542C690.698 54.2142 693.07 52.6542 695.506 50.7609C696.737 49.8142 697.828 48.8009 698.765 47.5609C699.34 46.8009 700.094 45.9342 700.06 44.9342C700.052 44.6942 699.72 44.5742 699.544 44.7209C697.52 46.3609 695.526 47.2009 692.942 47.5609C690.618 47.8942 688.102 47.7609 685.758 47.6409C683.52 47.5343 681.392 46.9609 679.178 46.7076C676.856 46.4276 674.608 45.4276 672.508 44.4143C668.493 42.4809 664.386 40.3876 659.949 39.6542C657.944 39.3209 655.861 39.1209 653.84 39.4143C652.877 39.5476 651.246 39.5208 650.368 40.1342C650.27 40.0808 650.149 40.0809 650.037 40.1743C649.957 40.2409 649.877 40.3209 649.798 40.3876C649.621 40.5342 649.628 40.8543 649.874 40.9476C651.49 41.5076 653.165 41.0143 654.841 41.1076C657.288 41.2143 659.769 42.0809 662.006 43.0942C664.257 44.1075 666.572 46.1476 668.017 48.1209C668.898 49.3342 669.518 50.5609 669.549 52.0809C669.585 53.6943 669.066 54.5876 667.9 55.6542C667.705 55.8276 667.754 56.0809 667.977 56.2143C669.428 57.0143 671.849 56.5742 673.25 55.7609C674.036 55.3209 674.505 54.6809 674.946 53.9076C675.302 53.2809 675.365 52.6009 675.553 51.9609C676.409 53.7075 674.018 56.1342 673.908 57.7876C673.802 59.3609 674.801 60.7609 675.936 61.7609Z" fill="#D2A339"/>
</g>
<mask id="mask12_90_6853" style="mask-type:luminance" maskUnits="userSpaceOnUse" x="601" y="36" width="20" height="30">
<path d="M619.63 51.8133C619.453 53.04 619.045 54.1866 618.539 55.2933C618.83 54.1466 618.949 52.96 618.845 51.68C618.381 46.0133 615.981 39.5333 609.837 38.1333C608.837 37.9066 607.647 37.9867 606.502 38.28C607.897 37.4667 609.518 37.04 611.126 37.28C614.41 37.7733 616.629 40.28 618.149 43.04C619.705 45.8534 620.089 48.6267 619.63 51.8133ZM611.498 64.84C613.61 64.1734 615.217 61.9066 616.398 59.96C616.553 60.0266 616.765 60 616.867 59.8133C618.697 56.5067 620.299 53.6133 620.445 49.76C620.573 46.44 619.51 43.6 617.589 40.88C615.883 38.4667 613.251 36.5733 610.197 36.56C608.045 36.5466 605.909 37.6133 604.379 39.1467C603.855 39.4533 603.385 39.8133 603.009 40.1999C601.578 41.7066 600.975 44.4533 602.03 46.3467C602.83 47.7867 604.683 48.3866 605.806 46.9999C606.473 46.1866 606.311 45.2799 605.533 45.1999C606.306 44.5999 608.182 44.5333 608.865 44.52C610.295 44.5067 611.381 44.9466 612.473 45.8666C614.278 47.3999 615.873 49.8399 616.213 52.1999C616.583 54.7599 615.506 57.3467 613.793 59.1867C612.634 60.4267 610.975 62.4 609.206 63.24C608.898 62.08 607.129 62.0667 606.869 63.32C606.477 65.2133 610.475 65.16 611.498 64.84Z" fill="white"/>
</mask>
<g mask="url(#mask12_90_6853)">
<path d="M619.63 51.8133C619.453 53.04 619.045 54.1866 618.539 55.2933C618.83 54.1466 618.949 52.96 618.845 51.68C618.381 46.0133 615.981 39.5333 609.837 38.1333C608.837 37.9066 607.647 37.9867 606.502 38.28C607.897 37.4667 609.518 37.04 611.126 37.28C614.41 37.7733 616.629 40.28 618.149 43.04C619.705 45.8534 620.089 48.6267 619.63 51.8133ZM611.498 64.84C613.61 64.1734 615.217 61.9066 616.398 59.96C616.553 60.0266 616.765 60 616.867 59.8133C618.697 56.5067 620.299 53.6133 620.445 49.76C620.573 46.44 619.51 43.6 617.589 40.88C615.883 38.4667 613.251 36.5733 610.197 36.56C608.045 36.5466 605.909 37.6133 604.379 39.1467C603.855 39.4533 603.385 39.8133 603.009 40.1999C601.578 41.7066 600.975 44.4533 602.03 46.3467C602.83 47.7867 604.683 48.3866 605.806 46.9999C606.473 46.1866 606.311 45.2799 605.533 45.1999C606.306 44.5999 608.182 44.5333 608.865 44.52C610.295 44.5067 611.381 44.9466 612.473 45.8666C614.278 47.3999 615.873 49.8399 616.213 52.1999C616.583 54.7599 615.506 57.3467 613.793 59.1867C612.634 60.4267 610.975 62.4 609.206 63.24C608.898 62.08 607.129 62.0667 606.869 63.32C606.477 65.2133 610.475 65.16 611.498 64.84Z" fill="#D2A339"/>
</g>
<mask id="mask13_90_6853" style="mask-type:luminance" maskUnits="userSpaceOnUse" x="597" y="39" width="72" height="49">
<path d="M625.985 49.4138C625.071 50.1871 624.215 50.9737 623.403 51.7604C623.829 51.2271 624.243 50.7071 624.584 50.0804C625.239 48.8804 625.879 47.6804 626.943 46.7871C628.625 45.3738 630.881 44.3738 632.875 43.4538C636.884 41.6004 641.087 40.5338 645.515 40.5871C650.213 40.6404 654.204 42.0671 658.064 44.7471C660.107 46.1604 661.969 47.8938 663.596 49.7738C663.969 50.2005 665.604 52.0137 666.227 53.3604C665.781 52.6671 665.295 52.0005 664.815 51.3738C660.123 45.2938 651.207 43.267 650.639 43.3337C643.567 41.587 634.587 42.0804 625.985 49.4138ZM612.268 76.3071C619.008 48.9871 634.979 45.1871 649.237 50.8271C662.649 56.1337 660.159 62.3604 658.917 65.067C657.675 67.7737 654.316 67.6538 655.035 66.1738C655.753 64.6938 654.368 63.8405 654.368 63.8405C651.963 60.6005 645.684 62.7337 647.428 68.7204C648.993 74.0937 657.46 74.8937 663.457 69.7337C663.527 69.747 663.597 69.7204 663.665 69.6537C663.945 69.3737 664.212 69.0805 664.473 68.7738C664.789 68.4538 665.099 68.1071 665.396 67.7471C666.051 66.9471 666.511 66.0804 666.821 65.1871C667.997 62.6937 668.487 59.8937 667.893 57.1337C667.719 56.3204 667.405 55.5204 667.015 54.7471C667.359 53.8538 666.552 52.8138 666.095 52.0804C664.675 49.8138 662.836 47.8671 660.839 46.0937C657.072 42.7737 652.419 40.3471 647.36 40.0138C642.579 39.6804 637.971 40.5471 633.576 42.4271C631.355 43.3871 628.976 44.4938 627.007 45.9204C626.053 46.6137 625.313 47.4938 624.711 48.5071C623.956 49.7605 623.235 50.8937 622.352 52.067C622.175 52.2937 622.377 52.5471 622.6 52.5738C610.228 65.1871 609.988 69.5071 606.832 74.4138C603.412 79.7204 599.221 71.8804 599.221 71.8804C592.455 74.6538 605.529 103.639 612.268 76.3071Z" fill="white"/>
</mask>
<g mask="url(#mask13_90_6853)">
<path d="M625.985 49.4138C625.071 50.1871 624.215 50.9737 623.403 51.7604C623.829 51.2271 624.243 50.7071 624.584 50.0804C625.239 48.8804 625.879 47.6804 626.943 46.7871C628.625 45.3738 630.881 44.3738 632.875 43.4538C636.884 41.6004 641.087 40.5338 645.515 40.5871C650.213 40.6404 654.204 42.0671 658.064 44.7471C660.107 46.1604 661.969 47.8938 663.596 49.7738C663.969 50.2005 665.604 52.0137 666.227 53.3604C665.781 52.6671 665.295 52.0005 664.815 51.3738C660.123 45.2938 651.207 43.267 650.639 43.3337C643.567 41.587 634.587 42.0804 625.985 49.4138ZM612.268 76.3071C619.008 48.9871 634.979 45.1871 649.237 50.8271C662.649 56.1337 660.159 62.3604 658.917 65.067C657.675 67.7737 654.316 67.6538 655.035 66.1738C655.753 64.6938 654.368 63.8405 654.368 63.8405C651.963 60.6005 645.684 62.7337 647.428 68.7204C648.993 74.0937 657.46 74.8937 663.457 69.7337C663.527 69.747 663.597 69.7204 663.665 69.6537C663.945 69.3737 664.212 69.0805 664.473 68.7738C664.789 68.4538 665.099 68.1071 665.396 67.7471C666.051 66.9471 666.511 66.0804 666.821 65.1871C667.997 62.6937 668.487 59.8937 667.893 57.1337C667.719 56.3204 667.405 55.5204 667.015 54.7471C667.359 53.8538 666.552 52.8138 666.095 52.0804C664.675 49.8138 662.836 47.8671 660.839 46.0937C657.072 42.7737 652.419 40.3471 647.36 40.0138C642.579 39.6804 637.971 40.5471 633.576 42.4271C631.355 43.3871 628.976 44.4938 627.007 45.9204C626.053 46.6137 625.313 47.4938 624.711 48.5071C623.956 49.7605 623.235 50.8937 622.352 52.067C622.175 52.2937 622.377 52.5471 622.6 52.5738C610.228 65.1871 609.988 69.5071 606.832 74.4138C603.412 79.7204 599.221 71.8804 599.221 71.8804C592.455 74.6538 605.529 103.639 612.268 76.3071Z" fill="#D2A339"/>
</g>
<mask id="mask14_90_6853" style="mask-type:luminance" maskUnits="userSpaceOnUse" x="615" y="40" width="10" height="19">
<path d="M616.307 57.7739C616.655 57.8272 616.989 57.7204 617.307 57.5338C617.323 57.4804 617.35 57.4404 617.401 57.4004C617.551 57.2804 617.714 57.1738 617.881 57.0805C618.738 56.2405 619.424 54.8671 619.822 54.1205C620.596 52.6805 621.434 51.1071 621.471 49.4538C621.506 47.7871 621.235 45.9205 620.63 44.3605C620.122 43.0538 618.713 41.5072 617.25 41.2138C617.245 41.2138 617.242 41.2004 617.238 41.2004C617.139 40.9204 617.002 40.6538 616.822 40.4138C616.825 40.4138 616.827 40.4138 616.831 40.4138C618.85 40.0138 620.778 40.2405 622.301 41.7739C623.677 43.1605 624.215 45.0804 624.043 47.0004C623.845 49.2138 623.547 51.7471 622.342 53.6671C621.719 54.6671 620.918 55.5471 620.054 56.3338C619.566 56.7871 619.05 57.0672 618.538 57.3739C617.918 58.0805 617.159 58.6271 616.223 58.4671C615.782 58.4004 615.861 57.7205 616.307 57.7739Z" fill="white"/>
</mask>
<g mask="url(#mask14_90_6853)">
<path d="M616.307 57.7739C616.655 57.8272 616.989 57.7204 617.307 57.5338C617.323 57.4804 617.35 57.4404 617.401 57.4004C617.551 57.2804 617.714 57.1738 617.881 57.0805C618.738 56.2405 619.424 54.8671 619.822 54.1205C620.596 52.6805 621.434 51.1071 621.471 49.4538C621.506 47.7871 621.235 45.9205 620.63 44.3605C620.122 43.0538 618.713 41.5072 617.25 41.2138C617.245 41.2138 617.242 41.2004 617.238 41.2004C617.139 40.9204 617.002 40.6538 616.822 40.4138C616.825 40.4138 616.827 40.4138 616.831 40.4138C618.85 40.0138 620.778 40.2405 622.301 41.7739C623.677 43.1605 624.215 45.0804 624.043 47.0004C623.845 49.2138 623.547 51.7471 622.342 53.6671C621.719 54.6671 620.918 55.5471 620.054 56.3338C619.566 56.7871 619.05 57.0672 618.538 57.3739C617.918 58.0805 617.159 58.6271 616.223 58.4671C615.782 58.4004 615.861 57.7205 616.307 57.7739Z" fill="#D2A339"/>
</g>
<mask id="mask15_90_6853" style="mask-type:luminance" maskUnits="userSpaceOnUse" x="609" y="44" width="8" height="9">
<path d="M611.582 50.667C611.656 50.7336 611.735 50.747 611.808 50.7336C612.114 50.8403 612.432 50.8537 612.739 50.6804C612.907 50.5871 613.052 50.3337 612.879 50.1603C612.103 49.5603 612.472 48.9203 613.983 48.267C614.695 48.707 615.18 49.307 615.438 50.0537C615.726 50.667 615.886 51.3604 616.096 52.0137C616.232 52.4271 616.847 52.1604 616.716 51.7471C616.174 50.0404 615.499 47.2403 613.142 47.4003C611.615 47.4936 611.376 49.067 611.999 50.1336C611.995 50.1336 611.994 50.1336 611.99 50.1336C611.911 50.067 611.836 49.9871 611.764 49.9071C611.075 49.0404 611.566 47.6271 612.128 46.6804C612.352 46.3737 612.57 46.0803 612.816 45.8003C612.936 45.6536 613.192 45.4937 613.236 45.2937C613.484 44.1737 611.696 44.2271 611.203 44.8137C611.11 44.9337 611.108 45.0403 611.151 45.1336C610.042 46.3603 609.387 47.6537 610.246 49.2537C610.488 49.707 610.971 50.3071 611.523 50.6137C611.542 50.6271 611.559 50.6536 611.582 50.667Z" fill="white"/>
</mask>
<g mask="url(#mask15_90_6853)">
<path d="M611.582 50.667C611.656 50.7336 611.735 50.747 611.808 50.7336C612.114 50.8403 612.432 50.8537 612.739 50.6804C612.907 50.5871 613.052 50.3337 612.879 50.1603C612.103 49.5603 612.472 48.9203 613.983 48.267C614.695 48.707 615.18 49.307 615.438 50.0537C615.726 50.667 615.886 51.3604 616.096 52.0137C616.232 52.4271 616.847 52.1604 616.716 51.7471C616.174 50.0404 615.499 47.2403 613.142 47.4003C611.615 47.4936 611.376 49.067 611.999 50.1336C611.995 50.1336 611.994 50.1336 611.99 50.1336C611.911 50.067 611.836 49.9871 611.764 49.9071C611.075 49.0404 611.566 47.6271 612.128 46.6804C612.352 46.3737 612.57 46.0803 612.816 45.8003C612.936 45.6536 613.192 45.4937 613.236 45.2937C613.484 44.1737 611.696 44.2271 611.203 44.8137C611.11 44.9337 611.108 45.0403 611.151 45.1336C610.042 46.3603 609.387 47.6537 610.246 49.2537C610.488 49.707 610.971 50.3071 611.523 50.6137C611.542 50.6271 611.559 50.6536 611.582 50.667Z" fill="#D2A339"/>
</g>
<mask id="mask16_90_6853" style="mask-type:luminance" maskUnits="userSpaceOnUse" x="680" y="36" width="21" height="10">
<path d="M680.77 45.3472C680.77 45.3472 693.679 47.8405 697.939 42.7605C702.199 37.6805 698.978 36.0404 698 37.3338C697.024 38.6138 693.431 46.0272 680.77 45.3472Z" fill="white"/>
</mask>
<g mask="url(#mask16_90_6853)">
<path d="M680.77 45.3472C680.77 45.3472 693.679 47.8405 697.939 42.7605C702.199 37.6805 698.978 36.0404 698 37.3338C697.024 38.6138 693.431 46.0272 680.77 45.3472Z" fill="#D2A339"/>
</g>
<mask id="mask17_90_6853" style="mask-type:luminance" maskUnits="userSpaceOnUse" x="596" y="70" width="16" height="15">
<path d="M603.788 84.8672C599.701 84.8672 596.387 81.5472 596.387 77.4672C596.387 73.3739 599.701 70.0672 603.788 70.0672C607.875 70.0672 611.188 73.3739 611.188 77.4672C611.188 81.5472 607.875 84.8672 603.788 84.8672Z" fill="white"/>
</mask>
<g mask="url(#mask17_90_6853)">
<path d="M603.788 84.8672C599.701 84.8672 596.387 81.5472 596.387 77.4672C596.387 73.3739 599.701 70.0672 603.788 70.0672C607.875 70.0672 611.188 73.3739 611.188 77.4672C611.188 81.5472 607.875 84.8672 603.788 84.8672Z" fill="#D2A339"/>
</g>
<mask id="mask18_90_6853" style="mask-type:luminance" maskUnits="userSpaceOnUse" x="536" y="31" width="47" height="18">
<path d="M582.987 48.0273C582.987 48.0273 559.599 24.8407 536.211 38.6141C536.211 38.6141 559.599 17.454 582.987 48.0273Z" fill="white"/>
</mask>
<g mask="url(#mask18_90_6853)">
<path d="M582.987 48.0273C582.987 48.0273 559.599 24.8407 536.211 38.6141C536.211 38.6141 559.599 17.454 582.987 48.0273Z" fill="#D2A339"/>
</g>
<mask id="mask19_90_6853" style="mask-type:luminance" maskUnits="userSpaceOnUse" x="624" y="32" width="47" height="18">
<path d="M624.211 49.3604C624.211 49.3604 647.599 26.1737 670.987 39.9471C670.987 39.9471 647.599 18.787 624.211 49.3604Z" fill="white"/>
</mask>
<g mask="url(#mask19_90_6853)">
<path d="M624.211 49.3604C624.211 49.3604 647.599 26.1737 670.987 39.9471C670.987 39.9471 647.599 18.787 624.211 49.3604Z" fill="#D2A339"/>
</g>
<mask id="mask20_90_6853" style="mask-type:luminance" maskUnits="userSpaceOnUse" x="0" y="29" width="92" height="61">
<path d="M29.4722 53.6078C31.0709 52.0744 32.8735 50.8745 34.8069 49.8879C36.5349 49.6479 38.1709 49.1544 40.0269 48.4078C41.7709 47.7011 43.8309 48.3145 45.6869 48.0612C46.1455 48.1812 46.4149 47.5412 46.8709 47.6879C47.4135 47.8612 47.9402 47.9412 48.4802 48.0212C47.5749 48.0079 46.6455 48.0078 45.6869 48.0612C36.6629 48.5012 31.1589 53.1278 27.9882 58.0078C27.6202 58.2744 23.5335 64.3412 24.1215 70.4479C24.1815 71.0745 24.2629 71.7279 24.3869 72.3812C24.0095 71.2612 23.9735 69.3012 23.9549 68.8479C23.8762 66.8612 24.0162 64.8345 24.4309 62.8879C25.2149 59.2212 26.7602 56.2078 29.4722 53.6078ZM46.9496 38.6612C46.7696 38.5278 46.6029 38.4345 46.4482 38.3545C46.2082 36.4212 46.4482 34.4612 47.7162 32.8612C48.5202 31.8345 49.6962 31.1946 50.9602 30.9146C50.1269 31.3679 49.3936 31.9679 48.9349 32.6479C47.4976 34.7812 47.3602 37.1545 47.9389 39.4345C47.5815 39.1145 47.2509 38.8478 46.9496 38.6612ZM21.7682 86.9812C22.4789 85.5412 23.1602 83.9145 23.3202 82.3011C23.4402 81.1011 23.2562 79.7411 22.3322 78.8744C21.3629 77.9678 18.6402 77.8612 18.1829 76.3812C18.6416 76.6479 19.0522 77.0079 19.6016 77.1812C20.2829 77.3945 20.9042 77.5011 21.6082 77.3411C22.8642 77.0344 24.5202 75.9678 24.9242 74.7011C24.9869 74.5145 24.8762 74.3411 24.6656 74.3411C23.3989 74.3544 22.6096 74.1145 21.7456 73.1545C20.9349 72.2612 20.6229 71.2079 20.4776 70.0212C20.2389 68.0745 20.4722 65.6212 21.2282 63.7945C21.9802 61.9812 22.9562 60.1145 24.3176 58.7145C24.8216 58.1945 25.4096 57.7679 25.9496 57.2879C24.6016 59.7145 23.8149 62.4344 23.5549 65.2078C23.3535 67.3278 23.3536 69.4745 23.7629 71.5678C23.8949 72.2345 23.9989 73.2879 24.6816 73.6212C24.8776 74.2879 25.1336 74.9279 25.4789 75.4879C26.6456 77.4345 28.4602 78.7944 30.5082 79.6078C31.1815 79.9544 31.9216 80.2079 32.7429 80.3145C33.1162 80.3679 33.4816 80.3944 33.8442 80.4078C34.1616 80.4478 34.4775 80.4744 34.7935 80.4744C34.8709 80.4878 34.9242 80.4612 34.9602 80.4212C41.2775 80.1412 45.7776 75.0345 43.7482 71.0479C41.4909 66.6079 36.6642 68.7944 37.0362 72.0078C37.0362 72.0078 36.6922 73.2612 37.9229 73.7278C39.1535 74.1945 37.2575 76.1011 35.0522 75.2078C32.8455 74.3011 27.9909 72.0478 32.9055 61.6078C38.1322 50.5144 49.5215 43.9945 68.4029 56.2345C80.6549 64.1811 83.6349 59.1412 82.7269 55.1945C82.7415 54.9812 82.6749 54.7812 82.5562 54.5812C82.2042 53.5545 81.5855 52.6612 80.8095 52.1812C79.1869 49.0212 79.3082 44.6078 79.8042 41.3945C80.1762 38.9812 81.6842 37.0345 83.3802 35.3545C85.4096 33.3545 89.9029 33.4612 89.2642 37.1145C89.0696 38.2212 88.4322 39.1679 87.6055 39.8879C86.8775 38.6612 84.7016 39.2878 85.2802 40.7411C85.6162 41.5811 85.7922 41.9012 86.4202 42.5545C86.8082 42.9679 87.4762 43.0345 87.9535 42.7545C90.9669 40.9412 92.8175 37.1812 91.4229 33.7812C89.9082 30.0879 85.3162 30.9678 82.7109 32.6612C76.5722 36.6478 74.8215 48.0079 79.0229 54.2479C79.0962 56.1145 78.6082 58.3412 75.6389 57.5945C71.9989 56.6878 66.3455 51.4345 56.9122 49.1145C56.9762 49.0879 57.0255 49.0345 57.0535 48.9678C58.8042 49.4478 60.9829 49.9012 62.5762 49.1278C63.3469 48.7545 65.7082 46.5945 64.4455 45.7145C63.6109 45.1279 62.5842 46.1011 63.0402 46.9411C61.5469 47.4211 59.5002 47.1812 58.1442 47.0879C57.1642 47.0212 56.1736 46.7678 55.2802 46.3278C54.6896 45.9412 54.1122 45.5012 53.5455 45.0212C53.3282 44.8079 53.0949 44.5944 52.9136 44.3411C52.8869 44.3011 52.8709 44.2478 52.8442 44.2078C52.8402 44.1944 52.8522 44.1811 52.8442 44.1678C52.6149 43.6745 52.3402 43.1812 52.1709 42.6612C51.9135 42.0878 51.8762 41.4745 52.0482 40.8212C53.2909 40.3812 53.8549 40.5545 53.7296 41.3278C53.7269 41.5278 53.9509 41.5945 54.1029 41.5545C54.3775 41.4879 54.5575 41.3011 54.6775 41.0744C54.7255 41.0478 54.7615 40.9945 54.7735 40.9145C54.7762 40.8879 54.7749 40.8745 54.7775 40.8479C54.9295 40.3679 54.8869 39.7545 54.7802 39.3545C54.4029 37.9545 53.3162 37.5679 51.9962 37.4479C51.9869 37.4212 51.9455 37.4212 51.9282 37.3945C52.1495 36.8212 52.4802 36.3145 52.9949 35.8345C53.3962 35.4745 54.5322 34.4879 55.3122 34.4212C54.9002 34.8879 55.2975 35.5012 56.1375 35.6212C57.5495 35.8079 58.3016 34.4478 57.9816 33.1678C57.5589 31.4878 55.7069 30.2212 54.0482 30.1146C53.6109 30.1012 53.1429 30.1412 52.6709 30.2612C50.9375 30.1945 49.1082 30.7412 47.8615 31.9278C46.2255 33.4878 45.7082 35.7811 45.8922 37.9678C45.8375 37.9945 45.7882 38.0344 45.7349 38.0744C45.6536 38.0611 45.6016 38.0479 45.6016 38.0479C45.6016 38.0479 45.4989 38.1411 45.3775 38.3411C44.3789 39.1544 43.6975 40.1945 43.6562 41.5945C43.6482 41.8612 43.6922 42.1145 43.7282 42.3678C39.3949 42.3411 35.9002 41.6078 31.6936 38.9011C29.9882 37.7945 25.2749 32.1812 29.7122 32.4479C31.3482 32.5412 31.3269 30.0346 29.7122 29.9146C22.2309 29.3679 17.4629 37.0745 21.4215 43.8479C23.5655 47.5279 26.9402 49.8212 31.2882 50.0612C32.0509 50.1012 32.7562 50.0879 33.4429 50.0479C31.4762 51.1945 29.6669 52.5678 28.0789 54.2744C27.5802 54.8078 27.1762 55.4078 26.7656 56.0078C25.7442 56.4078 22.5949 58.0478 20.5469 60.6612C18.3296 63.4878 17.1122 66.9811 15.8296 70.3011C15.1576 72.0478 14.3949 73.8612 13.1922 75.2879C12.0442 76.6612 11.1175 78.1545 9.87355 79.4479C8.56821 80.7945 7.17088 82.2478 5.64021 83.3278C3.93621 84.5278 2.30956 85.1279 0.234893 85.2879C0.0562262 85.3012 -0.0784561 85.5412 0.0522105 85.6879C0.574877 86.2879 1.48955 86.3812 2.23888 86.5145C3.46688 86.7279 4.65622 86.7145 5.89489 86.5945C8.34689 86.3678 10.5829 85.9678 12.6336 84.5411C13.4509 83.9678 14.2602 83.3811 14.9016 82.6078C15.3029 82.1278 15.3842 81.5811 16.0202 81.6078C16.5202 81.6478 16.7802 82.0879 17.1242 82.4479C18.2522 83.6079 19.0909 84.4478 19.2802 86.1278C19.4176 87.3545 19.4095 88.5411 19.4575 89.7678C19.4642 89.9278 19.6615 90.0479 19.8069 89.9812C20.7642 89.5279 21.3349 87.8612 21.7682 86.9812Z" fill="white"/>
</mask>
<g mask="url(#mask20_90_6853)">
<path d="M29.4722 53.6078C31.0709 52.0744 32.8735 50.8745 34.8069 49.8879C36.5349 49.6479 38.1709 49.1544 40.0269 48.4078C41.7709 47.7011 43.8309 48.3145 45.6869 48.0612C46.1455 48.1812 46.4149 47.5412 46.8709 47.6879C47.4135 47.8612 47.9402 47.9412 48.4802 48.0212C47.5749 48.0079 46.6455 48.0078 45.6869 48.0612C36.6629 48.5012 31.1589 53.1278 27.9882 58.0078C27.6202 58.2744 23.5335 64.3412 24.1215 70.4479C24.1815 71.0745 24.2629 71.7279 24.3869 72.3812C24.0095 71.2612 23.9735 69.3012 23.9549 68.8479C23.8762 66.8612 24.0162 64.8345 24.4309 62.8879C25.2149 59.2212 26.7602 56.2078 29.4722 53.6078ZM46.9496 38.6612C46.7696 38.5278 46.6029 38.4345 46.4482 38.3545C46.2082 36.4212 46.4482 34.4612 47.7162 32.8612C48.5202 31.8345 49.6962 31.1946 50.9602 30.9146C50.1269 31.3679 49.3936 31.9679 48.9349 32.6479C47.4976 34.7812 47.3602 37.1545 47.9389 39.4345C47.5815 39.1145 47.2509 38.8478 46.9496 38.6612ZM21.7682 86.9812C22.4789 85.5412 23.1602 83.9145 23.3202 82.3011C23.4402 81.1011 23.2562 79.7411 22.3322 78.8744C21.3629 77.9678 18.6402 77.8612 18.1829 76.3812C18.6416 76.6479 19.0522 77.0079 19.6016 77.1812C20.2829 77.3945 20.9042 77.5011 21.6082 77.3411C22.8642 77.0344 24.5202 75.9678 24.9242 74.7011C24.9869 74.5145 24.8762 74.3411 24.6656 74.3411C23.3989 74.3544 22.6096 74.1145 21.7456 73.1545C20.9349 72.2612 20.6229 71.2079 20.4776 70.0212C20.2389 68.0745 20.4722 65.6212 21.2282 63.7945C21.9802 61.9812 22.9562 60.1145 24.3176 58.7145C24.8216 58.1945 25.4096 57.7679 25.9496 57.2879C24.6016 59.7145 23.8149 62.4344 23.5549 65.2078C23.3535 67.3278 23.3536 69.4745 23.7629 71.5678C23.8949 72.2345 23.9989 73.2879 24.6816 73.6212C24.8776 74.2879 25.1336 74.9279 25.4789 75.4879C26.6456 77.4345 28.4602 78.7944 30.5082 79.6078C31.1815 79.9544 31.9216 80.2079 32.7429 80.3145C33.1162 80.3679 33.4816 80.3944 33.8442 80.4078C34.1616 80.4478 34.4775 80.4744 34.7935 80.4744C34.8709 80.4878 34.9242 80.4612 34.9602 80.4212C41.2775 80.1412 45.7776 75.0345 43.7482 71.0479C41.4909 66.6079 36.6642 68.7944 37.0362 72.0078C37.0362 72.0078 36.6922 73.2612 37.9229 73.7278C39.1535 74.1945 37.2575 76.1011 35.0522 75.2078C32.8455 74.3011 27.9909 72.0478 32.9055 61.6078C38.1322 50.5144 49.5215 43.9945 68.4029 56.2345C80.6549 64.1811 83.6349 59.1412 82.7269 55.1945C82.7415 54.9812 82.6749 54.7812 82.5562 54.5812C82.2042 53.5545 81.5855 52.6612 80.8095 52.1812C79.1869 49.0212 79.3082 44.6078 79.8042 41.3945C80.1762 38.9812 81.6842 37.0345 83.3802 35.3545C85.4096 33.3545 89.9029 33.4612 89.2642 37.1145C89.0696 38.2212 88.4322 39.1679 87.6055 39.8879C86.8775 38.6612 84.7016 39.2878 85.2802 40.7411C85.6162 41.5811 85.7922 41.9012 86.4202 42.5545C86.8082 42.9679 87.4762 43.0345 87.9535 42.7545C90.9669 40.9412 92.8175 37.1812 91.4229 33.7812C89.9082 30.0879 85.3162 30.9678 82.7109 32.6612C76.5722 36.6478 74.8215 48.0079 79.0229 54.2479C79.0962 56.1145 78.6082 58.3412 75.6389 57.5945C71.9989 56.6878 66.3455 51.4345 56.9122 49.1145C56.9762 49.0879 57.0255 49.0345 57.0535 48.9678C58.8042 49.4478 60.9829 49.9012 62.5762 49.1278C63.3469 48.7545 65.7082 46.5945 64.4455 45.7145C63.6109 45.1279 62.5842 46.1011 63.0402 46.9411C61.5469 47.4211 59.5002 47.1812 58.1442 47.0879C57.1642 47.0212 56.1736 46.7678 55.2802 46.3278C54.6896 45.9412 54.1122 45.5012 53.5455 45.0212C53.3282 44.8079 53.0949 44.5944 52.9136 44.3411C52.8869 44.3011 52.8709 44.2478 52.8442 44.2078C52.8402 44.1944 52.8522 44.1811 52.8442 44.1678C52.6149 43.6745 52.3402 43.1812 52.1709 42.6612C51.9135 42.0878 51.8762 41.4745 52.0482 40.8212C53.2909 40.3812 53.8549 40.5545 53.7296 41.3278C53.7269 41.5278 53.9509 41.5945 54.1029 41.5545C54.3775 41.4879 54.5575 41.3011 54.6775 41.0744C54.7255 41.0478 54.7615 40.9945 54.7735 40.9145C54.7762 40.8879 54.7749 40.8745 54.7775 40.8479C54.9295 40.3679 54.8869 39.7545 54.7802 39.3545C54.4029 37.9545 53.3162 37.5679 51.9962 37.4479C51.9869 37.4212 51.9455 37.4212 51.9282 37.3945C52.1495 36.8212 52.4802 36.3145 52.9949 35.8345C53.3962 35.4745 54.5322 34.4879 55.3122 34.4212C54.9002 34.8879 55.2975 35.5012 56.1375 35.6212C57.5495 35.8079 58.3016 34.4478 57.9816 33.1678C57.5589 31.4878 55.7069 30.2212 54.0482 30.1146C53.6109 30.1012 53.1429 30.1412 52.6709 30.2612C50.9375 30.1945 49.1082 30.7412 47.8615 31.9278C46.2255 33.4878 45.7082 35.7811 45.8922 37.9678C45.8375 37.9945 45.7882 38.0344 45.7349 38.0744C45.6536 38.0611 45.6016 38.0479 45.6016 38.0479C45.6016 38.0479 45.4989 38.1411 45.3775 38.3411C44.3789 39.1544 43.6975 40.1945 43.6562 41.5945C43.6482 41.8612 43.6922 42.1145 43.7282 42.3678C39.3949 42.3411 35.9002 41.6078 31.6936 38.9011C29.9882 37.7945 25.2749 32.1812 29.7122 32.4479C31.3482 32.5412 31.3269 30.0346 29.7122 29.9146C22.2309 29.3679 17.4629 37.0745 21.4215 43.8479C23.5655 47.5279 26.9402 49.8212 31.2882 50.0612C32.0509 50.1012 32.7562 50.0879 33.4429 50.0479C31.4762 51.1945 29.6669 52.5678 28.0789 54.2744C27.5802 54.8078 27.1762 55.4078 26.7656 56.0078C25.7442 56.4078 22.5949 58.0478 20.5469 60.6612C18.3296 63.4878 17.1122 66.9811 15.8296 70.3011C15.1576 72.0478 14.3949 73.8612 13.1922 75.2879C12.0442 76.6612 11.1175 78.1545 9.87355 79.4479C8.56821 80.7945 7.17088 82.2478 5.64021 83.3278C3.93621 84.5278 2.30956 85.1279 0.234893 85.2879C0.0562262 85.3012 -0.0784561 85.5412 0.0522105 85.6879C0.574877 86.2879 1.48955 86.3812 2.23888 86.5145C3.46688 86.7279 4.65622 86.7145 5.89489 86.5945C8.34689 86.3678 10.5829 85.9678 12.6336 84.5411C13.4509 83.9678 14.2602 83.3811 14.9016 82.6078C15.3029 82.1278 15.3842 81.5811 16.0202 81.6078C16.5202 81.6478 16.7802 82.0879 17.1242 82.4479C18.2522 83.6079 19.0909 84.4478 19.2802 86.1278C19.4176 87.3545 19.4095 88.5411 19.4575 89.7678C19.4642 89.9278 19.6615 90.0479 19.8069 89.9812C20.7642 89.5279 21.3349 87.8612 21.7682 86.9812Z" fill="#D2A339"/>
</g>
<mask id="mask21_90_6853" style="mask-type:luminance" maskUnits="userSpaceOnUse" x="1116" y="29" width="92" height="61">
<path d="M1178.53 53.6078C1176.93 52.0744 1175.13 50.8745 1173.19 49.8879C1171.47 49.6479 1169.83 49.1544 1167.97 48.4078C1166.23 47.7011 1164.17 48.3145 1162.31 48.0612C1161.85 48.1812 1161.59 47.5412 1161.13 47.6879C1160.59 47.8612 1160.06 47.9412 1159.52 48.0212C1160.43 48.0079 1161.35 48.0078 1162.31 48.0612C1171.34 48.5012 1176.84 53.1278 1180.01 58.0078C1180.38 58.2744 1184.47 64.3412 1183.88 70.4479C1183.82 71.0745 1183.74 71.7279 1183.61 72.3812C1183.99 71.2612 1184.03 69.3012 1184.05 68.8479C1184.12 66.8612 1183.98 64.8345 1183.57 62.8879C1182.79 59.2212 1181.24 56.2078 1178.53 53.6078ZM1161.05 38.6612C1161.23 38.5278 1161.4 38.4345 1161.55 38.3545C1161.79 36.4212 1161.55 34.4612 1160.28 32.8612C1159.48 31.8345 1158.3 31.1946 1157.04 30.9146C1157.87 31.3679 1158.61 31.9679 1159.07 32.6479C1160.5 34.7812 1160.64 37.1545 1160.06 39.4345C1160.42 39.1145 1160.75 38.8478 1161.05 38.6612ZM1186.23 86.9812C1185.52 85.5412 1184.84 83.9145 1184.68 82.3011C1184.56 81.1011 1184.74 79.7411 1185.67 78.8744C1186.64 77.9678 1189.36 77.8612 1189.82 76.3812C1189.36 76.6479 1188.95 77.0079 1188.4 77.1812C1187.72 77.3945 1187.1 77.5011 1186.39 77.3411C1185.14 77.0344 1183.48 75.9678 1183.08 74.7011C1183.01 74.5145 1183.12 74.3411 1183.33 74.3411C1184.6 74.3544 1185.39 74.1145 1186.25 73.1545C1187.07 72.2612 1187.38 71.2079 1187.52 70.0212C1187.76 68.0745 1187.53 65.6212 1186.77 63.7945C1186.02 61.9812 1185.04 60.1145 1183.68 58.7145C1183.18 58.1945 1182.59 57.7679 1182.05 57.2879C1183.4 59.7145 1184.19 62.4344 1184.45 65.2078C1184.65 67.3278 1184.65 69.4745 1184.24 71.5678C1184.11 72.2345 1184 73.2879 1183.32 73.6212C1183.12 74.2879 1182.87 74.9279 1182.52 75.4879C1181.35 77.4345 1179.54 78.7944 1177.49 79.6078C1176.82 79.9544 1176.08 80.2079 1175.26 80.3145C1174.88 80.3679 1174.52 80.3944 1174.16 80.4078C1173.84 80.4478 1173.52 80.4744 1173.21 80.4744C1173.13 80.4878 1173.08 80.4612 1173.04 80.4212C1166.72 80.1412 1162.22 75.0345 1164.25 71.0479C1166.51 66.6079 1171.34 68.7944 1170.96 72.0078C1170.96 72.0078 1171.31 73.2612 1170.08 73.7278C1168.85 74.1945 1170.74 76.1011 1172.95 75.2078C1175.15 74.3011 1180.01 72.0478 1175.09 61.6078C1169.87 50.5144 1158.48 43.9945 1139.6 56.2345C1127.35 64.1811 1124.37 59.1412 1125.27 55.1945C1125.26 54.9812 1125.33 54.7812 1125.44 54.5812C1125.8 53.5545 1126.41 52.6612 1127.19 52.1812C1128.81 49.0212 1128.69 44.6078 1128.2 41.3945C1127.82 38.9812 1126.32 37.0345 1124.62 35.3545C1122.59 33.3545 1118.1 33.4612 1118.74 37.1145C1118.93 38.2212 1119.57 39.1679 1120.39 39.8879C1121.12 38.6612 1123.3 39.2878 1122.72 40.7411C1122.38 41.5811 1122.21 41.9012 1121.58 42.5545C1121.19 42.9679 1120.52 43.0345 1120.05 42.7545C1117.03 40.9412 1115.18 37.1812 1116.58 33.7812C1118.09 30.0879 1122.68 30.9678 1125.29 32.6612C1131.43 36.6478 1133.18 48.0079 1128.98 54.2479C1128.9 56.1145 1129.39 58.3412 1132.36 57.5945C1136 56.6878 1141.65 51.4345 1151.09 49.1145C1151.02 49.0879 1150.97 49.0345 1150.95 48.9678C1149.2 49.4478 1147.02 49.9012 1145.42 49.1278C1144.65 48.7545 1142.29 46.5945 1143.55 45.7145C1144.39 45.1279 1145.42 46.1011 1144.96 46.9411C1146.45 47.4211 1148.5 47.1812 1149.86 47.0879C1150.84 47.0212 1151.83 46.7678 1152.72 46.3278C1153.31 45.9412 1153.89 45.5012 1154.45 45.0212C1154.67 44.8079 1154.91 44.5944 1155.09 44.3411C1155.11 44.3011 1155.13 44.2478 1155.16 44.2078C1155.16 44.1944 1155.15 44.1811 1155.16 44.1678C1155.39 43.6745 1155.66 43.1812 1155.83 42.6612C1156.09 42.0878 1156.12 41.4745 1155.95 40.8212C1154.71 40.3812 1154.15 40.5545 1154.27 41.3278C1154.27 41.5278 1154.05 41.5945 1153.9 41.5545C1153.62 41.4879 1153.44 41.3011 1153.32 41.0744C1153.27 41.0478 1153.24 40.9945 1153.23 40.9145C1153.22 40.8879 1153.23 40.8745 1153.22 40.8479C1153.07 40.3679 1153.11 39.7545 1153.22 39.3545C1153.6 37.9545 1154.68 37.5679 1156 37.4479C1156.01 37.4212 1156.05 37.4212 1156.07 37.3945C1155.85 36.8212 1155.52 36.3145 1155.01 35.8345C1154.6 35.4745 1153.47 34.4879 1152.69 34.4212C1153.1 34.8879 1152.7 35.5012 1151.86 35.6212C1150.45 35.8079 1149.7 34.4478 1150.02 33.1678C1150.44 31.4878 1152.29 30.2212 1153.95 30.1146C1154.39 30.1012 1154.86 30.1412 1155.33 30.2612C1157.06 30.1945 1158.89 30.7412 1160.14 31.9278C1161.77 33.4878 1162.29 35.7811 1162.11 37.9678C1162.16 37.9945 1162.21 38.0344 1162.27 38.0744C1162.35 38.0611 1162.4 38.0479 1162.4 38.0479C1162.4 38.0479 1162.5 38.1411 1162.62 38.3411C1163.62 39.1544 1164.3 40.1945 1164.34 41.5945C1164.35 41.8612 1164.31 42.1145 1164.27 42.3678C1168.61 42.3411 1172.1 41.6078 1176.31 38.9011C1178.01 37.7945 1182.73 32.1812 1178.29 32.4479C1176.65 32.5412 1176.67 30.0346 1178.29 29.9146C1185.77 29.3679 1190.54 37.0745 1186.58 43.8479C1184.43 47.5279 1181.06 49.8212 1176.71 50.0612C1175.95 50.1012 1175.24 50.0879 1174.56 50.0479C1176.52 51.1945 1178.33 52.5678 1179.92 54.2744C1180.42 54.8078 1180.82 55.4078 1181.23 56.0078C1182.26 56.4078 1185.41 58.0478 1187.45 60.6612C1189.67 63.4878 1190.89 66.9811 1192.17 70.3011C1192.84 72.0478 1193.61 73.8612 1194.81 75.2879C1195.96 76.6612 1196.88 78.1545 1198.13 79.4479C1199.43 80.7945 1200.83 82.2478 1202.36 83.3278C1204.06 84.5278 1205.69 85.1279 1207.77 85.2879C1207.94 85.3012 1208.08 85.5412 1207.95 85.6879C1207.43 86.2879 1206.51 86.3812 1205.76 86.5145C1204.53 86.7279 1203.34 86.7145 1202.11 86.5945C1199.65 86.3678 1197.42 85.9678 1195.37 84.5411C1194.55 83.9678 1193.74 83.3811 1193.1 82.6078C1192.7 82.1278 1192.62 81.5811 1191.98 81.6078C1191.48 81.6478 1191.22 82.0879 1190.88 82.4479C1189.75 83.6079 1188.91 84.4478 1188.72 86.1278C1188.58 87.3545 1188.59 88.5411 1188.54 89.7678C1188.54 89.9278 1188.34 90.0479 1188.19 89.9812C1187.24 89.5279 1186.67 87.8612 1186.23 86.9812Z" fill="white"/>
</mask>
<g mask="url(#mask21_90_6853)">
<path d="M1178.53 53.6078C1176.93 52.0744 1175.13 50.8745 1173.19 49.8879C1171.47 49.6479 1169.83 49.1544 1167.97 48.4078C1166.23 47.7011 1164.17 48.3145 1162.31 48.0612C1161.85 48.1812 1161.59 47.5412 1161.13 47.6879C1160.59 47.8612 1160.06 47.9412 1159.52 48.0212C1160.43 48.0079 1161.35 48.0078 1162.31 48.0612C1171.34 48.5012 1176.84 53.1278 1180.01 58.0078C1180.38 58.2744 1184.47 64.3412 1183.88 70.4479C1183.82 71.0745 1183.74 71.7279 1183.61 72.3812C1183.99 71.2612 1184.03 69.3012 1184.05 68.8479C1184.12 66.8612 1183.98 64.8345 1183.57 62.8879C1182.79 59.2212 1181.24 56.2078 1178.53 53.6078ZM1161.05 38.6612C1161.23 38.5278 1161.4 38.4345 1161.55 38.3545C1161.79 36.4212 1161.55 34.4612 1160.28 32.8612C1159.48 31.8345 1158.3 31.1946 1157.04 30.9146C1157.87 31.3679 1158.61 31.9679 1159.07 32.6479C1160.5 34.7812 1160.64 37.1545 1160.06 39.4345C1160.42 39.1145 1160.75 38.8478 1161.05 38.6612ZM1186.23 86.9812C1185.52 85.5412 1184.84 83.9145 1184.68 82.3011C1184.56 81.1011 1184.74 79.7411 1185.67 78.8744C1186.64 77.9678 1189.36 77.8612 1189.82 76.3812C1189.36 76.6479 1188.95 77.0079 1188.4 77.1812C1187.72 77.3945 1187.1 77.5011 1186.39 77.3411C1185.14 77.0344 1183.48 75.9678 1183.08 74.7011C1183.01 74.5145 1183.12 74.3411 1183.33 74.3411C1184.6 74.3544 1185.39 74.1145 1186.25 73.1545C1187.07 72.2612 1187.38 71.2079 1187.52 70.0212C1187.76 68.0745 1187.53 65.6212 1186.77 63.7945C1186.02 61.9812 1185.04 60.1145 1183.68 58.7145C1183.18 58.1945 1182.59 57.7679 1182.05 57.2879C1183.4 59.7145 1184.19 62.4344 1184.45 65.2078C1184.65 67.3278 1184.65 69.4745 1184.24 71.5678C1184.11 72.2345 1184 73.2879 1183.32 73.6212C1183.12 74.2879 1182.87 74.9279 1182.52 75.4879C1181.35 77.4345 1179.54 78.7944 1177.49 79.6078C1176.82 79.9544 1176.08 80.2079 1175.26 80.3145C1174.88 80.3679 1174.52 80.3944 1174.16 80.4078C1173.84 80.4478 1173.52 80.4744 1173.21 80.4744C1173.13 80.4878 1173.08 80.4612 1173.04 80.4212C1166.72 80.1412 1162.22 75.0345 1164.25 71.0479C1166.51 66.6079 1171.34 68.7944 1170.96 72.0078C1170.96 72.0078 1171.31 73.2612 1170.08 73.7278C1168.85 74.1945 1170.74 76.1011 1172.95 75.2078C1175.15 74.3011 1180.01 72.0478 1175.09 61.6078C1169.87 50.5144 1158.48 43.9945 1139.6 56.2345C1127.35 64.1811 1124.37 59.1412 1125.27 55.1945C1125.26 54.9812 1125.33 54.7812 1125.44 54.5812C1125.8 53.5545 1126.41 52.6612 1127.19 52.1812C1128.81 49.0212 1128.69 44.6078 1128.2 41.3945C1127.82 38.9812 1126.32 37.0345 1124.62 35.3545C1122.59 33.3545 1118.1 33.4612 1118.74 37.1145C1118.93 38.2212 1119.57 39.1679 1120.39 39.8879C1121.12 38.6612 1123.3 39.2878 1122.72 40.7411C1122.38 41.5811 1122.21 41.9012 1121.58 42.5545C1121.19 42.9679 1120.52 43.0345 1120.05 42.7545C1117.03 40.9412 1115.18 37.1812 1116.58 33.7812C1118.09 30.0879 1122.68 30.9678 1125.29 32.6612C1131.43 36.6478 1133.18 48.0079 1128.98 54.2479C1128.9 56.1145 1129.39 58.3412 1132.36 57.5945C1136 56.6878 1141.65 51.4345 1151.09 49.1145C1151.02 49.0879 1150.97 49.0345 1150.95 48.9678C1149.2 49.4478 1147.02 49.9012 1145.42 49.1278C1144.65 48.7545 1142.29 46.5945 1143.55 45.7145C1144.39 45.1279 1145.42 46.1011 1144.96 46.9411C1146.45 47.4211 1148.5 47.1812 1149.86 47.0879C1150.84 47.0212 1151.83 46.7678 1152.72 46.3278C1153.31 45.9412 1153.89 45.5012 1154.45 45.0212C1154.67 44.8079 1154.91 44.5944 1155.09 44.3411C1155.11 44.3011 1155.13 44.2478 1155.16 44.2078C1155.16 44.1944 1155.15 44.1811 1155.16 44.1678C1155.39 43.6745 1155.66 43.1812 1155.83 42.6612C1156.09 42.0878 1156.12 41.4745 1155.95 40.8212C1154.71 40.3812 1154.15 40.5545 1154.27 41.3278C1154.27 41.5278 1154.05 41.5945 1153.9 41.5545C1153.62 41.4879 1153.44 41.3011 1153.32 41.0744C1153.27 41.0478 1153.24 40.9945 1153.23 40.9145C1153.22 40.8879 1153.23 40.8745 1153.22 40.8479C1153.07 40.3679 1153.11 39.7545 1153.22 39.3545C1153.6 37.9545 1154.68 37.5679 1156 37.4479C1156.01 37.4212 1156.05 37.4212 1156.07 37.3945C1155.85 36.8212 1155.52 36.3145 1155.01 35.8345C1154.6 35.4745 1153.47 34.4879 1152.69 34.4212C1153.1 34.8879 1152.7 35.5012 1151.86 35.6212C1150.45 35.8079 1149.7 34.4478 1150.02 33.1678C1150.44 31.4878 1152.29 30.2212 1153.95 30.1146C1154.39 30.1012 1154.86 30.1412 1155.33 30.2612C1157.06 30.1945 1158.89 30.7412 1160.14 31.9278C1161.77 33.4878 1162.29 35.7811 1162.11 37.9678C1162.16 37.9945 1162.21 38.0344 1162.27 38.0744C1162.35 38.0611 1162.4 38.0479 1162.4 38.0479C1162.4 38.0479 1162.5 38.1411 1162.62 38.3411C1163.62 39.1544 1164.3 40.1945 1164.34 41.5945C1164.35 41.8612 1164.31 42.1145 1164.27 42.3678C1168.61 42.3411 1172.1 41.6078 1176.31 38.9011C1178.01 37.7945 1182.73 32.1812 1178.29 32.4479C1176.65 32.5412 1176.67 30.0346 1178.29 29.9146C1185.77 29.3679 1190.54 37.0745 1186.58 43.8479C1184.43 47.5279 1181.06 49.8212 1176.71 50.0612C1175.95 50.1012 1175.24 50.0879 1174.56 50.0479C1176.52 51.1945 1178.33 52.5678 1179.92 54.2744C1180.42 54.8078 1180.82 55.4078 1181.23 56.0078C1182.26 56.4078 1185.41 58.0478 1187.45 60.6612C1189.67 63.4878 1190.89 66.9811 1192.17 70.3011C1192.84 72.0478 1193.61 73.8612 1194.81 75.2879C1195.96 76.6612 1196.88 78.1545 1198.13 79.4479C1199.43 80.7945 1200.83 82.2478 1202.36 83.3278C1204.06 84.5278 1205.69 85.1279 1207.77 85.2879C1207.94 85.3012 1208.08 85.5412 1207.95 85.6879C1207.43 86.2879 1206.51 86.3812 1205.76 86.5145C1204.53 86.7279 1203.34 86.7145 1202.11 86.5945C1199.65 86.3678 1197.42 85.9678 1195.37 84.5411C1194.55 83.9678 1193.74 83.3811 1193.1 82.6078C1192.7 82.1278 1192.62 81.5811 1191.98 81.6078C1191.48 81.6478 1191.22 82.0879 1190.88 82.4479C1189.75 83.6079 1188.91 84.4478 1188.72 86.1278C1188.58 87.3545 1188.59 88.5411 1188.54 89.7678C1188.54 89.9278 1188.34 90.0479 1188.19 89.9812C1187.24 89.5279 1186.67 87.8612 1186.23 86.9812Z" fill="#D2A339"/>
</g>
</svg>
