<svg width="7" height="4" viewBox="0 0 7 4" fill="none" xmlns="http://www.w3.org/2000/svg">
<mask id="mask0_84_4973" style="mask-type:luminance" maskUnits="userSpaceOnUse" x="4" y="0" width="3" height="4">
<path d="M4.60742 2.00039C4.60742 1.34964 5.13716 0.825984 5.78183 0.825984C6.4364 0.825984 6.96537 1.34964 6.96537 2.00039C6.96537 2.64583 6.4364 3.1748 5.78183 3.1748C5.13716 3.1748 4.60742 2.64583 4.60742 2.00039Z" fill="white"/>
</mask>
<g mask="url(#mask0_84_4973)">
<path d="M4.60742 2.00039C4.60742 1.34964 5.13716 0.825984 5.78183 0.825984C6.4364 0.825984 6.96537 1.34964 6.96537 2.00039C6.96537 2.64583 6.4364 3.1748 5.78183 3.1748C5.13716 3.1748 4.60742 2.64583 4.60742 2.00039Z" fill="#D2A339"/>
</g>
<mask id="mask1_84_4973" style="mask-type:luminance" maskUnits="userSpaceOnUse" x="0" y="0" width="4" height="4">
<path d="M0.525391 2.00189C0.525391 1.08322 1.269 0.342653 2.18159 0.342653C3.10331 0.342653 3.84617 1.08322 3.84617 2.00189C3.84617 2.91448 3.10331 3.66113 2.18159 3.66113C1.269 3.66113 0.525391 2.91448 0.525391 2.00189Z" fill="white"/>
</mask>
<g mask="url(#mask1_84_4973)">
<path d="M0.525391 2.00189C0.525391 1.08322 1.269 0.342653 2.18159 0.342653C3.10331 0.342653 3.84617 1.08322 3.84617 2.00189C3.84617 2.91448 3.10331 3.66113 2.18159 3.66113C1.269 3.66113 0.525391 2.91448 0.525391 2.00189Z" fill="#D2A339"/>
</g>
</svg>
