<svg width="75" height="1" viewBox="0 0 75 1" fill="none" xmlns="http://www.w3.org/2000/svg">
<mask id="mask0_84_4833" style="mask-type:luminance" maskUnits="userSpaceOnUse" x="0" y="0" width="75" height="1">
<path d="M0.230536 2.86964e-08H74.7709C74.8942 2.86964e-08 75 0.227592 75 0.502689C75 0.778553 74.8942 1 74.7709 1H0.230536C0.102969 1 0 0.778553 0 0.502689C0 0.227592 0.102969 2.86964e-08 0.230536 2.86964e-08Z" fill="white"/>
</mask>
<g mask="url(#mask0_84_4833)">
<path d="M0.230536 2.86964e-08H74.7709C74.8942 2.86964e-08 75 0.227592 75 0.502689C75 0.778553 74.8942 1 74.7709 1H0.230536C0.102969 1 0 0.778553 0 0.502689C0 0.227592 0.102969 2.86964e-08 0.230536 2.86964e-08Z" fill="#D2A339"/>
</g>
</svg>
