<svg width="7" height="4" viewBox="0 0 7 4" fill="none" xmlns="http://www.w3.org/2000/svg">
<mask id="mask0_84_4974" style="mask-type:luminance" maskUnits="userSpaceOnUse" x="-1" y="0" width="4" height="4">
<path d="M-0.00195312 2.00039C-0.00195312 1.34964 0.524005 0.825984 1.17248 0.825984C1.81791 0.825984 2.34687 1.34964 2.34687 2.00039C2.34687 2.64583 1.81791 3.1748 1.17248 3.1748C0.524005 3.1748 -0.00195312 2.64583 -0.00195312 2.00039Z" fill="white"/>
</mask>
<g mask="url(#mask0_84_4974)">
<path d="M-0.00195312 2.00039C-0.00195312 1.34964 0.524005 0.825984 1.17248 0.825984C1.81791 0.825984 2.34687 1.34964 2.34687 2.00039C2.34687 2.64583 1.81791 3.1748 1.17248 3.1748C0.524005 3.1748 -0.00195312 2.64583 -0.00195312 2.00039Z" fill="#D2A339"/>
</g>
<mask id="mask1_84_4974" style="mask-type:luminance" maskUnits="userSpaceOnUse" x="3" y="0" width="4" height="4">
<path d="M3.1582 2.00189C3.1582 1.08322 3.90181 0.342653 4.81744 0.342653C5.73916 0.342653 6.48277 1.08322 6.48277 2.00189C6.48277 2.91448 5.73916 3.66113 4.81744 3.66113C3.90181 3.66113 3.1582 2.91448 3.1582 2.00189Z" fill="white"/>
</mask>
<g mask="url(#mask1_84_4974)">
<path d="M3.1582 2.00189C3.1582 1.08322 3.90181 0.342653 4.81744 0.342653C5.73916 0.342653 6.48277 1.08322 6.48277 2.00189C6.48277 2.91448 5.73916 3.66113 4.81744 3.66113C3.90181 3.66113 3.1582 2.91448 3.1582 2.00189Z" fill="#D2A339"/>
</g>
</svg>
