<svg width="480" height="252" viewBox="0 0 480 252" fill="none" xmlns="http://www.w3.org/2000/svg">
<mask id="mask0_88_5391" style="mask-type:luminance" maskUnits="userSpaceOnUse" x="1" y="117" width="22" height="26">
<path d="M1.11655 142.357C2.01975 138.237 6.61605 137.39 9.64107 137.294C12.8026 137.19 15.8087 136.197 18.1939 134.314C26.7373 127.572 19.7259 117.33 19.7259 117.33C19.7259 117.33 21.9667 130.744 13.0651 132.966C13.0651 132.966 7.07329 134.768 1.46609 129.701C1.46609 129.701 2.36933 133.571 6.25688 134.71C4.0217 135.307 0.791071 136.817 1.11655 142.357Z" fill="white"/>
</mask>
<g mask="url(#mask0_88_5391)">
<path d="M1.11655 142.357C2.01975 138.237 6.61605 137.39 9.64107 137.294C12.8026 137.19 15.8087 136.197 18.1939 134.314C26.7373 127.572 19.7259 117.33 19.7259 117.33C19.7259 117.33 21.9667 130.744 13.0651 132.966C13.0651 132.966 7.07329 134.768 1.46609 129.701C1.46609 129.701 2.36933 133.571 6.25688 134.71C4.0217 135.307 0.791071 136.817 1.11655 142.357Z" fill="#D2A339"/>
</g>
<mask id="mask1_88_5391" style="mask-type:luminance" maskUnits="userSpaceOnUse" x="23" y="98" width="29" height="21">
<path d="M51.0558 100.064C46.8423 100.276 45.2516 104.673 44.6571 107.638C44.0353 110.742 42.5567 113.541 40.3073 115.585C32.2487 122.901 23.3047 114.296 23.3047 114.296C23.3047 114.296 36.1658 118.716 39.8245 110.303C39.8245 110.303 42.5895 104.693 38.5172 98.3239C38.5172 98.3239 42.1852 99.8525 42.6668 103.876C43.6244 101.77 45.6452 98.8321 51.0558 100.064Z" fill="white"/>
</mask>
<g mask="url(#mask1_88_5391)">
<path d="M51.0558 100.064C46.8423 100.276 45.2516 104.673 44.6571 107.638C44.0353 110.742 42.5567 113.541 40.3073 115.585C32.2487 122.901 23.3047 114.296 23.3047 114.296C23.3047 114.296 36.1658 118.716 39.8245 110.303C39.8245 110.303 42.5895 104.693 38.5172 98.3239C38.5172 98.3239 42.1852 99.8525 42.6668 103.876C43.6244 101.77 45.6452 98.8321 51.0558 100.064Z" fill="#D2A339"/>
</g>
<mask id="mask2_88_5391" style="mask-type:luminance" maskUnits="userSpaceOnUse" x="23" y="119" width="16" height="15">
<path d="M23.1641 133.552C26.5784 131.634 26.1706 125.727 25.3277 121.411C25.2238 120.887 25.114 120.395 25.0085 119.936C25.4355 120.121 25.9065 120.31 26.3928 120.487C30.5139 122.031 36.2811 123.417 38.7342 120.368C39.4662 125.874 34.3339 127.037 27.4805 122.855C30.4673 130.309 28.477 135.18 23.1641 133.552Z" fill="white"/>
</mask>
<g mask="url(#mask2_88_5391)">
<path d="M23.1641 133.552C26.5784 131.634 26.1706 125.727 25.3277 121.411C25.2238 120.887 25.114 120.395 25.0085 119.936C25.4355 120.121 25.9065 120.31 26.3928 120.487C30.5139 122.031 36.2811 123.417 38.7342 120.368C39.4662 125.874 34.3339 127.037 27.4805 122.855C30.4673 130.309 28.477 135.18 23.1641 133.552Z" fill="#D2A339"/>
</g>
<mask id="mask3_88_5391" style="mask-type:luminance" maskUnits="userSpaceOnUse" x="28" y="127" width="17" height="14">
<path d="M44.4443 127.372C41.0302 129.289 41.4379 135.196 42.2804 139.516C42.3844 140.036 42.4945 140.529 42.6 140.991C42.1726 140.802 41.7021 140.613 41.2154 140.436C37.0942 138.892 31.3271 137.506 28.8743 140.556C28.142 135.049 33.2742 133.887 40.1276 138.068C37.1408 130.614 39.1311 125.743 44.4443 127.372Z" fill="white"/>
</mask>
<g mask="url(#mask3_88_5391)">
<path d="M44.4443 127.372C41.0302 129.289 41.4379 135.196 42.2804 139.516C42.3844 140.036 42.4945 140.529 42.6 140.991C42.1726 140.802 41.7021 140.613 41.2154 140.436C37.0942 138.892 31.3271 137.506 28.8743 140.556C28.142 135.049 33.2742 133.887 40.1276 138.068C37.1408 130.614 39.1311 125.743 44.4443 127.372Z" fill="#D2A339"/>
</g>
<mask id="mask4_88_5391" style="mask-type:luminance" maskUnits="userSpaceOnUse" x="31" y="127" width="6" height="6">
<path d="M33.6725 127.414C35.5134 128.904 36.0694 132.551 36.0694 132.551C36.0694 132.551 32.5636 131.403 31.3949 129.343C30.524 127.803 32.3006 126.301 33.6725 127.414Z" fill="white"/>
</mask>
<g mask="url(#mask4_88_5391)">
<path d="M33.6725 127.414C35.5134 128.904 36.0694 132.551 36.0694 132.551C36.0694 132.551 32.5636 131.403 31.3949 129.343C30.524 127.803 32.3006 126.301 33.6725 127.414Z" fill="#D2A339"/>
</g>
<mask id="mask5_88_5391" style="mask-type:luminance" maskUnits="userSpaceOnUse" x="6" y="100" width="16" height="15">
<path d="M21.8622 100.8C18.4481 102.717 18.8558 108.624 19.6985 112.94C19.8025 113.46 19.9124 113.957 20.018 114.415C19.5909 114.23 19.1201 114.041 18.6336 113.864C14.5125 112.32 8.74526 110.934 6.29226 113.984C5.56006 108.477 10.6923 107.315 17.5457 111.496C14.5591 104.042 16.549 99.1709 21.8622 100.8Z" fill="white"/>
</mask>
<g mask="url(#mask5_88_5391)">
<path d="M21.8622 100.8C18.4481 102.717 18.8558 108.624 19.6985 112.94C19.8025 113.46 19.9124 113.957 20.018 114.415C19.5909 114.23 19.1201 114.041 18.6336 113.864C14.5125 112.32 8.74526 110.934 6.29226 113.984C5.56006 108.477 10.6923 107.315 17.5457 111.496C14.5591 104.042 16.549 99.1709 21.8622 100.8Z" fill="#D2A339"/>
</g>
<mask id="mask6_88_5391" style="mask-type:luminance" maskUnits="userSpaceOnUse" x="7" y="99" width="6" height="7">
<path d="M9.97096 104.847C8.12999 103.353 7.57422 99.7062 7.57422 99.7062C7.57422 99.7062 11.0801 100.854 12.2488 102.917C13.1196 104.454 11.3428 105.959 9.97096 104.847Z" fill="white"/>
</mask>
<g mask="url(#mask6_88_5391)">
<path d="M9.97096 104.847C8.12999 103.353 7.57422 99.7062 7.57422 99.7062C7.57422 99.7062 11.0801 100.854 12.2488 102.917C13.1196 104.454 11.3428 105.959 9.97096 104.847Z" fill="#D2A339"/>
</g>
<mask id="mask7_88_5391" style="mask-type:luminance" maskUnits="userSpaceOnUse" x="16" y="145" width="14" height="32">
<path d="M29.3057 168.41C29.0689 167.971 28.7493 167.566 28.3654 167.22C27.4744 166.411 26.2484 165.918 25.0352 165.907C23.9277 165.895 22.548 166.331 22.0589 167.258C21.7825 167.786 21.6919 168.595 21.9708 169.168C22.158 169.557 22.4841 169.888 22.8893 170.1C23.6498 170.497 24.2705 170.173 25.019 170.331C27.5934 170.886 26.2326 172.645 25.3736 173.111C24.7954 173.423 24.0997 173.504 23.4154 173.473C16.5934 173.2 18.628 165.661 20.1099 162.141C21.6217 158.549 24.0969 155.26 25.091 151.472C25.6081 149.5 25.4845 146.816 23.8242 145.219C23.6403 145.438 23.4574 145.657 23.2748 145.877C23.1715 146.131 23.0571 146.381 22.9429 146.632C23.3666 147.979 23.2807 149.593 23.1679 150.709C22.88 153.555 21.5657 156.15 20.324 158.68C19.2619 160.844 18.2638 163.015 17.6553 165.352C17.1319 167.362 16.5057 169.807 17.2574 171.921C18.4066 175.152 22.4912 177.058 25.8276 175.964C29.0373 174.913 30.9733 171.494 29.3057 168.41Z" fill="white"/>
</mask>
<g mask="url(#mask7_88_5391)">
<path d="M29.3057 168.41C29.0689 167.971 28.7493 167.566 28.3654 167.22C27.4744 166.411 26.2484 165.918 25.0352 165.907C23.9277 165.895 22.548 166.331 22.0589 167.258C21.7825 167.786 21.6919 168.595 21.9708 169.168C22.158 169.557 22.4841 169.888 22.8893 170.1C23.6498 170.497 24.2705 170.173 25.019 170.331C27.5934 170.886 26.2326 172.645 25.3736 173.111C24.7954 173.423 24.0997 173.504 23.4154 173.473C16.5934 173.2 18.628 165.661 20.1099 162.141C21.6217 158.549 24.0969 155.26 25.091 151.472C25.6081 149.5 25.4845 146.816 23.8242 145.219C23.6403 145.438 23.4574 145.657 23.2748 145.877C23.1715 146.131 23.0571 146.381 22.9429 146.632C23.3666 147.979 23.2807 149.593 23.1679 150.709C22.88 153.555 21.5657 156.15 20.324 158.68C19.2619 160.844 18.2638 163.015 17.6553 165.352C17.1319 167.362 16.5057 169.807 17.2574 171.921C18.4066 175.152 22.4912 177.058 25.8276 175.964C29.0373 174.913 30.9733 171.494 29.3057 168.41Z" fill="#D2A339"/>
</g>
<mask id="mask8_88_5391" style="mask-type:luminance" maskUnits="userSpaceOnUse" x="0" y="134" width="26" height="58">
<path d="M0.523303 142.273C-0.0259621 144.348 0.307794 146.774 1.9048 148.507C3.502 150.239 6.50715 150.956 8.37219 149.72C10.2373 148.48 9.99511 145.257 7.76062 144.314C6.52806 143.79 5.01134 143.979 3.93787 143.205C3.0252 142.546 2.7534 141.345 3.07333 140.39C3.39342 139.439 4.19747 138.703 5.0885 138.145C11.8374 133.902 21.0768 139.058 22.4934 146.208C23.7828 152.715 19.1551 157.894 14.4235 162.399C11.9254 164.775 6.22665 165.911 4.31437 161.775C4.13085 161.379 3.86464 160.863 3.40663 160.89C3.23443 160.901 3.09124 160.997 2.96506 161.098C1.99733 161.864 1.53693 163.081 1.56985 164.29C1.61198 165.841 2.36793 167.532 3.5802 168.714C4.11688 169.237 6.01742 169.853 6.27551 170.389C6.56279 170.985 5.16762 173.088 4.89401 173.654C2.28368 179.048 -1.34112 184.812 0.503627 191.189C0.901608 192.563 2.18219 191.886 2.72949 191.112C3.85439 189.522 5.59537 188.309 6.56672 186.638C7.21648 186.896 7.78427 187.492 8.50172 187.766C9.32144 188.078 10.2081 188.205 11.0658 188.158C14.31 187.977 16.1897 185.733 16.6212 183.307C16.6959 182.883 16.1597 182.587 15.7401 182.837C13.1928 184.377 11.5482 180.974 11.4359 179.491C11.3061 177.785 11.5312 176.08 11.8059 174.416C12.3514 171.109 14.0078 168.329 16.0823 165.749C20.3544 161.606 24.0672 156.801 25.4734 151.163C26.5126 147.001 25.751 142.096 22.3482 138.8C21.0409 137.533 19.4129 136.57 17.6608 135.916C16.8069 135.6 15.9234 135.354 15.0331 135.18C8.85665 133.983 1.9507 136.878 0.523303 142.273Z" fill="white"/>
</mask>
<g mask="url(#mask8_88_5391)">
<path d="M0.523303 142.273C-0.0259621 144.348 0.307794 146.774 1.9048 148.507C3.502 150.239 6.50715 150.956 8.37219 149.72C10.2373 148.48 9.99511 145.257 7.76062 144.314C6.52806 143.79 5.01134 143.979 3.93787 143.205C3.0252 142.546 2.7534 141.345 3.07333 140.39C3.39342 139.439 4.19747 138.703 5.0885 138.145C11.8374 133.902 21.0768 139.058 22.4934 146.208C23.7828 152.715 19.1551 157.894 14.4235 162.399C11.9254 164.775 6.22665 165.911 4.31437 161.775C4.13085 161.379 3.86464 160.863 3.40663 160.89C3.23443 160.901 3.09124 160.997 2.96506 161.098C1.99733 161.864 1.53693 163.081 1.56985 164.29C1.61198 165.841 2.36793 167.532 3.5802 168.714C4.11688 169.237 6.01742 169.853 6.27551 170.389C6.56279 170.985 5.16762 173.088 4.89401 173.654C2.28368 179.048 -1.34112 184.812 0.503627 191.189C0.901608 192.563 2.18219 191.886 2.72949 191.112C3.85439 189.522 5.59537 188.309 6.56672 186.638C7.21648 186.896 7.78427 187.492 8.50172 187.766C9.32144 188.078 10.2081 188.205 11.0658 188.158C14.31 187.977 16.1897 185.733 16.6212 183.307C16.6959 182.883 16.1597 182.587 15.7401 182.837C13.1928 184.377 11.5482 180.974 11.4359 179.491C11.3061 177.785 11.5312 176.08 11.8059 174.416C12.3514 171.109 14.0078 168.329 16.0823 165.749C20.3544 161.606 24.0672 156.801 25.4734 151.163C26.5126 147.001 25.751 142.096 22.3482 138.8C21.0409 137.533 19.4129 136.57 17.6608 135.916C16.8069 135.6 15.9234 135.354 15.0331 135.18C8.85665 133.983 1.9507 136.878 0.523303 142.273Z" fill="#D2A339"/>
</g>
<mask id="mask9_88_5391" style="mask-type:luminance" maskUnits="userSpaceOnUse" x="52" y="115" width="32" height="14">
<path d="M75.9963 127.499C75.5585 127.26 75.1542 126.94 74.8065 126.555C73.9998 125.666 73.5054 124.442 73.4927 123.225C73.4812 122.12 73.9174 120.741 74.8469 120.252C75.3725 119.975 76.1815 119.883 76.7567 120.164C77.1429 120.348 77.4737 120.676 77.6858 121.08C78.0836 121.842 77.7598 122.462 77.9207 123.209C78.4732 125.785 80.2341 124.426 80.698 123.567C81.0103 122.986 81.09 122.293 81.0623 121.608C80.7866 114.785 73.2478 116.822 69.7281 118.3C66.1364 119.813 62.8478 122.289 59.0574 123.283C57.086 123.798 54.4057 123.675 52.8047 122.016C53.0242 121.831 53.2448 121.65 53.465 121.465C53.7199 121.365 53.9702 121.25 54.2205 121.134C55.5647 121.558 57.1815 121.473 58.2962 121.361C61.1436 121.072 63.7369 119.756 66.2662 118.516C68.4298 117.453 70.6033 116.456 72.9394 115.847C74.9493 115.324 77.3959 114.696 79.509 115.451C82.7399 116.598 84.6455 120.684 83.5516 124.018C82.4993 127.229 79.0808 129.166 75.9963 127.499Z" fill="white"/>
</mask>
<g mask="url(#mask9_88_5391)">
<path d="M75.9963 127.499C75.5585 127.26 75.1542 126.94 74.8065 126.555C73.9998 125.666 73.5054 124.442 73.4927 123.225C73.4812 122.12 73.9174 120.741 74.8469 120.252C75.3725 119.975 76.1815 119.883 76.7567 120.164C77.1429 120.348 77.4737 120.676 77.6858 121.08C78.0836 121.842 77.7598 122.462 77.9207 123.209C78.4732 125.785 80.2341 124.426 80.698 123.567C81.0103 122.986 81.09 122.293 81.0623 121.608C80.7866 114.785 73.2478 116.822 69.7281 118.3C66.1364 119.813 62.8478 122.289 59.0574 123.283C57.086 123.798 54.4057 123.675 52.8047 122.016C53.0242 121.831 53.2448 121.65 53.465 121.465C53.7199 121.365 53.9702 121.25 54.2205 121.134C55.5647 121.558 57.1815 121.473 58.2962 121.361C61.1436 121.072 63.7369 119.756 66.2662 118.516C68.4298 117.453 70.6033 116.456 72.9394 115.847C74.9493 115.324 77.3959 114.696 79.509 115.451C82.7399 116.598 84.6455 120.684 83.5516 124.018C82.4993 127.229 79.0808 129.166 75.9963 127.499Z" fill="#D2A339"/>
</g>
<mask id="mask10_88_5391" style="mask-type:luminance" maskUnits="userSpaceOnUse" x="42" y="98" width="58" height="27">
<path d="M49.8591 98.7092C51.9345 98.1586 54.363 98.4936 56.0938 100.092C57.8249 101.689 58.543 104.693 57.3059 106.56C56.0683 108.424 52.8459 108.181 51.8995 105.948C51.377 104.716 51.5672 103.199 50.7921 102.125C50.1337 101.212 48.9319 100.939 47.9782 101.258C47.0244 101.578 46.2905 102.383 45.7303 103.276C41.4887 110.022 46.644 119.263 53.795 120.68C60.3027 121.97 65.48 117.341 69.985 112.609C72.3634 110.11 73.4997 104.412 69.362 102.502C68.9646 102.317 68.4486 102.051 68.4787 101.593C68.4898 101.42 68.5853 101.277 68.6851 101.15C69.4525 100.184 70.6669 99.7219 71.8779 99.7565C73.4292 99.7989 75.1184 100.554 76.3005 101.766C76.8237 102.302 77.4398 104.204 77.9762 104.462C78.573 104.751 80.6749 103.353 81.2402 103.079C86.6358 100.469 92.3999 96.8456 98.7751 98.69C100.15 99.0866 99.4736 100.369 98.7 100.916C97.1102 102.04 95.895 103.78 94.2258 104.754C94.4818 105.401 95.0779 105.971 95.3517 106.687C95.6647 107.507 95.7929 108.393 95.7452 109.252C95.5646 112.498 93.3217 114.377 90.8929 114.808C90.472 114.881 90.1724 114.346 90.4262 113.926C91.9648 111.377 88.5599 109.733 87.079 109.621C85.3706 109.494 83.6671 109.718 82.0018 109.991C78.6966 110.538 75.9158 112.193 73.3375 114.269C69.1945 118.539 64.3876 122.255 58.7521 123.66C54.5867 124.7 49.6816 123.937 46.386 120.534C45.12 119.228 44.1589 117.599 43.5051 115.848C43.1863 114.993 42.9406 114.111 42.7678 113.218C41.5707 107.042 44.4674 100.138 49.8591 98.7092Z" fill="white"/>
</mask>
<g mask="url(#mask10_88_5391)">
<path d="M49.8591 98.7092C51.9345 98.1586 54.363 98.4936 56.0938 100.092C57.8249 101.689 58.543 104.693 57.3059 106.56C56.0683 108.424 52.8459 108.181 51.8995 105.948C51.377 104.716 51.5672 103.199 50.7921 102.125C50.1337 101.212 48.9319 100.939 47.9782 101.258C47.0244 101.578 46.2905 102.383 45.7303 103.276C41.4887 110.022 46.644 119.263 53.795 120.68C60.3027 121.97 65.48 117.341 69.985 112.609C72.3634 110.11 73.4997 104.412 69.362 102.502C68.9646 102.317 68.4486 102.051 68.4787 101.593C68.4898 101.42 68.5853 101.277 68.6851 101.15C69.4525 100.184 70.6669 99.7219 71.8779 99.7565C73.4292 99.7989 75.1184 100.554 76.3005 101.766C76.8237 102.302 77.4398 104.204 77.9762 104.462C78.573 104.751 80.6749 103.353 81.2402 103.079C86.6358 100.469 92.3999 96.8456 98.7751 98.69C100.15 99.0866 99.4736 100.369 98.7 100.916C97.1102 102.04 95.895 103.78 94.2258 104.754C94.4818 105.401 95.0779 105.971 95.3517 106.687C95.6647 107.507 95.7929 108.393 95.7452 109.252C95.5646 112.498 93.3217 114.377 90.8929 114.808C90.472 114.881 90.1724 114.346 90.4262 113.926C91.9648 111.377 88.5599 109.733 87.079 109.621C85.3706 109.494 83.6671 109.718 82.0018 109.991C78.6966 110.538 75.9158 112.193 73.3375 114.269C69.1945 118.539 64.3876 122.255 58.7521 123.66C54.5867 124.7 49.6816 123.937 46.386 120.534C45.12 119.228 44.1589 117.599 43.5051 115.848C43.1863 114.993 42.9406 114.111 42.7678 113.218C41.5707 107.042 44.4674 100.138 49.8591 98.7092Z" fill="#D2A339"/>
</g>
<mask id="mask11_88_5391" style="mask-type:luminance" maskUnits="userSpaceOnUse" x="26" y="124" width="44" height="44">
<path d="M62.4218 165.241C61.4595 165.325 60.465 165.356 59.5093 165.194C58.4146 165.013 57.3592 164.528 56.6057 163.701C55.6985 162.699 55.1402 161.413 54.7856 160.123C53.9866 157.22 54.7536 154.444 56.1336 151.833C56.9618 151.556 57.8151 151.348 58.6834 151.248C60.6171 151.021 62.6844 151.337 64.3054 152.469C67.3519 154.594 69.3044 159.515 67.0215 162.819C66.5456 163.504 65.9765 164.151 65.2464 164.559C64.8926 164.759 64.5129 164.894 64.1202 164.99C63.568 165.129 62.9901 165.191 62.4218 165.241ZM64.9007 124.969C64.2619 126.259 63.1918 127.345 62.6597 128.677C62.2142 128.561 61.8007 128.184 61.309 128.061C60.7476 127.922 60.1542 127.926 59.5913 128.053C57.4616 128.542 56.3677 130.398 56.241 132.231C56.2191 132.547 56.5926 132.708 56.8529 132.473C58.4339 131.064 59.7415 133.386 59.9124 134.46C60.1092 135.7 60.0722 136.978 59.9991 138.23C59.8547 140.717 58.9433 142.943 57.7419 145.064C57.308 145.665 56.8871 146.273 56.4828 146.897C56.5791 146.447 56.6615 145.992 56.7258 145.53C56.9403 143.998 57.194 142.13 56.5598 140.663C55.5907 138.415 52.7706 137.464 50.6398 138.634C48.5898 139.758 47.5352 142.485 48.837 144.564C49.0218 144.86 49.2594 145.122 49.5355 145.334C50.1758 145.831 51.0171 146.058 51.8192 145.935C52.5508 145.823 53.4329 145.349 53.6951 144.614C53.8434 144.198 53.8503 143.594 53.6285 143.201C53.4799 142.939 53.2431 142.731 52.9616 142.619C52.4337 142.411 52.0452 142.716 51.5408 142.681C49.8054 142.558 50.5886 141.114 51.1253 140.679C51.4865 140.386 51.9409 140.251 52.3941 140.197C56.9149 139.651 56.0639 145.411 55.3154 148.16C55.1718 148.688 55.005 149.211 54.826 149.731C54.7421 149.893 54.6608 150.058 54.58 150.22C53.8769 150.459 53.183 150.725 52.4988 151.025C51.9667 151.167 51.4334 151.298 50.8974 151.406C48.1051 151.968 42.3001 152.43 43.1488 147.956C43.2339 147.509 43.3991 147.067 43.7156 146.724C44.1857 146.216 45.6777 145.534 45.6843 147.271C45.6858 147.779 45.3547 148.145 45.5276 148.688C45.62 148.976 45.8106 149.223 46.0632 149.392C46.4394 149.639 47.0423 149.673 47.4682 149.55C48.2206 149.338 48.7508 148.491 48.9125 147.767C49.09 146.978 48.9187 146.123 48.4678 145.449C48.2737 145.161 48.0284 144.907 47.7458 144.702C45.7555 143.262 42.9666 144.133 41.7064 146.104C40.3961 148.149 41.1554 151.029 43.3328 152.145C44.7567 152.877 46.6353 152.75 48.1801 152.638C48.6433 152.604 49.1027 152.553 49.5594 152.488C48.911 152.85 48.2729 153.227 47.6469 153.62C45.449 154.675 43.1684 155.437 40.6768 155.414C39.4212 155.403 38.1455 155.353 36.9211 155.072C35.8595 154.833 33.6316 153.37 35.1449 151.887C35.394 151.645 35.2585 151.26 34.9404 151.26C33.1045 151.264 31.1812 152.23 30.5501 154.325C30.3834 154.875 30.3407 155.468 30.4427 156.038C30.5317 156.535 30.8786 156.974 30.9652 157.428C29.5999 157.867 28.4463 158.864 27.1152 159.415C26.4671 159.681 25.7775 160.439 26.7178 160.855C31.0784 162.784 35.8356 161.082 40.1681 160C40.6221 159.889 42.3679 159.219 42.7583 159.477C43.1095 159.704 43.2658 161.013 43.5646 161.421C44.2392 162.345 45.3535 163.031 46.4771 163.238C47.3542 163.396 48.3099 163.235 49.018 162.692C49.11 162.622 49.2017 162.542 49.2363 162.43C49.3287 162.133 48.9937 161.902 48.7327 161.737C46.012 160.02 47.7169 156.439 49.8339 155.083C50.991 154.344 52.1877 153.616 53.4137 152.992C52.9839 154.232 52.6659 155.503 52.4953 156.812C52.081 159.985 52.9039 163.504 55.3647 165.553C56.31 166.338 57.4474 166.866 58.6464 167.151C59.2309 167.293 59.83 167.378 60.4288 167.405C64.5834 167.605 68.9525 164.721 69.5428 160.601C69.6032 160.181 69.6194 159.75 69.5909 159.323C69.6898 158.822 69.7464 158.31 69.7561 157.798C69.7672 157.201 69.7245 156.596 69.6232 156.003C69.4168 154.787 68.9671 153.62 68.2459 152.623C66.3688 150.031 62.9123 148.973 59.7176 149.173C58.9956 149.219 58.2814 149.311 57.5741 149.442C58.05 148.726 58.5509 148.029 59.0557 147.344C60.5493 145.322 64.2365 143.863 65.7686 146.693C65.9156 146.966 66.1247 147.313 66.4251 147.244C66.5379 147.213 66.6264 147.128 66.7031 147.044C67.2918 146.374 67.5163 145.43 67.4158 144.545C67.2868 143.409 66.6776 142.25 65.8005 141.514C65.412 141.191 64.1175 140.944 63.9119 140.582C63.6835 140.174 64.4671 138.476 64.6107 138.03C65.9819 133.783 67.9983 129.15 66.365 124.669C66.0123 123.702 65.211 124.341 64.9007 124.969Z" fill="white"/>
</mask>
<g mask="url(#mask11_88_5391)">
<path d="M62.4218 165.241C61.4595 165.325 60.465 165.356 59.5093 165.194C58.4146 165.013 57.3592 164.528 56.6057 163.701C55.6985 162.699 55.1402 161.413 54.7856 160.123C53.9866 157.22 54.7536 154.444 56.1336 151.833C56.9618 151.556 57.8151 151.348 58.6834 151.248C60.6171 151.021 62.6844 151.337 64.3054 152.469C67.3519 154.594 69.3044 159.515 67.0215 162.819C66.5456 163.504 65.9765 164.151 65.2464 164.559C64.8926 164.759 64.5129 164.894 64.1202 164.99C63.568 165.129 62.9901 165.191 62.4218 165.241ZM64.9007 124.969C64.2619 126.259 63.1918 127.345 62.6597 128.677C62.2142 128.561 61.8007 128.184 61.309 128.061C60.7476 127.922 60.1542 127.926 59.5913 128.053C57.4616 128.542 56.3677 130.398 56.241 132.231C56.2191 132.547 56.5926 132.708 56.8529 132.473C58.4339 131.064 59.7415 133.386 59.9124 134.46C60.1092 135.7 60.0722 136.978 59.9991 138.23C59.8547 140.717 58.9433 142.943 57.7419 145.064C57.308 145.665 56.8871 146.273 56.4828 146.897C56.5791 146.447 56.6615 145.992 56.7258 145.53C56.9403 143.998 57.194 142.13 56.5598 140.663C55.5907 138.415 52.7706 137.464 50.6398 138.634C48.5898 139.758 47.5352 142.485 48.837 144.564C49.0218 144.86 49.2594 145.122 49.5355 145.334C50.1758 145.831 51.0171 146.058 51.8192 145.935C52.5508 145.823 53.4329 145.349 53.6951 144.614C53.8434 144.198 53.8503 143.594 53.6285 143.201C53.4799 142.939 53.2431 142.731 52.9616 142.619C52.4337 142.411 52.0452 142.716 51.5408 142.681C49.8054 142.558 50.5886 141.114 51.1253 140.679C51.4865 140.386 51.9409 140.251 52.3941 140.197C56.9149 139.651 56.0639 145.411 55.3154 148.16C55.1718 148.688 55.005 149.211 54.826 149.731C54.7421 149.893 54.6608 150.058 54.58 150.22C53.8769 150.459 53.183 150.725 52.4988 151.025C51.9667 151.167 51.4334 151.298 50.8974 151.406C48.1051 151.968 42.3001 152.43 43.1488 147.956C43.2339 147.509 43.3991 147.067 43.7156 146.724C44.1857 146.216 45.6777 145.534 45.6843 147.271C45.6858 147.779 45.3547 148.145 45.5276 148.688C45.62 148.976 45.8106 149.223 46.0632 149.392C46.4394 149.639 47.0423 149.673 47.4682 149.55C48.2206 149.338 48.7508 148.491 48.9125 147.767C49.09 146.978 48.9187 146.123 48.4678 145.449C48.2737 145.161 48.0284 144.907 47.7458 144.702C45.7555 143.262 42.9666 144.133 41.7064 146.104C40.3961 148.149 41.1554 151.029 43.3328 152.145C44.7567 152.877 46.6353 152.75 48.1801 152.638C48.6433 152.604 49.1027 152.553 49.5594 152.488C48.911 152.85 48.2729 153.227 47.6469 153.62C45.449 154.675 43.1684 155.437 40.6768 155.414C39.4212 155.403 38.1455 155.353 36.9211 155.072C35.8595 154.833 33.6316 153.37 35.1449 151.887C35.394 151.645 35.2585 151.26 34.9404 151.26C33.1045 151.264 31.1812 152.23 30.5501 154.325C30.3834 154.875 30.3407 155.468 30.4427 156.038C30.5317 156.535 30.8786 156.974 30.9652 157.428C29.5999 157.867 28.4463 158.864 27.1152 159.415C26.4671 159.681 25.7775 160.439 26.7178 160.855C31.0784 162.784 35.8356 161.082 40.1681 160C40.6221 159.889 42.3679 159.219 42.7583 159.477C43.1095 159.704 43.2658 161.013 43.5646 161.421C44.2392 162.345 45.3535 163.031 46.4771 163.238C47.3542 163.396 48.3099 163.235 49.018 162.692C49.11 162.622 49.2017 162.542 49.2363 162.43C49.3287 162.133 48.9937 161.902 48.7327 161.737C46.012 160.02 47.7169 156.439 49.8339 155.083C50.991 154.344 52.1877 153.616 53.4137 152.992C52.9839 154.232 52.6659 155.503 52.4953 156.812C52.081 159.985 52.9039 163.504 55.3647 165.553C56.31 166.338 57.4474 166.866 58.6464 167.151C59.2309 167.293 59.83 167.378 60.4288 167.405C64.5834 167.605 68.9525 164.721 69.5428 160.601C69.6032 160.181 69.6194 159.75 69.5909 159.323C69.6898 158.822 69.7464 158.31 69.7561 157.798C69.7672 157.201 69.7245 156.596 69.6232 156.003C69.4168 154.787 68.9671 153.62 68.2459 152.623C66.3688 150.031 62.9123 148.973 59.7176 149.173C58.9956 149.219 58.2814 149.311 57.5741 149.442C58.05 148.726 58.5509 148.029 59.0557 147.344C60.5493 145.322 64.2365 143.863 65.7686 146.693C65.9156 146.966 66.1247 147.313 66.4251 147.244C66.5379 147.213 66.6264 147.128 66.7031 147.044C67.2918 146.374 67.5163 145.43 67.4158 144.545C67.2868 143.409 66.6776 142.25 65.8005 141.514C65.412 141.191 64.1175 140.944 63.9119 140.582C63.6835 140.174 64.4671 138.476 64.6107 138.03C65.9819 133.783 67.9983 129.15 66.365 124.669C66.0123 123.702 65.211 124.341 64.9007 124.969Z" fill="#D2A339"/>
</g>
<mask id="mask12_88_5391" style="mask-type:luminance" maskUnits="userSpaceOnUse" x="98" y="108" width="59" height="3">
<path d="M155.881 108.481H99.9268C99.3866 108.481 98.9492 108.92 98.9492 109.459C98.9492 109.998 99.3866 110.437 99.9268 110.437H155.881C156.421 110.437 156.859 109.998 156.859 109.459C156.859 108.92 156.421 108.481 155.881 108.481Z" fill="white"/>
</mask>
<g mask="url(#mask12_88_5391)">
<path d="M155.881 108.481H99.9268C99.3866 108.481 98.9492 108.92 98.9492 109.459C98.9492 109.998 99.3866 110.437 99.9268 110.437H155.881C156.421 110.437 156.859 109.998 156.859 109.459C156.859 108.92 156.421 108.481 155.881 108.481Z" fill="#D2A339"/>
</g>
<mask id="mask13_88_5391" style="mask-type:luminance" maskUnits="userSpaceOnUse" x="9" y="193" width="3" height="59">
<path d="M10.0287 193.618C9.48846 193.618 9.05078 194.057 9.05078 194.596V250.551C9.05078 251.094 9.48846 251.529 10.0287 251.529C10.5684 251.529 11.0064 251.094 11.0064 250.551V194.596C11.0064 194.057 10.5684 193.618 10.0287 193.618Z" fill="white"/>
</mask>
<g mask="url(#mask13_88_5391)">
<path d="M10.0287 193.618C9.48846 193.618 9.05078 194.057 9.05078 194.596V250.551C9.05078 251.094 9.48846 251.529 10.0287 251.529C10.5684 251.529 11.0064 251.094 11.0064 250.551V194.596C11.0064 194.057 10.5684 193.618 10.0287 193.618Z" fill="#D2A339"/>
</g>
<mask id="mask14_88_5391" style="mask-type:luminance" maskUnits="userSpaceOnUse" x="457" y="117" width="22" height="26">
<path d="M478.883 142.357C477.98 138.237 473.384 137.39 470.359 137.294C467.197 137.19 464.191 136.197 461.806 134.314C453.263 127.572 460.274 117.329 460.274 117.329C460.274 117.329 458.033 130.744 466.935 132.966C466.935 132.966 472.927 134.768 478.534 129.701C478.534 129.701 477.631 133.571 473.743 134.71C475.978 135.307 479.209 136.817 478.883 142.357Z" fill="white"/>
</mask>
<g mask="url(#mask14_88_5391)">
<path d="M478.883 142.357C477.98 138.237 473.384 137.39 470.359 137.294C467.197 137.19 464.191 136.197 461.806 134.314C453.263 127.572 460.274 117.329 460.274 117.329C460.274 117.329 458.033 130.744 466.935 132.966C466.935 132.966 472.927 134.768 478.534 129.701C478.534 129.701 477.631 133.571 473.743 134.71C475.978 135.307 479.209 136.817 478.883 142.357Z" fill="#D2A339"/>
</g>
<mask id="mask15_88_5391" style="mask-type:luminance" maskUnits="userSpaceOnUse" x="428" y="98" width="29" height="21">
<path d="M428.944 100.064C433.158 100.276 434.748 104.673 435.343 107.638C435.965 110.742 437.443 113.541 439.693 115.585C447.751 122.901 456.695 114.296 456.695 114.296C456.695 114.296 443.834 118.716 440.176 110.303C440.176 110.303 437.411 104.693 441.483 98.3239C441.483 98.3239 437.815 99.8525 437.333 103.876C436.376 101.77 434.355 98.8321 428.944 100.064Z" fill="white"/>
</mask>
<g mask="url(#mask15_88_5391)">
<path d="M428.944 100.064C433.158 100.276 434.748 104.673 435.343 107.638C435.965 110.742 437.443 113.541 439.693 115.585C447.751 122.901 456.695 114.296 456.695 114.296C456.695 114.296 443.834 118.716 440.176 110.303C440.176 110.303 437.411 104.693 441.483 98.3239C441.483 98.3239 437.815 99.8525 437.333 103.876C436.376 101.77 434.355 98.8321 428.944 100.064Z" fill="#D2A339"/>
</g>
<mask id="mask16_88_5391" style="mask-type:luminance" maskUnits="userSpaceOnUse" x="441" y="119" width="16" height="15">
<path d="M456.836 133.551C453.422 131.634 453.829 125.727 454.672 121.411C454.776 120.887 454.886 120.395 454.991 119.936C454.564 120.121 454.094 120.31 453.607 120.487C449.486 122.031 443.719 123.417 441.266 120.368C440.534 125.874 445.666 127.036 452.519 122.855C449.533 130.309 451.523 135.18 456.836 133.551Z" fill="white"/>
</mask>
<g mask="url(#mask16_88_5391)">
<path d="M456.836 133.551C453.422 131.634 453.829 125.727 454.672 121.411C454.776 120.887 454.886 120.395 454.991 119.936C454.564 120.121 454.094 120.31 453.607 120.487C449.486 122.031 443.719 123.417 441.266 120.368C440.534 125.874 445.666 127.036 452.519 122.855C449.533 130.309 451.523 135.18 456.836 133.551Z" fill="#D2A339"/>
</g>
<mask id="mask17_88_5391" style="mask-type:luminance" maskUnits="userSpaceOnUse" x="435" y="127" width="17" height="14">
<path d="M435.556 127.372C438.97 129.289 438.562 135.196 437.72 139.516C437.616 140.036 437.506 140.528 437.4 140.99C437.827 140.802 438.298 140.613 438.785 140.436C442.906 138.892 448.673 137.506 451.126 140.555C451.858 135.049 446.726 133.886 439.872 138.068C442.859 130.614 440.869 125.743 435.556 127.372Z" fill="white"/>
</mask>
<g mask="url(#mask17_88_5391)">
<path d="M435.556 127.372C438.97 129.289 438.562 135.196 437.72 139.516C437.616 140.036 437.506 140.528 437.4 140.99C437.827 140.802 438.298 140.613 438.785 140.436C442.906 138.892 448.673 137.506 451.126 140.555C451.858 135.049 446.726 133.886 439.872 138.068C442.859 130.614 440.869 125.743 435.556 127.372Z" fill="#D2A339"/>
</g>
<mask id="mask18_88_5391" style="mask-type:luminance" maskUnits="userSpaceOnUse" x="443" y="127" width="6" height="6">
<path d="M446.328 127.414C444.487 128.904 443.931 132.551 443.931 132.551C443.931 132.551 447.436 131.403 448.605 129.343C449.476 127.803 447.699 126.301 446.328 127.414Z" fill="white"/>
</mask>
<g mask="url(#mask18_88_5391)">
<path d="M446.328 127.414C444.487 128.904 443.931 132.551 443.931 132.551C443.931 132.551 447.436 131.403 448.605 129.343C449.476 127.803 447.699 126.301 446.328 127.414Z" fill="#D2A339"/>
</g>
<mask id="mask19_88_5391" style="mask-type:luminance" maskUnits="userSpaceOnUse" x="458" y="100" width="16" height="15">
<path d="M458.138 100.8C461.552 102.717 461.144 108.624 460.301 112.94C460.198 113.46 460.088 113.956 459.982 114.415C460.409 114.23 460.88 114.041 461.366 113.864C465.488 112.32 471.255 110.934 473.708 113.983C474.44 108.477 469.308 107.314 462.454 111.496C465.441 104.042 463.451 99.1708 458.138 100.8Z" fill="white"/>
</mask>
<g mask="url(#mask19_88_5391)">
<path d="M458.138 100.8C461.552 102.717 461.144 108.624 460.301 112.94C460.198 113.46 460.088 113.956 459.982 114.415C460.409 114.23 460.88 114.041 461.366 113.864C465.488 112.32 471.255 110.934 473.708 113.983C474.44 108.477 469.308 107.314 462.454 111.496C465.441 104.042 463.451 99.1708 458.138 100.8Z" fill="#D2A339"/>
</g>
<mask id="mask20_88_5391" style="mask-type:luminance" maskUnits="userSpaceOnUse" x="467" y="99" width="6" height="7">
<path d="M470.029 104.846C471.87 103.352 472.426 99.7061 472.426 99.7061C472.426 99.7061 468.92 100.854 467.751 102.917C466.88 104.454 468.657 105.959 470.029 104.846Z" fill="white"/>
</mask>
<g mask="url(#mask20_88_5391)">
<path d="M470.029 104.846C471.87 103.352 472.426 99.7061 472.426 99.7061C472.426 99.7061 468.92 100.854 467.751 102.917C466.88 104.454 468.657 105.959 470.029 104.846Z" fill="#D2A339"/>
</g>
<mask id="mask21_88_5391" style="mask-type:luminance" maskUnits="userSpaceOnUse" x="450" y="145" width="14" height="32">
<path d="M450.694 168.41C450.931 167.971 451.251 167.566 451.635 167.22C452.526 166.411 453.752 165.918 454.965 165.907C456.072 165.895 457.452 166.33 457.941 167.258C458.218 167.786 458.308 168.594 458.029 169.168C457.842 169.557 457.516 169.888 457.111 170.1C456.35 170.497 455.73 170.173 454.981 170.331C452.407 170.885 453.767 172.645 454.626 173.111C455.205 173.423 455.9 173.504 456.585 173.473C463.407 173.2 461.372 165.66 459.89 162.141C458.378 158.549 455.903 155.26 454.909 151.472C454.392 149.5 454.515 146.816 456.176 145.218C456.36 145.438 456.543 145.657 456.725 145.877C456.829 146.131 456.943 146.381 457.057 146.631C456.633 147.979 456.719 149.592 456.832 150.709C457.12 153.555 458.434 156.15 459.676 158.68C460.738 160.843 461.736 163.015 462.345 165.352C462.868 167.362 463.494 169.807 462.743 171.921C461.593 175.152 457.509 177.058 454.172 175.964C450.963 174.913 449.027 171.494 450.694 168.41Z" fill="white"/>
</mask>
<g mask="url(#mask21_88_5391)">
<path d="M450.694 168.41C450.931 167.971 451.251 167.566 451.635 167.22C452.526 166.411 453.752 165.918 454.965 165.907C456.072 165.895 457.452 166.33 457.941 167.258C458.218 167.786 458.308 168.594 458.029 169.168C457.842 169.557 457.516 169.888 457.111 170.1C456.35 170.497 455.73 170.173 454.981 170.331C452.407 170.885 453.767 172.645 454.626 173.111C455.205 173.423 455.9 173.504 456.585 173.473C463.407 173.2 461.372 165.66 459.89 162.141C458.378 158.549 455.903 155.26 454.909 151.472C454.392 149.5 454.515 146.816 456.176 145.218C456.36 145.438 456.543 145.657 456.725 145.877C456.829 146.131 456.943 146.381 457.057 146.631C456.633 147.979 456.719 149.592 456.832 150.709C457.12 153.555 458.434 156.15 459.676 158.68C460.738 160.843 461.736 163.015 462.345 165.352C462.868 167.362 463.494 169.807 462.743 171.921C461.593 175.152 457.509 177.058 454.172 175.964C450.963 174.913 449.027 171.494 450.694 168.41Z" fill="#D2A339"/>
</g>
<mask id="mask22_88_5391" style="mask-type:luminance" maskUnits="userSpaceOnUse" x="454" y="134" width="26" height="58">
<path d="M479.477 142.273C480.026 144.348 479.692 146.774 478.095 148.507C476.498 150.239 473.493 150.956 471.628 149.72C469.763 148.48 470.005 145.257 472.239 144.314C473.472 143.79 474.989 143.979 476.062 143.205C476.975 142.546 477.247 141.345 476.927 140.39C476.607 139.439 475.803 138.703 474.912 138.145C468.163 133.902 458.923 139.058 457.507 146.208C456.217 152.715 460.845 157.894 465.576 162.399C468.075 164.775 473.773 165.911 475.686 161.775C475.869 161.379 476.135 160.863 476.593 160.89C476.766 160.901 476.909 160.997 477.035 161.098C478.003 161.864 478.463 163.081 478.43 164.29C478.388 165.841 477.632 167.532 476.42 168.714C475.883 169.237 473.983 169.853 473.724 170.389C473.437 170.985 474.832 173.088 475.106 173.654C477.716 179.048 481.341 184.812 479.496 191.189C479.098 192.563 477.818 191.886 477.271 191.112C476.146 189.522 474.405 188.309 473.433 186.638C472.784 186.896 472.216 187.492 471.498 187.766C470.679 188.078 469.792 188.205 468.934 188.158C465.69 187.977 463.81 185.733 463.379 183.307C463.304 182.883 463.84 182.587 464.26 182.837C466.807 184.377 468.452 180.974 468.564 179.491C468.694 177.785 468.469 176.08 468.194 174.416C467.649 171.109 465.992 168.329 463.918 165.749C459.646 161.606 455.933 156.801 454.527 151.163C453.487 147.001 454.249 142.096 457.652 138.8C458.959 137.533 460.587 136.57 462.339 135.916C463.193 135.6 464.077 135.354 464.967 135.18C471.143 133.983 478.049 136.878 479.477 142.273Z" fill="white"/>
</mask>
<g mask="url(#mask22_88_5391)">
<path d="M479.477 142.273C480.026 144.348 479.692 146.774 478.095 148.507C476.498 150.239 473.493 150.956 471.628 149.72C469.763 148.48 470.005 145.257 472.239 144.314C473.472 143.79 474.989 143.979 476.062 143.205C476.975 142.546 477.247 141.345 476.927 140.39C476.607 139.439 475.803 138.703 474.912 138.145C468.163 133.902 458.923 139.058 457.507 146.208C456.217 152.715 460.845 157.894 465.576 162.399C468.075 164.775 473.773 165.911 475.686 161.775C475.869 161.379 476.135 160.863 476.593 160.89C476.766 160.901 476.909 160.997 477.035 161.098C478.003 161.864 478.463 163.081 478.43 164.29C478.388 165.841 477.632 167.532 476.42 168.714C475.883 169.237 473.983 169.853 473.724 170.389C473.437 170.985 474.832 173.088 475.106 173.654C477.716 179.048 481.341 184.812 479.496 191.189C479.098 192.563 477.818 191.886 477.271 191.112C476.146 189.522 474.405 188.309 473.433 186.638C472.784 186.896 472.216 187.492 471.498 187.766C470.679 188.078 469.792 188.205 468.934 188.158C465.69 187.977 463.81 185.733 463.379 183.307C463.304 182.883 463.84 182.587 464.26 182.837C466.807 184.377 468.452 180.974 468.564 179.491C468.694 177.785 468.469 176.08 468.194 174.416C467.649 171.109 465.992 168.329 463.918 165.749C459.646 161.606 455.933 156.801 454.527 151.163C453.487 147.001 454.249 142.096 457.652 138.8C458.959 137.533 460.587 136.57 462.339 135.916C463.193 135.6 464.077 135.354 464.967 135.18C471.143 133.983 478.049 136.878 479.477 142.273Z" fill="#D2A339"/>
</g>
<mask id="mask23_88_5391" style="mask-type:luminance" maskUnits="userSpaceOnUse" x="396" y="115" width="32" height="14">
<path d="M404.004 127.499C404.442 127.26 404.846 126.94 405.194 126.555C406 125.666 406.495 124.442 406.507 123.225C406.519 122.12 406.083 120.741 405.153 120.252C404.628 119.975 403.819 119.883 403.243 120.164C402.857 120.348 402.526 120.676 402.314 121.08C401.916 121.842 402.24 122.462 402.079 123.209C401.527 125.785 399.766 124.426 399.302 123.567C398.99 122.986 398.91 122.293 398.938 121.608C399.213 114.785 406.752 116.822 410.272 118.3C413.864 119.813 417.152 122.289 420.943 123.283C422.914 123.798 425.594 123.675 427.195 122.016C426.976 121.831 426.755 121.65 426.535 121.465C426.28 121.365 426.03 121.25 425.78 121.134C424.435 121.558 422.819 121.473 421.704 121.361C418.856 121.072 416.263 119.756 413.734 118.516C411.57 117.453 409.397 116.456 407.061 115.847C405.051 115.324 402.604 114.696 400.491 115.451C397.26 116.598 395.355 120.684 396.448 124.018C397.501 127.229 400.919 129.166 404.004 127.499Z" fill="white"/>
</mask>
<g mask="url(#mask23_88_5391)">
<path d="M404.004 127.499C404.442 127.26 404.846 126.94 405.194 126.555C406 125.666 406.495 124.442 406.507 123.225C406.519 122.12 406.083 120.741 405.153 120.252C404.628 119.975 403.819 119.883 403.243 120.164C402.857 120.348 402.526 120.676 402.314 121.08C401.916 121.842 402.24 122.462 402.079 123.209C401.527 125.785 399.766 124.426 399.302 123.567C398.99 122.986 398.91 122.293 398.938 121.608C399.213 114.785 406.752 116.822 410.272 118.3C413.864 119.813 417.152 122.289 420.943 123.283C422.914 123.798 425.594 123.675 427.195 122.016C426.976 121.831 426.755 121.65 426.535 121.465C426.28 121.365 426.03 121.25 425.78 121.134C424.435 121.558 422.819 121.473 421.704 121.361C418.856 121.072 416.263 119.756 413.734 118.516C411.57 117.453 409.397 116.456 407.061 115.847C405.051 115.324 402.604 114.696 400.491 115.451C397.26 116.598 395.355 120.684 396.448 124.018C397.501 127.229 400.919 129.166 404.004 127.499Z" fill="#D2A339"/>
</g>
<mask id="mask24_88_5391" style="mask-type:luminance" maskUnits="userSpaceOnUse" x="380" y="98" width="58" height="27">
<path d="M430.141 98.7091C428.065 98.1585 425.637 98.4935 423.906 100.091C422.175 101.689 421.457 104.693 422.694 106.56C423.932 108.424 427.154 108.181 428.101 105.948C428.623 104.716 428.433 103.199 429.208 102.124C429.866 101.212 431.068 100.938 432.022 101.258C432.976 101.578 433.709 102.382 434.27 103.276C438.511 110.022 433.356 119.263 426.205 120.68C419.697 121.97 414.52 117.341 410.015 112.609C407.637 110.11 406.5 104.412 410.638 102.502C411.035 102.317 411.551 102.051 411.521 101.593C411.51 101.42 411.415 101.277 411.315 101.15C410.548 100.184 409.333 99.7217 408.122 99.7564C406.571 99.7987 404.882 100.553 403.7 101.766C403.176 102.302 402.56 104.204 402.024 104.462C401.427 104.75 399.325 103.353 398.76 103.079C393.364 100.469 387.6 96.8455 381.225 98.6899C379.85 99.0864 380.526 100.369 381.3 100.915C382.89 102.04 384.105 103.78 385.774 104.754C385.518 105.401 384.922 105.971 384.648 106.687C384.335 107.507 384.207 108.393 384.255 109.252C384.435 112.498 386.678 114.377 389.107 114.808C389.528 114.881 389.828 114.346 389.574 113.926C388.035 111.377 391.44 109.733 392.921 109.621C394.629 109.494 396.333 109.718 397.998 109.991C401.303 110.538 404.084 112.193 406.662 114.269C410.806 118.539 415.612 122.255 421.248 123.66C425.413 124.7 430.318 123.937 433.614 120.533C434.88 119.228 435.841 117.599 436.495 115.847C436.814 114.993 437.059 114.111 437.232 113.218C438.429 107.041 435.533 100.138 430.141 98.7091Z" fill="white"/>
</mask>
<g mask="url(#mask24_88_5391)">
<path d="M430.141 98.7091C428.065 98.1585 425.637 98.4935 423.906 100.091C422.175 101.689 421.457 104.693 422.694 106.56C423.932 108.424 427.154 108.181 428.101 105.948C428.623 104.716 428.433 103.199 429.208 102.124C429.866 101.212 431.068 100.938 432.022 101.258C432.976 101.578 433.709 102.382 434.27 103.276C438.511 110.022 433.356 119.263 426.205 120.68C419.697 121.97 414.52 117.341 410.015 112.609C407.637 110.11 406.5 104.412 410.638 102.502C411.035 102.317 411.551 102.051 411.521 101.593C411.51 101.42 411.415 101.277 411.315 101.15C410.548 100.184 409.333 99.7217 408.122 99.7564C406.571 99.7987 404.882 100.553 403.7 101.766C403.176 102.302 402.56 104.204 402.024 104.462C401.427 104.75 399.325 103.353 398.76 103.079C393.364 100.469 387.6 96.8455 381.225 98.6899C379.85 99.0864 380.526 100.369 381.3 100.915C382.89 102.04 384.105 103.78 385.774 104.754C385.518 105.401 384.922 105.971 384.648 106.687C384.335 107.507 384.207 108.393 384.255 109.252C384.435 112.498 386.678 114.377 389.107 114.808C389.528 114.881 389.828 114.346 389.574 113.926C388.035 111.377 391.44 109.733 392.921 109.621C394.629 109.494 396.333 109.718 397.998 109.991C401.303 110.538 404.084 112.193 406.662 114.269C410.806 118.539 415.612 122.255 421.248 123.66C425.413 124.7 430.318 123.937 433.614 120.533C434.88 119.228 435.841 117.599 436.495 115.847C436.814 114.993 437.059 114.111 437.232 113.218C438.429 107.041 435.533 100.138 430.141 98.7091Z" fill="#D2A339"/>
</g>
<mask id="mask25_88_5391" style="mask-type:luminance" maskUnits="userSpaceOnUse" x="410" y="124" width="44" height="44">
<path d="M417.578 165.241C418.54 165.325 419.535 165.356 420.491 165.194C421.585 165.013 422.641 164.528 423.394 163.701C424.301 162.699 424.86 161.413 425.214 160.123C426.013 157.22 425.246 154.444 423.866 151.833C423.038 151.556 422.185 151.348 421.317 151.248C419.383 151.021 417.316 151.337 415.695 152.469C412.648 154.594 410.696 159.515 412.979 162.819C413.454 163.504 414.024 164.151 414.754 164.559C415.107 164.759 415.487 164.894 415.88 164.99C416.432 165.129 417.01 165.191 417.578 165.241ZM415.099 124.969C415.738 126.259 416.808 127.345 417.34 128.677C417.786 128.561 418.199 128.184 418.691 128.061C419.252 127.922 419.846 127.926 420.409 128.053C422.538 128.542 423.632 130.398 423.759 132.231C423.781 132.547 423.407 132.708 423.147 132.473C421.566 131.064 420.259 133.386 420.088 134.46C419.891 135.7 419.928 136.978 420.001 138.23C420.145 140.717 421.057 142.943 422.258 145.064C422.692 145.665 423.113 146.273 423.517 146.897C423.421 146.447 423.339 145.992 423.274 145.53C423.06 143.998 422.806 142.13 423.44 140.663C424.409 138.415 427.229 137.464 429.36 138.634C431.41 139.758 432.465 142.485 431.163 144.564C430.978 144.86 430.741 145.122 430.465 145.334C429.824 145.831 428.983 146.058 428.181 145.935C427.449 145.823 426.567 145.349 426.305 144.614C426.157 144.198 426.15 143.594 426.371 143.201C426.52 142.939 426.757 142.731 427.038 142.619C427.566 142.411 427.955 142.716 428.459 142.681C430.195 142.558 429.411 141.114 428.875 140.679C428.513 140.386 428.059 140.251 427.606 140.197C423.085 139.651 423.936 145.411 424.685 148.16C424.828 148.688 424.995 149.211 425.174 149.731C425.258 149.893 425.339 150.058 425.42 150.22C426.123 150.459 426.817 150.725 427.501 151.025C428.033 151.167 428.567 151.298 429.103 151.406C431.895 151.968 437.7 152.43 436.851 147.956C436.766 147.509 436.601 147.067 436.284 146.724C435.814 146.216 434.322 145.534 434.316 147.271C434.314 147.779 434.645 148.145 434.472 148.688C434.38 148.976 434.189 149.223 433.937 149.392C433.561 149.639 432.958 149.673 432.532 149.55C431.779 149.338 431.249 148.491 431.088 147.767C430.91 146.978 431.081 146.123 431.532 145.449C431.726 145.161 431.972 144.907 432.254 144.702C434.244 143.262 437.033 144.133 438.294 146.104C439.604 148.149 438.845 151.029 436.667 152.145C435.243 152.877 433.365 152.75 431.82 152.638C431.357 152.604 430.897 152.553 430.441 152.488C431.089 152.85 431.727 153.227 432.353 153.62C434.551 154.675 436.832 155.437 439.323 155.414C440.579 155.403 441.854 155.353 443.079 155.072C444.14 154.833 446.368 153.37 444.855 151.887C444.606 151.645 444.742 151.26 445.06 151.26C446.895 151.264 448.819 152.23 449.45 154.325C449.617 154.875 449.659 155.468 449.557 156.038C449.468 156.535 449.121 156.974 449.035 157.428C450.4 157.867 451.554 158.864 452.885 159.415C453.533 159.681 454.222 160.439 453.282 160.855C448.922 162.784 444.164 161.082 439.832 160C439.378 159.889 437.632 159.219 437.242 159.477C436.891 159.704 436.734 161.013 436.435 161.421C435.761 162.345 434.646 163.031 433.523 163.238C432.646 163.396 431.69 163.235 430.982 162.692C430.89 162.622 430.798 162.542 430.764 162.43C430.671 162.133 431.006 161.902 431.267 161.737C433.988 160.02 432.283 156.439 430.166 155.083C429.009 154.344 427.812 153.616 426.586 152.992C427.016 154.232 427.334 155.503 427.505 156.812C427.919 159.985 427.096 163.504 424.635 165.553C423.69 166.338 422.553 166.866 421.354 167.151C420.769 167.293 420.17 167.378 419.571 167.405C415.417 167.605 411.048 164.721 410.457 160.601C410.397 160.181 410.381 159.75 410.409 159.323C410.31 158.822 410.254 158.31 410.244 157.798C410.233 157.201 410.276 156.596 410.377 156.003C410.583 154.787 411.033 153.62 411.754 152.623C413.631 150.031 417.088 148.973 420.282 149.173C421.004 149.219 421.719 149.311 422.426 149.442C421.95 148.726 421.449 148.029 420.944 147.344C419.451 145.322 415.764 143.863 414.231 146.693C414.084 146.966 413.875 147.313 413.575 147.244C413.462 147.213 413.374 147.128 413.297 147.044C412.708 146.374 412.484 145.43 412.584 144.545C412.713 143.409 413.322 142.25 414.199 141.514C414.588 141.191 415.883 140.944 416.088 140.582C416.316 140.174 415.533 138.476 415.389 138.03C414.018 133.783 412.002 129.15 413.635 124.669C413.988 123.702 414.789 124.341 415.099 124.969Z" fill="white"/>
</mask>
<g mask="url(#mask25_88_5391)">
<path d="M417.578 165.241C418.54 165.325 419.535 165.356 420.491 165.194C421.585 165.013 422.641 164.528 423.394 163.701C424.301 162.699 424.86 161.413 425.214 160.123C426.013 157.22 425.246 154.444 423.866 151.833C423.038 151.556 422.185 151.348 421.317 151.248C419.383 151.021 417.316 151.337 415.695 152.469C412.648 154.594 410.696 159.515 412.979 162.819C413.454 163.504 414.024 164.151 414.754 164.559C415.107 164.759 415.487 164.894 415.88 164.99C416.432 165.129 417.01 165.191 417.578 165.241ZM415.099 124.969C415.738 126.259 416.808 127.345 417.34 128.677C417.786 128.561 418.199 128.184 418.691 128.061C419.252 127.922 419.846 127.926 420.409 128.053C422.538 128.542 423.632 130.398 423.759 132.231C423.781 132.547 423.407 132.708 423.147 132.473C421.566 131.064 420.259 133.386 420.088 134.46C419.891 135.7 419.928 136.978 420.001 138.23C420.145 140.717 421.057 142.943 422.258 145.064C422.692 145.665 423.113 146.273 423.517 146.897C423.421 146.447 423.339 145.992 423.274 145.53C423.06 143.998 422.806 142.13 423.44 140.663C424.409 138.415 427.229 137.464 429.36 138.634C431.41 139.758 432.465 142.485 431.163 144.564C430.978 144.86 430.741 145.122 430.465 145.334C429.824 145.831 428.983 146.058 428.181 145.935C427.449 145.823 426.567 145.349 426.305 144.614C426.157 144.198 426.15 143.594 426.371 143.201C426.52 142.939 426.757 142.731 427.038 142.619C427.566 142.411 427.955 142.716 428.459 142.681C430.195 142.558 429.411 141.114 428.875 140.679C428.513 140.386 428.059 140.251 427.606 140.197C423.085 139.651 423.936 145.411 424.685 148.16C424.828 148.688 424.995 149.211 425.174 149.731C425.258 149.893 425.339 150.058 425.42 150.22C426.123 150.459 426.817 150.725 427.501 151.025C428.033 151.167 428.567 151.298 429.103 151.406C431.895 151.968 437.7 152.43 436.851 147.956C436.766 147.509 436.601 147.067 436.284 146.724C435.814 146.216 434.322 145.534 434.316 147.271C434.314 147.779 434.645 148.145 434.472 148.688C434.38 148.976 434.189 149.223 433.937 149.392C433.561 149.639 432.958 149.673 432.532 149.55C431.779 149.338 431.249 148.491 431.088 147.767C430.91 146.978 431.081 146.123 431.532 145.449C431.726 145.161 431.972 144.907 432.254 144.702C434.244 143.262 437.033 144.133 438.294 146.104C439.604 148.149 438.845 151.029 436.667 152.145C435.243 152.877 433.365 152.75 431.82 152.638C431.357 152.604 430.897 152.553 430.441 152.488C431.089 152.85 431.727 153.227 432.353 153.62C434.551 154.675 436.832 155.437 439.323 155.414C440.579 155.403 441.854 155.353 443.079 155.072C444.14 154.833 446.368 153.37 444.855 151.887C444.606 151.645 444.742 151.26 445.06 151.26C446.895 151.264 448.819 152.23 449.45 154.325C449.617 154.875 449.659 155.468 449.557 156.038C449.468 156.535 449.121 156.974 449.035 157.428C450.4 157.867 451.554 158.864 452.885 159.415C453.533 159.681 454.222 160.439 453.282 160.855C448.922 162.784 444.164 161.082 439.832 160C439.378 159.889 437.632 159.219 437.242 159.477C436.891 159.704 436.734 161.013 436.435 161.421C435.761 162.345 434.646 163.031 433.523 163.238C432.646 163.396 431.69 163.235 430.982 162.692C430.89 162.622 430.798 162.542 430.764 162.43C430.671 162.133 431.006 161.902 431.267 161.737C433.988 160.02 432.283 156.439 430.166 155.083C429.009 154.344 427.812 153.616 426.586 152.992C427.016 154.232 427.334 155.503 427.505 156.812C427.919 159.985 427.096 163.504 424.635 165.553C423.69 166.338 422.553 166.866 421.354 167.151C420.769 167.293 420.17 167.378 419.571 167.405C415.417 167.605 411.048 164.721 410.457 160.601C410.397 160.181 410.381 159.75 410.409 159.323C410.31 158.822 410.254 158.31 410.244 157.798C410.233 157.201 410.276 156.596 410.377 156.003C410.583 154.787 411.033 153.62 411.754 152.623C413.631 150.031 417.088 148.973 420.282 149.173C421.004 149.219 421.719 149.311 422.426 149.442C421.95 148.726 421.449 148.029 420.944 147.344C419.451 145.322 415.764 143.863 414.231 146.693C414.084 146.966 413.875 147.313 413.575 147.244C413.462 147.213 413.374 147.128 413.297 147.044C412.708 146.374 412.484 145.43 412.584 144.545C412.713 143.409 413.322 142.25 414.199 141.514C414.588 141.191 415.883 140.944 416.088 140.582C416.316 140.174 415.533 138.476 415.389 138.03C414.018 133.783 412.002 129.15 413.635 124.669C413.988 123.702 414.789 124.341 415.099 124.969Z" fill="#D2A339"/>
</g>
<mask id="mask26_88_5391" style="mask-type:luminance" maskUnits="userSpaceOnUse" x="323" y="108" width="59" height="3">
<path d="M324.119 108.481H380.073C380.613 108.481 381.051 108.92 381.051 109.459C381.051 109.998 380.613 110.437 380.073 110.437H324.119C323.579 110.437 323.141 109.998 323.141 109.459C323.141 108.92 323.579 108.481 324.119 108.481Z" fill="white"/>
</mask>
<g mask="url(#mask26_88_5391)">
<path d="M324.119 108.481H380.073C380.613 108.481 381.051 108.92 381.051 109.459C381.051 109.998 380.613 110.437 380.073 110.437H324.119C323.579 110.437 323.141 109.998 323.141 109.459C323.141 108.92 323.579 108.481 324.119 108.481Z" fill="#D2A339"/>
</g>
<mask id="mask27_88_5391" style="mask-type:luminance" maskUnits="userSpaceOnUse" x="468" y="193" width="3" height="59">
<path d="M469.971 193.619C470.512 193.619 470.949 194.057 470.949 194.597V250.551C470.949 251.094 470.512 251.529 469.971 251.529C469.432 251.529 468.994 251.094 468.994 250.551V194.597C468.994 194.057 469.432 193.619 469.971 193.619Z" fill="white"/>
</mask>
<g mask="url(#mask27_88_5391)">
<path d="M469.971 193.619C470.512 193.619 470.949 194.057 470.949 194.597V250.551C470.949 251.094 470.512 251.529 469.971 251.529C469.432 251.529 468.994 251.094 468.994 250.551V194.597C468.994 194.057 469.432 193.619 469.971 193.619Z" fill="#D2A339"/>
</g>
<mask id="mask28_88_5391" style="mask-type:luminance" maskUnits="userSpaceOnUse" x="208" y="96" width="34" height="13">
<path d="M208.72 105.323C212.096 106.605 215.682 105.265 218.96 104.382C219.303 104.292 220.618 103.769 220.923 103.943C221.196 104.099 221.349 105.036 221.587 105.323C222.126 105.973 222.993 106.437 223.856 106.557C224.529 106.652 225.254 106.514 225.78 106.107C225.849 106.053 225.917 105.991 225.94 105.911C226.003 105.697 225.741 105.537 225.538 105.425C223.419 104.255 224.628 101.638 226.208 100.61C229.202 98.6675 232.56 96.8193 236.067 97.8469C239.92 98.9797 241.869 103.674 238.82 106.59C238.417 106.971 237.926 107.305 237.361 107.392C236.796 107.483 236.152 107.276 235.876 106.804C235.551 106.245 235.81 105.544 235.642 104.927C235.338 103.812 233.562 103.489 232.683 104.288C231.804 105.09 231.902 106.554 232.708 107.421C233.515 108.286 234.838 108.602 236.053 108.478C239.21 108.151 241.524 105.076 241.476 102.084C241.47 101.652 241.421 101.22 241.329 100.795C241.035 99.4408 240.196 98.2136 239.026 97.3857C237.656 96.4163 235.9 96.0387 234.209 96.0859C234.004 96.0932 233.799 96.1004 233.597 96.1222C230.307 96.42 227.247 97.8614 224.502 99.6115C222.852 100.425 221.132 101.027 219.23 101.071C218.272 101.093 217.297 101.089 216.356 100.915C215.54 100.766 213.803 99.7712 214.919 98.6675C215.104 98.4859 214.99 98.2136 214.747 98.2208C213.347 98.268 211.905 99.0087 211.477 100.53C211.364 100.933 211.346 101.358 211.438 101.768C211.519 102.124 211.795 102.429 211.873 102.752C210.842 103.104 209.988 103.849 208.986 104.277C208.499 104.484 207.992 105.043 208.72 105.323Z" fill="white"/>
</mask>
<g mask="url(#mask28_88_5391)">
<path d="M208.72 105.323C212.096 106.605 215.682 105.265 218.96 104.382C219.303 104.292 220.618 103.769 220.923 103.943C221.196 104.099 221.349 105.036 221.587 105.323C222.126 105.973 222.993 106.437 223.856 106.557C224.529 106.652 225.254 106.514 225.78 106.107C225.849 106.053 225.917 105.991 225.94 105.911C226.003 105.697 225.741 105.537 225.538 105.425C223.419 104.255 224.628 101.638 226.208 100.61C229.202 98.6675 232.56 96.8193 236.067 97.8469C239.92 98.9797 241.869 103.674 238.82 106.59C238.417 106.971 237.926 107.305 237.361 107.392C236.796 107.483 236.152 107.276 235.876 106.804C235.551 106.245 235.81 105.544 235.642 104.927C235.338 103.812 233.562 103.489 232.683 104.288C231.804 105.09 231.902 106.554 232.708 107.421C233.515 108.286 234.838 108.602 236.053 108.478C239.21 108.151 241.524 105.076 241.476 102.084C241.47 101.652 241.421 101.22 241.329 100.795C241.035 99.4408 240.196 98.2136 239.026 97.3857C237.656 96.4163 235.9 96.0387 234.209 96.0859C234.004 96.0932 233.799 96.1004 233.597 96.1222C230.307 96.42 227.247 97.8614 224.502 99.6115C222.852 100.425 221.132 101.027 219.23 101.071C218.272 101.093 217.297 101.089 216.356 100.915C215.54 100.766 213.803 99.7712 214.919 98.6675C215.104 98.4859 214.99 98.2136 214.747 98.2208C213.347 98.268 211.905 99.0087 211.477 100.53C211.364 100.933 211.346 101.358 211.438 101.768C211.519 102.124 211.795 102.429 211.873 102.752C210.842 103.104 209.988 103.849 208.986 104.277C208.499 104.484 207.992 105.043 208.72 105.323Z" fill="#D2A339"/>
</g>
<mask id="mask29_88_5391" style="mask-type:luminance" maskUnits="userSpaceOnUse" x="177" y="88" width="64" height="20">
<path d="M240.633 96.7648C240.192 96.4961 239.796 96.1439 239.393 95.8098C233.005 90.5051 223.339 89.9351 215.771 93.2428C213.884 94.0707 212.058 95.0038 210.331 96.1076C209.281 96.7793 208.303 97.5236 207.307 98.2571C206.327 98.9796 205.081 99.5387 204.325 100.494C203.892 101.042 203.6 101.743 203.236 102.338C202.863 102.945 202.47 103.54 202.026 104.103C201.038 105.359 199.841 106.328 198.267 106.884C196.893 107.371 195.415 107.494 193.959 107.527C193.344 107.541 192.745 107.567 192.135 107.61C191.808 107.632 191.17 107.708 191.062 107.302C190.983 107.007 192.94 105.236 192.977 104.934C188.878 106.267 184.043 105.337 180.829 102.592C179.454 101.42 178.35 99.9018 177.985 98.1881C177.512 95.966 178.318 93.6567 179.561 91.7215C180.208 90.7157 180.988 89.7645 181.992 89.0637C182.995 88.3629 184.242 87.9236 185.487 88.018C186.732 88.1124 187.952 88.7913 188.488 89.8552C188.756 90.3889 188.848 90.999 188.745 91.5835C188.617 92.3061 188.157 93.0032 187.447 93.3082C185.913 93.9618 183.946 92.6183 182.502 93.4353C181.903 93.7766 181.564 94.4265 181.467 95.08C181.215 96.7611 182.39 98.3769 183.844 99.379C185.322 100.396 187.114 100.966 188.931 101.173C193.506 101.696 198.337 100.258 202.406 98.3841C203.115 98.0574 203.812 97.7088 204.497 97.3421C204.579 97.2949 204.661 97.2513 204.743 97.2077C208.256 95.2725 211.373 92.6002 215.009 90.8392C219.737 88.5518 225.087 87.4734 230.235 88.5045C233.565 89.1726 236.768 90.8065 239.117 93.4098C239.873 94.2486 240.976 95.6465 240.93 96.8846C240.81 96.8846 240.738 96.8301 240.633 96.7648Z" fill="white"/>
</mask>
<g mask="url(#mask29_88_5391)">
<path d="M240.633 96.7648C240.192 96.4961 239.796 96.1439 239.393 95.8098C233.005 90.5051 223.339 89.9351 215.771 93.2428C213.884 94.0707 212.058 95.0038 210.331 96.1076C209.281 96.7793 208.303 97.5236 207.307 98.2571C206.327 98.9796 205.081 99.5387 204.325 100.494C203.892 101.042 203.6 101.743 203.236 102.338C202.863 102.945 202.47 103.54 202.026 104.103C201.038 105.359 199.841 106.328 198.267 106.884C196.893 107.371 195.415 107.494 193.959 107.527C193.344 107.541 192.745 107.567 192.135 107.61C191.808 107.632 191.17 107.708 191.062 107.302C190.983 107.007 192.94 105.236 192.977 104.934C188.878 106.267 184.043 105.337 180.829 102.592C179.454 101.42 178.35 99.9018 177.985 98.1881C177.512 95.966 178.318 93.6567 179.561 91.7215C180.208 90.7157 180.988 89.7645 181.992 89.0637C182.995 88.3629 184.242 87.9236 185.487 88.018C186.732 88.1124 187.952 88.7913 188.488 89.8552C188.756 90.3889 188.848 90.999 188.745 91.5835C188.617 92.3061 188.157 93.0032 187.447 93.3082C185.913 93.9618 183.946 92.6183 182.502 93.4353C181.903 93.7766 181.564 94.4265 181.467 95.08C181.215 96.7611 182.39 98.3769 183.844 99.379C185.322 100.396 187.114 100.966 188.931 101.173C193.506 101.696 198.337 100.258 202.406 98.3841C203.115 98.0574 203.812 97.7088 204.497 97.3421C204.579 97.2949 204.661 97.2513 204.743 97.2077C208.256 95.2725 211.373 92.6002 215.009 90.8392C219.737 88.5518 225.087 87.4734 230.235 88.5045C233.565 89.1726 236.768 90.8065 239.117 93.4098C239.873 94.2486 240.976 95.6465 240.93 96.8846C240.81 96.8846 240.738 96.8301 240.633 96.7648Z" fill="#D2A339"/>
</g>
<mask id="mask30_88_5391" style="mask-type:luminance" maskUnits="userSpaceOnUse" x="228" y="82" width="7" height="9">
<path d="M232.622 90.7449C233.543 90.5088 231.986 88.8423 231.763 88.5591C231.236 87.8838 230.808 86.7364 231.767 86.1809C232.221 85.9194 232.777 85.8904 233.306 85.8396C234.893 85.6798 235.242 84.6559 234.592 83.3306C234.181 82.4955 233.214 82.245 232.308 82.314C229.96 82.4919 228.438 84.1004 228.757 86.3116C229.02 88.1343 230.223 89.5176 231.795 90.5234C232.034 90.6759 232.368 90.8066 232.622 90.7449Z" fill="white"/>
</mask>
<g mask="url(#mask30_88_5391)">
<path d="M232.622 90.7449C233.543 90.5088 231.986 88.8423 231.763 88.5591C231.236 87.8838 230.808 86.7364 231.767 86.1809C232.221 85.9194 232.777 85.8904 233.306 85.8396C234.893 85.6798 235.242 84.6559 234.592 83.3306C234.181 82.4955 233.214 82.245 232.308 82.314C229.96 82.4919 228.438 84.1004 228.757 86.3116C229.02 88.1343 230.223 89.5176 231.795 90.5234C232.034 90.6759 232.368 90.8066 232.622 90.7449Z" fill="#D2A339"/>
</g>
<mask id="mask31_88_5391" style="mask-type:luminance" maskUnits="userSpaceOnUse" x="241" y="96" width="34" height="13">
<path d="M274.605 105.323C271.228 106.605 267.643 105.265 264.365 104.382C264.021 104.292 262.707 103.769 262.402 103.943C262.129 104.099 261.976 105.036 261.737 105.323C261.199 105.973 260.331 106.437 259.469 106.557C258.796 106.652 258.071 106.514 257.545 106.107C257.476 106.053 257.408 105.991 257.385 105.911C257.322 105.697 257.583 105.537 257.787 105.425C259.906 104.255 258.697 101.638 257.117 100.61C254.123 98.6675 250.765 96.8193 247.258 97.8469C243.405 98.9797 241.456 103.674 244.505 106.59C244.908 106.971 245.399 107.305 245.964 107.392C246.529 107.483 247.173 107.276 247.449 106.804C247.774 106.245 247.515 105.544 247.683 104.927C247.987 103.812 249.763 103.489 250.642 104.288C251.521 105.09 251.422 106.554 250.616 107.421C249.81 108.286 248.487 108.602 247.272 108.478C244.115 108.151 241.801 105.076 241.848 102.084C241.855 101.652 241.903 101.22 241.995 100.795C242.29 99.4408 243.128 98.2136 244.299 97.3857C245.669 96.4163 247.425 96.0387 249.116 96.0859C249.321 96.0932 249.525 96.1004 249.728 96.1222C253.018 96.42 256.078 97.8614 258.823 99.6115C260.473 100.425 262.193 101.027 264.095 101.071C265.053 101.093 266.027 101.089 266.969 100.915C267.785 100.766 269.522 99.7712 268.406 98.6675C268.222 98.4859 268.335 98.2136 268.578 98.2208C269.978 98.268 271.42 99.0087 271.848 100.53C271.961 100.933 271.979 101.358 271.886 101.768C271.806 102.124 271.53 102.429 271.452 102.752C272.483 103.104 273.337 103.849 274.339 104.277C274.826 104.484 275.333 105.043 274.605 105.323Z" fill="white"/>
</mask>
<g mask="url(#mask31_88_5391)">
<path d="M274.605 105.323C271.228 106.605 267.643 105.265 264.365 104.382C264.021 104.292 262.707 103.769 262.402 103.943C262.129 104.099 261.976 105.036 261.737 105.323C261.199 105.973 260.331 106.437 259.469 106.557C258.796 106.652 258.071 106.514 257.545 106.107C257.476 106.053 257.408 105.991 257.385 105.911C257.322 105.697 257.583 105.537 257.787 105.425C259.906 104.255 258.697 101.638 257.117 100.61C254.123 98.6675 250.765 96.8193 247.258 97.8469C243.405 98.9797 241.456 103.674 244.505 106.59C244.908 106.971 245.399 107.305 245.964 107.392C246.529 107.483 247.173 107.276 247.449 106.804C247.774 106.245 247.515 105.544 247.683 104.927C247.987 103.812 249.763 103.489 250.642 104.288C251.521 105.09 251.422 106.554 250.616 107.421C249.81 108.286 248.487 108.602 247.272 108.478C244.115 108.151 241.801 105.076 241.848 102.084C241.855 101.652 241.903 101.22 241.995 100.795C242.29 99.4408 243.128 98.2136 244.299 97.3857C245.669 96.4163 247.425 96.0387 249.116 96.0859C249.321 96.0932 249.525 96.1004 249.728 96.1222C253.018 96.42 256.078 97.8614 258.823 99.6115C260.473 100.425 262.193 101.027 264.095 101.071C265.053 101.093 266.027 101.089 266.969 100.915C267.785 100.766 269.522 99.7712 268.406 98.6675C268.222 98.4859 268.335 98.2136 268.578 98.2208C269.978 98.268 271.42 99.0087 271.848 100.53C271.961 100.933 271.979 101.358 271.886 101.768C271.806 102.124 271.53 102.429 271.452 102.752C272.483 103.104 273.337 103.849 274.339 104.277C274.826 104.484 275.333 105.043 274.605 105.323Z" fill="#D2A339"/>
</g>
<mask id="mask32_88_5391" style="mask-type:luminance" maskUnits="userSpaceOnUse" x="242" y="88" width="64" height="20">
<path d="M242.685 96.7648C243.127 96.4961 243.523 96.1439 243.926 95.8098C250.314 90.5051 259.98 89.9351 267.548 93.2428C269.435 94.0707 271.261 95.0038 272.987 96.1076C274.037 96.7793 275.015 97.5236 276.011 98.2571C276.992 98.9796 278.238 99.5387 278.994 100.494C279.427 101.042 279.719 101.743 280.082 102.338C280.455 102.945 280.848 103.54 281.292 104.103C282.28 105.359 283.478 106.328 285.052 106.884C286.426 107.371 287.904 107.494 289.36 107.527C289.975 107.541 290.574 107.567 291.184 107.61C291.511 107.632 292.149 107.708 292.257 107.302C292.336 107.007 290.378 105.236 290.342 104.934C294.441 106.267 299.276 105.337 302.49 102.592C303.865 101.42 304.969 99.9018 305.334 98.1881C305.807 95.966 305.001 93.6567 303.757 91.7215C303.11 90.7157 302.33 89.7645 301.327 89.0637C300.324 88.3629 299.077 87.9236 297.832 88.018C296.586 88.1124 295.366 88.7913 294.831 89.8552C294.562 90.3889 294.471 90.999 294.574 91.5835C294.702 92.3061 295.162 93.0032 295.871 93.3082C297.406 93.9618 299.373 92.6183 300.817 93.4353C301.416 93.7766 301.755 94.4265 301.852 95.08C302.103 96.7611 300.929 98.3769 299.475 99.379C297.996 100.396 296.204 100.966 294.387 101.173C289.813 101.696 284.982 100.258 280.913 98.3841C280.204 98.0574 279.507 97.7088 278.822 97.3421C278.74 97.2949 278.658 97.2513 278.576 97.2077C275.062 95.2725 271.946 92.6002 268.309 90.8392C263.582 88.5518 258.231 87.4734 253.083 88.5045C249.754 89.1726 246.55 90.8065 244.202 93.4098C243.446 94.2486 242.343 95.6465 242.388 96.8846C242.509 96.8846 242.581 96.8301 242.685 96.7648Z" fill="white"/>
</mask>
<g mask="url(#mask32_88_5391)">
<path d="M242.685 96.7648C243.127 96.4961 243.523 96.1439 243.926 95.8098C250.314 90.5051 259.98 89.9351 267.548 93.2428C269.435 94.0707 271.261 95.0038 272.987 96.1076C274.037 96.7793 275.015 97.5236 276.011 98.2571C276.992 98.9796 278.238 99.5387 278.994 100.494C279.427 101.042 279.719 101.743 280.082 102.338C280.455 102.945 280.848 103.54 281.292 104.103C282.28 105.359 283.478 106.328 285.052 106.884C286.426 107.371 287.904 107.494 289.36 107.527C289.975 107.541 290.574 107.567 291.184 107.61C291.511 107.632 292.149 107.708 292.257 107.302C292.336 107.007 290.378 105.236 290.342 104.934C294.441 106.267 299.276 105.337 302.49 102.592C303.865 101.42 304.969 99.9018 305.334 98.1881C305.807 95.966 305.001 93.6567 303.757 91.7215C303.11 90.7157 302.33 89.7645 301.327 89.0637C300.324 88.3629 299.077 87.9236 297.832 88.018C296.586 88.1124 295.366 88.7913 294.831 89.8552C294.562 90.3889 294.471 90.999 294.574 91.5835C294.702 92.3061 295.162 93.0032 295.871 93.3082C297.406 93.9618 299.373 92.6183 300.817 93.4353C301.416 93.7766 301.755 94.4265 301.852 95.08C302.103 96.7611 300.929 98.3769 299.475 99.379C297.996 100.396 296.204 100.966 294.387 101.173C289.813 101.696 284.982 100.258 280.913 98.3841C280.204 98.0574 279.507 97.7088 278.822 97.3421C278.74 97.2949 278.658 97.2513 278.576 97.2077C275.062 95.2725 271.946 92.6002 268.309 90.8392C263.582 88.5518 258.231 87.4734 253.083 88.5045C249.754 89.1726 246.55 90.8065 244.202 93.4098C243.446 94.2486 242.343 95.6465 242.388 96.8846C242.509 96.8846 242.581 96.8301 242.685 96.7648Z" fill="#D2A339"/>
</g>
<mask id="mask33_88_5391" style="mask-type:luminance" maskUnits="userSpaceOnUse" x="248" y="82" width="7" height="9">
<path d="M250.697 90.7449C249.776 90.5088 251.333 88.8423 251.556 88.5591C252.083 87.8838 252.512 86.7364 251.552 86.1809C251.098 85.9194 250.542 85.8904 250.013 85.8396C248.427 85.6798 248.077 84.6559 248.727 83.3306C249.138 82.4955 250.105 82.245 251.012 82.314C253.359 82.4919 254.882 84.1004 254.562 86.3116C254.299 88.1343 253.096 89.5176 251.524 90.5234C251.285 90.6759 250.951 90.8066 250.697 90.7449Z" fill="white"/>
</mask>
<g mask="url(#mask33_88_5391)">
<path d="M250.697 90.7449C249.776 90.5088 251.333 88.8423 251.556 88.5591C252.083 87.8838 252.512 86.7364 251.552 86.1809C251.098 85.9194 250.542 85.8904 250.013 85.8396C248.427 85.6798 248.077 84.6559 248.727 83.3306C249.138 82.4955 250.105 82.245 251.012 82.314C253.359 82.4919 254.882 84.1004 254.562 86.3116C254.299 88.1343 253.096 89.5176 251.524 90.5234C251.285 90.6759 250.951 90.8066 250.697 90.7449Z" fill="#D2A339"/>
</g>
<mask id="mask34_88_5391" style="mask-type:luminance" maskUnits="userSpaceOnUse" x="238" y="84" width="7" height="9">
<path d="M240.523 91.5036C240.772 91.667 241.013 91.8304 241.246 92.0047C241.327 92.0555 241.402 92.1136 241.474 92.1753C241.51 92.1753 241.546 92.1753 241.583 92.1608C241.663 92.1353 241.737 92.0918 241.812 92.0482C242.06 91.8558 242.318 91.6779 242.585 91.5036C243.21 91.0933 244.954 90.044 244.784 89.2197C244.738 88.9946 244.609 88.7877 244.483 88.5916C244.078 87.949 243.672 87.3099 243.267 86.6709C243.064 86.3514 242.861 86.0318 242.658 85.7123C242.377 85.2657 242.257 84.7719 241.712 84.5359C241.479 84.4379 241.295 84.4815 241.119 84.6558C240.836 84.9353 240.664 85.2912 240.482 85.6325C240.29 85.9883 240.059 86.326 239.841 86.6709C239.436 87.3099 239.031 87.949 238.625 88.5916C238.499 88.7877 238.371 88.9946 238.324 89.2197C238.155 90.044 239.898 91.0933 240.523 91.5036Z" fill="white"/>
</mask>
<g mask="url(#mask34_88_5391)">
<path d="M240.523 91.5036C240.772 91.667 241.013 91.8304 241.246 92.0047C241.327 92.0555 241.402 92.1136 241.474 92.1753C241.51 92.1753 241.546 92.1753 241.583 92.1608C241.663 92.1353 241.737 92.0918 241.812 92.0482C242.06 91.8558 242.318 91.6779 242.585 91.5036C243.21 91.0933 244.954 90.044 244.784 89.2197C244.738 88.9946 244.609 88.7877 244.483 88.5916C244.078 87.949 243.672 87.3099 243.267 86.6709C243.064 86.3514 242.861 86.0318 242.658 85.7123C242.377 85.2657 242.257 84.7719 241.712 84.5359C241.479 84.4379 241.295 84.4815 241.119 84.6558C240.836 84.9353 240.664 85.2912 240.482 85.6325C240.29 85.9883 240.059 86.326 239.841 86.6709C239.436 87.3099 239.031 87.949 238.625 88.5916C238.499 88.7877 238.371 88.9946 238.324 89.2197C238.155 90.044 239.898 91.0933 240.523 91.5036Z" fill="#D2A339"/>
</g>
<mask id="mask35_88_5391" style="mask-type:luminance" maskUnits="userSpaceOnUse" x="176" y="108" width="131" height="2">
<path d="M305.987 109.346C305.241 109.186 304.225 109.168 303.287 109.161C280.434 108.961 257.566 108.885 234.704 108.885C230.316 108.881 225.929 108.867 221.542 108.867C214.111 108.867 206.453 108.877 198.936 108.932C195.111 108.957 191.287 108.997 187.465 109.048C185.496 109.074 183.527 109.103 181.56 109.139C180.29 109.161 177.826 109.063 176.957 109.379C177.62 109.531 178.662 109.513 179.493 109.513C202.714 109.513 225.935 109.527 249.155 109.535C258.499 109.538 267.812 109.582 277.144 109.604C286.816 109.629 296.509 109.651 306.139 109.382C306.09 109.368 306.039 109.357 305.987 109.346Z" fill="white"/>
</mask>
<g mask="url(#mask35_88_5391)">
<path d="M305.987 109.346C305.241 109.186 304.225 109.168 303.287 109.161C280.434 108.961 257.566 108.885 234.704 108.885C230.316 108.881 225.929 108.867 221.542 108.867C214.111 108.867 206.453 108.877 198.936 108.932C195.111 108.957 191.287 108.997 187.465 109.048C185.496 109.074 183.527 109.103 181.56 109.139C180.29 109.161 177.826 109.063 176.957 109.379C177.62 109.531 178.662 109.513 179.493 109.513C202.714 109.513 225.935 109.527 249.155 109.535C258.499 109.538 267.812 109.582 277.144 109.604C286.816 109.629 296.509 109.651 306.139 109.382C306.09 109.368 306.039 109.357 305.987 109.346Z" fill="#D2A339"/>
</g>
<mask id="mask36_88_5391" style="mask-type:luminance" maskUnits="userSpaceOnUse" x="172" y="107" width="8" height="4">
<path d="M179.215 109.8C179.367 109.669 179.52 109.542 179.685 109.422C179.731 109.378 179.784 109.338 179.841 109.302L179.83 109.244C179.807 109.2 179.766 109.161 179.724 109.121C179.546 108.99 179.383 108.852 179.221 108.71C178.843 108.376 177.873 107.447 177.108 107.534C176.897 107.556 176.706 107.625 176.521 107.69C175.926 107.901 175.33 108.111 174.734 108.322C174.436 108.427 174.139 108.532 173.841 108.638C173.427 108.783 172.966 108.845 172.748 109.131C172.655 109.255 172.696 109.353 172.856 109.447C173.115 109.596 173.445 109.691 173.761 109.789C174.093 109.894 174.405 110.017 174.724 110.134C175.317 110.351 175.91 110.569 176.503 110.787C176.688 110.856 176.877 110.925 177.088 110.95C177.853 111.045 178.833 110.13 179.215 109.8Z" fill="white"/>
</mask>
<g mask="url(#mask36_88_5391)">
<path d="M179.215 109.8C179.367 109.669 179.52 109.542 179.685 109.422C179.731 109.378 179.784 109.338 179.841 109.302L179.83 109.244C179.807 109.2 179.766 109.161 179.724 109.121C179.546 108.99 179.383 108.852 179.221 108.71C178.843 108.376 177.873 107.447 177.108 107.534C176.897 107.556 176.706 107.625 176.521 107.69C175.926 107.901 175.33 108.111 174.734 108.322C174.436 108.427 174.139 108.532 173.841 108.638C173.427 108.783 172.966 108.845 172.748 109.131C172.655 109.255 172.696 109.353 172.856 109.447C173.115 109.596 173.445 109.691 173.761 109.789C174.093 109.894 174.405 110.017 174.724 110.134C175.317 110.351 175.91 110.569 176.503 110.787C176.688 110.856 176.877 110.925 177.088 110.95C177.853 111.045 178.833 110.13 179.215 109.8Z" fill="#D2A339"/>
</g>
<mask id="mask37_88_5391" style="mask-type:luminance" maskUnits="userSpaceOnUse" x="179" y="108" width="2" height="3">
<path d="M180.842 109.291C180.84 109.72 180.504 110.065 180.09 110.065C179.678 110.061 179.345 109.713 179.348 109.28C179.35 108.852 179.687 108.507 180.1 108.511C180.512 108.514 180.845 108.863 180.842 109.291Z" fill="white"/>
</mask>
<g mask="url(#mask37_88_5391)">
<path d="M180.842 109.291C180.84 109.72 180.504 110.065 180.09 110.065C179.678 110.061 179.345 109.713 179.348 109.28C179.35 108.852 179.687 108.507 180.1 108.511C180.512 108.514 180.845 108.863 180.842 109.291Z" fill="#D2A339"/>
</g>
<mask id="mask38_88_5391" style="mask-type:luminance" maskUnits="userSpaceOnUse" x="300" y="107" width="8" height="4">
<path d="M300.88 109.781C300.728 109.651 300.575 109.524 300.41 109.4C300.365 109.357 300.311 109.32 300.254 109.28L300.265 109.222C300.288 109.182 300.329 109.142 300.371 109.102C300.549 108.968 300.712 108.83 300.874 108.688C301.252 108.354 302.221 107.429 302.987 107.512C303.199 107.537 303.389 107.603 303.574 107.668C304.17 107.879 304.765 108.089 305.361 108.3C305.659 108.405 305.957 108.511 306.254 108.616C306.668 108.765 307.129 108.823 307.347 109.113C307.44 109.233 307.399 109.331 307.239 109.426C306.98 109.578 306.65 109.669 306.334 109.767C306.003 109.872 305.69 109.996 305.372 110.112C304.778 110.33 304.185 110.551 303.592 110.769C303.407 110.834 303.218 110.903 303.007 110.932C302.242 111.027 301.262 110.108 300.88 109.781Z" fill="white"/>
</mask>
<g mask="url(#mask38_88_5391)">
<path d="M300.88 109.781C300.728 109.651 300.575 109.524 300.41 109.4C300.365 109.357 300.311 109.32 300.254 109.28L300.265 109.222C300.288 109.182 300.329 109.142 300.371 109.102C300.549 108.968 300.712 108.83 300.874 108.688C301.252 108.354 302.221 107.429 302.987 107.512C303.199 107.537 303.389 107.603 303.574 107.668C304.17 107.879 304.765 108.089 305.361 108.3C305.659 108.405 305.957 108.511 306.254 108.616C306.668 108.765 307.129 108.823 307.347 109.113C307.44 109.233 307.399 109.331 307.239 109.426C306.98 109.578 306.65 109.669 306.334 109.767C306.003 109.872 305.69 109.996 305.372 110.112C304.778 110.33 304.185 110.551 303.592 110.769C303.407 110.834 303.218 110.903 303.007 110.932C302.242 111.027 301.262 110.108 300.88 109.781Z" fill="#D2A339"/>
</g>
<mask id="mask39_88_5391" style="mask-type:luminance" maskUnits="userSpaceOnUse" x="299" y="108" width="2" height="3">
<path d="M299.254 109.389C299.256 109.818 299.593 110.166 300.006 110.163C300.418 110.159 300.751 109.81 300.748 109.382C300.746 108.954 300.409 108.609 299.997 108.609C299.584 108.612 299.251 108.961 299.254 109.389Z" fill="white"/>
</mask>
<g mask="url(#mask39_88_5391)">
<path d="M299.254 109.389C299.256 109.818 299.593 110.166 300.006 110.163C300.418 110.159 300.751 109.81 300.748 109.382C300.746 108.954 300.409 108.609 299.997 108.609C299.584 108.612 299.251 108.961 299.254 109.389Z" fill="#D2A339"/>
</g>
<mask id="mask40_88_5391" style="mask-type:luminance" maskUnits="userSpaceOnUse" x="247" y="65" width="17" height="17">
<path d="M256.239 79.055C256.135 78.7433 256.087 78.4051 256.093 78.0651C256.111 77.2696 256.429 76.4608 256.975 75.875C257.471 75.3426 258.307 74.8839 258.977 75.0745C259.354 75.1838 259.782 75.5115 259.933 75.9057C260.034 76.1715 260.044 76.4787 259.962 76.7681C259.808 77.3125 259.369 77.4629 259.106 77.8934C258.203 79.3726 259.667 79.5279 260.28 79.3299C260.693 79.1967 261.047 78.9012 261.344 78.5622C264.308 75.1849 259.765 72.7097 257.404 71.8065C254.992 70.887 252.29 70.5635 250.019 69.3051C248.839 68.6494 247.609 67.366 247.594 65.8423C247.782 65.8562 247.97 65.8706 248.161 65.882C248.328 65.9509 248.501 66.0096 248.672 66.071C249.126 66.8862 249.942 67.5833 250.528 68.0399C252.024 69.2045 253.867 69.7626 255.644 70.3275C257.166 70.8087 258.66 71.328 260.058 72.1058C261.261 72.7733 262.72 73.5933 263.395 74.9161C264.423 76.9423 263.484 79.7596 261.442 80.8516C259.48 81.9017 256.96 81.2622 256.239 79.055Z" fill="white"/>
</mask>
<g mask="url(#mask40_88_5391)">
<path d="M256.239 79.055C256.135 78.7433 256.087 78.4051 256.093 78.0651C256.111 77.2696 256.429 76.4608 256.975 75.875C257.471 75.3426 258.307 74.8839 258.977 75.0745C259.354 75.1838 259.782 75.5115 259.933 75.9057C260.034 76.1715 260.044 76.4787 259.962 76.7681C259.808 77.3125 259.369 77.4629 259.106 77.8934C258.203 79.3726 259.667 79.5279 260.28 79.3299C260.693 79.1967 261.047 78.9012 261.344 78.5622C264.308 75.1849 259.765 72.7097 257.404 71.8065C254.992 70.887 252.29 70.5635 250.019 69.3051C248.839 68.6494 247.609 67.366 247.594 65.8423C247.782 65.8562 247.97 65.8706 248.161 65.882C248.328 65.9509 248.501 66.0096 248.672 66.071C249.126 66.8862 249.942 67.5833 250.528 68.0399C252.024 69.2045 253.867 69.7626 255.644 70.3275C257.166 70.8087 258.66 71.328 260.058 72.1058C261.261 72.7733 262.72 73.5933 263.395 74.9161C264.423 76.9423 263.484 79.7596 261.442 80.8516C259.48 81.9017 256.96 81.2622 256.239 79.055Z" fill="#D2A339"/>
</g>
<mask id="mask41_88_5391" style="mask-type:luminance" maskUnits="userSpaceOnUse" x="245" y="52" width="36" height="29">
<path d="M256.758 53.3836C258.002 54.073 259.016 55.3418 259.122 56.8943C259.228 58.4465 258.208 60.2083 256.77 60.5295C255.329 60.8535 253.891 59.2661 254.451 57.7684C254.76 56.9413 255.539 56.3059 255.656 55.4386C255.754 54.7027 255.299 54.0251 254.698 53.7397C254.094 53.4574 253.375 53.5066 252.703 53.6745C247.603 54.9537 245.882 61.7161 248.672 65.6591C251.212 69.2472 255.797 69.4077 260.108 69.2105C262.383 69.1071 265.515 66.9104 264.397 64.1073C264.291 63.8364 264.163 63.4751 264.387 63.2687C264.47 63.1928 264.582 63.1667 264.685 63.1538C265.494 63.0416 266.284 63.379 266.853 63.9466C267.579 64.6753 268.044 65.8096 268.062 66.9272C268.069 67.423 267.502 68.6107 267.643 68.9787C267.799 69.3881 269.442 69.6822 269.836 69.8123C273.613 71.0319 278.023 71.9402 280.247 75.7326C280.727 76.5507 279.821 76.8523 279.2 76.7608C277.926 76.5695 276.552 76.845 275.31 76.5451C275.138 76.9715 275.167 77.5146 274.972 77.9827C274.75 78.5162 274.411 78.996 273.997 79.3838C272.437 80.8489 270.508 80.7192 269.146 79.8151C268.912 79.6564 269.01 79.2656 269.323 79.1809C271.216 78.6712 270.331 76.3284 269.67 75.5986C268.909 74.7566 267.99 74.0838 267.066 73.4537C265.23 72.2053 263.143 71.7234 260.963 71.535C257.036 71.677 253.043 71.2509 249.7 69.3441C247.228 67.9368 245.219 65.3322 245.182 62.203C245.169 60.9998 245.446 59.7855 245.926 58.6527C246.163 58.0973 246.446 57.5639 246.767 57.0609C248.996 53.569 253.522 51.5995 256.758 53.3836Z" fill="white"/>
</mask>
<g mask="url(#mask41_88_5391)">
<path d="M256.758 53.3836C258.002 54.073 259.016 55.3418 259.122 56.8943C259.228 58.4465 258.208 60.2083 256.77 60.5295C255.329 60.8535 253.891 59.2661 254.451 57.7684C254.76 56.9413 255.539 56.3059 255.656 55.4386C255.754 54.7027 255.299 54.0251 254.698 53.7397C254.094 53.4574 253.375 53.5066 252.703 53.6745C247.603 54.9537 245.882 61.7161 248.672 65.6591C251.212 69.2472 255.797 69.4077 260.108 69.2105C262.383 69.1071 265.515 66.9104 264.397 64.1073C264.291 63.8364 264.163 63.4751 264.387 63.2687C264.47 63.1928 264.582 63.1667 264.685 63.1538C265.494 63.0416 266.284 63.379 266.853 63.9466C267.579 64.6753 268.044 65.8096 268.062 66.9272C268.069 67.423 267.502 68.6107 267.643 68.9787C267.799 69.3881 269.442 69.6822 269.836 69.8123C273.613 71.0319 278.023 71.9402 280.247 75.7326C280.727 76.5507 279.821 76.8523 279.2 76.7608C277.926 76.5695 276.552 76.845 275.31 76.5451C275.138 76.9715 275.167 77.5146 274.972 77.9827C274.75 78.5162 274.411 78.996 273.997 79.3838C272.437 80.8489 270.508 80.7192 269.146 79.8151C268.912 79.6564 269.01 79.2656 269.323 79.1809C271.216 78.6712 270.331 76.3284 269.67 75.5986C268.909 74.7566 267.99 74.0838 267.066 73.4537C265.23 72.2053 263.143 71.7234 260.963 71.535C257.036 71.677 253.043 71.2509 249.7 69.3441C247.228 67.9368 245.219 65.3322 245.182 62.203C245.169 60.9998 245.446 59.7855 245.926 58.6527C246.163 58.0973 246.446 57.5639 246.767 57.0609C248.996 53.569 253.522 51.5995 256.758 53.3836Z" fill="#D2A339"/>
</g>
<mask id="mask42_88_5391" style="mask-type:luminance" maskUnits="userSpaceOnUse" x="219" y="65" width="17" height="17">
<path d="M227.558 79.3478C227.643 79.0306 227.673 78.6919 227.645 78.3521C227.584 77.56 227.221 76.7628 226.644 76.2025C226.118 75.6909 225.256 75.2691 224.6 75.4892C224.228 75.6138 223.818 75.9572 223.692 76.3579C223.606 76.6275 223.612 76.9357 223.71 77.2211C223.895 77.7583 224.339 77.8888 224.626 78.306C225.61 79.7477 224.158 79.9652 223.536 79.7928C223.117 79.6762 222.746 79.3974 222.431 79.0707C219.281 75.8214 223.68 73.1568 225.99 72.1556C228.346 71.1343 231.026 70.6985 233.224 69.3458C234.367 68.6424 235.524 67.3087 235.454 65.7858C235.265 65.8078 235.079 65.8274 234.891 65.85C234.727 65.9226 234.558 65.9902 234.388 66.0578C233.981 66.893 233.207 67.6234 232.646 68.1045C231.215 69.3308 229.408 69.9656 227.662 70.6053C226.17 71.1517 224.706 71.7301 223.351 72.5673C222.189 73.2845 220.779 74.1642 220.178 75.517C219.265 77.5817 220.36 80.3576 222.458 81.361C224.476 82.326 226.956 81.5825 227.558 79.3478Z" fill="white"/>
</mask>
<g mask="url(#mask42_88_5391)">
<path d="M227.558 79.3478C227.643 79.0306 227.673 78.6919 227.645 78.3521C227.584 77.56 227.221 76.7628 226.644 76.2025C226.118 75.6909 225.256 75.2691 224.6 75.4892C224.228 75.6138 223.818 75.9572 223.692 76.3579C223.606 76.6275 223.612 76.9357 223.71 77.2211C223.895 77.7583 224.339 77.8888 224.626 78.306C225.61 79.7477 224.158 79.9652 223.536 79.7928C223.117 79.6762 222.746 79.3974 222.431 79.0707C219.281 75.8214 223.68 73.1568 225.99 72.1556C228.346 71.1343 231.026 70.6985 233.224 69.3458C234.367 68.6424 235.524 67.3087 235.454 65.7858C235.265 65.8078 235.079 65.8274 234.891 65.85C234.727 65.9226 234.558 65.9902 234.388 66.0578C233.981 66.893 233.207 67.6234 232.646 68.1045C231.215 69.3308 229.408 69.9656 227.662 70.6053C226.17 71.1517 224.706 71.7301 223.351 72.5673C222.189 73.2845 220.779 74.1642 220.178 75.517C219.265 77.5817 220.36 80.3576 222.458 81.361C224.476 82.326 226.956 81.5825 227.558 79.3478Z" fill="#D2A339"/>
</g>
<mask id="mask43_88_5391" style="mask-type:luminance" maskUnits="userSpaceOnUse" x="203" y="52" width="35" height="30">
<path d="M225.613 53.7282C224.407 54.4669 223.466 55.7769 223.446 57.3322C223.427 58.8875 224.543 60.604 225.998 60.8679C227.456 61.1293 228.803 59.4821 228.161 58.0092C227.805 57.1976 226.992 56.5936 226.827 55.7348C226.689 55.0026 227.103 54.3066 227.69 53.9984C228.276 53.6902 228.997 53.7063 229.677 53.8487C234.844 54.9086 236.937 61.5911 234.372 65.6461C232.036 69.3392 227.465 69.692 223.149 69.6766C220.87 69.6698 217.619 67.6061 218.578 64.7608C218.671 64.4873 218.776 64.12 218.543 63.9247C218.456 63.8517 218.344 63.8307 218.239 63.8205C217.426 63.7435 216.653 64.1129 216.119 64.7053C215.436 65.4634 215.031 66.6147 215.077 67.7322C215.095 68.2285 215.729 69.39 215.609 69.7645C215.476 70.1803 213.853 70.5437 213.464 70.6891C209.763 72.0669 205.405 73.1599 203.396 77.0424C202.963 77.8799 203.886 78.1416 204.499 78.0237C205.761 77.7792 207.149 77.9949 208.372 77.6441C208.567 78.0639 208.569 78.608 208.789 79.067C209.042 79.5894 209.409 80.056 209.842 80.4256C211.481 81.822 213.403 81.6101 214.712 80.6502C214.939 80.4836 214.817 80.0963 214.501 80.0243C212.581 79.5937 213.337 77.219 213.954 76.462C214.667 75.5886 215.548 74.8798 216.436 74.2107C218.198 72.8845 220.255 72.3171 222.421 72.0353C226.355 72.0108 230.32 71.4157 233.551 69.3729C235.941 67.8625 237.803 65.1747 237.664 62.0497C237.613 60.8469 237.267 59.6456 236.723 58.5325C236.457 57.9916 236.144 57.4706 235.796 56.9802C233.376 53.5853 228.744 51.8123 225.613 53.7282Z" fill="white"/>
</mask>
<g mask="url(#mask43_88_5391)">
<path d="M225.613 53.7282C224.407 54.4669 223.466 55.7769 223.446 57.3322C223.427 58.8875 224.543 60.604 225.998 60.8679C227.456 61.1293 228.803 59.4821 228.161 58.0092C227.805 57.1976 226.992 56.5936 226.827 55.7348C226.689 55.0026 227.103 54.3066 227.69 53.9984C228.276 53.6902 228.997 53.7063 229.677 53.8487C234.844 54.9086 236.937 61.5911 234.372 65.6461C232.036 69.3392 227.465 69.692 223.149 69.6766C220.87 69.6698 217.619 67.6061 218.578 64.7608C218.671 64.4873 218.776 64.12 218.543 63.9247C218.456 63.8517 218.344 63.8307 218.239 63.8205C217.426 63.7435 216.653 64.1129 216.119 64.7053C215.436 65.4634 215.031 66.6147 215.077 67.7322C215.095 68.2285 215.729 69.39 215.609 69.7645C215.476 70.1803 213.853 70.5437 213.464 70.6891C209.763 72.0669 205.405 73.1599 203.396 77.0424C202.963 77.8799 203.886 78.1416 204.499 78.0237C205.761 77.7792 207.149 77.9949 208.372 77.6441C208.567 78.0639 208.569 78.608 208.789 79.067C209.042 79.5894 209.409 80.056 209.842 80.4256C211.481 81.822 213.403 81.6101 214.712 80.6502C214.939 80.4836 214.817 80.0963 214.501 80.0243C212.581 79.5937 213.337 77.219 213.954 76.462C214.667 75.5886 215.548 74.8798 216.436 74.2107C218.198 72.8845 220.255 72.3171 222.421 72.0353C226.355 72.0108 230.32 71.4157 233.551 69.3729C235.941 67.8625 237.803 65.1747 237.664 62.0497C237.613 60.8469 237.267 59.6456 236.723 58.5325C236.457 57.9916 236.144 57.4706 235.796 56.9802C233.376 53.5853 228.744 51.8123 225.613 53.7282Z" fill="#D2A339"/>
</g>
<mask id="mask44_88_5391" style="mask-type:luminance" maskUnits="userSpaceOnUse" x="237" y="63" width="9" height="20">
<path d="M241.326 63.2974C241.326 63.2974 232.307 82.3203 241.295 82.4274C250.472 82.5369 241.858 62.156 241.326 63.2974Z" fill="white"/>
</mask>
<g mask="url(#mask44_88_5391)">
<path d="M241.326 63.2974C241.326 63.2974 232.307 82.3203 241.295 82.4274C250.472 82.5369 241.858 62.156 241.326 63.2974Z" fill="#D2A339"/>
</g>
<mask id="mask45_88_5391" style="mask-type:luminance" maskUnits="userSpaceOnUse" x="192" y="43" width="46" height="22">
<path d="M192.374 49.4467C197.273 53.4789 203.458 50.2342 207.105 47.5548C210.913 44.7579 215.371 43.1605 219.927 43.1806C236.243 43.2552 237.544 61.816 237.544 61.816C237.544 61.816 227.683 43.9097 215.156 49.5052C215.156 49.5052 206.439 52.9075 204.571 64.0641C204.571 64.0641 202.026 58.6634 205.533 53.7307C202.352 55.0874 197.152 56.2879 192.374 49.4467Z" fill="white"/>
</mask>
<g mask="url(#mask45_88_5391)">
<path d="M192.374 49.4467C197.273 53.4789 203.458 50.2342 207.105 47.5548C210.913 44.7579 215.371 43.1605 219.927 43.1806C236.243 43.2552 237.544 61.816 237.544 61.816C237.544 61.816 227.683 43.9097 215.156 49.5052C215.156 49.5052 206.439 52.9075 204.571 64.0641C204.571 64.0641 202.026 58.6634 205.533 53.7307C202.352 55.0874 197.152 56.2879 192.374 49.4467Z" fill="#D2A339"/>
</g>
<mask id="mask46_88_5391" style="mask-type:luminance" maskUnits="userSpaceOnUse" x="245" y="42" width="45" height="22">
<path d="M289.765 47.8947C285.095 52.1298 278.736 49.1482 274.946 46.629C270.987 43.9924 266.443 42.5849 261.894 42.7985C245.601 43.5601 245.336 62.1555 245.336 62.1555C245.336 62.1555 254.187 43.8559 267.011 48.9148C267.011 48.9148 275.91 51.9439 278.397 63.0103C278.397 63.0103 280.636 57.5074 276.857 52.7293C280.112 53.9511 285.373 54.9309 289.765 47.8947Z" fill="white"/>
</mask>
<g mask="url(#mask46_88_5391)">
<path d="M289.765 47.8947C285.095 52.1298 278.736 49.1482 274.946 46.629C270.987 43.9924 266.443 42.5849 261.894 42.7985C245.601 43.5601 245.336 62.1555 245.336 62.1555C245.336 62.1555 254.187 43.8559 267.011 48.9148C267.011 48.9148 275.91 51.9439 278.397 63.0103C278.397 63.0103 280.636 57.5074 276.857 52.7293C280.112 53.9511 285.373 54.9309 289.765 47.8947Z" fill="#D2A339"/>
</g>
<mask id="mask47_88_5391" style="mask-type:luminance" maskUnits="userSpaceOnUse" x="226" y="36" width="32" height="19">
<path d="M257.019 41.1297C251.296 39.7903 245.814 46.729 242.409 52.3556C242.001 53.0361 241.626 53.6943 241.283 54.3081C240.996 53.6683 240.662 52.9834 240.298 52.2965C237.267 46.4172 232.245 39.0469 226.45 39.9354C231.173 33.1074 238.047 37.0211 241.468 48.578C245.639 37.3171 252.749 33.9482 257.019 41.1297Z" fill="white"/>
</mask>
<g mask="url(#mask47_88_5391)">
<path d="M257.019 41.1297C251.296 39.7903 245.814 46.729 242.409 52.3556C242.001 53.0361 241.626 53.6943 241.283 54.3081C240.996 53.6683 240.662 52.9834 240.298 52.2965C237.267 46.4172 232.245 39.0469 226.45 39.9354C231.173 33.1074 238.047 37.0211 241.468 48.578C245.639 37.3171 252.749 33.9482 257.019 41.1297Z" fill="#D2A339"/>
</g>
<mask id="mask48_88_5391" style="mask-type:luminance" maskUnits="userSpaceOnUse" x="239" y="29" width="6" height="11">
<path d="M239.43 37.4339C238.884 33.9201 241.929 29.3291 241.929 29.3291C241.929 29.3291 244.674 34.1483 243.902 37.6086C243.327 40.1874 239.839 40.0507 239.43 37.4339Z" fill="white"/>
</mask>
<g mask="url(#mask48_88_5391)">
<path d="M239.43 37.4339C238.884 33.9201 241.929 29.3291 241.929 29.3291C241.929 29.3291 244.674 34.1483 243.902 37.6086C243.327 40.1874 239.839 40.0507 239.43 37.4339Z" fill="#D2A339"/>
</g>
<mask id="mask49_88_5391" style="mask-type:luminance" maskUnits="userSpaceOnUse" x="238" y="51" width="7" height="7">
<path d="M243.248 52.1094C242.061 50.9785 240.187 51.0185 239.064 52.198C237.941 53.3776 237.993 55.2506 239.18 56.3814C240.368 57.512 242.241 57.4723 243.365 56.2928C244.488 55.1132 244.436 53.2399 243.248 52.1094Z" fill="white"/>
</mask>
<g mask="url(#mask49_88_5391)">
<path d="M243.248 52.1094C242.061 50.9785 240.187 51.0185 239.064 52.198C237.941 53.3776 237.993 55.2506 239.18 56.3814C240.368 57.512 242.241 57.4723 243.365 56.2928C244.488 55.1132 244.436 53.2399 243.248 52.1094Z" fill="#D2A339"/>
</g>
<mask id="mask50_88_5391" style="mask-type:luminance" maskUnits="userSpaceOnUse" x="194" y="67" width="6" height="7">
<path d="M198.935 72.7208C197.865 73.8446 196.081 73.8838 194.95 72.8068C193.819 71.7299 193.77 69.9453 194.84 68.8215C195.908 67.7005 197.692 67.6614 198.823 68.7383C199.955 69.8153 200.003 71.5998 198.935 72.7208Z" fill="white"/>
</mask>
<g mask="url(#mask50_88_5391)">
<path d="M198.935 72.7208C197.865 73.8446 196.081 73.8838 194.95 72.8068C193.819 71.7299 193.77 69.9453 194.84 68.8215C195.908 67.7005 197.692 67.6614 198.823 68.7383C199.955 69.8153 200.003 71.5998 198.935 72.7208Z" fill="#D2A339"/>
</g>
<mask id="mask51_88_5391" style="mask-type:luminance" maskUnits="userSpaceOnUse" x="280" y="66" width="6" height="6">
<path d="M284.912 70.9065C283.842 72.0303 282.06 72.0664 280.929 70.9897C279.798 69.9128 279.746 68.1307 280.816 67.0069C281.887 65.8831 283.669 65.8471 284.8 66.924C285.931 68.0006 285.982 69.7827 284.912 70.9065Z" fill="white"/>
</mask>
<g mask="url(#mask51_88_5391)">
<path d="M284.912 70.9065C283.842 72.0303 282.06 72.0664 280.929 70.9897C279.798 69.9128 279.746 68.1307 280.816 67.0069C281.887 65.8831 283.669 65.8471 284.8 66.924C285.931 68.0006 285.982 69.7827 284.912 70.9065Z" fill="#D2A339"/>
</g>
</svg>
