<svg width="200" height="200" viewBox="0 0 200 200" fill="none" xmlns="http://www.w3.org/2000/svg">
<path d="M61.3653 94.1297L64.5835 102.045H58.1623L61.3653 94.1297Z" fill="#E5AA08"/>
<path d="M78.8786 101.15C79.0702 101.188 79.268 101.22 79.4722 101.245C79.8851 101.297 80.298 101.323 80.7109 101.323C82.2937 101.323 83.4636 100.918 84.2206 100.11C84.9948 99.3011 85.3819 98.071 85.3819 96.4194C85.3819 94.7849 85.0206 93.5806 84.298 92.8064C83.5754 92.0151 82.4571 91.628 80.9431 91.6452H78.8786V101.15Z" fill="#E5AA08"/>
<path d="M96.3159 101.245C96.1118 101.22 95.9139 101.188 95.7224 101.15V91.6452H97.7869C99.3009 91.628 100.419 92.0151 101.142 92.8064C101.864 93.5806 102.226 94.7849 102.226 96.4194C102.226 98.071 101.839 99.3011 101.064 100.11C100.307 100.918 99.1374 101.323 97.5546 101.323C97.1417 101.323 96.7288 101.297 96.3159 101.245Z" fill="#E5AA08"/>
<path d="M82.8736 145.903C81.9962 146.66 80.9639 147.039 79.7768 147.039C78.6585 147.039 77.6435 146.677 76.7317 145.955C75.837 145.215 75.1231 144.183 74.5897 142.858C74.0564 141.533 73.7897 139.976 73.7897 138.187C73.7897 136.415 74.0306 134.858 74.5123 133.516C75.0112 132.174 75.6994 131.125 76.5768 130.368C77.4542 129.611 78.4865 129.232 79.6736 129.232C80.7919 129.232 81.7983 129.602 82.6929 130.342C83.6048 131.065 84.3273 132.088 84.8607 133.413C85.394 134.72 85.6607 136.277 85.6607 138.084C85.6607 139.856 85.4112 141.413 84.9123 142.755C84.4306 144.097 83.751 145.146 82.8736 145.903Z" fill="#E5AA08"/>
<path fill-rule="evenodd" clip-rule="evenodd" d="M24 0C10.7452 0 0 10.7452 0 24V176C0 189.255 10.7452 200 24 200H176C189.255 200 200 189.255 200 176V24C200 10.7452 189.255 0 176 0H24ZM74.3361 70.6516V71.271C74.8178 71.2366 75.463 71.2194 76.2716 71.2194C77.0802 71.2021 77.9662 71.1936 78.9296 71.1936C79.8243 71.1936 80.6759 71.2021 81.4845 71.2194C82.3103 71.2194 82.9726 71.2366 83.4716 71.271V70.6516C82.5425 70.6 81.8458 70.514 81.3812 70.3935C80.9167 70.2731 80.6071 70.0409 80.4522 69.6968C80.2974 69.3527 80.22 68.8452 80.22 68.1742V53.6968H81.7942C82.3791 53.6968 82.878 53.7742 83.2909 53.929C83.721 54.0667 84.0909 54.3247 84.4006 54.7032C84.7103 55.0817 84.9855 55.6065 85.2264 56.2774C85.4673 56.9312 85.6995 57.7742 85.9232 58.8064H86.5683C86.4307 57.8086 86.3189 56.828 86.2329 55.8645C86.164 54.9011 86.121 53.9462 86.1038 53C85.3985 53.0172 84.6157 53.0344 83.7554 53.0516C82.9124 53.0688 82.0694 53.0774 81.2264 53.0774H76.5296C75.6694 53.0774 74.8264 53.0688 74.0006 53.0516C73.1748 53.0344 72.4092 53.0172 71.7038 53C71.7038 53.9462 71.6694 54.9011 71.6006 55.8645C71.5318 56.8108 71.4114 57.7914 71.2393 58.8064H71.8845C72.1942 57.4301 72.5124 56.3806 72.8393 55.6581C73.1662 54.9183 73.5791 54.4108 74.078 54.1355C74.5942 53.843 75.2393 53.6968 76.0135 53.6968H77.6135V68.1742C77.6135 68.8452 77.5361 69.3527 77.3812 69.6968C77.2264 70.0409 76.9081 70.2731 76.4264 70.3935C75.9619 70.514 75.2651 70.6 74.3361 70.6516ZM100.477 70.6516V71.271C100.873 71.2366 101.397 71.2194 102.051 71.2194C102.722 71.2021 103.453 71.1936 104.245 71.1936C105.139 71.1936 105.931 71.2021 106.619 71.2194C107.307 71.2194 107.858 71.2366 108.271 71.271V70.6516C107.479 70.6 106.886 70.5226 106.49 70.4194C106.111 70.2989 105.862 70.0925 105.742 69.8C105.621 69.4903 105.561 69.0344 105.561 68.4323V55.8387C105.561 55.2366 105.621 54.7892 105.742 54.4968C105.862 54.1871 106.111 53.972 106.49 53.8516C106.886 53.7312 107.479 53.6538 108.271 53.6194V53C107.858 53.0172 107.307 53.0344 106.619 53.0516C105.931 53.0688 105.139 53.0774 104.245 53.0774C103.453 53.0774 102.722 53.0688 102.051 53.0516C101.397 53.0344 100.873 53.0172 100.477 53V53.6194C101.217 53.6538 101.759 53.7312 102.103 53.8516C102.447 53.972 102.671 54.1871 102.774 54.4968C102.894 54.7892 102.954 55.2366 102.954 55.8387V61.7742H94.1286V55.8387C94.1286 55.2366 94.1802 54.7892 94.2835 54.4968C94.3867 54.1871 94.6189 53.972 94.9802 53.8516C95.3415 53.7312 95.8835 53.6538 96.606 53.6194V53C96.2104 53.0172 95.677 53.0344 95.0061 53.0516C94.3523 53.0688 93.6297 53.0774 92.8383 53.0774C91.9437 53.0774 91.1523 53.0688 90.4641 53.0516C89.7759 53.0344 89.2254 53.0172 88.8125 53V53.6194C89.6039 53.6538 90.1888 53.7312 90.5673 53.8516C90.963 53.972 91.2211 54.1871 91.3415 54.4968C91.462 54.7892 91.5222 55.2366 91.5222 55.8387V68.4323C91.5222 69.0344 91.462 69.4903 91.3415 69.8C91.2211 70.0925 90.9716 70.2989 90.5931 70.4194C90.2146 70.5226 89.6211 70.6 88.8125 70.6516V71.271C89.2082 71.2366 89.7501 71.2194 90.4383 71.2194C91.1265 71.2021 91.9179 71.1936 92.8125 71.1936C93.6211 71.1936 94.3523 71.2021 95.0061 71.2194C95.677 71.2194 96.2104 71.2366 96.606 71.271V70.6516C95.8835 70.6 95.3415 70.5226 94.9802 70.4194C94.6189 70.2989 94.3867 70.0839 94.2835 69.7742C94.1802 69.4645 94.1286 69.0172 94.1286 68.4323V62.3935H102.954V68.4323C102.954 69.0344 102.894 69.4903 102.774 69.8C102.653 70.0925 102.421 70.2989 102.077 70.4194C101.733 70.5226 101.2 70.6 100.477 70.6516ZM111.062 71.271V70.6516C111.837 70.6172 112.413 70.5484 112.792 70.4452C113.187 70.3247 113.445 70.1097 113.566 69.8C113.703 69.4903 113.772 69.0344 113.772 68.4323V55.8387C113.772 55.2194 113.703 54.7634 113.566 54.471C113.445 54.1613 113.187 53.9462 112.792 53.8258C112.413 53.7054 111.837 53.6366 111.062 53.6194V53C111.94 53.0172 113.084 53.0344 114.495 53.0516C115.923 53.0688 117.583 53.0774 119.475 53.0774H121.282C121.901 53.0774 122.503 53.0688 123.088 53.0516C123.673 53.0344 124.215 53.0172 124.714 53C124.714 53.8258 124.749 54.6516 124.817 55.4774C124.886 56.286 124.989 57.0946 125.127 57.9032H124.482C124.207 56.7849 123.906 55.9247 123.579 55.3226C123.252 54.7032 122.83 54.2817 122.314 54.0581C121.815 53.8172 121.153 53.6968 120.327 53.6968H116.379V61.7742H118.469C119.432 61.7742 120.138 61.5075 120.585 60.9742C121.05 60.4409 121.351 59.529 121.488 58.2387H122.056C121.987 59.271 121.953 60.0624 121.953 60.6129C121.97 61.1462 121.979 61.6366 121.979 62.0839V63.1936C121.996 63.5548 122.013 63.9505 122.03 64.3806C122.065 64.8108 122.099 65.3269 122.133 65.929H121.566C121.48 65.0344 121.325 64.329 121.101 63.8129C120.878 63.2968 120.551 62.9355 120.121 62.729C119.708 62.5054 119.157 62.3935 118.469 62.3935H116.379V68.4581C116.379 69.0602 116.43 69.5161 116.533 69.8258C116.637 70.1183 116.843 70.3161 117.153 70.4194C117.463 70.5226 117.936 70.5742 118.572 70.5742H119.837C120.955 70.5742 121.858 70.4194 122.546 70.1097C123.252 69.8 123.828 69.2495 124.275 68.4581C124.74 67.6667 125.17 66.5398 125.566 65.0774H126.211C126.09 66.1269 125.996 67.1677 125.927 68.2C125.858 69.2151 125.815 70.2387 125.798 71.271C125.024 71.2366 124.121 71.2194 123.088 71.2194C122.056 71.2021 120.843 71.1936 119.45 71.1936C117.574 71.1936 115.923 71.2021 114.495 71.2194C113.084 71.2194 111.94 71.2366 111.062 71.271ZM43.6645 108.652V109.271C44.0602 109.237 44.5849 109.219 45.2387 109.219C45.9097 109.202 46.6409 109.194 47.4323 109.194C48.3269 109.194 49.1183 109.202 49.8064 109.219C50.4946 109.219 51.0452 109.237 51.4581 109.271V108.652C50.6667 108.6 50.0731 108.523 49.6774 108.419C49.2989 108.299 49.0495 108.092 48.929 107.8C48.8086 107.49 48.7484 107.034 48.7484 106.432V93.8387C48.7484 93.2366 48.8086 92.7892 48.929 92.4968C49.0495 92.1871 49.2989 91.972 49.6774 91.8516C50.0731 91.7312 50.6667 91.6538 51.4581 91.6194V91C51.0452 91.0172 50.4946 91.0344 49.8064 91.0516C49.1183 91.0688 48.3269 91.0774 47.4323 91.0774C46.6409 91.0774 45.9097 91.0688 45.2387 91.0516C44.5849 91.0344 44.0602 91.0172 43.6645 91V91.6194C44.4043 91.6538 44.9462 91.7312 45.2903 91.8516C45.6344 91.972 45.8581 92.1871 45.9613 92.4968C46.0817 92.7892 46.1419 93.2366 46.1419 93.8387V99.7742H37.3161V93.8387C37.3161 93.2366 37.3677 92.7892 37.471 92.4968C37.5742 92.1871 37.8064 91.972 38.1677 91.8516C38.529 91.7312 39.071 91.6538 39.7935 91.6194V91C39.3979 91.0172 38.8645 91.0344 38.1936 91.0516C37.5398 91.0688 36.8172 91.0774 36.0258 91.0774C35.1312 91.0774 34.3398 91.0688 33.6516 91.0516C32.9634 91.0344 32.4129 91.0172 32 91V91.6194C32.7914 91.6538 33.3763 91.7312 33.7548 91.8516C34.1505 91.972 34.4086 92.1871 34.529 92.4968C34.6495 92.7892 34.7097 93.2366 34.7097 93.8387V106.432C34.7097 107.034 34.6495 107.49 34.529 107.8C34.4086 108.092 34.1591 108.299 33.7806 108.419C33.4021 108.523 32.8086 108.6 32 108.652V109.271C32.3957 109.237 32.9376 109.219 33.6258 109.219C34.314 109.202 35.1054 109.194 36 109.194C36.8086 109.194 37.5398 109.202 38.1936 109.219C38.8645 109.219 39.3979 109.237 39.7935 109.271V108.652C39.071 108.6 38.529 108.523 38.1677 108.419C37.8064 108.299 37.5742 108.084 37.471 107.774C37.3677 107.465 37.3161 107.017 37.3161 106.432V100.394H46.1419V106.432C46.1419 107.034 46.0817 107.49 45.9613 107.8C45.8409 108.092 45.6086 108.299 45.2645 108.419C44.9204 108.523 44.3871 108.6 43.6645 108.652ZM52.8292 109.271V108.652C53.3626 108.583 53.8099 108.445 54.1712 108.239C54.5497 108.015 54.8851 107.688 55.1776 107.258C55.4873 106.811 55.7798 106.243 56.055 105.555L62.0938 90.7419H62.6873L69.1905 106.665C69.483 107.387 69.8357 107.895 70.2486 108.187C70.6787 108.462 71.3067 108.617 72.1325 108.652V109.271C71.6852 109.254 71.1346 109.237 70.4809 109.219C69.8271 109.202 69.1045 109.194 68.3131 109.194C67.3669 109.194 66.5411 109.202 65.8357 109.219C65.1303 109.237 64.5712 109.254 64.1583 109.271V108.652C65.0013 108.617 65.6206 108.54 66.0163 108.419C66.412 108.282 66.6271 108.067 66.6615 107.774C66.6959 107.465 66.6013 107.026 66.3776 106.458L64.8353 102.665H57.9117L57.1389 104.574C56.7604 105.486 56.5884 106.234 56.6228 106.819C56.6572 107.404 56.9067 107.843 57.3712 108.135C57.8357 108.428 58.5325 108.6 59.4615 108.652V109.271C59.0658 109.254 58.6529 109.245 58.2228 109.245C57.8099 109.228 57.3884 109.219 56.9583 109.219C56.5454 109.202 56.1239 109.194 55.6937 109.194C55.2292 109.194 54.7561 109.202 54.2744 109.219C53.8099 109.219 53.3282 109.237 52.8292 109.271ZM73.5625 108.652V109.271C73.9754 109.254 74.5173 109.237 75.1883 109.219C75.8765 109.202 76.6937 109.194 77.6399 109.194C78.3625 109.194 79.0077 109.202 79.5754 109.219C80.1604 109.219 80.6679 109.228 81.098 109.245C81.5281 109.245 81.8722 109.254 82.1302 109.271V108.652C81.2012 108.6 80.5044 108.523 80.0399 108.419C79.5754 108.299 79.2657 108.092 79.1109 107.8C78.956 107.49 78.8786 107.026 78.8786 106.406V101.774C78.9463 101.787 79.0152 101.8 79.0851 101.813C79.3775 101.865 79.6786 101.899 79.9883 101.916C80.298 101.933 80.6249 101.942 80.9689 101.942C82.4485 101.942 83.7216 101.718 84.7883 101.271C85.8722 100.806 86.7066 100.153 87.2915 99.3097C87.8765 98.4667 88.169 97.4602 88.169 96.2903C88.169 94.6215 87.5926 93.3226 86.4399 92.3935C85.2872 91.4645 83.67 91 81.5883 91C81.2098 91 80.6421 91.0086 79.8851 91.0258C79.1453 91.043 78.2765 91.0516 77.2786 91.0516H75.6528C75.1711 91.0344 74.7496 91.0258 74.3883 91.0258C74.0442 91.0086 73.769 91 73.5625 91V91.6194C74.3367 91.6538 74.913 91.7312 75.2915 91.8516C75.6872 91.972 75.9453 92.1871 76.0657 92.4968C76.2034 92.7892 76.2722 93.2366 76.2722 93.8387V106.432C76.2722 107.034 76.2034 107.49 76.0657 107.8C75.9453 108.092 75.6872 108.299 75.2915 108.419C74.913 108.523 74.3367 108.6 73.5625 108.652ZM90.4062 109.271V108.652C91.1804 108.6 91.7568 108.523 92.1353 108.419C92.531 108.299 92.789 108.092 92.9095 107.8C93.0471 107.49 93.1159 107.034 93.1159 106.432V93.8387C93.1159 93.2366 93.0471 92.7892 92.9095 92.4968C92.789 92.1871 92.531 91.972 92.1353 91.8516C91.7568 91.7312 91.1804 91.6538 90.4062 91.6194V91C90.6127 91 90.888 91.0086 91.2321 91.0258C91.5933 91.0258 92.0149 91.0344 92.4966 91.0516H94.1224C95.1202 91.0516 95.989 91.043 96.7288 91.0258C97.4858 91.0086 98.0536 91 98.4321 91C100.514 91 102.131 91.4645 103.284 92.3935C104.436 93.3226 105.013 94.6215 105.013 96.2903C105.013 97.4602 104.72 98.4667 104.135 99.3097C103.55 100.153 102.716 100.806 101.632 101.271C100.565 101.718 99.2923 101.942 97.8127 101.942C97.4686 101.942 97.1417 101.933 96.8321 101.916C96.5224 101.899 96.2213 101.865 95.9288 101.813L95.8249 101.793L95.7224 101.774V106.406C95.7224 107.026 95.7998 107.49 95.9546 107.8C96.1095 108.092 96.4192 108.299 96.8837 108.419C97.3482 108.523 98.045 108.6 98.974 108.652V109.271C98.7159 109.254 98.3718 109.245 97.9417 109.245C97.5116 109.228 97.0041 109.219 96.4192 109.219C95.8514 109.202 95.2063 109.194 94.4837 109.194C93.5374 109.194 92.7202 109.202 92.0321 109.219C91.3611 109.237 90.8192 109.254 90.4062 109.271ZM107.25 108.652V109.271C107.663 109.254 108.213 109.237 108.902 109.219C109.59 109.202 110.381 109.194 111.276 109.194C112.119 109.194 112.884 109.202 113.573 109.219C114.278 109.237 114.846 109.254 115.276 109.271V108.652C114.484 108.6 113.891 108.523 113.495 108.419C113.117 108.299 112.867 108.092 112.747 107.8C112.626 107.49 112.566 107.034 112.566 106.432V93.8387C112.566 93.2366 112.626 92.7892 112.747 92.4968C112.867 92.1871 113.117 91.972 113.495 91.8516C113.891 91.7312 114.484 91.6538 115.276 91.6194V91C114.846 91.0172 114.278 91.0344 113.573 91.0516C112.884 91.0688 112.119 91.0774 111.276 91.0774C110.381 91.0774 109.59 91.0688 108.902 91.0516C108.213 91.0344 107.663 91.0172 107.25 91V91.6194C108.041 91.6538 108.626 91.7312 109.005 91.8516C109.383 91.972 109.633 92.1871 109.753 92.4968C109.891 92.7892 109.96 93.2366 109.96 93.8387V106.432C109.96 107.034 109.891 107.49 109.753 107.8C109.633 108.092 109.383 108.299 109.005 108.419C108.626 108.523 108.041 108.6 107.25 108.652ZM118.031 109.271V108.652C118.805 108.617 119.382 108.548 119.76 108.445C120.156 108.325 120.414 108.11 120.534 107.8C120.672 107.49 120.741 107.034 120.741 106.432V93.8387C120.741 93.2194 120.672 92.7634 120.534 92.471C120.414 92.1613 120.156 91.9462 119.76 91.8258C119.382 91.7054 118.805 91.6366 118.031 91.6194V91C118.909 91.0172 120.053 91.0344 121.464 91.0516C122.891 91.0688 124.552 91.0774 126.444 91.0774H128.251C128.87 91.0774 129.472 91.0688 130.057 91.0516C130.642 91.0344 131.184 91.0172 131.683 91C131.683 91.8258 131.717 92.6516 131.786 93.4774C131.855 94.286 131.958 95.0946 132.096 95.9032H131.451C131.175 94.7849 130.874 93.9247 130.547 93.3226C130.22 92.7032 129.799 92.2817 129.283 92.0581C128.784 91.8172 128.122 91.6968 127.296 91.6968H123.347V99.7742H125.438C126.401 99.7742 127.107 99.5075 127.554 98.9742C128.018 98.4409 128.319 97.529 128.457 96.2387H129.025C128.956 97.271 128.922 98.0624 128.922 98.6129C128.939 99.1462 128.947 99.6366 128.947 100.084V101.194C128.965 101.555 128.982 101.951 128.999 102.381C129.033 102.811 129.068 103.327 129.102 103.929H128.534C128.448 103.034 128.294 102.329 128.07 101.813C127.846 101.297 127.519 100.935 127.089 100.729C126.676 100.505 126.126 100.394 125.438 100.394H123.347V106.458C123.347 107.06 123.399 107.516 123.502 107.826C123.605 108.118 123.812 108.316 124.122 108.419C124.431 108.523 124.904 108.574 125.541 108.574H126.805C127.924 108.574 128.827 108.419 129.515 108.11C130.221 107.8 130.797 107.249 131.244 106.458C131.709 105.667 132.139 104.54 132.534 103.077H133.18C133.059 104.127 132.965 105.168 132.896 106.2C132.827 107.215 132.784 108.239 132.767 109.271C131.993 109.237 131.089 109.219 130.057 109.219C129.025 109.202 127.812 109.194 126.418 109.194C124.543 109.194 122.891 109.202 121.464 109.219C120.053 109.219 118.909 109.237 118.031 109.271ZM141.001 109.323C141.672 109.529 142.489 109.632 143.453 109.632C145.276 109.632 146.722 109.176 147.788 108.265C148.855 107.353 149.388 106.114 149.388 104.548C149.388 103.275 148.984 102.2 148.175 101.323C147.384 100.445 146.033 99.6194 144.124 98.8452C142.954 98.3634 142.016 97.9075 141.311 97.4774C140.606 97.0301 140.098 96.557 139.788 96.0581C139.496 95.5591 139.35 95.0086 139.35 94.4064C139.35 93.4602 139.651 92.7032 140.253 92.1355C140.872 91.5677 141.724 91.2839 142.808 91.2839C144.201 91.2839 145.345 91.7484 146.24 92.6774C147.152 93.6065 147.668 94.8452 147.788 96.3935H148.433V93.7097C148.451 93.0043 148.468 92.428 148.485 91.9806C148.519 91.5161 148.554 91.0946 148.588 90.7161H147.943C147.874 91.0774 147.762 91.3441 147.608 91.5161C147.47 91.6882 147.289 91.7742 147.066 91.7742C146.773 91.7742 146.429 91.6796 146.033 91.4903C145.655 91.3011 145.173 91.1118 144.588 90.9226C144.021 90.7333 143.298 90.6387 142.421 90.6387C141.354 90.6387 140.425 90.828 139.633 91.2065C138.842 91.5849 138.231 92.1269 137.801 92.8323C137.371 93.5204 137.156 94.3462 137.156 95.3097C137.156 96.1527 137.337 96.9183 137.698 97.6065C138.059 98.2774 138.636 98.8968 139.427 99.4645C140.218 100.015 141.242 100.531 142.498 101.013C143.565 101.426 144.416 101.847 145.053 102.277C145.707 102.708 146.18 103.181 146.472 103.697C146.765 104.196 146.911 104.772 146.911 105.426C146.911 106.51 146.558 107.378 145.853 108.032C145.147 108.669 144.21 108.987 143.04 108.987C141.457 108.987 140.175 108.445 139.195 107.361C138.214 106.26 137.664 104.772 137.543 102.897H136.898C136.898 104.187 136.889 105.262 136.872 106.123C136.872 106.966 136.864 107.654 136.846 108.187C136.829 108.72 136.803 109.176 136.769 109.555H137.414C137.483 109.194 137.586 108.918 137.724 108.729C137.861 108.54 138.051 108.445 138.292 108.445C138.584 108.445 138.945 108.548 139.375 108.755C139.806 108.944 140.347 109.133 141.001 109.323ZM154.867 109.271V108.652C155.796 108.6 156.493 108.514 156.958 108.394C157.439 108.273 157.758 108.041 157.913 107.697C158.067 107.353 158.145 106.845 158.145 106.174V91.6968H156.545C155.771 91.6968 155.125 91.843 154.609 92.1355C154.11 92.4108 153.697 92.9183 153.371 93.6581C153.044 94.3806 152.725 95.4301 152.416 96.8064H151.771C151.943 95.7914 152.063 94.8108 152.132 93.8645C152.201 92.9011 152.235 91.9462 152.235 91C152.94 91.0172 153.706 91.0344 154.532 91.0516C155.358 91.0688 156.201 91.0774 157.061 91.0774H161.758C162.601 91.0774 163.444 91.0688 164.287 91.0516C165.147 91.0344 165.93 91.0172 166.635 91C166.652 91.9462 166.695 92.9011 166.764 93.8645C166.85 94.828 166.962 95.8086 167.1 96.8064H166.454C166.231 95.7742 165.999 94.9312 165.758 94.2774C165.517 93.6065 165.242 93.0817 164.932 92.7032C164.622 92.3247 164.252 92.0667 163.822 91.929C163.409 91.7742 162.91 91.6968 162.325 91.6968H160.751V106.174C160.751 106.845 160.829 107.353 160.983 107.697C161.138 108.041 161.448 108.273 161.913 108.394C162.377 108.514 163.074 108.6 164.003 108.652V109.271C163.504 109.237 162.842 109.219 162.016 109.219C161.207 109.202 160.356 109.194 159.461 109.194C158.497 109.194 157.611 109.202 156.803 109.219C155.994 109.219 155.349 109.237 154.867 109.271ZM75.1317 146.523C76.4392 147.262 77.9618 147.632 79.6994 147.632C81.4198 147.632 82.9338 147.228 84.2413 146.419C85.5661 145.611 86.5983 144.492 87.3381 143.065C88.0779 141.619 88.4478 139.933 88.4478 138.006C88.4478 136.045 88.0865 134.368 87.3639 132.974C86.6413 131.581 85.6263 130.514 84.3187 129.774C83.0112 129.017 81.48 128.639 79.7252 128.639C78.0048 128.639 76.4908 129.043 75.1833 129.852C73.8757 130.66 72.8521 131.787 72.1123 133.232C71.3725 134.66 71.0026 136.338 71.0026 138.265C71.0026 140.209 71.3639 141.886 72.0865 143.297C72.8091 144.69 73.8241 145.766 75.1317 146.523ZM106.09 147.529L95.045 130.652H94.7611V144.071C94.7611 144.708 94.8299 145.206 94.9675 145.568C95.1224 145.929 95.4148 146.187 95.845 146.342C96.2923 146.497 96.9718 146.6 97.8837 146.652V147.271C97.5396 147.237 97.0579 147.219 96.4385 147.219C95.8192 147.202 95.174 147.194 94.503 147.194C93.8665 147.194 93.2729 147.202 92.7224 147.219C92.1718 147.219 91.7331 147.237 91.4062 147.271V146.652C92.1804 146.6 92.7568 146.497 93.1353 146.342C93.531 146.187 93.789 145.929 93.9095 145.568C94.0471 145.206 94.1159 144.716 94.1159 144.097V131.839C94.1159 131.219 94.0471 130.763 93.9095 130.471C93.789 130.178 93.531 129.972 93.1353 129.852C92.7568 129.731 92.1804 129.654 91.4062 129.619V129C91.7503 129.017 92.2062 129.034 92.774 129.052C93.3589 129.069 93.9783 129.077 94.6321 129.077C95.131 129.077 95.5955 129.069 96.0256 129.052C96.4729 129.034 96.8514 129.017 97.1611 129L105.961 142.445H106.245V132.2C106.245 131.546 106.168 131.047 106.013 130.703C105.875 130.342 105.583 130.084 105.135 129.929C104.688 129.757 104.017 129.654 103.122 129.619V129C103.466 129.017 103.948 129.034 104.568 129.052C105.187 129.069 105.823 129.077 106.477 129.077C107.131 129.077 107.733 129.069 108.284 129.052C108.834 129.034 109.273 129.017 109.6 129V129.619C108.843 129.654 108.266 129.757 107.871 129.929C107.492 130.084 107.234 130.342 107.097 130.703C106.959 131.047 106.89 131.538 106.89 132.174V147.529H106.09ZM112.125 146.652V147.271C113.002 147.237 114.147 147.219 115.557 147.219C116.985 147.202 118.637 147.194 120.512 147.194C121.906 147.194 123.119 147.202 124.151 147.219C125.183 147.219 126.086 147.237 126.86 147.271C126.878 146.239 126.921 145.215 126.99 144.2C127.058 143.168 127.153 142.127 127.273 141.077H126.628C126.233 142.54 125.802 143.667 125.338 144.458C124.891 145.249 124.314 145.8 123.609 146.11C122.921 146.419 122.017 146.574 120.899 146.574H119.635C118.998 146.574 118.525 146.523 118.215 146.419C117.906 146.316 117.699 146.118 117.596 145.826C117.493 145.516 117.441 145.06 117.441 144.458V138.394H119.531C120.22 138.394 120.77 138.505 121.183 138.729C121.613 138.935 121.94 139.297 122.164 139.813C122.387 140.329 122.542 141.034 122.628 141.929H123.196C123.162 141.327 123.127 140.811 123.093 140.381C123.076 139.951 123.058 139.555 123.041 139.194V138.084C123.041 137.637 123.033 137.146 123.015 136.613C123.015 136.062 123.05 135.271 123.119 134.239H122.551C122.413 135.529 122.112 136.441 121.648 136.974C121.2 137.508 120.495 137.774 119.531 137.774H117.441V129.697H121.39C122.215 129.697 122.878 129.817 123.377 130.058C123.893 130.282 124.314 130.703 124.641 131.323C124.968 131.925 125.269 132.785 125.544 133.903H126.19C126.052 133.095 125.949 132.286 125.88 131.477C125.811 130.652 125.777 129.826 125.777 129C125.278 129.017 124.736 129.034 124.151 129.052C123.566 129.069 122.964 129.077 122.344 129.077H120.538C118.645 129.077 116.985 129.069 115.557 129.052C114.147 129.034 113.002 129.017 112.125 129V129.619C112.899 129.637 113.476 129.705 113.854 129.826C114.25 129.946 114.508 130.161 114.628 130.471C114.766 130.763 114.835 131.219 114.835 131.839V144.432C114.835 145.034 114.766 145.49 114.628 145.8C114.508 146.11 114.25 146.325 113.854 146.445C113.476 146.548 112.899 146.617 112.125 146.652Z" fill="#E5AA08"/>
</svg>
