<svg width="500" height="501" viewBox="0 0 500 501" fill="none" xmlns="http://www.w3.org/2000/svg">
<path d="M130.026 110.68L130.026 110.68C135.173 104.545 144.321 103.745 150.454 108.892L150.454 108.892L162.712 119.178L163.676 118.029L162.712 119.178C168.847 124.325 169.647 133.471 164.499 139.605L138.787 170.247L138.786 170.247C133.639 176.382 124.494 177.182 118.359 172.035L117.21 171.071L116.245 172.22L74.8509 221.552L74.5 221.97V222.516V441.537V442.679L75.6009 442.983C87.6528 446.309 96.5 457.353 96.5 470.459C96.5 486.199 83.7399 498.959 68 498.959C52.2601 498.959 39.5 486.199 39.5 470.459C39.5 457.353 48.3472 446.309 60.3991 442.983L61.5 442.679V441.537V217.459C61.5 217.363 61.5262 217.276 61.573 217.199L61.6817 217.021L106.288 163.863L107.252 162.714L106.103 161.75C99.968 156.602 99.1678 147.457 104.315 141.322L130.026 110.68Z" fill="black" stroke="#FEB602" stroke-width="3"/>
</svg>
