<svg width="500" height="500" viewBox="0 0 500 500" fill="none" xmlns="http://www.w3.org/2000/svg">
<circle cx="250" cy="250" r="250" fill="#101010"/>
<path d="M399.752 377.496L351.5 341.174V341.177C340.5 333 336.126 333.572 335 334.702C333.751 335.955 335 341.996 342.948 350.686L383.908 393.496C395.5 404.496 405 406.324 410.469 400.496C413.199 397.586 415 388.496 399.752 377.496Z" fill="#FEB602"/>
<path d="M381.231 415.104C377.462 410.713 324.579 353.607 322.759 351.996C320.5 349.996 317.5 349.496 315.307 350.686C299.673 360.846 281.526 367.465 262.001 369.403C262.001 369.403 256.502 370.496 257.001 375.496L261.17 466.132C261.17 467.996 263.5 469.689 266.266 469.404C306.197 465.285 350.857 452.126 381.231 427.233C383.5 425.496 385 419.496 381.231 415.104Z" fill="#FEB602"/>
<path d="M101.553 121.94L149.805 158.261V158.259C160.805 166.436 165.179 165.864 166.305 164.734C167.554 163.481 166.305 157.44 158.357 148.75L117.397 105.94C105.805 94.94 96.3047 93.1112 90.8358 98.94C88.1061 101.849 86.3047 110.94 101.553 121.94Z" fill="#FEB602"/>
<path d="M120.074 84.331C123.843 88.7221 176.725 145.829 178.545 147.44C180.805 149.44 183.805 149.94 185.998 148.75C201.632 138.589 219.779 131.971 239.304 130.032C239.304 130.032 244.803 128.94 244.304 123.94L240.135 33.3033C240.135 31.44 237.805 29.7465 235.039 30.0318C195.107 34.1509 150.448 47.3096 120.074 72.2028C117.805 73.94 116.305 79.94 120.074 84.331Z" fill="#FEB602"/>
<circle cx="250" cy="250" r="90" fill="#FEB602"/>
<circle cx="250" cy="250" r="30" fill="#101010"/>
</svg>
